<?xml version="1.0" encoding="UTF-8"?>
<svg width="112px" height="112px" viewBox="0 0 112 112" version="1.1" xmlns="http://www.w3.org/2000/svg" xmlns:xlink="http://www.w3.org/1999/xlink">
    <!-- Generator: Sketch 46.1 (44463) - http://www.bohemiancoding.com/sketch -->
    <title>Send icon Copy</title>
    <desc>Created with Sketch.</desc>
    <defs>
        <path d="M12.5773275,9.99154111 L12.2928932,9.70710678 C11.9023689,9.31658249 11.9023689,8.68341751 12.2928932,8.29289322 C12.6834175,7.90236893 13.3165825,7.90236893 13.7071068,8.29289322 L15.7071068,10.2928932 C16.0976311,10.6834175 16.0976311,11.3165825 15.7071068,11.7071068 L13.7071068,13.7071068 C13.3165825,14.0976311 12.6834175,14.0976311 12.2928932,13.7071068 C11.9023689,13.3165825 11.9023689,12.6834175 12.2928932,12.2928932 L12.5920964,11.9936901 C9.53384359,11.8963642 8.11238682,10.662426 6.1638202,7.5488959 C6.15603032,7.53701262 6.14850762,7.52498172 6.14125432,7.51281292 C4.43734539,4.78966587 3.47797157,4 1,4 C0.44771525,4 0,3.55228475 0,3 C0,2.44771525 0.44771525,2 1,2 C3.86667221,2 5.34826694,2.88376715 6.99391591,5.18319755 C8.47380383,3.10870129 10.0269205,2.10145043 12.5930883,2.00730189 L12.2928932,1.70710678 C11.9023689,1.31658249 11.9023689,0.683417511 12.2928932,0.292893219 C12.6834175,-0.0976310729 13.3165825,-0.0976310729 13.7071068,0.292893219 L15.7071068,2.29289322 C16.0976311,2.68341751 16.0976311,3.31658249 15.7071068,3.70710678 L13.7071068,5.70710678 C13.3165825,6.09763107 12.6834175,6.09763107 12.2928932,5.70710678 C11.9023689,5.31658249 11.9023689,4.68341751 12.2928932,4.29289322 L12.5758748,4.0099116 C10.5685189,4.10750695 9.51115088,4.93551508 8.23224355,6.92128391 C8.21627175,6.94608343 8.20019102,6.97114038 8.18389589,6.99661719 C9.59929823,9.16432023 10.5571424,9.90656961 12.5773275,9.99154111 Z M5.69757131,10.3017668 C5.44923319,10.5420406 5.2055996,10.7448102 4.96322343,10.906846 C3.88207313,11.6296275 2.58730681,12 1,12 C0.44771525,12 0,11.5522847 0,11 C0,10.4477153 0.44771525,10 1,10 C2.20211506,10 3.10925533,9.74050928 3.85167901,9.24417671 C3.98489516,9.15511771 4.13888048,9.02695994 4.30688809,8.86440805 C4.70380375,8.48038149 5.33688251,8.49083016 5.72090908,8.88774582 C6.10493565,9.28466148 6.09448697,9.91774024 5.69757131,10.3017668 Z" id="path-1"></path>
    </defs>
    <g id="Dashboard" stroke="none" stroke-width="1" fill="none" fill-rule="evenodd">
        <g transform="translate(-764.000000, -1040.000000)" id="Send-and-Exchange">
            <g transform="translate(80.000000, 904.000000)">
                <g id="Exchange" transform="translate(684.000000, 136.000000)">
                    <g id="Send-icon-Copy">
                        <path d="M48,36 L74,36 L74,36 C75.1045695,36 76,36.8954305 76,38 L76,64 L76,64 C76,70.627417 70.627417,76 64,76 L38,76 L38,76 C36.8954305,76 36,75.1045695 36,74 L36,48 L36,48 C36,41.372583 41.372583,36 48,36 Z" id="Rectangle-6" fill="#0092FF"></path>
                        <path d="M46,27 C35.5065898,27 27,35.5065898 27,46 L27,78 C27,81.8659932 30.1340068,85 34,85 L66,85 C76.4934102,85 85,76.4934102 85,66 L85,34 C85,30.1340068 81.8659932,27 78,27 L46,27 Z" id="Rectangle-6-Copy" stroke="#0092FF" stroke-width="2" opacity="0.129999995"></path>
                        <path d="M44,15 C27.9837423,15 15,27.9837423 15,44 L15,80 C15,89.3888407 22.6111593,97 32,97 L68,97 C84.0162577,97 97,84.0162577 97,68 L97,32 C97,22.6111593 89.3888407,15 80,15 L44,15 Z" id="Rectangle-6-Copy-2" stroke="#0092FF" stroke-width="2" opacity="0.0700000003"></path>
                        <path d="M40,1 C18.4608948,1 1,18.4608948 1,40 L1,84 C1,98.9116882 13.0883118,111 28,111 L72,111 C93.5391052,111 111,93.5391052 111,72 L111,28 C111,13.0883118 98.9116882,1 84,1 L40,1 Z" id="Rectangle-6-Copy-3" stroke="#0092FF" stroke-width="2" opacity="0.0299999993"></path>
                        <g id="Shuffle/16/2px-stroke" transform="translate(48.000000, 48.000000)">
                            <rect id="Rectangle-3" x="0" y="0" width="16" height="16"></rect>
                            <g id="🎨-Mixin/Black/16" stroke-width="1" fill-rule="evenodd" transform="translate(0.000000, 1.000000)">
                                <mask id="mask-2" fill="white">
                                    <use xlink:href="#path-1"></use>
                                </mask>
                                <use id="Mask" fill="#0092FF" fill-rule="nonzero" xlink:href="#path-1"></use>
                                <g id="🎨-Mixin/White/16" mask="url(#mask-2)" fill="#FFFFFF">
                                    <g transform="translate(0.000000, -1.000000)" id="Black-Mixin/16">
                                        <rect x="0" y="0" width="16" height="16"></rect>
                                    </g>
                                </g>
                            </g>
                        </g>
                    </g>
                </g>
            </g>
        </g>
    </g>
</svg>