<?xml version="1.0" encoding="UTF-8"?>
<svg width="112px" height="112px" viewBox="0 0 112 112" version="1.1" xmlns="http://www.w3.org/2000/svg" xmlns:xlink="http://www.w3.org/1999/xlink">
    <!-- Generator: Sketch 46.1 (44463) - http://www.bohemiancoding.com/sketch -->
    <title>Send icon</title>
    <desc>Created with Sketch.</desc>
    <defs>
        <path d="M7,3.41421356 L5.70710678,4.70710678 C5.31658249,5.09763107 4.68341751,5.09763107 4.29289322,4.70710678 C3.90236893,4.31658249 3.90236893,3.68341751 4.29289322,3.29289322 L7.29289322,0.292893219 C7.68341751,-0.0976310729 8.31658249,-0.0976310729 8.70710678,0.292893219 L11.7071068,3.29289322 C12.0976311,3.68341751 12.0976311,4.31658249 11.7071068,4.70710678 C11.3165825,5.09763107 10.6834175,5.09763107 10.2928932,4.70710678 L9,3.41421356 L9,9 C9,9.55228475 8.55228475,10 8,10 C7.44771525,10 7,9.55228475 7,9 L7,3.41421356 Z M-4.547e-13,9 C-4.547e-13,8.44771525 0.44771525,8 1,8 C1.55228475,8 2,8.44771525 2,9 L2,11.9951185 C2,12.5504098 2.44965548,13 3.00585866,13 L12.9941413,13 C13.551343,13 14,12.5521357 14,11.9951185 L14,9 C14,8.44771525 14.4477153,8 15,8 C15.5522847,8 16,8.44771525 16,9 L16,11.9951185 C16,13.6574977 14.6551215,15 12.9941413,15 L3.00585866,15 C1.34515095,15 -4.547e-13,13.6550443 -4.547e-13,11.9951185 L-4.547e-13,9 Z" id="path-1"></path>
    </defs>
    <g id="Dashboard" stroke="none" stroke-width="1" fill="none" fill-rule="evenodd">
        <g transform="translate(-288.000000, -1040.000000)" id="Send-and-Exchange">
            <g transform="translate(80.000000, 904.000000)">
                <g id="Send" transform="translate(208.000000, 136.000000)">
                    <g id="Send-icon">
                        <path d="M46,27 C35.5065898,27 27,35.5065898 27,46 L27,78 C27,81.8659932 30.1340068,85 34,85 L66,85 C76.4934102,85 85,76.4934102 85,66 L85,34 C85,30.1340068 81.8659932,27 78,27 L46,27 Z" id="Rectangle-6-Copy" stroke="#0055FF" stroke-width="2" opacity="0.129999995"></path>
                        <path d="M44,15 C27.9837423,15 15,27.9837423 15,44 L15,80 C15,89.3888407 22.6111593,97 32,97 L68,97 C84.0162577,97 97,84.0162577 97,68 L97,32 C97,22.6111593 89.3888407,15 80,15 L44,15 Z" id="Rectangle-6-Copy-2" stroke="#0055FF" stroke-width="2" opacity="0.0700000003"></path>
                        <path d="M40,1 C18.4608948,1 1,18.4608948 1,40 L1,84 C1,98.9116882 13.0883118,111 28,111 L72,111 C93.5391052,111 111,93.5391052 111,72 L111,28 C111,13.0883118 98.9116882,1 84,1 L40,1 Z" id="Rectangle-6-Copy-3" stroke="#0055FF" stroke-width="2" opacity="0.0299999993"></path>
                        <path d="M48,36 L74,36 L74,36 C75.1045695,36 76,36.8954305 76,38 L76,64 L76,64 C76,70.627417 70.627417,76 64,76 L38,76 L38,76 C36.8954305,76 36,75.1045695 36,74 L36,48 L36,48 C36,41.372583 41.372583,36 48,36 Z" id="Rectangle-6" fill="#0055FF"></path>
                        <g id="Send/16/2px-stroke" transform="translate(48.000000, 48.000000)">
                            <g>
                                <rect id="Rectangle" x="0" y="0" width="16" height="16"></rect>
                                <g id="🎨-Mixin/Black/16" transform="translate(0.000000, 1.000000)">
                                    <mask id="mask-2" fill="white">
                                        <use xlink:href="#path-1"></use>
                                    </mask>
                                    <g id="Mask" fill-rule="nonzero"></g>
                                    <g id="🎨-Mixin/White/16" mask="url(#mask-2)" fill="#FFFFFF">
                                        <g transform="translate(0.000000, -1.000000)" id="Black-Mixin/16">
                                            <rect x="0" y="0" width="16" height="16"></rect>
                                        </g>
                                    </g>
                                </g>
                            </g>
                        </g>
                    </g>
                </g>
            </g>
        </g>
    </g>
</svg>