<?xml version="1.0" encoding="UTF-8"?>
<svg width="653px" height="378px" viewBox="0 0 653 378" version="1.1" xmlns="http://www.w3.org/2000/svg" xmlns:xlink="http://www.w3.org/1999/xlink">
    <!-- Generator: Sketch 46.1 (44463) - http://www.bohemiancoding.com/sketch -->
    <title>rate/fee illustration</title>
    <desc>Created with Sketch.</desc>
    <defs>
        <linearGradient x1="-0.555037489%" y1="42.5192565%" x2="98.3881477%" y2="42.5192558%" id="linearGradient-1">
            <stop stop-color="#0C55FB" offset="0%"></stop>
            <stop stop-color="#1290FC" offset="100%"></stop>
        </linearGradient>
        <rect id="path-2" x="0" y="0" width="448" height="16" rx="8"></rect>
        <filter x="-6.1%" y="-146.9%" width="112.3%" height="443.8%" filterUnits="objectBoundingBox" id="filter-3">
            <feOffset dx="0" dy="4" in="SourceAlpha" result="shadowOffsetOuter1"></feOffset>
            <feGaussianBlur stdDeviation="8.5" in="shadowOffsetOuter1" result="shadowBlurOuter1"></feGaussianBlur>
            <feColorMatrix values="0 0 0 0 0.101960784   0 0 0 0 0.250980392   0 0 0 0 0.592156863  0 0 0 0.2 0" type="matrix" in="shadowBlurOuter1"></feColorMatrix>
        </filter>
        <linearGradient x1="0%" y1="50%" x2="84.0657813%" y2="50%" id="linearGradient-4">
            <stop stop-color="#0055FF" offset="0%"></stop>
            <stop stop-color="#1291FC" offset="100%"></stop>
        </linearGradient>
        <path d="M441,4.12601749 C442.725227,4.57006028 444,6.13616057 444,8 L444,8 C444,9.86383943 442.725227,11.4299397 441,11.8739825 L441,4.12601749 Z" id="path-5"></path>
    </defs>
    <g id="Dashboard" stroke="none" stroke-width="1" fill="none" fill-rule="evenodd">
        <g transform="translate(-76.000000, -1581.000000)" id="Send-With-Confidence">
            <g transform="translate(77.000000, 1582.000000)">
                <g id="rate/fee-illustration">
                    <g id="Group-2" opacity="0.0599999987" transform="translate(0.000000, 0.593750)">
                        <path d="M0.803716008,139.342706 C0.803716008,139.342706 4.12399846,215.623284 4.79182373,224.141843 C5.459649,232.660402 7.08238619,240.135767 8.77993145,241.084685 C10.4774767,242.033603 9.49375353,257.519238 12.7680392,228.600503 C16.042325,199.681768 16.600762,171.743328 16.7561499,170.63813 C16.9115377,169.532933 17.4712852,167.025581 20.7442577,171.869579 C24.0172301,176.713577 22.1273288,172.402117 24.7323654,182.442926 C27.337402,192.483735 26.8018939,193.267145 28.720476,202.612979 C30.6390581,211.958813 30.2300888,225.057348 32.7085808,221.296818 C35.1870728,217.536288 35.6447068,196.005019 36.6966915,190.510944 C37.7486762,185.016869 39.4485907,182.029354 40.6848021,179.640357 C41.9210135,177.25136 41.6309322,170.789007 44.6729069,175.096789 C47.7148817,179.404571 45.0935831,123.30479 48.6610176,190.935585 C52.2284522,258.566379 52.5080272,323.994169 52.6491218,326.308463 C52.7902165,328.622757 53.0192743,345.821907 56.6372331,321.764874 C60.2551919,297.707842 59.6500076,277.295995 60.6253437,273.271864 C61.6006798,269.247733 63.003539,287.818823 64.6134481,288.855875 C66.2233573,289.892928 65.8310327,273.660533 68.6015587,278.409889 C71.3720846,283.159245 71.500064,298.021876 72.5896639,302.529052 C73.6792637,307.036227 73.5821146,318.357204 76.5777744,311.403836 C79.5734342,304.450469 79.6008052,286.296259 80.5658849,284.015068 C81.5309647,281.733878 82.1988788,293.716225 84.5539955,292.55018 C86.9091121,291.384136 85.539478,299.248141 88.5420946,280.065959 C91.5447111,260.883776 90.8293258,255.892137 92.5302051,241.594253 C94.2310844,227.296369 96.2282072,214.018826 96.5183157,213.016472 C96.8084241,212.014117 97.0432155,207.213821 100.506427,214.03559 C103.969638,220.857359 101.97692,232.078661 104.494538,228.727884 C107.012155,225.377108 107.145068,205.541824 108.482648,203.419787 C109.820228,201.29775 110.460503,209.641917 112.470747,216.073825 C114.480991,222.505734 114.246814,229.835197 116.458858,228.940195 C118.670902,228.045194 119.545936,214.18014 120.446968,212.846615 C121.348001,211.513091 121.049972,226.56061 124.435079,217.135418 C127.820185,207.710225 126.699515,192.014786 128.423189,190.638326 C130.146864,189.261866 130.778009,203.801105 132.411288,210.765924 C134.044567,217.730744 134.906317,223.578327 136.399399,224.651411 C137.892481,225.724495 139.608124,217.332464 140.38751,216.498466 C141.166897,215.664468 141.581513,214.732921 144.375621,216.116299 C147.169729,217.499677 145.133065,226.897246 148.363731,220.447536 C151.594398,213.997827 151.887505,201.475515 152.35183,200.192576 C152.816155,198.909636 154.324848,199.331699 156.339941,198.409104 C158.355034,197.486509 156.676628,210.964608 160.328052,196.540725 C163.979475,182.116842 163.931125,168.213267 164.316162,166.901371 C164.701199,165.589475 164.945759,161.246823 168.304261,169.364247 C171.662764,177.48167 171.393593,183.77769 172.292372,186.179687 C173.19115,188.581684 172.879063,200.911957 176.280482,190.6808 C179.681902,180.449643 178.11155,160.809924 180.268593,162.187946 C182.425636,163.565968 182.882307,193.017912 184.256704,195.77639 C185.631101,198.534869 187.07223,181.823508 188.244815,178.196598 C189.417399,174.569688 189.319622,166.436822 192.232925,171.105225 C195.146228,175.773627 194.396123,190.259103 196.221036,190.978039 C198.045948,191.696976 198.113231,173.767708 200.209146,174.247508 C202.305061,174.727309 201.920233,180.439344 204.197234,192.803964 C206.474235,205.168584 206.71313,215.647646 208.185344,217.560039 C209.657559,219.472432 210.98186,204.440092 212.173455,203.165002 C213.36505,201.889912 213.578274,210.757775 216.161566,209.024927 C218.744857,207.292079 219.543989,198.636879 220.149676,197.814627 C220.755363,196.992375 222.157984,198.059774 224.137787,198.196794 C226.117591,198.333813 224.444136,187.174641 228.125898,198.36665 C231.80766,209.558659 231.808672,221.521643 232.114008,222.44332 C232.419345,223.364996 232.498182,230.885335 236.102119,222.44332 C239.706056,214.001305 239.698358,204.698279 240.09023,203.759479 C240.482101,202.82068 241.039421,205.874874 244.07834,203.334859 C247.117259,200.794845 246.048053,200.294854 248.066428,197.092748 C250.084803,193.890642 250.40598,192.892471 252.054538,190.6808 C253.703096,188.469129 254.629063,186.858604 256.042649,186.392017 C257.456235,185.925431 258.247566,187.820229 260.030759,188.048066 C261.813953,188.275904 261.949465,187.300964 264.01887,187.411136 C266.088275,187.521308 266.135947,188.233646 268.006981,188.472707 C269.878016,188.711768 268.794068,185.277594 271.995092,188.430253 C275.196115,191.582912 273.335709,188.407286 275.983202,196.328414 C278.630695,204.249543 279.31416,210.77624 279.971313,212.294591 C280.628465,213.812942 282.41656,214.281066 283.959423,214.757469 C285.502287,215.233872 285.022018,216.641997 287.947511,214.757469 C290.873004,212.87294 288.421367,229.8812 291.935622,209.619404 C295.449876,189.357609 293.364735,205.362243 295.923732,168.76975 C298.482729,132.177257 299.341348,99.9366007 299.911843,95.563089 C300.482337,91.1895774 301.452291,97.9929769 303.899953,107.62266 C306.347616,117.252344 305.881084,127.00754 307.888064,126.943432 C309.895045,126.879323 311.194917,108.73882 311.876175,107.367877 C312.557433,105.996934 313.338528,107.651727 315.864286,110.892326 C318.390043,114.132925 316.670567,125.918679 319.852396,117.601532 C323.034225,109.284384 323.553345,91.0075231 323.840507,90.0428683 C324.127668,89.0782136 325.901416,90.6020043 327.828617,90.8072018 C329.755818,91.0123994 328.322094,97.0129853 331.816705,90.8921292 C335.311315,84.7712732 335.25978,77.8668624 335.804815,76.8367862 C336.349851,75.8067099 336.612499,72.7868838 339.792926,75.8176678 C342.973352,78.8484519 342.177305,81.5775415 343.781036,84.4377176 C345.384768,87.2978937 344.914202,82.716973 347.769147,90.0428683 C350.624092,97.3687637 349.680027,105.247818 351.757258,104.904999 C353.834489,104.562181 354.346398,93.0685366 355.745369,88.7265015 C357.14434,84.3844664 358.445346,80.9375591 359.733479,80.1489246 C361.021613,79.3602901 362.367854,83.0793082 363.721566,83.8432311 C365.075279,84.607154 364.540708,87.5517963 367.709678,84.6500283 C370.878647,81.7482602 369.335296,75.3950145 371.697788,76.5395481 C374.06028,77.6840818 374.560653,87.4359 375.685899,88.5141909 C376.811144,89.5924818 376.240594,98.7326852 379.674009,84.1829341 C383.107425,69.633183 382.304236,62.3038948 383.66212,54.7134361 C385.020003,47.1229773 384.834687,57.8383646 387.65023,39.5965102 C390.465774,21.3546558 390.821609,5.83579391 391.638342,3.03563902 C392.455074,0.235484124 393.478064,12.6847884 395.626452,12.2501665 C397.774841,11.8155445 396.891829,-2.94098812 399.614563,1.42203861 C402.337297,5.78506534 402.772063,21.9583566 403.602673,25.0316074 C404.433283,28.1048583 405.366471,31.4076698 407.590784,30.9340059 C409.815097,30.460342 409.564206,27.2157719 411.578894,23.3330838 C413.593582,19.4503957 413.066896,13.818708 415.567005,15.5623054 C418.067114,17.3059028 417.317818,20.3557482 419.555116,28.8957695 C421.792414,37.4357909 423.086475,45.0844413 423.543227,46.0084577 C423.999978,46.9324741 423.643081,3.21773553 427.531337,45.0318036 C431.419593,86.8458717 431.401097,130.471185 431.519448,131.784258 C431.637799,133.097331 432.23279,137.744245 435.507512,133.525255 C438.782234,129.306265 437.561541,127.160944 439.495622,121.508149 C441.429703,115.855353 442.285537,112.585862 443.483733,110.21292 C444.681929,107.839977 444.583601,111.969933 447.471843,105.711807 C450.360086,99.4536811 449.043624,90.8078211 451.459955,92.9303658 C453.876285,95.0529106 454.606751,111.150625 455.448065,112.718252 C456.289379,114.285879 456.766973,112.979212 459.436176,107.792518 C462.105378,102.605824 462.205969,99.4892589 463.424286,97.2191589 C464.642604,94.9490588 465.434653,95.0361629 467.412397,92.9303658 C469.390141,90.8245688 467.936673,103.88461 471.400507,88.7265015 C474.864341,73.5683934 473.748311,59.9379957 475.388619,58.0255651 C477.028927,56.1131344 477.902757,73.1729615 479.376729,79.4270456 C480.850701,85.6811297 482.447933,90.8046466 483.36484,91.8687838 C484.281746,92.9329211 485.527837,89.9763199 487.35295,88.6840365 C489.178064,87.3917531 489.796276,86.7228349 491.341061,86.2211694 C492.885846,85.719504 493.336233,86.146825 495.329171,86.093777 C497.322109,86.0407291 495.745781,78.4033743 499.317282,86.0088588 C502.888782,93.6143433 501.530952,102.313906 503.305393,103.079084 C505.079835,103.844262 506.687378,90.5939124 507.293504,89.4483805 C507.89963,88.3028486 508.571039,86.8502027 511.281614,88.0046317 C513.99219,89.1590608 513.55695,92.5354132 515.269725,92.8454384 C516.982499,93.1554637 516.975182,91.818032 519.257789,89.4483805 C521.540396,87.0787289 520.875081,83.7951831 523.245899,84.5651009 C525.616718,85.3350186 525.203586,92.1143051 527.23401,92.0386399 C529.264434,91.9629748 529.163662,88.4212011 531.222121,84.2678615 C533.280579,80.1145219 532.716744,74.1264311 535.210232,75.9450603 C537.703719,77.7636894 538.366782,88.2791147 539.198342,90.085332 C540.029903,91.8915493 540.546313,89.8686633 543.186453,93.2700689 C545.826593,96.6714745 546.150546,99.2493152 547.174563,100.361441 C548.198581,101.473567 549.085095,101.025624 551.162674,101.932582 C553.240253,102.839541 552.464398,105.001858 555.150784,103.843427 C557.837171,102.684995 558.099308,99.2180694 559.138896,98.4930515 C560.178484,97.7680337 560.828864,97.8035871 563.127006,98.2807409 C565.425148,98.7578947 563.35416,77.9043209 567.115117,100.149121 C570.876074,122.393922 570.263344,139.430085 571.103227,145.457415 C571.943111,151.484744 573.289675,152.488299 575.091338,157.389594 C576.893001,162.290888 576.285952,171.870521 579.079448,167.156154 C581.872945,162.441787 581.404171,152.226286 583.067559,143.928748 C584.730947,135.63121 584.486147,142.415467 587.05567,127.368072 C589.625193,112.320678 589.573124,99.5444848 591.043781,97.2191589 C592.514438,94.893833 594.533701,113.565637 595.031891,114.756489 C595.530082,115.947341 596.879608,116.444688 599.020002,116.285156 C601.160395,116.125623 600.087695,112.109735 603.008066,114.16199 C605.928437,116.214246 605.012438,121.869193 606.996177,121.890316 C608.979915,121.911438 607.442465,89.8099194 610.984287,114.246919 C614.526109,138.683919 614.204457,172.315171 614.972398,176.922695 C615.740338,181.530219 617.724336,163.406067 618.960509,162.103018 C620.196682,160.79997 621.899834,167.844951 622.948619,168.514965 C623.997405,169.184979 624.289229,166.211981 626.93673,167.198609 C629.584231,168.185236 628.608939,168.42976 630.924841,171.487412 C633.240742,174.545064 631.907213,182.898072 634.912951,177.729503 C637.918689,172.560933 637.688094,162.104752 638.901062,157.77176 C640.114029,153.438769 642.889173,149.236649 642.889173,149.236649" id="Stroke-40-Copy" stroke="url(#linearGradient-1)" stroke-width="3" opacity="0.799999952" stroke-linecap="round" stroke-linejoin="round"></path>
                        <path d="M0.803716008,240.367791 C0.803716008,240.367791 4.12399846,292.786303 4.79182373,298.640089 C5.459649,304.493876 7.08238619,309.630799 8.77993145,310.282877 C10.4774767,310.934955 9.49375353,321.576379 12.7680392,301.703993 C16.042325,281.831607 16.600762,262.632861 16.7561499,261.873391 C16.9115377,261.113921 17.4712852,259.390918 20.7442577,262.719618 C24.0172301,266.048318 22.1273288,263.085568 24.7323654,269.985414 C27.337402,276.88526 26.8018939,277.423605 28.720476,283.845878 C30.6390581,290.268151 30.2300888,299.269207 32.7085808,296.685045 C35.1870728,294.100882 35.6447068,279.305018 36.6966915,275.529597 C37.7486762,271.754177 39.4485907,269.701216 40.6848021,268.059544 C41.9210135,266.417872 41.6309322,261.97707 44.6729069,264.937293 C47.7148817,267.897516 45.0935831,229.34685 48.6610176,275.821402 C52.2284522,322.295954 52.5080272,367.256644 52.6491218,368.846981 C52.7902165,370.437318 53.0192743,382.256236 56.6372331,365.724716 C60.2551919,349.193197 59.6500076,335.166577 60.6253437,332.401273 C61.6006798,329.63597 63.003539,342.397657 64.6134481,343.1103 C66.2233573,343.822942 65.8310327,332.668359 68.6015587,335.932023 C71.3720846,339.195687 71.500064,349.408995 72.5896639,352.506237 C73.6792637,355.603479 73.5821146,363.383032 76.5777744,358.604815 C79.5734342,353.826598 79.6008052,341.351382 80.5658849,339.783792 C81.5309647,338.216203 82.1988788,346.450236 84.5539955,345.648953 C86.9091121,344.847671 85.539478,350.25166 88.5420946,337.070042 C91.5447111,323.888423 90.8293258,320.458267 92.5302051,310.633042 C94.2310844,300.807818 96.2282072,291.683751 96.5183157,290.994953 C96.8084241,290.306155 97.0432155,287.007486 100.506427,291.695271 C103.969638,296.383057 101.97692,304.094115 104.494538,301.791527 C107.012155,299.48894 107.145068,285.858522 108.482648,284.4003 C109.820228,282.942078 110.460503,288.676025 112.470747,293.095906 C114.480991,297.515787 114.246814,302.55245 116.458858,301.937423 C118.670902,301.322395 119.545936,291.794603 120.446968,290.878231 C121.348001,289.961859 121.049972,300.302219 124.435079,293.825412 C127.820185,287.348605 126.699515,276.563008 128.423189,275.617132 C130.146864,274.671255 130.778009,284.662334 132.411288,289.448421 C134.044567,294.234508 134.906317,298.252853 136.399399,298.990255 C137.892481,299.727657 139.608124,293.960818 140.38751,293.387711 C141.166897,292.814604 141.581513,292.174464 144.375621,293.125094 C147.169729,294.075724 145.133065,300.533548 148.363731,296.101435 C151.594398,291.669321 151.887505,283.064235 152.35183,282.182624 C152.816155,281.301013 154.324848,281.591047 156.339941,280.957058 C158.355034,280.323069 156.676628,289.584953 160.328052,279.673144 C163.979475,269.761336 163.931125,260.207072 164.316162,259.305563 C164.701199,258.404054 164.945759,255.419869 168.304261,260.998003 C171.662764,266.576137 171.393593,270.902638 172.292372,272.553243 C173.19115,274.203848 172.879063,282.676969 176.280482,275.646319 C179.681902,268.615669 178.11155,255.119641 180.268593,256.06659 C182.425636,257.013539 182.882307,277.252336 184.256704,279.147908 C185.631101,281.043481 187.07223,269.559762 188.244815,267.067421 C189.417399,264.57508 189.319622,258.986334 192.232925,262.194369 C195.146228,265.402403 194.396123,275.356537 196.221036,275.850576 C198.045948,276.344615 198.113231,264.023975 200.209146,264.353684 C202.305061,264.683393 201.920233,268.608592 204.197234,277.105316 C206.474235,285.602039 206.71313,292.803044 208.185344,294.117203 C209.657559,295.431362 210.98186,285.101434 212.173455,284.225217 C213.36505,283.349 213.578274,289.442821 216.161566,288.252042 C218.744857,287.061263 219.543989,281.11358 220.149676,280.548544 C220.755363,279.983509 222.157984,280.717005 224.137787,280.811162 C226.117591,280.905319 224.444136,273.236955 228.125898,280.927884 C231.80766,288.618812 231.808672,296.83954 232.114008,297.472898 C232.419345,298.106256 232.498182,303.274084 236.102119,297.472898 C239.706056,291.671711 239.698358,285.278854 240.09023,284.63373 C240.482101,283.988606 241.039421,286.087388 244.07834,284.34194 C247.117259,282.596492 246.048053,282.252908 248.066428,280.052483 C250.084803,277.852059 250.40598,277.166136 252.054538,275.646319 C253.703096,274.126502 254.629063,273.019781 256.042649,272.699152 C257.456235,272.378523 258.247566,273.680591 260.030759,273.837156 C261.813953,273.993722 261.949465,273.323762 264.01887,273.39947 C266.088275,273.475178 266.135947,273.964683 268.006981,274.128961 C269.878016,274.293239 268.794068,271.933342 271.995092,274.099787 C275.196115,276.266232 273.335709,274.084005 275.983202,279.527249 C278.630695,284.970492 279.31416,289.45551 279.971313,290.498891 C280.628465,291.542272 282.41656,291.863958 283.959423,292.191332 C285.502287,292.518707 285.022018,293.486343 287.947511,292.191332 C290.873004,290.896321 288.421367,302.584063 291.935622,288.660555 C295.449876,274.737048 293.364735,285.735118 295.923732,260.589476 C298.482729,235.443835 299.341348,213.28869 299.911843,210.283299 C300.482337,207.277908 301.452291,211.95307 303.899953,218.570399 C306.347616,225.187728 305.881084,231.891307 307.888064,231.847253 C309.895045,231.803199 311.194917,219.337402 311.876175,218.395317 C312.557433,217.453232 313.338528,218.590373 315.864286,220.817249 C318.390043,223.044125 316.670567,231.143063 319.852396,225.427683 C323.034225,219.712303 323.553345,207.152804 323.840507,206.489912 C324.127668,205.82702 325.901416,206.874139 327.828617,207.015147 C329.755818,207.156155 328.322094,211.279639 331.816705,207.073507 C335.311315,202.867375 335.25978,198.1228 335.804815,197.414952 C336.349851,196.707104 336.612499,194.631939 339.792926,196.714634 C342.973352,198.797329 342.177305,200.672706 343.781036,202.638163 C345.384768,204.603619 344.914202,201.455701 347.769147,206.489912 C350.624092,211.524123 349.680027,216.938454 351.757258,216.702876 C353.834489,216.467298 354.346398,208.569092 355.745369,205.58533 C357.14434,202.601569 358.445346,200.232922 359.733479,199.690988 C361.021613,199.149054 362.367854,201.70469 363.721566,202.229643 C365.075279,202.754596 364.540708,204.778096 367.709678,202.784058 C370.878647,200.79002 369.335296,196.424195 371.697788,197.210696 C374.06028,197.997197 374.560653,204.698454 375.685899,205.439435 C376.811144,206.180415 376.240594,212.461383 379.674009,202.46308 C383.107425,192.464778 382.304236,187.428235 383.66212,182.212221 C385.020003,176.996207 384.834687,184.35961 387.65023,171.824167 C390.465774,159.288723 390.821609,148.624467 391.638342,146.700255 C392.455074,144.776044 393.478064,153.330961 395.626452,153.032297 C397.774841,152.733634 396.891829,142.593235 399.614563,145.591421 C402.337297,148.589607 402.772063,159.703575 403.602673,161.815452 C404.433283,163.92733 405.366471,166.196957 407.590784,165.871464 C409.815097,165.545972 409.564206,163.316367 411.578894,160.64826 C413.593582,157.980153 413.066896,154.110168 415.567005,155.308334 C418.067114,156.5065 417.317818,158.602294 419.555116,164.470828 C421.792414,170.339363 423.086475,175.595365 423.543227,176.230331 C423.999978,176.865297 423.643081,146.825388 427.531337,175.559194 C431.419593,204.292999 431.401097,234.271456 431.519448,235.173774 C431.637799,236.076091 432.23279,239.26936 435.507512,236.370153 C438.782234,233.470946 437.561541,231.996724 439.495622,228.112234 C441.429703,224.227744 442.285537,221.981014 443.483733,220.350375 C444.681929,218.719735 444.583601,221.557759 447.471843,217.257298 C450.360086,212.956837 449.043624,207.015572 451.459955,208.474143 C453.876285,209.932714 454.606751,220.994747 455.448065,222.07199 C456.289379,223.149232 456.766973,222.251316 459.436176,218.687122 C462.105378,215.122928 462.205969,212.981286 463.424286,211.421318 C464.642604,209.861349 465.434653,209.921206 467.412397,208.474143 C469.390141,207.027081 467.936673,216.001684 471.400507,205.58533 C474.864341,195.168977 473.748311,185.802436 475.388619,184.488251 C477.028927,183.174066 477.902757,194.897244 479.376729,199.194927 C480.850701,203.492611 482.447933,207.013391 483.36484,207.744645 C484.281746,208.475899 485.527837,206.444181 487.35295,205.556149 C489.178064,204.668118 489.796276,204.20845 491.341061,203.863716 C492.885846,203.518981 493.336233,203.812627 495.329171,203.776174 C497.322109,203.739721 495.745781,198.491481 499.317282,203.71782 C502.888782,208.944159 501.530952,214.922328 503.305393,215.448143 C505.079835,215.973958 506.687378,206.868578 507.293504,206.081391 C507.89963,205.294205 508.571039,204.295975 511.281614,205.089276 C513.99219,205.882577 513.55695,208.20274 515.269725,208.415783 C516.982499,208.628826 516.975182,207.709769 519.257789,206.081391 C521.540396,204.453014 520.875081,202.196625 523.245899,202.725698 C525.616718,203.25477 525.203586,207.913362 527.23401,207.861367 C529.264434,207.809371 529.163662,205.375534 531.222121,202.521441 C533.280579,199.667347 532.716744,195.552449 535.210232,196.802175 C537.703719,198.051902 538.366782,205.277895 539.198342,206.519092 C540.029903,207.760289 540.546313,206.370202 543.186453,208.707581 C545.826593,211.04496 546.150546,212.816401 547.174563,213.580632 C548.198581,214.344863 549.085095,214.037046 551.162674,214.660289 C553.240253,215.283533 552.464398,216.769436 555.150784,215.973384 C557.837171,215.177333 558.099308,212.79493 559.138896,212.296712 C560.178484,211.798494 560.828864,211.822925 563.127006,212.150816 C565.425148,212.478707 563.35416,198.148541 567.115117,213.43473 C570.876074,228.72092 570.263344,240.427836 571.103227,244.569698 C571.943111,248.711561 573.289675,249.401184 575.091338,252.769257 C576.893001,256.13733 576.285952,262.720265 579.079448,259.480645 C581.872945,256.241025 581.404171,249.221133 583.067559,243.519228 C584.730947,237.817323 584.486147,242.479332 587.05567,232.139058 C589.625193,221.798784 589.573124,213.019236 591.043781,211.421318 C592.514438,209.823399 594.533701,222.654296 595.031891,223.472626 C595.530082,224.290956 596.879608,224.632723 599.020002,224.523096 C601.160395,224.413468 600.087695,221.653829 603.008066,223.064098 C605.928437,224.474368 605.012438,228.360336 606.996177,228.374851 C608.979915,228.389366 607.442465,206.329834 610.984287,223.122459 C614.526109,239.915085 614.204457,263.02582 614.972398,266.19202 C615.740338,269.358219 617.724336,256.903659 618.960509,256.00823 C620.196682,255.1128 621.899834,259.953972 622.948619,260.414393 C623.997405,260.874814 624.289229,258.831828 626.93673,259.509819 C629.584231,260.18781 628.608939,260.355842 630.924841,262.457 C633.240742,264.558159 631.907213,270.298181 634.912951,266.746442 C637.918689,263.194703 637.688094,256.009421 638.901062,253.031874 C640.114029,250.054328 642.889173,247.166713 642.889173,247.166713" id="Stroke-40-Copy-2" stroke="#9BB2CC" stroke-width="3" stroke-linecap="round" stroke-linejoin="round"></path>
                        <circle id="Oval-3" stroke="#0092FF" stroke-width="2" cx="647.571093" cy="143.588808" r="3"></circle>
                    </g>
                    <g id="Fill-Bar" transform="translate(121.000000, 107.000000)">
                        <g id="Group-5" transform="translate(0.000000, 63.000000)">
                            <g id="Rectangle-8">
                                <use fill="black" fill-opacity="1" filter="url(#filter-3)" xlink:href="#path-2"></use>
                                <use fill="#FFFFFF" fill-rule="evenodd" xlink:href="#path-2"></use>
                            </g>
                            <rect id="Rectangle-8-Copy" fill="url(#linearGradient-4)" x="4" y="4" width="440" height="8" rx="4"></rect>
                            <g id="Combined-Shape">
                                <use fill="#00C759" fill-rule="evenodd" xlink:href="#path-5"></use>
                                <path stroke="#FFFFFF" stroke-width="2" d="M441.249258,3.15758049 C443.441439,3.72180864 445,5.7052365 445,8 C445,10.2947635 443.441439,12.2781914 441.249258,12.8424195 L440,13.1639564 L440,2.83604358 L441.249258,3.15758049 Z"></path>
                            </g>
                        </g>
                        <text id="99.25%-to-recipient" font-family="OpenSans-Bold, Open Sans" font-size="14" font-weight="bold" line-spacing="20">
                            <tspan x="8" y="15" fill="#0055FF">99.25%</tspan>
                            <tspan x="56.5693359" y="15" font-family="OpenSans-SemiBold, Open Sans" font-weight="500" fill="#0055FF"> </tspan>
                            <tspan x="8" y="35" font-family="OpenSans-SemiBold, Open Sans" font-weight="500" fill="#9BB2CC">to recipient</tspan>
                        </text>
                        <text id="0.75%-Wyre-fee" font-family="OpenSans-Bold, Open Sans" font-size="14" font-weight="bold" line-spacing="20">
                            <tspan x="399.421875" y="15" fill="#00C759">0.75%</tspan>
                            <tspan x="440" y="15" font-family="OpenSans-SemiBold, Open Sans" font-weight="500" fill="#00C759"> </tspan>
                            <tspan x="380.301758" y="35" font-family="OpenSans-SemiBold, Open Sans" font-weight="500" fill="#9BB2CB">Wyre fee</tspan>
                        </text>
                    </g>
                </g>
            </g>
        </g>
    </g>
</svg>