<svg xmlns="http://www.w3.org/2000/svg" xmlns:xlink="http://www.w3.org/1999/xlink" width="22" height="14" viewBox="0 0 22 14">
  <defs>
    <rect id="a" width="22" height="14" rx="1"/>
  </defs>
  <g fill="none" fill-rule="evenodd">
    <mask id="b" fill="white">
      <use xlink:href="#a"/>
    </mask>
    <use fill="#D8D8D8" xlink:href="#a"/>
    <g fill-rule="nonzero" mask="url(#b)">
      <polygon fill="#00008B" points="0 0 22 0 22 14 0 14"/>
      <polygon fill="#FFFFFF" points="1.8 0 2.147 1.079 3.207 .678 2.58 1.622 3.555 2.201 2.425 2.299 2.581 3.422 1.8 2.6 1.019 3.422 1.175 2.299 .045 2.201 1.02 1.622 .393 .678 1.453 1.079" transform="translate(4.2 7.2)"/>
      <polygon fill="#FFFFFF" points=".857 0 1.022 .514 1.527 .323 1.229 .772 1.693 1.048 1.155 1.095 1.229 1.629 .857 1.238 .485 1.629 .559 1.095 .021 1.048 .486 .772 .187 .323 .692 .514" transform="translate(17.143 9.143)"/>
      <polygon fill="#FFFFFF" points=".857 0 1.022 .514 1.527 .323 1.229 .772 1.693 1.048 1.155 1.095 1.229 1.629 .857 1.238 .485 1.629 .559 1.095 .021 1.048 .486 .772 .187 .323 .692 .514" transform="translate(14.143 4.393)"/>
      <polygon fill="#FFFFFF" points=".857 0 1.022 .514 1.527 .323 1.229 .772 1.693 1.048 1.155 1.095 1.229 1.629 .857 1.238 .485 1.629 .559 1.095 .021 1.048 .486 .772 .187 .323 .692 .514" transform="translate(17.143 1.143)"/>
      <polygon fill="#FFFFFF" points=".857 0 1.022 .514 1.527 .323 1.229 .772 1.693 1.048 1.155 1.095 1.229 1.629 .857 1.238 .485 1.629 .559 1.095 .021 1.048 .486 .772 .187 .323 .692 .514" transform="translate(19.81 3.593)"/>
      <polygon fill="#FFFFFF" points=".5 0 .631 .32 .976 .345 .711 .569 .794 .905 .5 .722 .206 .905 .289 .569 .024 .345 .369 .32" transform="translate(18.7 6)"/>
      <polygon fill="#FFFFFF" points="5 0 7 0 7 2 12 2 12 4 7 4 7 6 5 6 5 4 0 4 0 2 5 2"/>
      <polygon fill="#FFFFFF" points="0 0 1.342 0 12 5.329 12 6 10.658 6 0 .671"/>
      <polygon fill="#FFFFFF" points="0 0 1.342 0 12 5.329 12 6 10.658 6 0 .671" transform="matrix(-1 0 0 1 12 0)"/>
      <polygon fill="#FF0000" points="5.4 0 6.6 0 6.6 2.4 12 2.4 12 3.6 6.6 3.6 6.6 6 5.4 6 5.4 3.6 0 3.6 0 2.4 5.4 2.4"/>
      <path fill="#FF0000" d="M0,0 L4,2 L3.10557278,2 L0,0.447213595 L0,0 Z M12,0 L11.105573,0 L7.10557278,2 L8,2 L12,0 Z"/>
      <path fill="#FF0000" d="M0,0 L4,2 L3.10557278,2 L0,0.447213595 L0,0 Z M12,0 L11.105573,0 L7.10557278,2 L8,2 L12,0 Z" transform="rotate(-180 6 3)"/>
    </g>
  </g>
</svg>
