<?xml version="1.0" encoding="UTF-8"?>
<svg width="38px" height="24px" viewBox="0 0 38 24" version="1.1" xmlns="http://www.w3.org/2000/svg" xmlns:xlink="http://www.w3.org/1999/xlink">
    <!-- Generator: Sketch 43.1 (39012) - http://www.bohemiancoding.com/sketch -->
    <title>Brazil Flag/24-38</title>
    <desc>Created with Sketch.</desc>
    <defs></defs>
    <g id="Current" stroke="none" stroke-width="1" fill="none" fill-rule="evenodd">
        <g id="Rates.2-Flag-Dropdown" transform="translate(-557.000000, -832.000000)">
            <g id="Dropdown" transform="translate(540.000000, 592.000000)">
                <g id="Address-Lookup-Expanded">
                    <g id="Autocomplete-Dropdown">
                        <g id="Brazil-Flag/24-38" transform="translate(17.000000, 240.000000)">
                            <path d="M0,2.00494659 C0,0.897645164 0.90185079,0 2.00285922,0 L35.9971408,0 C37.1032894,0 38,0.897026226 38,2.00494659 L38,21.9950534 C38,23.1023548 37.0981492,24 35.9971408,24 L2.00285922,24 C0.896710617,24 0,23.1029738 0,21.9950534 L0,2.00494659 Z" id="Shape" fill="#229E45"></path>
                            <polygon id="Shape" fill="#F8E509" points="19.0703 21.79675 34.14445 12.01325 18.97905 2.20325 3.8555 12.0367 19.0703 21.7967"></polygon>
                            <path d="M25.6385,12.00025 C25.6385,15.51665 22.78335,18.36725 19.2613,18.36725 C15.7392,18.36725 12.8841,15.51665 12.8841,12.00025 C12.8841,8.48385 15.7393,5.63325 19.2613,5.63325 C22.7834,5.63325 25.63855,8.48385 25.63855,12.00025 L25.6385,12.00025 Z" id="Shape" fill="#2B49A3"></path>
                            <path d="M17.165,15.8137 L16.96785,15.7 L16.7632,15.80125 L16.80905,15.57375 L16.65095,15.40715 L16.87695,15.38065 L16.98315,15.17665 L17.07785,15.38765 L17.30085,15.42815 L17.1336,15.58465 M21.4385,16.89585 L21.2415,16.78215 L21.0369,16.8834 L21.0827,16.6559 L20.9247,16.4893 L21.1507,16.4628 L21.2568,16.2588 L21.3515,16.4698 L21.5745,16.5103 L21.40725,16.6668 M19.5965,15.16715 L19.4263,15.06895 L19.2495,15.15635 L19.2891,14.95985 L19.1526,14.81585 L19.3478,14.793 L19.4395,14.61685 L19.5213,14.7991 L19.71395,14.8341 L19.56945,14.96935 M23.9127,14.5455 L23.7456,14.4491 L23.572,14.535 L23.61085,14.3421 L23.47685,14.20075 L23.6685,14.17825 L23.7585,14.00525 L23.83885,14.18425 L24.028,14.21855 L23.88615,14.3514 M19.5185,13.2515 L19.3215,13.13785 L19.11685,13.2391 L19.16265,13.0116 L19.00455,12.845 L19.23065,12.8185 L19.3368,12.6145 L19.4315,12.8255 L19.6545,12.866 L19.4872,13.0225 M14.2565,11.276 L14.0595,11.1623 L13.8548,11.26355 L13.9006,11.03615 L13.7426,10.8695 L13.9686,10.843 L14.0747,10.639 L14.1694,10.85 L14.3924,10.8905 L14.22515,11.047 M14.8893,13.904 L14.6923,13.79025 L14.4876,13.8915 L14.5334,13.6641 L14.3754,13.4974 L14.6014,13.4709 L14.70755,13.2669 L14.80225,13.4779 L15.02525,13.5184 L14.858,13.675 M21.4557,10.3085 L21.2817,10.20815 L21.1009,10.29755 L21.1414,10.0967 L21.0017,9.9495 L21.2014,9.926 L21.29515,9.74585 L21.3788,9.93225 L21.5758,9.968 L21.42805,10.1063 M21.0948,12.0183 L20.9578,11.9392 L20.8153,12.0096 L20.8473,11.8514 L20.7373,11.7354 L20.89455,11.717 L20.9684,11.5751 L21.0343,11.7219 L21.18945,11.75005 L21.0731,11.85905 M13.96315,14.38015 L13.83165,14.30425 L13.69495,14.37185 L13.72545,14.22 L13.61995,14.10875 L13.77095,14.09105 L13.84175,13.9549 L13.90495,14.0958 L14.05385,14.1228 L13.9422,14.2273 M23.9492,14.9855 L23.842,14.92875 L23.73065,14.97925 L23.75565,14.86575 L23.66965,14.78245 L23.79265,14.7692 L23.85035,14.6673 L23.90185,14.7727 L24.02315,14.7929 L23.93215,14.87105" id="Shape" fill="#FFFFEF"></path>
                            <path d="M13.96315,14.38015 L13.83165,14.30425 L13.69495,14.37185 L13.72545,14.22 L13.61995,14.10875 L13.77095,14.09105 L13.84175,13.9549 L13.90495,14.0958 L14.05385,14.1228 L13.9422,14.2273 M16.05715,14.3797 L15.92565,14.3037 L15.789,14.37135 L15.8195,14.2195 L15.714,14.10825 L15.865,14.09055 L15.9358,13.95445 L15.99905,14.0953 L16.14795,14.1223 L16.0363,14.2268 M15.797,15.07625 L15.6655,15.00035 L15.5288,15.06795 L15.5594,14.91605 L15.4539,14.8048 L15.60475,14.7871 L15.6756,14.6509 L15.73885,14.79175 L15.8877,14.81875 L15.77605,14.92325 M20.1451,13.8082 L20.0136,13.7322 L19.87695,13.79985 L19.90745,13.64805 L19.80195,13.5368 L19.95285,13.51915 L20.0237,13.38295 L20.08695,13.5238 L20.2358,13.5508 L20.12415,13.6553 M18.8692,13.8077 L18.7377,13.7318 L18.601,13.7994 L18.6316,13.64755 L18.5261,13.5363 L18.677,13.51865 L18.74785,13.38245 L18.81105,13.5233 L18.96005,13.5503 L18.84835,13.6548 M15.40835,13.3629 L15.32595,13.3153 L15.24025,13.35765 L15.25945,13.26255 L15.1933,13.19285 L15.2878,13.18175 L15.3323,13.09645 L15.3719,13.1847 L15.4651,13.2017 L15.3951,13.2672 M23.787,15.5364 L23.6555,15.4605 L23.51885,15.528 L23.54945,15.37625 L23.44395,15.26495 L23.5948,15.24725 L23.66565,15.11105 L23.72885,15.2519 L23.87775,15.2789 L23.7661,15.3834 M22.7245,15.6756 L22.6156,15.6126 L22.5024,15.6687 L22.52775,15.5426 L22.44035,15.4502 L22.56535,15.4355 L22.62405,15.3224 L22.67645,15.4394 L22.79975,15.4619 L22.70725,15.54865 M23.2258,15.6635 L23.1243,15.60485 L23.0189,15.65705 L23.0425,15.53985 L22.961,15.45395 L23.0775,15.44025 L23.13215,15.3351 L23.18095,15.44395 L23.29575,15.4648 L23.2096,15.54555 M24.6651,14.4075 L24.56735,14.351 L24.46585,14.4013 L24.48855,14.28845 L24.4102,14.2057 L24.52235,14.1926 L24.575,14.0914 L24.622,14.196 L24.7325,14.2161 L24.6496,14.29375 M22.712,16.3845 L22.5843,16.31475 L22.4517,16.37675 L22.4814,16.23745 L22.3789,16.1353 L22.5254,16.11905 L22.5942,15.99405 L22.65555,16.12335 L22.80005,16.14815 L22.6917,16.24415 M22.71915,16.9565 L22.60265,16.88675 L22.48175,16.94875 L22.50885,16.80945 L22.41535,16.70725 L22.549,16.69105 L22.61175,16.56605 L22.66775,16.69535 L22.7995,16.72015 L22.70065,16.81605 M21.7542,15.6633 L21.65645,15.6068 L21.55485,15.6571 L21.5776,15.54425 L21.4992,15.4616 L21.6113,15.44845 L21.664,15.3472 L21.711,15.45185 L21.82165,15.47195 L21.73865,15.54965 M20.8496,15.6633 L20.7519,15.6068 L20.6504,15.6571 L20.6731,15.54425 L20.5946,15.4616 L20.7068,15.44845 L20.75945,15.3472 L20.80645,15.45185 L20.91695,15.47195 L20.83405,15.54965 M19.31365,14.32015 L19.2159,14.26375 L19.1144,14.31395 L19.1371,14.2011 L19.0587,14.1184 L19.17085,14.1052 L19.2235,14.004 L19.2705,14.1087 L19.3811,14.1288 L19.2981,14.20645 M19.4848,17.05765 L19.402,17.00985 L19.316,17.05235 L19.3353,16.95685 L19.2688,16.88685 L19.3638,16.8757 L19.40845,16.78995 L19.4482,16.87855 L19.5419,16.89555 L19.47155,16.96135 M17.165,12.62985 L16.9679,12.51615 L16.76325,12.6174 L16.8091,12.39 L16.651,12.2233 L16.877,12.1968 L16.9832,11.9928 L17.0779,12.2038 L17.3009,12.2443 L17.13365,12.4009" id="Shape" fill="#FFFFEF"></path>
                            <path d="M25.2184,14.29085 C25.3156,14.0367 25.4409,13.65335 25.50755,13.30155 C22.12045,10.32615 18.34455,8.8019 13.57355,9.11555 C13.40245,9.44345 13.26555,9.7867 13.15005,10.1582 C18.8032,9.6189 22.94685,12.1217 25.21855,14.2909 L25.2184,14.29085 Z" id="Shape" fill="#FFFFFF"></path>
                            <path d="M23.6957,12.618 L23.8167,12.68415 C23.7977,12.72705 23.7927,12.76465 23.8012,12.79665 C23.8102,12.8289 23.83245,12.85705 23.86795,12.88105 C23.90545,12.9068 23.93915,12.91805 23.96875,12.91505 C23.99875,12.91205 24.021,12.89975 24.0355,12.87835 C24.0443431,12.8657996 24.0483397,12.8504704 24.04675,12.8352 C24.0454,12.8202 24.03715,12.8022 24.022,12.78145 C24.0115,12.76745 23.986,12.7378 23.9455,12.6926 C23.8935,12.6346 23.8625,12.5857 23.8525,12.5458 C23.8385,12.4897 23.847,12.4388 23.878,12.3928 C23.898,12.3633 23.9248,12.3413 23.9586,12.3269 C23.9929,12.3124 24.03025,12.30915 24.0706,12.317 C24.1111,12.32485 24.1538,12.344 24.1981,12.37415 C24.27075,12.4235 24.3146,12.47655 24.3296,12.53335 C24.34485,12.59025 24.33545,12.646 24.30135,12.7006 L24.18115,12.6264 C24.19615,12.59315 24.1999,12.5644 24.19205,12.54025 C24.1847,12.516 24.16455,12.49275 24.13155,12.4704 C24.09775,12.4474 24.06645,12.4363 24.03785,12.43725 C24.0205124,12.4371858 24.0043539,12.4460201 23.99505,12.46065 C23.98575,12.4745 23.98365,12.49015 23.98855,12.5078 C23.99505,12.5303 24.02195,12.56745 24.0698,12.6195 C24.11745,12.6715 24.15,12.714 24.1673,12.74685 C24.18505,12.7797 24.1931,12.81385 24.1914,12.84935 C24.19025,12.88465 24.1772,12.9207 24.1525,12.95735 C24.130201,12.9905134 24.0987161,13.0164554 24.0619,13.032 C24.0239,13.0485 23.9834,13.0526 23.94005,13.044 C23.89705,13.03515 23.85035,13.01365 23.80015,12.9795 C23.72705,12.9299 23.68215,12.87485 23.6658,12.8145 C23.6497,12.75385 23.65955,12.68835 23.6958,12.61825 L23.6957,12.618 Z M23.1218,12.24135 L23.2454,12.30235 C23.22815,12.34595 23.22455,12.38375 23.2344,12.41535 C23.2448,12.4472 23.268,12.4745 23.3044,12.4971 C23.34315,12.5212 23.37715,12.5311 23.40655,12.5269 C23.43655,12.5226 23.4584,12.5096 23.47185,12.4876 C23.4802494,12.4747579 23.4836308,12.4592746 23.48135,12.4441 C23.47945,12.429 23.47045,12.41135 23.45435,12.3912 C23.44335,12.3776 23.41685,12.3492 23.3745,12.30555 C23.32015,12.2497 23.2872,12.20205 23.2756,12.16255 C23.25945,12.10705 23.2659,12.0559 23.29485,12.0087 C23.3135269,11.9785536 23.3406503,11.9545597 23.37285,11.9397 C23.40655,11.9239 23.44385,11.91905 23.48435,11.9252 C23.52525,11.93155 23.5686,11.94885 23.6141,11.9772 C23.6887,12.0235 23.7345,12.0748 23.75175,12.1309 C23.76925,12.1872 23.76225,12.24325 23.7304,12.29915 L23.6072,12.2299 C23.62095,12.1961 23.62355,12.1673 23.6147,12.1435 C23.6063,12.1194 23.5852,12.097 23.5515,12.076 C23.51665,12.05435 23.485,12.0446 23.4565,12.0467 C23.438,12.04795 23.42415,12.05645 23.4146,12.0719 C23.406,12.086 23.4044,12.1016 23.4101,12.1191 C23.41735,12.14125 23.4458,12.17735 23.4956,12.2275 C23.5453,12.2775 23.5796,12.3186 23.5982,12.35075 C23.6172,12.38275 23.6266,12.41665 23.62635,12.4521 C23.6267,12.4875 23.615,12.52395 23.59185,12.56175 C23.5708054,12.5956969 23.5404277,12.6228632 23.50435,12.64 C23.46705,12.658 23.42655,12.6637 23.383,12.6568 C23.33975,12.6498 23.29225,12.63 23.2406,12.59805 C23.1657,12.5514 23.1187,12.49825 23.09985,12.43855 C23.08115,12.37855 23.08835,12.31285 23.12175,12.2414 L23.1218,12.24135 Z M22.4115,12.051 L22.7753,11.4527 L23.21715,11.7235 L23.15565,11.8248 L22.83415,11.6277 L22.7534,11.7603 L23.05255,11.9437 L22.9913,12.04445 L22.6921,11.8611 L22.59325,12.0239 L22.9261,12.2279 L22.8647,12.32875 L22.41155,12.0509 L22.4115,12.051 Z M21.3769,11.20135 L21.4309,11.09635 L21.7009,11.23615 L21.5736,11.48425 C21.5341,11.49615 21.4846,11.49905 21.4245,11.49275 C21.3666319,11.4867734 21.3103865,11.4700541 21.25865,11.44345 C21.19365,11.4098 21.14415,11.36705 21.10985,11.31485 C21.0759513,11.2634964 21.0589263,11.2028428 21.06115,11.14135 C21.063327,11.0767486 21.0800233,11.0134667 21.11,10.9562 C21.1432,10.8913 21.1865,10.8407 21.2395,10.8042 C21.29235,10.76785 21.352,10.7497 21.418,10.7497 C21.4684,10.7496 21.5232,10.765 21.5825,10.7955 C21.6596,10.8355 21.71135,10.88285 21.7377,10.9378 C21.7647,10.9926 21.7696,11.0518 21.7526,11.11555 L21.6162,11.07455 C21.6232,11.03945 21.61905,11.00675 21.6037,10.9767 C21.5889,10.9464 21.5634,10.92195 21.52735,10.9032 C21.4725,10.87485 21.42005,10.8697 21.3696,10.88795 C21.3196,10.9061 21.2771,10.94945 21.2419,11.01795 C21.2039,11.09195 21.19165,11.15595 21.2054,11.21005 C21.21925,11.2637 21.2526,11.30435 21.3058,11.3319 C21.332,11.3454 21.3608,11.3539 21.3923,11.35725 C21.4243,11.36055 21.4533,11.35975 21.47995,11.35475 L21.52045,11.27565 L21.37685,11.2014 L21.3769,11.20135 Z M16.8648,10.0824 L16.9665,9.38905 L17.1751,9.42005 L17.23125,9.91135 L17.42425,9.4567 L17.63365,9.4876 L17.532,10.1811 L17.4025,10.162 L17.4825,9.6161 L17.26535,10.1417 L17.1311,10.1218 L17.0744,9.5558 L16.9944,10.10155 L16.8648,10.08245 L16.8648,10.0824 Z M16.1594,10.0005 L16.22465,9.3025 L16.74,9.3512 L16.72915,9.4692 L16.354,9.4339 L16.3395,9.58865 L16.6884,9.6215 L16.6774,9.7391 L16.3284,9.7062 L16.31075,9.8962 L16.69895,9.9327 L16.68795,10.0504 L16.15935,10.0005 L16.1594,10.0005 Z" id="Shape" fill="#309E3A" fill-rule="nonzero"></path>
                            <g id="Group" transform="translate(13.800000, 9.200000)" fill-rule="nonzero" fill="#309E3A">
                                <path d="M0.025,0.364 C0.027,0.2925 0.0392,0.233 0.0618,0.185 C0.0785512959,0.149905558 0.10132994,0.118022225 0.1291,0.0908 C0.1574,0.0632 0.1881,0.043 0.2213,0.0303 C0.2653,0.01295 0.3157,0.00505 0.37245,0.00655 C0.47525,0.00955 0.55655,0.04375 0.6163,0.1094 C0.67655,0.17515 0.70505,0.2651 0.702,0.37915 C0.699,0.49215 0.666,0.58 0.6029,0.64235 C0.5399,0.70435 0.4572,0.73405 0.35475,0.7312 C0.2509,0.7284 0.16935,0.6944 0.10975,0.62935 C0.05025,0.56395 0.022,0.47545 0.02505,0.364 L0.025,0.364 Z" id="Shape"></path>
                            </g>
                            <g id="Group" transform="translate(14.650000, 9.200000)" fill-rule="nonzero" fill="#309E3A">
                                <path d="M0.0026,0.7255 L0.01075,0.02465 L0.3074,0.02815 C0.3821,0.02905 0.4361,0.036 0.4696,0.04915 C0.50345,0.062 0.5303,0.08465 0.55025,0.11715 C0.5702,0.14965 0.5799,0.1864 0.57945,0.2279 C0.5788,0.2805 0.56285,0.3238 0.53165,0.3578 C0.5005,0.39155 0.45415,0.41255 0.3928,0.4208 C0.42305,0.43895 0.448,0.4588 0.4673,0.48045 C0.48715,0.50195 0.51345,0.5402 0.54655,0.5951 L0.6302,0.7328 L0.4616,0.7308 L0.3615,0.5771 C0.326,0.5222 0.3016,0.4877 0.2885,0.4735 C0.27525,0.459 0.26125,0.44915 0.2464,0.44385 C0.23155,0.43835 0.2079,0.43535 0.1755,0.435 L0.147,0.4346 L0.1436,0.7272 L0.0026,0.72555 L0.0026,0.7255 Z" id="Shape"></path>
                            </g>
                            <g id="Group" transform="translate(15.400000, 9.250000)" fill-rule="nonzero" fill="#309E3A">
                                <path d="M0.05015,0.0094 L0.3075,0.0224 C0.3655,0.0254 0.4095,0.03215 0.4395,0.04265 C0.479068763,0.0563864036 0.514225219,0.0804917142 0.5413,0.11245 C0.56895,0.14475 0.5892,0.18375 0.6022,0.22945 C0.6152,0.2748 0.62,0.3302 0.6167,0.39575 C0.6138,0.4534 0.6041,0.50265 0.5877,0.54375 C0.5677,0.59375 0.5408,0.6336 0.5068,0.66355 C0.4813,0.6862 0.4473,0.70305 0.4051,0.71435 C0.3735,0.72265 0.3317,0.72545 0.2796,0.72285 L0.01485,0.70935 L0.05015,0.00935 L0.05015,0.0094 Z" id="Shape"></path>
                            </g>
                            <g id="Group" transform="translate(18.850000, 9.800000)" fill-rule="nonzero" fill="#309E3A">
                                <path d="M0.0315,0.711 L0.1945,0.0295 L0.4145,0.0825 C0.4978,0.1026 0.55135,0.1191 0.575,0.132 C0.6115,0.1516 0.6387,0.1818 0.6567,0.2225 C0.6747,0.263 0.6772,0.31025 0.6643,0.3645 C0.6543,0.4063 0.6384,0.4397 0.6164,0.4645 C0.5945,0.4895 0.5698,0.5072 0.5424,0.518 C0.5154,0.5286 0.4892,0.5335 0.4639,0.533 C0.42965,0.5316 0.3814,0.5235 0.3194,0.5085 L0.2301,0.4869 L0.1686,0.744 L0.03145,0.711 L0.0315,0.711 Z" id="Shape"></path>
                            </g>
                            <g id="Group" transform="translate(19.500000, 10.000000)" fill-rule="nonzero" fill="#309E3A">
                                <path d="M0.0303,0.7053 L0.2623,0.0443 L0.5422,0.1433 C0.6126,0.1682 0.66155,0.1923 0.68905,0.21555 C0.71705,0.2387 0.7352,0.26875 0.7437,0.3059 C0.7522,0.34305 0.7497,0.38115 0.7359,0.4202 C0.7185,0.4698 0.6895,0.5057 0.6491,0.52785 C0.6088,0.54975 0.55825,0.5547 0.4975,0.54275 C0.52035,0.56975 0.5376,0.59655 0.549,0.62325 C0.5609,0.65005 0.5735,0.69475 0.58725,0.7574 L0.62245,0.9149 L0.46345,0.8586 L0.4178,0.6808 C0.4017,0.6173 0.3897,0.5768 0.3818,0.55905 C0.3739,0.54105 0.3638,0.52715 0.35145,0.51735 C0.33915,0.50725 0.3178,0.49685 0.28715,0.486 L0.26035,0.4764 L0.16345,0.7524 L0.03045,0.7053 L0.0303,0.7053 Z" id="Shape"></path>
                            </g>
                            <g id="Group" transform="translate(20.300000, 10.400000)" fill-rule="nonzero" fill="#309E3A">
                                <path d="M0.0505,0.28 C0.0717,0.21185 0.0996,0.1578 0.13415,0.118 C0.159756454,0.0886750705 0.190364472,0.0641277115 0.22455,0.0455 C0.25935,0.02665 0.2944,0.0156 0.32965,0.01225 C0.37665,0.0076 0.4273,0.01375 0.48155,0.03075 C0.5798,0.06145 0.64875,0.1166 0.68855,0.19615 C0.7287,0.2758 0.7319,0.37015 0.69805,0.47905 C0.66455,0.58715 0.60905,0.66255 0.53155,0.70545 C0.45415,0.74805 0.36645,0.75395 0.26855,0.7233 C0.16945,0.6923 0.10005,0.6374 0.06035,0.5586 C0.0207,0.47945 0.01745,0.3866 0.05055,0.2801 L0.0505,0.28 Z" id="Shape"></path>
                            </g>
                            <g id="Group" transform="translate(21.700000, 11.000000)" fill-rule="nonzero" fill="#309E3A">
                                <path d="M0.01525,0.656 L0.336,0.0335 L0.5995,0.1703 C0.6658,0.2048 0.711,0.2353 0.735,0.2623 C0.7595,0.2889 0.7734,0.3213 0.77675,0.3593 C0.7801,0.3973 0.77215,0.43455 0.75325,0.4714 C0.72925,0.5181 0.6956,0.5496 0.6524,0.566 C0.6094,0.5821 0.5588,0.58 0.50025,0.5596 C0.51915,0.5895 0.5325,0.6186 0.54025,0.6466 C0.54815,0.6748 0.55465,0.7208 0.5596,0.78475 L0.5727,0.9455 L0.42305,0.86775 L0.4023,0.68535 C0.39505,0.62015 0.3888,0.57835 0.3834,0.55975 C0.37815,0.5409 0.3699,0.52565 0.35905,0.51425 C0.34835,0.5026 0.32855,0.48925 0.29975,0.47435 L0.2744,0.46115 L0.14055,0.721 L0.0153,0.656 L0.01525,0.656 Z" id="Shape"></path>
                            </g>
                            <g id="Group" transform="translate(24.200000, 12.750000)" fill-rule="nonzero" fill="#309E3A">
                                <path d="M0.10535,0.1852 C0.1452,0.12605 0.18745,0.0824 0.23215,0.0542 C0.265105512,0.0336385388 0.301428163,0.0190485458 0.33945,0.0111 C0.375640196,0.00316001054 0.41306945,0.00268363821 0.44945,0.0097 C0.49595,0.0189 0.54265,0.0395 0.5897,0.07145 C0.6749,0.12925 0.7251,0.20205 0.7404,0.28975 C0.7559,0.37765 0.73175,0.46875 0.668,0.56335 C0.60485,0.657 0.5301,0.71325 0.4436,0.73185 C0.3572,0.7501 0.2716,0.73045 0.1866,0.67275 C0.1007,0.61435 0.05,0.54165 0.0346,0.45465 C0.01945,0.36735 0.043,0.2775 0.10525,0.18515 L0.10535,0.1852 Z" id="Shape"></path>
                            </g>
                        </g>
                    </g>
                </g>
            </g>
        </g>
    </g>
</svg>