<?xml version="1.0" encoding="UTF-8"?>
<svg width="38px" height="24px" viewBox="0 0 38 24" version="1.1" xmlns="http://www.w3.org/2000/svg" xmlns:xlink="http://www.w3.org/1999/xlink">
    <!-- Generator: Sketch 43.1 (39012) - http://www.bohemiancoding.com/sketch -->
    <title>Bitcoin Flag/24-38</title>
    <desc>Created with Sketch.</desc>
    <defs></defs>
    <g id="Current" stroke="none" stroke-width="1" fill="none" fill-rule="evenodd">
        <g id="Rates.2-Flag-Dropdown" transform="translate(-557.000000, -944.000000)">
            <g id="Dropdown" transform="translate(540.000000, 592.000000)">
                <g id="Address-Lookup-Expanded">
                    <g id="Autocomplete-Dropdown">
                        <g id="Bitcoin-Flag/24-38" transform="translate(17.000000, 352.000000)">
                            <rect id="Rectangle-Copy-7" fill="#EA973D" x="0" y="0" width="38" height="24" rx="2"></rect>
                            <path d="M23.4287708,11.405776 C24.2849626,10.9699826 24.8206626,10.2024845 24.6955265,8.9238723 C24.5270087,7.17651688 23.0169661,6.5905878 21.1107435,6.42372438 L21.1103758,4 L19.6334209,4 L19.6330073,6.35998449 C19.24441,6.35998449 18.848276,6.36761306 18.4539342,6.37551736 L18.4536125,4.00032169 L16.9779903,4.00018382 L16.9777146,6.42331079 C16.6579122,6.42983643 16.3438542,6.43604038 16.037195,6.43604038 L16.037195,6.42887137 L14,6.42804417 L14.0002757,8.00348111 C14.0002757,8.00348111 15.090977,7.98298508 15.0730085,8.00288369 C15.6710238,8.00329729 15.8662875,8.35025922 15.9224448,8.6497494 L15.9229044,11.410877 L15.9229044,15.2893599 C15.896572,15.4773168 15.785774,15.7776342 15.3676274,15.7781856 C15.3866529,15.7949133 14.2932403,15.7780018 14.2932403,15.7780018 L14.0002757,17.5396953 L15.9219853,17.5396953 C16.2800684,17.5401089 16.6319015,17.5456694 16.9770712,17.5484268 L16.978358,19.9995864 L18.4536125,20 L18.4531989,17.5745293 C18.8590754,17.5828013 19.2508437,17.5863858 19.6335128,17.5858803 L19.6330992,20 L21.1100082,20 L21.1108354,17.5529304 C23.5934284,17.4104692 25.3314549,16.785616 25.5475364,14.4562377 C25.7217067,12.580851 24.8382635,11.7437307 23.4287708,11.405776 Z M18.4892278,8.10982149 C19.3222122,8.10982149 21.9419356,7.84479773 21.9423032,9.58332974 C21.9419356,11.2500797 19.3230394,11.0553674 18.4892278,11.0553674 L18.4892278,8.10982149 L18.4892278,8.10982149 Z M18.4885844,15.790134 L18.4892278,12.5423865 C19.4900406,12.5421108 22.629104,12.2546609 22.6295176,14.165525 C22.6299312,15.9980354 19.4900406,15.7893987 18.4885844,15.790134 Z" id="Shape" fill="#FFFFFF" fill-rule="nonzero"></path>
                        </g>
                    </g>
                </g>
            </g>
        </g>
    </g>
</svg>