<?xml version="1.0" encoding="UTF-8"?>
<svg width="38px" height="24px" viewBox="0 0 38 24" version="1.1" xmlns="http://www.w3.org/2000/svg" xmlns:xlink="http://www.w3.org/1999/xlink">
    <!-- Generator: Sketch 43.1 (39012) - http://www.bohemiancoding.com/sketch -->
    <title>China Flag/24-38</title>
    <desc>Created with Sketch.</desc>
    <defs></defs>
    <g id="Current" stroke="none" stroke-width="1" fill="none" fill-rule="evenodd">
        <g id="Rates.2-Flag-Dropdown" transform="translate(-557.000000, -664.000000)" fill-rule="nonzero">
            <g id="Dropdown" transform="translate(540.000000, 592.000000)">
                <g id="Address-Lookup-Expanded">
                    <g id="Autocomplete-Dropdown">
                        <g id="China-Flag/24-38" transform="translate(17.000000, 72.000000)">
                            <path d="M0,2.00494659 C0,0.897645164 0.90185079,0 2.00285922,0 L35.9971408,0 C37.1032894,0 38,0.897026226 38,2.00494659 L38,21.9950534 C38,23.1023548 37.0981492,24 35.9971408,24 L2.00285922,24 C0.896710617,24 0,23.1029738 0,21.9950534 L0,2.00494659 Z" id="Shape" fill="#DE2910"></path>
                            <g id="a-link" transform="translate(2.399995, 2.400000)" fill="#FFDE00">
                                <polygon id="a" points="1.48318146 6.516 3.599955 0 5.71672854 6.516 0.17279784 2.484 7.02711216 2.484"></polygon>
                            </g>
                            <g id="a-link" transform="translate(12.014550, 2.399800) rotate(-120.930011) translate(-12.014550, -2.399800) translate(10.814554, 1.199811)" fill="#FFDE00">
                                <polygon id="a" points="0.494398372 2.17197964 1.19999605 0 1.90559373 2.17197964 0.0575998104 0.827992239 2.34239229 0.827992239"></polygon>
                            </g>
                            <g id="a-link" transform="translate(14.397500, 4.789800) rotate(-98.109990) translate(-14.397500, -4.789800) translate(13.197500, 3.589815)" fill="#FFDE00">
                                <polygon id="a" points="0.494399922 2.17197342 1.19999981 0 1.9055997 2.17197342 0.0575999909 0.827989865 2.34239963 0.827989865"></polygon>
                            </g>
                            <g id="a-link" transform="translate(14.397950, 8.400600) rotate(-74.040011) translate(-14.397950, -8.400600) translate(13.197951, 7.200614)" fill="#FFDE00">
                                <polygon id="a" points="0.494399627 2.1719745 1.19999909 0 1.90559856 2.1719745 0.0575999565 0.827990278 2.34239823 0.827990278"></polygon>
                            </g>
                            <g id="a-link" transform="translate(11.996650, 10.802700) rotate(-51.319991) translate(-11.996650, -10.802700) translate(10.796656, 9.602709)" fill="#FFDE00">
                                <polygon id="a" points="0.494397676 2.17198358 1.19999436 0 1.90559104 2.17198358 0.0575997292 0.82799374 2.34238899 0.82799374"></polygon>
                            </g>
                        </g>
                    </g>
                </g>
            </g>
        </g>
    </g>
</svg>