<svg xmlns="http://www.w3.org/2000/svg" width="22" height="14" viewBox="0 0 22 14">
  <g fill="none" fill-rule="evenodd">
    <rect width="22" height="14" fill="#DE2910" fill-rule="nonzero" rx="1"/>
    <g fill-rule="nonzero" transform="translate(6 3)">
      <g transform="translate(3.533 .031)">
        <path fill="#FFFFFF" d="M1.46578813,4.30010533 C-1.10730864,3.21266342 0.0333011556,-0.138562111 2.49415516,0.0298882222 C1.9963174,0.285746756 1.92416571,0.763165822 2.20847196,1.20542669 C2.52684716,1.70056847 2.1791638,2.49728038 1.74877536,2.69085202 C1.04147902,3.00922698 0.899870889,3.858074 1.46578813,4.30010533 Z"/>
        <polygon fill="#DE2910" points="1.327 1.88 1.182 2.107 1.13 1.843 .868 1.776 1.104 1.644 1.087 1.375 1.285 1.558 1.536 1.459 1.423 1.704 1.594 1.912"/>
        <path fill="#DE2910" d="M1.48035604,4.27188716 C1.1691504,4.11215469 0.918224267,3.77921158 0.808906511,3.38134329 C0.683873667,2.92497309 0.755796311,2.43430513 1.00649291,2.03597778 L0.952522267,2.00190931 C0.692419444,2.41572222 0.617801311,2.92451427 0.747537267,3.39814811 C0.863106689,3.81913058 1.11942404,4.15832511 1.45122022,4.32861073 L1.48035604,4.27188716 Z"/>
      </g>
      <g transform="rotate(72 3.212 6.75)">
        <path fill="#FFFFFF" d="M1.46578813,4.30010533 C-1.10730864,3.21266342 0.0333011556,-0.138562111 2.49415516,0.0298882222 C1.9963174,0.285746756 1.92416571,0.763165822 2.20847196,1.20542669 C2.52684716,1.70056847 2.1791638,2.49728038 1.74877536,2.69085202 C1.04147902,3.00922698 0.899870889,3.858074 1.46578813,4.30010533 Z"/>
        <polygon fill="#DE2910" points="1.327 1.88 1.182 2.107 1.13 1.843 .868 1.776 1.104 1.644 1.087 1.375 1.285 1.558 1.536 1.459 1.423 1.704 1.594 1.912"/>
        <path fill="#DE2910" d="M1.48035604,4.27188716 C1.1691504,4.11215469 0.918224267,3.77921158 0.808906511,3.38134329 C0.683873667,2.92497309 0.755796311,2.43430513 1.00649291,2.03597778 L0.952522267,2.00190931 C0.692419444,2.41572222 0.617801311,2.92451427 0.747537267,3.39814811 C0.863106689,3.81913058 1.11942404,4.15832511 1.45122022,4.32861073 L1.48035604,4.27188716 Z"/>
      </g>
      <g transform="rotate(144 3.228 4.892)">
        <path fill="#FFFFFF" d="M1.46578813,4.30010533 C-1.10730864,3.21266342 0.0333011556,-0.138562111 2.49415516,0.0298882222 C1.9963174,0.285746756 1.92416571,0.763165822 2.20847196,1.20542669 C2.52684716,1.70056847 2.1791638,2.49728038 1.74877536,2.69085202 C1.04147902,3.00922698 0.899870889,3.858074 1.46578813,4.30010533 Z"/>
        <polygon fill="#DE2910" points="1.327 1.88 1.182 2.107 1.13 1.843 .868 1.776 1.104 1.644 1.087 1.375 1.285 1.558 1.536 1.459 1.423 1.704 1.594 1.912"/>
        <path fill="#DE2910" d="M1.48035604,4.27188716 C1.1691504,4.11215469 0.918224267,3.77921158 0.808906511,3.38134329 C0.683873667,2.92497309 0.755796311,2.43430513 1.00649291,2.03597778 L0.952522267,2.00190931 C0.692419444,2.41572222 0.617801311,2.92451427 0.747537267,3.39814811 C0.863106689,3.81913058 1.11942404,4.15832511 1.45122022,4.32861073 L1.48035604,4.27188716 Z"/>
      </g>
      <g transform="rotate(-144 3.238 3.744)">
        <path fill="#FFFFFF" d="M1.46578813,4.30010533 C-1.10730864,3.21266342 0.0333011556,-0.138562111 2.49415516,0.0298882222 C1.9963174,0.285746756 1.92416571,0.763165822 2.20847196,1.20542669 C2.52684716,1.70056847 2.1791638,2.49728038 1.74877536,2.69085202 C1.04147902,3.00922698 0.899870889,3.858074 1.46578813,4.30010533 Z"/>
        <polygon fill="#DE2910" points="1.327 1.88 1.182 2.107 1.13 1.843 .868 1.776 1.104 1.644 1.087 1.375 1.285 1.558 1.536 1.459 1.423 1.704 1.594 1.912"/>
        <path fill="#DE2910" d="M1.48035604,4.27188716 C1.1691504,4.11215469 0.918224267,3.77921158 0.808906511,3.38134329 C0.683873667,2.92497309 0.755796311,2.43430513 1.00649291,2.03597778 L0.952522267,2.00190931 C0.692419444,2.41572222 0.617801311,2.92451427 0.747537267,3.39814811 C0.863106689,3.81913058 1.11942404,4.15832511 1.45122022,4.32861073 L1.48035604,4.27188716 Z"/>
      </g>
      <g transform="rotate(-72 3.255 1.886)">
        <path fill="#FFFFFF" d="M1.46578813,4.30010533 C-1.10730864,3.21266342 0.0333011556,-0.138562111 2.49415516,0.0298882222 C1.9963174,0.285746756 1.92416571,0.763165822 2.20847196,1.20542669 C2.52684716,1.70056847 2.1791638,2.49728038 1.74877536,2.69085202 C1.04147902,3.00922698 0.899870889,3.858074 1.46578813,4.30010533 Z"/>
        <polygon fill="#DE2910" points="1.327 1.88 1.182 2.107 1.13 1.843 .868 1.776 1.104 1.644 1.087 1.375 1.285 1.558 1.536 1.459 1.423 1.704 1.594 1.912"/>
        <path fill="#DE2910" d="M1.48035604,4.27188716 C1.1691504,4.11215469 0.918224267,3.77921158 0.808906511,3.38134329 C0.683873667,2.92497309 0.755796311,2.43430513 1.00649291,2.03597778 L0.952522267,2.00190931 C0.692419444,2.41572222 0.617801311,2.92451427 0.747537267,3.39814811 C0.863106689,3.81913058 1.11942404,4.15832511 1.45122022,4.32861073 L1.48035604,4.27188716 Z"/>
      </g>
    </g>
  </g>
</svg>
