<svg xmlns="http://www.w3.org/2000/svg" xmlns:xlink="http://www.w3.org/1999/xlink" width="24" height="16" viewBox="0 0 24 16">
  <defs>
    <rect id="a" width="22" height="14" rx="1"/>
  </defs>
  <g fill="none" transform="translate(1 1)">
    <use fill="#FFFFFF" fill-rule="evenodd" xlink:href="#a"/>
    <rect width="22.5" height="14.5" x="-.25" y="-.25" stroke="#EDEDED" stroke-width=".5" rx="1"/>
    <g transform="rotate(-56.31 7.048 .635)">
      <g fill="#000000" transform="translate(1.833)">
        <path d="M0,0.305555556 L3.66666667,0.305555556 L3.66666667,-0.305555556 L0,-0.305555556 L0,0.305555556 Z M0,1.22222222 L3.66666667,1.22222222 L3.66666667,0.611111111 L0,0.611111111 L0,1.22222222 Z M0,2.13888889 L3.66666667,2.13888889 L3.66666667,1.52777778 L0,1.52777778 L0,2.13888889 Z"/>
        <path d="M0,0.305555556 L3.66666667,0.305555556 L3.66666667,-0.305555556 L0,-0.305555556 L0,0.305555556 Z M0,1.22222222 L3.66666667,1.22222222 L3.66666667,0.611111111 L0,0.611111111 L0,1.22222222 Z M0,2.13888889 L3.66666667,2.13888889 L3.66666667,1.52777778 L0,1.52777778 L0,2.13888889 Z" transform="translate(0 13.444)"/>
      </g>
      <circle cx="3.667" cy="7.639" r="3.667" fill="#C60C30"/>
      <path fill="#003478" d="M3.66666667,3.97222222 C2.65414463,3.97222222 1.83333333,4.79303351 1.83333333,5.80555556 C1.83333333,6.8180776 2.65414463,7.63888889 3.66666667,7.63888889 C4.67918871,7.63888889 5.5,8.45970018 5.5,9.47222222 C5.5,10.4847443 4.67918871,11.3055556 3.66666667,11.3055556 C1.64162258,11.3055556 5.42775701e-16,9.66393297 0,7.63888889 C0,5.61384481 1.64162258,3.97222222 3.66666667,3.97222222 Z"/>
    </g>
    <g fill="#000000" transform="rotate(-123.69 6.335 5.033)">
      <path d="M0,0.305555556 L3.66666667,0.305555556 L3.66666667,-0.305555556 L0,-0.305555556 L0,0.305555556 Z M0,1.22222222 L3.66666667,1.22222222 L3.66666667,0.611111111 L0,0.611111111 L0,1.22222222 Z M0,2.13888889 L3.66666667,2.13888889 L3.66666667,1.52777778 L0,1.52777778 L0,2.13888889 Z"/>
      <path d="M0,0.305555556 L3.66666667,0.305555556 L3.66666667,-0.305555556 L0,-0.305555556 L0,0.305555556 Z M0,1.22222222 L3.66666667,1.22222222 L3.66666667,0.611111111 L0,0.611111111 L0,1.22222222 Z M0,2.13888889 L3.66666667,2.13888889 L3.66666667,1.52777778 L0,1.52777778 L0,2.13888889 Z" transform="translate(0 13.444)"/>
    </g>
  </g>
</svg>
