<?xml version="1.0" encoding="UTF-8"?>
<svg width="38px" height="24px" viewBox="0 0 38 24" version="1.1" xmlns="http://www.w3.org/2000/svg" xmlns:xlink="http://www.w3.org/1999/xlink">
    <!-- Generator: Sketch 43.1 (39012) - http://www.bohemiancoding.com/sketch -->
    <title>US Flag/24-38</title>
    <desc>Created with Sketch.</desc>
    <defs>
        <rect id="path-1" x="0" y="0" width="38" height="24" rx="2"></rect>
    </defs>
    <g id="Current" stroke="none" stroke-width="1" fill="none" fill-rule="evenodd">
        <g id="Rates.2-Flag-Dropdown" transform="translate(-557.000000, -608.000000)">
            <g id="Dropdown" transform="translate(540.000000, 592.000000)">
                <g id="Address-Lookup-Expanded">
                    <g id="Autocomplete-Dropdown">
                        <g id="US-Flag/24-38" transform="translate(17.000000, 16.000000)">
                            <mask id="mask-2" fill="white">
                                <use xlink:href="#path-1"></use>
                            </mask>
                            <use id="Mask" fill="#D8D8D8" xlink:href="#path-1"></use>
                            <g id="us" mask="url(#mask-2)" fill-rule="nonzero">
                                <g id="Group">
                                    <g id="Shape">
                                        <path d="M0,0 L37.9214657,0 L37.9214657,1.84233368 L0,1.84233368 L0,0 Z M0,3.68466736 L37.9214657,3.68466736 L37.9214657,5.52700104 L0,5.52700104 L0,3.68466736 Z M0,7.36933472 L37.9214657,7.36933472 L37.9214657,9.2116684 L0,9.2116684 L0,7.36933472 Z M0,11.0540021 L37.9214657,11.0540021 L37.9214657,12.8963358 L0,12.8963358 L0,11.0540021 Z M0,14.7386694 L37.9214657,14.7386694 L37.9214657,16.5810031 L0,16.5810031 L0,14.7386694 Z M0,18.4233368 L37.9214657,18.4233368 L37.9214657,20.2656705 L0,20.2656705 L0,18.4233368 Z M0,22.1080042 L37.9214657,22.1080042 L37.9214657,23.9503378 L0,23.9503378 L0,22.1080042 Z" fill="#BD3D44"></path>
                                        <path d="M0,1.84233368 L37.9214657,1.84233368 L37.9214657,3.68466736 L0,3.68466736 L0,1.84233368 Z M0,5.52700104 L37.9214657,5.52700104 L37.9214657,7.36933472 L0,7.36933472 L0,5.52700104 Z M0,9.2116684 L37.9214657,9.2116684 L37.9214657,11.0540021 L0,11.0540021 L0,9.2116684 Z M0,12.8963358 L37.9214657,12.8963358 L37.9214657,14.7386694 L0,14.7386694 L0,12.8963358 Z M0,16.5810031 L37.9214657,16.5810031 L37.9214657,18.4233368 L0,18.4233368 L0,16.5810031 Z M0,20.2656705 L37.9214657,20.2656705 L37.9214657,22.1080042 L0,22.1080042 L0,20.2656705 Z" fill="#FFFFFF"></path>
                                    </g>
                                    <polygon id="Shape" fill="#192F5D" points="0 0 18.202079 0 18.202079 12.8961019 0 12.8961019"></polygon>
                                    <g transform="translate(0.795218, 0.514553)" id="Shape" fill="#FFFFFF">
                                        <path d="M0.721637214,0.0374220374 L0.88722973,0.547110187 L1.42320686,0.547110187 L0.989579002,0.862156965 L1.1552183,1.37184511 L0.721590437,1.05684511 L0.288056133,1.37184511 L0.453648649,0.862156965 L0.0200675676,0.547110187 L0.555997921,0.547110187 L0.721637214,0.0374220374 Z M3.75530146,0.0374220374 L3.92094075,0.547110187 L4.45691788,0.547110187 L4.02329002,0.862156965 L4.18892931,1.37184511 L3.75530146,1.05684511 L3.32176715,1.37184511 L3.48735967,0.862156965 L3.05377859,0.547110187 L3.58970894,0.547110187 L3.75530146,0.0374220374 Z M6.78910603,0.0374220374 L6.95469854,0.547110187 L7.49067568,0.547110187 L7.05704782,0.862156965 L7.22268711,1.37184511 L6.78910603,1.05684511 L6.35552495,1.37184511 L6.52111746,0.862156965 L6.08753638,0.547110187 L6.62351351,0.547110187 L6.78910603,0.0374220374 Z M9.82272349,0.0374220374 L9.98831601,0.547110187 L10.5242464,0.547110187 L10.0906653,0.862156965 L10.2562578,1.37184511 L9.82272349,1.05684511 L9.38909563,1.37184511 L9.55473493,0.862156965 L9.12110707,0.547110187 L9.6570842,0.547110187 L9.82272349,0.0374220374 Z M12.8564813,0.0374220374 L13.0220738,0.547110187 L13.5580509,0.547110187 L13.1244231,0.862156965 L13.2900624,1.37184511 L12.8564345,1.05684511 L12.4229002,1.37184511 L12.5884927,0.862156965 L12.1549116,0.547110187 L12.690842,0.547110187 L12.8564813,0.0374220374 Z M15.8902391,0.0374220374 L16.0558316,0.547110187 L16.5918087,0.547110187 L16.1581809,0.862156965 L16.3238202,1.37184511 L15.8902391,1.05684511 L15.4566112,1.37184511 L15.6222973,0.862156965 L15.1886694,0.547110187 L15.7246466,0.547110187 L15.8902391,0.0374220374 Z M2.2385395,1.327079 L2.40413202,1.83676715 L2.94010915,1.83676715 L2.50648129,2.15176715 L2.67216736,2.66150208 L2.2385395,2.34650208 L1.80495842,2.66150208 L1.97055094,2.15176715 L1.53696985,1.83676715 L2.07294699,1.83676715 L2.2385395,1.327079 Z M5.27215696,1.327079 L5.43774948,1.83676715 L5.97367983,1.83676715 L5.54009875,2.15176715 L5.70569127,2.66150208 L5.27215696,2.34650208 L4.83852911,2.66150208 L5.0041684,2.15176715 L4.57054054,1.83676715 L5.10651767,1.83676715 L5.27215696,1.327079 Z M8.30591476,1.327079 L8.47150728,1.83676715 L9.00748441,1.83676715 L8.57385655,2.15176715 L8.73949584,2.66150208 L8.30586798,2.34650208 L7.87233368,2.66150208 L8.0379262,2.15176715 L7.60434511,1.83676715 L8.14027547,1.83676715 L8.30591476,1.327079 Z M11.3396726,1.327079 L11.5052651,1.83676715 L12.0412422,1.83676715 L11.6076143,2.15176715 L11.7732536,2.66150208 L11.3396726,2.34650208 L10.9060447,2.66150208 L11.0717775,2.15176715 L10.6381497,1.83676715 L11.1741268,1.83676715 L11.3396726,1.327079 Z M14.37329,1.327079 L14.5388825,1.83676715 L15.0748129,1.83676715 L14.6412318,2.15176715 L14.8068243,2.66150208 L14.37329,2.34650208 L13.9396622,2.66150208 L14.1053015,2.15176715 L13.6716736,1.83676715 L14.2076507,1.83676715 L14.37329,1.327079 Z M0.721637214,2.61668919 L0.88722973,3.12637734 L1.42320686,3.12637734 L0.989579002,3.44142412 L1.1552183,3.95111227 L0.721590437,3.63611227 L0.288056133,3.95111227 L0.453648649,3.44142412 L0.0200675676,3.12637734 L0.555997921,3.12637734 L0.721637214,2.61668919 Z M3.75530146,2.61668919 L3.92094075,3.12637734 L4.45691788,3.12637734 L4.02329002,3.44142412 L4.18892931,3.95111227 L3.75530146,3.63611227 L3.32176715,3.95111227 L3.48735967,3.44142412 L3.05377859,3.12637734 L3.58970894,3.12637734 L3.75530146,2.61668919 Z M6.78910603,2.61668919 L6.95469854,3.12637734 L7.49067568,3.12637734 L7.05704782,3.44142412 L7.22268711,3.95111227 L6.78910603,3.63611227 L6.35552495,3.95111227 L6.52111746,3.44142412 L6.08753638,3.12637734 L6.62351351,3.12637734 L6.78910603,2.61668919 Z M9.82272349,2.61668919 L9.98831601,3.12637734 L10.5242464,3.12637734 L10.0906653,3.44142412 L10.2562578,3.95111227 L9.82272349,3.63611227 L9.38909563,3.95111227 L9.55473493,3.44142412 L9.12110707,3.12637734 L9.6570842,3.12637734 L9.82272349,2.61668919 Z M12.8564813,2.61668919 L13.0220738,3.12637734 L13.5580509,3.12637734 L13.1244231,3.44142412 L13.2900624,3.95111227 L12.8564345,3.63611227 L12.4229002,3.95111227 L12.5884927,3.44142412 L12.1549116,3.12637734 L12.690842,3.12637734 L12.8564813,2.61668919 Z M15.8902391,2.61668919 L16.0558316,3.12637734 L16.5918087,3.12637734 L16.1581809,3.44142412 L16.3238202,3.95111227 L15.8902391,3.63611227 L15.4566112,3.95111227 L15.6222973,3.44142412 L15.1886694,3.12637734 L15.7246466,3.12637734 L15.8902391,2.61668919 Z M2.2385395,3.90629938 L2.40413202,4.4160343 L2.94010915,4.4160343 L2.50648129,4.7310343 L2.67216736,5.24076923 L2.2385395,4.92576923 L1.80495842,5.24076923 L1.97055094,4.7310343 L1.53696985,4.4160343 L2.07294699,4.4160343 L2.2385395,3.90629938 Z M5.27215696,3.90629938 L5.43774948,4.4160343 L5.97367983,4.4160343 L5.54009875,4.7310343 L5.70569127,5.24076923 L5.27215696,4.92576923 L4.83852911,5.24076923 L5.0041684,4.7310343 L4.57054054,4.4160343 L5.10651767,4.4160343 L5.27215696,3.90629938 Z M8.30591476,3.90629938 L8.47150728,4.4160343 L9.00748441,4.4160343 L8.57385655,4.7310343 L8.73949584,5.24076923 L8.30586798,4.92576923 L7.87233368,5.24076923 L8.0379262,4.7310343 L7.60434511,4.4160343 L8.14027547,4.4160343 L8.30591476,3.90629938 Z M11.3396726,3.90629938 L11.5052651,4.4160343 L12.0412422,4.4160343 L11.6076143,4.7310343 L11.7732536,5.24076923 L11.3396726,4.92576923 L10.9060447,5.24076923 L11.0717308,4.7310343 L10.6381029,4.4160343 L11.17408,4.4160343 L11.3396726,3.90629938 Z M14.37329,3.90629938 L14.5388825,4.4160343 L15.0748129,4.4160343 L14.6412318,4.7310343 L14.8068243,5.24076923 L14.37329,4.92576923 L13.9396622,5.24076923 L14.1053015,4.7310343 L13.6716736,4.4160343 L14.2076507,4.4160343 L14.37329,3.90629938 Z M0.721637214,5.19595634 L0.88722973,5.70564449 L1.42320686,5.70564449 L0.989579002,6.02069127 L1.1552183,6.53037942 L0.721590437,6.21537942 L0.288056133,6.53037942 L0.453648649,6.02069127 L0.0200675676,5.70564449 L0.555997921,5.70564449 L0.721637214,5.19595634 Z M3.75530146,5.19595634 L3.92094075,5.70564449 L4.45691788,5.70564449 L4.02329002,6.02069127 L4.18892931,6.53037942 L3.75530146,6.21537942 L3.32176715,6.53037942 L3.48735967,6.02069127 L3.05377859,5.70564449 L3.58970894,5.70564449 L3.75530146,5.19595634 Z M6.78910603,5.19595634 L6.95469854,5.70564449 L7.49067568,5.70564449 L7.05704782,6.02069127 L7.22268711,6.53037942 L6.78910603,6.21537942 L6.35552495,6.53037942 L6.52111746,6.02069127 L6.08753638,5.70564449 L6.62351351,5.70564449 L6.78910603,5.19595634 Z M9.82272349,5.19595634 L9.98831601,5.70564449 L10.5242464,5.70564449 L10.0906653,6.02069127 L10.2562578,6.53037942 L9.82272349,6.21537942 L9.38909563,6.53037942 L9.55473493,6.02069127 L9.12110707,5.70564449 L9.6570842,5.70564449 L9.82272349,5.19595634 Z M12.8564813,5.19595634 L13.0220738,5.70564449 L13.5580509,5.70564449 L13.1244231,6.02069127 L13.2900624,6.53037942 L12.8564345,6.21537942 L12.4229002,6.53037942 L12.5884927,6.02069127 L12.1549116,5.70564449 L12.690842,5.70564449 L12.8564813,5.19595634 Z M15.8902391,5.19595634 L16.0558316,5.70564449 L16.5918087,5.70564449 L16.1581809,6.02069127 L16.3238202,6.53037942 L15.8902391,6.21537942 L15.4566112,6.53037942 L15.6222973,6.02069127 L15.1886694,5.70564449 L15.7246466,5.70564449 L15.8902391,5.19595634 Z M2.2385395,6.48556653 L2.40413202,6.99530146 L2.94010915,6.99530146 L2.50648129,7.31030146 L2.67216736,7.82003638 L2.2385395,7.50503638 L1.80495842,7.82003638 L1.97055094,7.31030146 L1.53696985,6.99530146 L2.07294699,6.99530146 L2.2385395,6.48556653 Z M5.27215696,6.48556653 L5.43774948,6.99530146 L5.97367983,6.99530146 L5.54009875,7.31030146 L5.70569127,7.82003638 L5.27215696,7.50503638 L4.83852911,7.82003638 L5.0041684,7.31030146 L4.57054054,6.99530146 L5.10651767,6.99530146 L5.27215696,6.48556653 Z M8.30591476,6.48556653 L8.47150728,6.99530146 L9.00748441,6.99530146 L8.57385655,7.31030146 L8.73949584,7.82003638 L8.30586798,7.50503638 L7.87233368,7.82003638 L8.0379262,7.31030146 L7.60434511,6.99530146 L8.14027547,6.99530146 L8.30591476,6.48556653 Z M11.3396726,6.48556653 L11.5052651,6.99530146 L12.0412422,6.99530146 L11.6076143,7.31030146 L11.7732536,7.82003638 L11.3396726,7.50503638 L10.9060447,7.82003638 L11.0717308,7.31030146 L10.6381029,6.99530146 L11.17408,6.99530146 L11.3396726,6.48556653 Z M14.37329,6.48556653 L14.5388825,6.99530146 L15.0748129,6.99530146 L14.6412318,7.31030146 L14.8068243,7.82003638 L14.37329,7.50503638 L13.9396622,7.82003638 L14.1053015,7.31030146 L13.6716736,6.99530146 L14.2076507,6.99530146 L14.37329,6.48556653 Z"></path>
                                        <path d="M0.721637214,7.77522349 L0.88722973,8.28491164 L1.42320686,8.28491164 L0.989579002,8.59995842 L1.1552183,9.10964657 L0.721590437,8.79464657 L0.288056133,9.10964657 L0.453648649,8.59995842 L0.0200675676,8.28491164 L0.555997921,8.28491164 L0.721637214,7.77522349 Z M3.75530146,7.77522349 L3.92094075,8.28491164 L4.45691788,8.28491164 L4.02329002,8.59995842 L4.18892931,9.10964657 L3.75530146,8.79464657 L3.32176715,9.10964657 L3.48735967,8.59995842 L3.05377859,8.28491164 L3.58970894,8.28491164 L3.75530146,7.77522349 Z M6.78910603,7.77522349 L6.95469854,8.28491164 L7.49067568,8.28491164 L7.05704782,8.59995842 L7.22268711,9.10964657 L6.78910603,8.79464657 L6.35552495,9.10964657 L6.52111746,8.59995842 L6.08753638,8.28491164 L6.62351351,8.28491164 L6.78910603,7.77522349 Z M9.82272349,7.77522349 L9.98831601,8.28491164 L10.5242464,8.28491164 L10.0906653,8.59995842 L10.2562578,9.10964657 L9.82272349,8.79464657 L9.38909563,9.10964657 L9.55473493,8.59995842 L9.12110707,8.28491164 L9.6570842,8.28491164 L9.82272349,7.77522349 Z M12.8564813,7.77522349 L13.0220738,8.28491164 L13.5580509,8.28491164 L13.1244231,8.59995842 L13.2900624,9.10964657 L12.8564345,8.79464657 L12.4229002,9.10964657 L12.5884927,8.59995842 L12.1549116,8.28491164 L12.690842,8.28491164 L12.8564813,7.77522349 Z M15.8902391,7.77522349 L16.0558316,8.28491164 L16.5918087,8.28491164 L16.1581809,8.59995842 L16.3238202,9.10964657 L15.8902391,8.79464657 L15.4566112,9.10964657 L15.6222973,8.59995842 L15.1886694,8.28491164 L15.7246466,8.28491164 L15.8902391,7.77522349 Z M2.2385395,9.06483368 L2.40413202,9.57456861 L2.94010915,9.57456861 L2.50648129,9.88956861 L2.67216736,10.3993035 L2.2385395,10.0843035 L1.80495842,10.3993035 L1.97055094,9.88956861 L1.53696985,9.57456861 L2.07294699,9.57456861 L2.2385395,9.06483368 Z M5.27215696,9.06483368 L5.43774948,9.57456861 L5.97367983,9.57456861 L5.54009875,9.88956861 L5.70569127,10.3993035 L5.27215696,10.0843035 L4.83852911,10.3993035 L5.0041684,9.88956861 L4.57054054,9.57456861 L5.10651767,9.57456861 L5.27215696,9.06483368 Z M8.30591476,9.06483368 L8.47150728,9.57456861 L9.00748441,9.57456861 L8.57385655,9.88956861 L8.73949584,10.3993035 L8.30586798,10.0843035 L7.87233368,10.3993035 L8.0379262,9.88956861 L7.60434511,9.57456861 L8.14027547,9.57456861 L8.30591476,9.06483368 Z M11.3396726,9.06483368 L11.5052651,9.57456861 L12.0412422,9.57456861 L11.6076143,9.88956861 L11.7732536,10.3993035 L11.3396726,10.0843035 L10.9060447,10.3993035 L11.0717308,9.88956861 L10.6381029,9.57456861 L11.17408,9.57456861 L11.3396726,9.06483368 Z M14.37329,9.06483368 L14.5388825,9.57456861 L15.0748129,9.57456861 L14.6412318,9.88956861 L14.8068243,10.3993035 L14.37329,10.0843035 L13.9396622,10.3993035 L14.1053015,9.88956861 L13.6716736,9.57456861 L14.2076507,9.57456861 L14.37329,9.06483368 Z"></path>
                                        <path d="M0.721637214,10.3544906 L0.88722973,10.8641788 L1.42320686,10.8641788 L0.989579002,11.1792256 L1.1552183,11.6889137 L0.721590437,11.3739137 L0.288056133,11.6889137 L0.453648649,11.1792256 L0.0200675676,10.8641788 L0.555997921,10.8641788 L0.721637214,10.3544906 Z M3.75530146,10.3544906 L3.92094075,10.8641788 L4.45691788,10.8641788 L4.02329002,11.1792256 L4.18892931,11.6889137 L3.75530146,11.3739137 L3.32176715,11.6889137 L3.48735967,11.1792256 L3.05377859,10.8641788 L3.58970894,10.8641788 L3.75530146,10.3544906 Z M6.78910603,10.3544906 L6.95469854,10.8641788 L7.49067568,10.8641788 L7.05704782,11.1792256 L7.22268711,11.6889137 L6.78910603,11.3739137 L6.35552495,11.6889137 L6.52111746,11.1792256 L6.08753638,10.8641788 L6.62351351,10.8641788 L6.78910603,10.3544906 Z M9.82272349,10.3544906 L9.98831601,10.8641788 L10.5242464,10.8641788 L10.0906653,11.1792256 L10.2562578,11.6889137 L9.82272349,11.3739137 L9.38909563,11.6889137 L9.55473493,11.1792256 L9.12110707,10.8641788 L9.6570842,10.8641788 L9.82272349,10.3544906 Z M12.8564813,10.3544906 L13.0220738,10.8641788 L13.5580509,10.8641788 L13.1244231,11.1792256 L13.2900624,11.6889137 L12.8564345,11.3739137 L12.4229002,11.6889137 L12.5884927,11.1792256 L12.1549116,10.8641788 L12.690842,10.8641788 L12.8564813,10.3544906 Z M15.8902391,10.3544906 L16.0558316,10.8641788 L16.5918087,10.8641788 L16.1581809,11.1792256 L16.3238202,11.6889137 L15.8902391,11.3739137 L15.4566112,11.6889137 L15.6222973,11.1792256 L15.1886694,10.8641788 L15.7246466,10.8641788 L15.8902391,10.3544906 Z"></path>
                                    </g>
                                </g>
                            </g>
                        </g>
                    </g>
                </g>
            </g>
        </g>
    </g>
</svg>