<?xml version="1.0" encoding="UTF-8"?>
<svg width="102px" height="66px" viewBox="0 0 102 66" version="1.1" xmlns="http://www.w3.org/2000/svg" xmlns:xlink="http://www.w3.org/1999/xlink">
    <!-- Generator: Sketch 47.1 (45422) - http://www.bohemiancoding.com/sketch -->
    <title>Shape</title>
    <desc>Created with Sketch.</desc>
    <defs></defs>
    <g id="Business-Template" stroke="none" stroke-width="1" fill="none" fill-rule="evenodd" opacity="0.100000001">
        <g transform="translate(-282.000000, -4402.000000)" id="Testimonial" fill-rule="nonzero" fill="#9BB2CC">
            <g transform="translate(282.000000, 4242.000000)">
                <g id="Quote-Section">
                    <g id="Quote" transform="translate(0.000000, 160.000000)">
                        <path d="M100.918259,41.4919696 C99.3951111,31.2985982 90.7248871,24.0343565 80.8830113,23.5656958 C83.3434802,14.4268111 89.3189049,10.7946902 96.5831465,8.68571686 C97.2861377,8.45138648 97.1689725,7.74839535 97.1689725,7.74839535 L95.9973206,0.484153671 C95.9973206,0.484153671 95.8801554,-0.101672271 94.9428339,0.0154929175 C69.8694836,2.82745744 52.8805313,21.9253831 56.0439914,45.1240904 C58.9731211,61.1757213 71.5097962,67.3854762 83.1091499,65.7451636 C94.7085035,63.8705206 102.675736,53.0913233 100.918259,41.4919696 L100.918259,41.4919696 Z M25.1688504,23.5656958 C27.5121542,14.4268111 33.7219092,10.7946902 40.8689857,8.68571686 C41.5719768,8.45138648 41.4548116,7.74839535 41.4548116,7.74839535 L40.4003249,0.484153671 C40.4003249,0.484153671 40.2831597,-0.101672271 39.3458382,0.0154929175 C14.2724879,2.71029225 -2.59929924,21.808218 0.329830469,45.0069253 C3.37612537,61.1757213 16.0299657,67.3854762 27.5121542,65.7451636 C39.1115078,63.8705206 47.0787406,53.0913233 45.2040976,41.4919696 C43.6809502,31.181433 35.1278914,23.9171913 25.1688504,23.5656958 Z" id="Shape"></path>
                    </g>
                </g>
            </g>
        </g>
    </g>
</svg>