<?xml version="1.0" encoding="UTF-8"?>
<svg width="56px" height="56px" viewBox="0 0 56 56" version="1.1" xmlns="http://www.w3.org/2000/svg" xmlns:xlink="http://www.w3.org/1999/xlink">
    <!-- Generator: Sketch 47.1 (45422) - http://www.bohemiancoding.com/sketch -->
    <title>Realtime Copy</title>
    <desc>Created with Sketch.</desc>
    <defs>
        <rect id="path-1" x="16" y="14" width="24" height="28" rx="2"></rect>
    </defs>
    <g id="Business-Template" stroke="none" stroke-width="1" fill="none" fill-rule="evenodd">
        <g transform="translate(-352.000000, -3720.000000)" id="Reporting">
            <g transform="translate(320.000000, 3664.000000)">
                <g id="Card-Label-Copy-2">
                    <g id="Realtime-Copy" transform="translate(32.000000, 56.000000)">
                        <g id="Dashboard">
                            <path d="M28,56 C51.463973,56 56,51.463973 56,28 C56,4.53602701 51.463973,0 28,0 C4.53602701,2.87350794e-15 0,4.53602701 0,28 C1.43675397e-15,51.463973 4.53602701,56 28,56 Z" id="Oval-6-Copy-3" fill="#00DBD4"></path>
                            <g id="Rectangle-6">
                                <use fill-opacity="0.699999988" fill="#FFFFFF" fill-rule="evenodd" xlink:href="#path-1"></use>
                                <rect stroke-opacity="0.2" stroke="#FFFFFF" stroke-width="4" x="14" y="12" width="28" height="32" rx="2"></rect>
                                <rect stroke-opacity="0.2" stroke="#FFFFFF" stroke-width="8" x="12" y="10" width="32" height="36" rx="2"></rect>
                            </g>
                            <g id="Group-4" transform="translate(21.000000, 19.000000)" stroke="#00DBD4" stroke-width="2" stroke-linecap="round" stroke-linejoin="round">
                                <rect id="Rectangle-13" x="0" y="0" width="14" height="18"></rect>
                                <path d="M0,6 L14,6" id="Path-5"></path>
                                <path d="M0,12 L14,12" id="Path-5-Copy"></path>
                                <path d="M6,0 L6,18" id="Path-10"></path>
                            </g>
                        </g>
                    </g>
                </g>
            </g>
        </g>
    </g>
</svg>