<?xml version="1.0" encoding="UTF-8"?>
<svg width="90px" height="102px" viewBox="0 0 90 102" version="1.1" xmlns="http://www.w3.org/2000/svg" xmlns:xlink="http://www.w3.org/1999/xlink">
    <!-- Generator: Sketch 47.1 (45422) - http://www.bohemiancoding.com/sketch -->
    <title>Direct to bank</title>
    <desc>Created with Sketch.</desc>
    <defs>
        <linearGradient x1="50%" y1="0%" x2="50%" y2="100%" id="linearGradient-1">
            <stop stop-color="#00E592" offset="0%"></stop>
            <stop stop-color="#00C759" offset="100%"></stop>
        </linearGradient>
        <path d="M28,55 C41.4079846,55 44,52.4079846 44,39 C44,25.5920154 41.4079846,23 28,23 C14.5920154,23 12,25.5920154 12,39 C12,52.4079846 14.5920154,55 28,55 Z" id="path-2"></path>
        <filter x="-143.8%" y="-137.5%" width="387.5%" height="387.5%" filterUnits="objectBoundingBox" id="filter-3">
            <feOffset dx="0" dy="2" in="SourceAlpha" result="shadowOffsetOuter1"></feOffset>
            <feGaussianBlur stdDeviation="15" in="shadowOffsetOuter1" result="shadowBlurOuter1"></feGaussianBlur>
            <feColorMatrix values="0 0 0 0 0   0 0 0 0 0.333333333   0 0 0 0 1  0 0 0 0.7 0" type="matrix" in="shadowBlurOuter1"></feColorMatrix>
        </filter>
        <linearGradient x1="50%" y1="0%" x2="50%" y2="100%" id="linearGradient-4">
            <stop stop-color="#3081FF" offset="0%"></stop>
            <stop stop-color="#0055FF" offset="99.3084343%"></stop>
        </linearGradient>
        <path d="M28,56 C51.463973,56 56,51.463973 56,28 C56,4.53602701 51.463973,0 28,0 C4.53602701,2.87350794e-15 0,4.53602701 0,28 C1.43675397e-15,51.463973 4.53602701,56 28,56 Z" id="path-5"></path>
        <path d="M34,24.9999844 L35.0000022,24.9999844 L35.0000022,24.9999844 C36.6568564,24.9999844 38.0000022,26.3431302 38.0000022,27.9999844 L38.0000022,35.0000248 L38.0000022,35.0000248 C38.0000022,36.6568791 36.6568564,38.0000248 35.0000022,38.0000248 L21,38.0000248 C19.3431458,38.0000248 18,36.6568791 18,35.0000248 L18,27.9999844 L18,27.9999844 C18,26.3431302 19.3431458,24.9999844 21,24.9999844 L22,24.9999844 L22,22 C22,19.2385763 24.2385763,17 27,17 L29,17 C31.7614237,17 34,19.2385763 34,22 L34,24.9999844 Z M32,24.9999844 L32,22 C32,20.3431458 30.6568542,19 29,19 L27,19 C25.3431458,19 24,20.3431458 24,22 L24,24.9999844 L32,24.9999844 Z" id="path-6"></path>
    </defs>
    <g id="Business-Template" stroke="none" stroke-width="1" fill="none" fill-rule="evenodd">
        <g transform="translate(-1122.000000, -1984.000000)" id="Group-2">
            <g transform="translate(88.000000, 1696.000000)">
                <g id="Group-3-Copy-4" transform="translate(978.000000, 304.000000)">
                    <g id="Direct-to-bank" transform="translate(73.000000, 0.000000)">
                        <g id="Oval-6">
                            <use fill="black" fill-opacity="1" filter="url(#filter-3)" xlink:href="#path-2"></use>
                            <use fill="url(#linearGradient-1)" fill-rule="evenodd" xlink:href="#path-2"></use>
                        </g>
                        <g id="Oval-6-Copy">
                            <use fill="url(#linearGradient-4)" fill-rule="evenodd" xlink:href="#path-5"></use>
                            <path stroke-opacity="0.1" stroke="#0055FF" stroke-width="8" d="M28,60 C2.32688801,60 -4,53.673112 -4,28 C-4,2.32688801 2.32688801,-4 28,-4 C53.673112,-4 60,2.32688801 60,28 C60,53.673112 53.673112,60 28,60 Z"></path>
                            <path stroke-opacity="0.1" stroke="#0055FF" stroke-width="16" d="M28,64 C13.4196613,64 5.37891641,62.2906047 -0.455844122,56.4558441 C-6.29060465,50.6210836 -8,42.5803387 -8,28 C-8,13.4196613 -6.29060465,5.37891641 -0.455844122,-0.455844122 C5.37891641,-6.29060465 13.4196613,-8 28,-8 C42.5803387,-8 50.6210836,-6.29060465 56.4558441,-0.455844122 C62.2906047,5.37891641 64,13.4196613 64,28 C64,42.5803387 62.2906047,50.6210836 56.4558441,56.4558441 C50.6210836,62.2906047 42.5803387,64 28,64 Z"></path>
                        </g>
                        <g id="Combined-Shape">
                            <use fill="#FFFFFF" fill-rule="evenodd" xlink:href="#path-6"></use>
                            <path stroke-opacity="0.1" stroke="#FFFFFF" stroke-width="3" d="M35.5,23.5274486 C37.7499763,23.7761697 39.5000022,25.6837068 39.5000022,27.9999844 L39.5000022,35.0000248 C39.5000022,37.4853062 37.4852836,39.5000248 35.0000022,39.5000248 L21,39.5000248 C18.5147186,39.5000248 16.5,37.4853062 16.5,35.0000248 L16.5,27.9999844 C16.5,25.6837076 18.2500248,23.7761709 20.5,23.5274488 L20.5,22 C20.5,18.4101491 23.4101491,15.5 27,15.5 L29,15.5 C32.5898509,15.5 35.5,18.4101491 35.5,22 L35.5,23.5274486 Z M30.5,23.4999844 L30.5,22 C30.5,21.1715729 29.8284271,20.5 29,20.5 L27,20.5 C26.1715729,20.5 25.5,21.1715729 25.5,22 L25.5,23.4999844 L30.5,23.4999844 Z"></path>
                            <path stroke-opacity="0.1" stroke="#FFFFFF" stroke-width="6" d="M37,22.3413951 C39.3303859,23.1650672 41.0000022,25.3875459 41.0000022,27.9999844 L41.0000022,35.0000248 C41.0000022,38.3137333 38.3137107,41.0000248 35.0000022,41.0000248 L21,41.0000248 C17.6862915,41.0000248 15,38.3137333 15,35.0000248 L15,27.9999844 C15,25.3875468 16.6696153,23.1650686 19,22.3413958 L19,22 C19,17.581722 22.581722,14 27,14 L29,14 C33.418278,14 37,17.581722 37,22 L37,22.3413951 Z M32,21.9999844 L24,21.9999844 L24,24.9999844 L27,24.9999844 L27,22 L29,22 L29,24.9999844 L32,24.9999844 L32,21.9999844 Z"></path>
                        </g>
                    </g>
                </g>
            </g>
        </g>
    </g>
</svg>