<?xml version="1.0" encoding="UTF-8"?>
<svg width="148px" height="19px" viewBox="0 0 148 19" version="1.1" xmlns="http://www.w3.org/2000/svg" xmlns:xlink="http://www.w3.org/1999/xlink">
    <!-- Generator: Sketch 47.1 (45422) - http://www.bohemiancoding.com/sketch -->
    <title>Stars</title>
    <desc>Created with Sketch.</desc>
    <defs></defs>
    <g id="Front-Page" stroke="none" stroke-width="1" fill="none" fill-rule="evenodd">
        <g id="Desktop-Home" transform="translate(-520.000000, -6033.000000)" fill="#0092FF">
            <g id="Reviews" transform="translate(-248.000000, 5680.000000)">
                <g transform="translate(0.000000, 90.000000)" id="Group-2">
                    <g transform="translate(728.000000, 214.000000)">
                        <g id="Stars" transform="translate(40.000000, 49.000000)">
                            <polygon id="Star-2" points="42 14.4999999 36.1221475 18.0901699 37.7202458 11.3905764 32.4894348 6.90983006 39.3549664 6.35942362 42 0 44.6450336 6.35942362 51.5105652 6.90983006 46.2797542 11.3905764 47.8778525 18.0901699"></polygon>
                            <polygon id="Star-2-Copy-2" points="74 14.4999999 68.1221475 18.0901699 69.7202458 11.3905764 64.4894348 6.90983006 71.3549664 6.35942362 74 0 76.6450336 6.35942362 83.5105652 6.90983006 78.2797542 11.3905764 79.8778525 18.0901699"></polygon>
                            <polygon id="Star-2-Copy-3" points="106 14.4999999 100.122147 18.0901699 101.720246 11.3905764 96.4894348 6.90983006 103.354966 6.35942362 106 0 108.645034 6.35942362 115.510565 6.90983006 110.279754 11.3905764 111.877853 18.0901699"></polygon>
                            <polygon id="Star-2-Copy-4" points="138 14.4999999 132.122147 18.0901699 133.720246 11.3905764 128.489435 6.90983006 135.354966 6.35942362 138 0 140.645034 6.35942362 147.510565 6.90983006 142.279754 11.3905764 143.877853 18.0901699"></polygon>
                            <polygon id="Star-2-Copy" points="10 14.4999999 4.12214748 18.0901699 5.72024579 11.3905764 0.489434837 6.90983006 7.35496643 6.35942362 10 0 12.6450336 6.35942362 19.5105652 6.90983006 14.2797542 11.3905764 15.8778525 18.0901699"></polygon>
                        </g>
                    </g>
                </g>
            </g>
        </g>
    </g>
</svg>