<svg xmlns="http://www.w3.org/2000/svg" width="128" height="45" viewBox="0 0 128 45"><g fill="#9BB2CC" fill-rule="evenodd" opacity=".5"><path d="M24.751702 17.2396849C24.7700715 13.3744757 21.6883005 10.1684177 17.92256 10.1348055 14.0995615 10.100607 10.9493936 13.2648452 10.9173447 17.1708971 10.8856867 21.0097246 13.9869997 24.233175 17.7570394 24.2802711 21.5718302 24.3279536 24.7331371 21.1457368 24.751702 17.2396849zM10.88256 29.6507994C10.4186333 29.4686681 10.1126058 29.3695902 9.82475237 29.2320147 8.59282565 28.6430192 7.31419359 28.1300421 6.14773252 27.4302437 1.80667603 24.8272513-.164523969 20.9053704.0107676336 15.8981276.239799695 9.34882687 4.95195847 3.64862534 11.3574302 2.29866504 16.7650882 1.15897649 21.2271096 3.07467725 24.9142913 6.97975206 27.3693508 9.58000855 28.4572531 12.7932971 28.630786 16.3139811 28.8883493 21.5418528 27.3974913 26.3552391 24.968618 30.9128208 23.1918608 34.2468788 20.9482455 37.2276177 18.0314089 39.6631353 16.5972226 40.8606681 15.0420715 41.8668849 13.267073 42.4896879 11.1825295 43.220949 9.05636153 43.3153368 6.9184684 42.782036 4.52086229 42.1842467 3.52422107 40.6802956 3.84197374 38.2361795 4.01902412 36.8742986 4.6046974 35.6886864 5.41627603 34.6025429 6.6575829 32.9408879 8.21136611 31.6087108 9.87341191 30.3918315 10.1589203 30.1827322 10.4438424 29.9728513 10.88256 29.6507994zM35.7767035 21.4383389C38.028331 21.1409099 40.0218089 20.8434809 42.0236898 20.6267603 43.0822791 20.5122443 44.1778027 20.3840489 45.218218 20.5325679 47.3742852 20.8397679 48.766847 22.4166107 48.9251371 24.4642198 49.087531 26.5681099 47.9259554 28.3683176 45.9332592 29.1236153 44.9313417 29.5035115 43.9038241 29.5339969 42.8542241 29.4284702 41.3969783 29.2817099 39.9375829 29.1556641 38.4785783 29.0261008 38.2911707 29.0094901 38.1012226 29.0237557 37.7690089 29.0237557 37.9329661 29.3759023 38.0525631 29.6231084 38.1641478 29.8738321 38.8780165 31.4766656 39.6432806 33.0595664 40.2866027 34.690345 40.8183402 36.0381557 40.9246485 37.4772275 40.7941081 38.9229435 40.4269142 42.988458 36.6793478 43.8182107 34.2344501 42.5817893 32.441473 41.6750412 31.4731676 40.1318107 31.0750974 38.2336977 30.7485508 36.6752244 30.4712501 35.0974046 30.3131554 33.5139176 29.716734 27.5401282 29.5850211 21.5579359 30.2643005 15.5802382 30.5333936 13.2121405 31.0354272 10.8909435 31.9970882 8.69207939 32.5628287 7.39898626 33.2880318 6.21239695 34.3044104 5.21516947 35.7110424 3.83530992 37.3998608 3.00966107 39.355818 2.94829924 41.9238302 2.86759084 44.4980959 2.89065038 47.0668898 2.9647145 48.4748898 3.00516641 49.8269997 3.42121527 51.0679157 4.1196458 53.1594944 5.2972458 54.0369295 7.07478473 53.5583463 9.12981985 53.0418516 11.3480305 51.1619127 13.0348947 48.9290455 13.0925435 45.9682394 13.1689527 43.004502 13.1157985 40.0423279 13.1382718 39.3945111 13.1433527 38.7365325 13.1754015 38.1016134 13.2944122 36.4710302 13.6000489 35.4061875 14.6383145 35.3801966 16.2814046 35.3534241 17.9536122 35.6246669 19.6305099 35.7767035 21.4383389M122.419063 27.2081881L114.785769 27.2081881 114.785769 28.7240598C117.010624 28.7240598 119.148126 28.7522003 121.283869 28.7099896 122.120657 28.6933789 122.449158 28.1989667 122.419063 27.2081881L122.419063 27.2081881zM110.551607 22.7698125L102.846593 22.7698125 102.846593 24.2921331C105.453885 24.2954553 107.994538 24.3108934 110.551607 24.282753L110.551607 22.7698125zM114.7375 24.2239316L122.418672 24.2239316 122.418672 22.774698 114.7375 22.774698 114.7375 24.2239316zM102.848547 28.6580079L110.532456 28.6580079 110.532456 27.1999805 102.848547 27.1999805 102.848547 28.6580079zM98.9014571 31.4534889C98.5745197 30.4902644 98.5975792 20.8017392 98.9254937 19.9682736L126.485359 19.9682736C126.530306 20.3296049 126.607106 20.6678766 126.608669 21.0065392 126.620004 23.1534217 126.62313 25.3003041 126.612382 27.447382 126.599875 29.9868629 125.104523 31.5183682 122.54335 31.535956 118.31466 31.5646827 114.085579 31.5443591 109.857085 31.5447499 106.60393 31.5449453 103.351167 31.5480721 100.098208 31.5406461 99.6862632 31.539669 99.2741227 31.4818247 98.9014571 31.4534889L98.9014571 31.4534889zM83.9205911 6.54406351L77.2030339 6.54406351C76.8090675 7.46742229 76.4025942 8.41735817 75.998466 9.36827115 75.7821362 9.87753527 75.5785087 10.3924666 75.3518217 10.8970406 75.0962125 11.4659078 74.6662889 11.9157643 74.0470034 11.9583658 73.0255438 12.0281307 71.9958766 11.9773215 70.8073331 11.9773215 72.4644934 8.00404519 74.0729942 4.14704366 75.6926339.264051298L79.4210492.264051298C79.6563347 1.51806046 78.6526583 2.39256427 78.5410736 3.59029252 78.916866 3.60768489 79.260414 3.63699786 79.6041576 3.6373887 82.5340873 3.64110168 85.4642125 3.6344574 88.3943377 3.64540092 88.7941667 3.64696427 89.1938003 3.72845435 89.7441026 3.78962076 89.5807316 4.26683603 89.5127255 4.6092116 89.3556079 4.90390473 84.8539163 13.348778 80.3373728 21.7858345 75.8427163 30.2346162 75.3569026 31.1478131 74.6668751 31.5712879 73.6489331 31.548033 72.7107224 31.5267322 71.7713392 31.5435383 70.5783011 31.5435383 75.0565423 23.1527963 79.4390278 14.9410589 83.9205911 6.54406351"/><path d="M4.23910595,6.47168 L26.4636189,6.47168 L26.4636189,5.09338382 C25.3569563,4.83269374 4.9543426,4.88780214 4.23910595,5.14673344 L4.23910595,6.47168 Z M26.8886571,7.55411053 C26.8151792,8.16929221 26.7549899,8.6723029 26.6850296,9.25699908 L3.97724336,9.25699908 C3.91334107,8.68715481 3.85706015,8.18629374 3.78162809,7.51385405 L0.16167084,7.51385405 L0.16167084,2.20351511 C1.57592427,2.01219908 2.93565557,2.13472733 4.28620214,2.11264489 C5.65277313,2.09036702 7.01973496,2.10775939 8.38669679,2.10775939 L12.5962357,2.10775939 C12.4053105,1.63875176 12.2659762,1.31826321 12.1442296,0.991325802 C11.9748006,0.536388397 12.0814998,0.175057099 12.6122602,0.164113588 C13.9454144,0.136754809 15.2822815,0.116431145 16.6119182,0.193035725 C16.9116922,0.210232672 17.246251,0.590910534 17.459454,0.881499847 C17.703338,1.21390901 17.8301655,1.63249832 18.0515762,2.10756397 L19.102935,2.10756397 C22.5524861,2.10775939 26.0018418,2.10463267 29.4515884,2.10971359 C30.5430082,2.11147237 30.5994846,2.17517924 30.6063243,3.28399145 C30.6127731,4.35782351 30.6133594,5.43185099 30.6121869,6.50568305 C30.6112098,7.44819298 30.5177991,7.54238534 29.5336647,7.55235176 C28.6642418,7.56095023 27.7948189,7.55411053 26.8886571,7.55411053 L26.8886571,7.55411053 Z" transform="translate(97.32 .056)"/><path d="M59.0089576 2.22250992L70.4216721 2.22250992C70.4322247 3.0217771 70.4785392 3.75440611 70.4380873 4.48214962 70.4124873 4.94392672 70.0030827 4.98848244 69.6274858 4.98945954 68.7865942 4.99180458 67.945898 4.99024122 67.0244934 4.99024122L67.0244934 12.8816855 69.824469 12.8816855 69.824469 15.6629008 67.0098369 15.6629008 67.0098369 24.0974168C68.1626186 23.8353588 69.2309789 23.5922565 70.2938675 23.3503267 70.8277545 25.1237618 70.2530247 26.1899725 68.5651835 26.6075847 65.9123591 27.2638046 63.2585576 27.9153344 60.6022156 28.5565069 59.6083102 28.796287 59.4449392 28.6591023 59.4171896 27.6571847 59.4152354 27.5921099 59.4167988 27.5270351 59.4164079 27.4619603 59.4040965 25.9812641 59.4044873 25.9832183 60.8124873 25.6416244 61.4692934 25.4821618 62.1237545 25.314687 62.7999072 25.1458443L62.7999072 15.7023756 59.732011 15.7023756C59.3366766 14.8311939 59.3159621 13.9232733 59.6593148 12.9215511L62.7703988 12.9215511 62.7703988 4.9959084 59.0089576 4.9959084 59.0089576 2.22250992zM105.354162 15.3934168L119.97098 15.3934168 119.97098 13.9211237 105.354162 13.9211237 105.354162 15.3934168zM101.296073 18.1656427C101.253081 17.7986443 101.19895 17.5469435 101.198168 17.2948519 101.190547 15.5374412 101.185856 13.7800305 101.197582 12.0226198 101.203444 11.138345 101.318547 11.0187481 102.23018 11.017771 109.194748 11.0111267 116.159511 11.0128855 123.124275 11.0197252 123.404507 11.0199206 123.684934 11.0941802 124.003273 11.1393221 124.042944 11.4641099 124.099029 11.7162015 124.100592 11.9684885 124.108995 13.4003298 124.121307 14.8327573 124.099224 16.2642076 124.079878 17.4988702 123.413692 18.173655 122.174534 18.2674565 121.915408 18.2871939 121.654131 18.280745 121.393832 18.280745 115.145282 18.2815267 108.896537 18.2834809 102.647792 18.2764458 102.209075 18.2758595 101.770553 18.2062901 101.296073 18.1656427L101.296073 18.1656427zM93.0528537 31.4871988C91.8752537 31.4871988 90.7095744 31.5354675 89.5501484 31.4705881 88.7471682 31.4258369 88.3401087 30.8045973 88.0217698 30.1233637 86.809385 27.5291652 85.5837118 24.9412202 84.3633148 22.3509301 83.9613362 21.4973362 83.5546675 20.6455011 83.1605056 19.7883896 83.028011 19.5005362 82.9267835 19.1982217 82.76224 18.7768965 83.1382278 18.6608171 83.421782 18.5072171 83.7102217 18.4968598 84.6204873 18.4640293 85.5325118 18.4915835 86.4437545 18.4825942 86.8789545 18.4784904 87.1759927 18.6358034 87.3684812 19.0485301 89.2667896 23.1171713 91.1754553 27.180927 93.07904 31.2470278 93.0905698 31.2718461 93.0733728 31.3105392 93.0528537 31.4871988M125.268109 44.1242186C125.268109 43.6036202 125.271626 43.0961148 125.267327 42.5890003 125.260292 41.7424415 125.276707 40.8945148 125.230002 40.0499102 125.189159 39.3131774 124.865739 38.9897576 124.24704 38.9412934 123.606845 38.8910705 123.090936 39.2242614 122.936359 39.8656293 122.846075 40.2396629 122.841776 40.6392965 122.837086 41.0279866 122.824188 42.0306858 122.832591 43.0337759 122.832591 44.1187469L121.481849 44.1187469C121.481849 43.2571408 121.485562 42.4223072 121.480481 41.5874736 121.47755 41.0666797 121.483803 40.5443224 121.445306 40.0256782 121.407003 39.5064476 121.2194 39.0618675 120.623174 38.9665026 120.045709 38.8746553 119.553055 39.086295 119.310735 39.5959499 119.122936 39.990698 119.041055 40.4640049 119.02464 40.9064354 118.985361 41.9728415 119.011742 43.0417881 119.011742 44.1187469 118.092683 44.0251408 117.697153 43.7583927 117.672921 43.0382705 117.61879 41.4180446 117.656115 39.7948873 117.656115 38.2092507 118.350246 37.8205606 118.67308 38.3216171 119.042814 38.6407377 120.461367 37.5827347 121.331962 37.588011 122.6786 38.6872476 123.307657 38.0996202 124.045171 37.7666247 124.954264 37.8852446 125.953055 38.015785 126.53482 38.5135194 126.582307 39.5023438 126.638197 40.6719316 126.633898 41.8471866 126.594032 43.0177515 126.568628 43.7630827 126.257129 44.0003224 125.268109 44.1242186M60.6423548 38.5268861C60.6464586 39.5424831 61.2338907 40.2514663 62.0796678 40.2618235 62.9666785 40.2729624 63.6166449 39.5172739 63.6027701 38.4921014 63.5898724 37.5247731 62.9485044 36.8120769 62.0880708 36.8089502 61.2301777 36.8056281 60.638251 37.509335 60.6423548 38.5268861M59.5599243 42.2320464C60.0859945 42.0063365 60.4778113 42.2568647 60.8553624 42.5937685 62.0292495 43.6412189 63.0804128 43.3316739 63.5064281 41.8077899 63.592022 41.501567 63.6262205 41.1806876 63.7135731 40.7050357 63.3756922 40.8785685 63.1701105 40.9883945 62.9608159 41.0911853 61.6106602 41.7554174 59.9849624 41.1621227 59.4909411 39.7549044 59.108309 38.6646571 59.1202296 37.5562357 59.9128525 36.6147029 60.6855426 35.6968159 61.7241991 35.5387212 62.848254 35.7360953 63.6862144 35.8832464 64.3072586 36.365738 64.5980434 37.1394052 65.3003823 39.0068373 65.3574449 40.9049502 64.5185075 42.7450235 63.9297075 44.035967 62.756993 44.5741533 61.3718571 44.3238205 60.3013472 44.1303548 59.5962724 43.3291334 59.5599243 42.2320464M74.6524727 41.1230779C74.7083627 41.4349679 74.7333765 41.7622962 74.8289368 42.067542 75.0644177 42.8195176 75.6872208 43.2914565 76.3973765 43.2990779 77.1182803 43.3066992 77.7053215 42.8607511 77.9669887 42.0816122 78.2028605 41.3792733 78.1745246 40.6775206 77.879636 39.9972641 77.5745856 39.2945344 76.9699566 38.902913 76.2895047 38.9416061 75.5603933 38.9830351 75.0007108 39.4620092 74.7951292 40.2501374 74.7222376 40.5299786 74.6999597 40.8227176 74.6524727 41.1230779M74.7908299 43.6973435C74.6726009 43.8622779 74.5690284 44.0063023 74.4554895 44.1643969 73.8449979 44.098345 73.4287536 43.739945 73.419178 43.1796763 73.377749 40.7209038 73.4013948 38.2609588 73.4013948 35.7234321L74.7019139 35.7234321 74.7019139 38.4270656C75.4112879 38.2224611 76.0082956 38.0295817 76.6174192 37.8863389 76.8278864 37.8368977 77.07392 37.8841893 77.2929856 37.933826 78.5198315 38.211713 79.1799597 39.0486962 79.3841734 40.2302046 79.6266895 41.6331237 79.5364055 43.0190412 78.2630498 43.9273527 77.2818467 44.6271511 76.1828055 44.5282687 75.1412177 43.9312611 75.0317826 43.8685313 74.9307505 43.791145 74.7908299 43.6973435M72.3034284 36.9339603L68.0036055 36.9339603 68.0036055 39.1629191 71.700949 39.1629191 71.700949 40.4048122 67.9537734 40.4048122 67.9537734 44.0464611C66.8869765 44.1777832 66.4306711 43.7904611 66.4177734 42.7662656 66.3941276 40.8804641 66.4109337 38.9942718 66.4111292 37.1084702 66.4111292 37.0433954 66.4103475 36.9779298 66.4173826 36.9134412 66.4967231 36.1976183 66.8641124 35.7159084 67.5768085 35.688745 69.0954162 35.6310962 70.6177368 35.6711573 72.2410895 35.6711573 72.261804 36.0924824 72.2784147 36.4291908 72.3034284 36.9339603M84.2860653 41.2706003C83.6941386 41.3688965 83.0920501 41.4499957 82.4987554 41.5733056 82.0072745 41.6755102 81.6564959 41.9797789 81.6940165 42.5113209 81.7338821 43.0729576 82.1980043 43.215614 82.6654485 43.2804934 83.9481844 43.4581301 84.6059676 42.6686339 84.2860653 41.2706003M86.4659737 43.5192965C85.9338455 44.5688965 85.4783218 44.628695 84.6362577 43.9668079 83.6704928 44.1071194 82.8505111 44.3173911 82.0297478 44.321495 81.0661325 44.3263805 80.4019005 43.6453423 80.3059493 42.7786553 80.198273 41.8074186 80.673534 41.0925728 81.6819005 40.8365728 82.3410516 40.6694889 83.0252165 40.5999194 83.6986333 40.4893118 84.11136 40.4213056 84.4926241 40.2751316 84.507476 39.7961576 84.5235005 39.2786858 84.1373508 39.0817026 83.6927707 38.9804751 82.9269203 38.8061606 82.4151157 39.0305026 81.7725753 39.8391499L80.6365997 39.8391499C80.5662485 38.9206766 81.06496 38.4401392 81.7493203 38.1472049 82.6464928 37.7634003 83.5944745 37.7634003 84.5213508 38.042069 85.4122699 38.3097942 85.7745783 38.8227713 85.7952928 39.7719255 85.8136623 40.6171163 85.7947066 41.4632843 85.803305 42.3090614 85.810731 43.0375866 85.8175707 43.0375866 86.4659737 43.5192965M99.5875762 38.1601026C98.779906 38.9456904 98.0898785 39.6167621 97.3636983 40.3230095 97.8063243 40.999553 98.2143609 41.6225515 98.6214205 42.2457453 99.0075701 42.8376721 99.392938 43.4299896 99.79648 44.0492751 98.6141899 44.3193453 98.2722052 44.2069789 97.7269838 43.3823072 97.2822082 42.7092812 96.8569747 42.0233576 96.4235334 41.3436873 95.0182693 41.9424537 95.8437227 43.2423866 95.4243518 44.1352598 94.6911365 44.1729759 94.2430388 43.7506736 94.229164 43.1214217 94.1752281 40.6884446 94.2072769 38.2537087 94.2072769 35.7322064L95.5441441 35.7322064 95.5441441 40.166869C95.6248525 40.1940324 95.7055609 40.2213911 95.7864647 40.2485545 96.2841991 39.7564873 96.8174998 39.2951011 97.2708739 38.764927 97.8475579 38.0903377 98.5305502 37.9070339 99.5875762 38.1601026M111.627842 41.089876C111.677675 41.4183768 111.693113 41.6812165 111.759751 41.9305722 111.989565 42.7896379 112.646957 43.3168806 113.435867 43.2979249 114.188233 43.2797508 114.860478 42.7822119 115.00841 41.9465966 115.112374 41.3597508 115.095763 40.7109569 114.95721 40.1319279 114.773711 39.3641234 114.0702 38.9205203 113.360239 38.9392806 112.676856 38.9570638 112.082584 39.3891371 111.832838 40.1084776 111.717345 40.4410821 111.685491 40.8026089 111.627842 41.089876M113.338743 44.3514333C111.420502 44.3391218 110.294297 43.1275188 110.303091 41.0861631 110.311885 39.0842821 111.490071 37.8652531 113.409876 37.8718974 115.305253 37.8785417 116.524868 39.1454485 116.525259 41.1086363 116.525455 43.1302547 115.312875 44.364331 113.338743 44.3514333M91.3637227 44.1142913C91.3637227 43.1387554 91.3779884 42.1704501 91.3578602 41.202731 91.3475029 40.7184806 91.3336281 40.2207463 91.2161808 39.755647 91.0221289 38.985302 90.4094876 38.731647 89.7128159 39.1070485 88.9891762 39.4969111 88.6704464 40.1482455 88.6669289 40.9576745 88.6626296 41.992618 88.6657563 43.0273661 88.6657563 44.0572287 87.7918388 44.0929905 87.3496037 43.8295646 87.3263487 43.119018 87.2726082 41.4710424 87.3093472 39.8197447 87.3093472 38.2047951 87.9735792 37.8655463 88.2827334 38.2784684 88.6520769 38.6839646 88.8558998 38.537986 89.0524922 38.3855585 89.2602235 38.2505234 90.669396 37.3349814 92.3820556 37.9921783 92.6194907 39.6436715 92.7842296 40.789418 92.7244311 41.9760073 92.6763579 43.1407096 92.6497808 43.7834455 92.2464342 44.0341692 91.3637227 44.1142913M109.324605 41.9379591C109.227872 43.2390644 108.506773 44.09344 107.367866 44.3142644 105.902217 44.5984049 104.589191 44.0846461 104.016415 42.9287377 103.416281 41.7169392 103.433673 40.461953 104.06996 39.2741911 104.919841 37.6877728 107.565631 37.3409026 108.796189 38.6506064 109.103585 38.9781301 109.25484 39.4522186 109.505173 39.9087194 108.796776 40.1795713 108.326986 40.0783438 107.961747 39.6165667 107.483359 39.011156 106.888501 38.7946308 106.153722 39.0398827 105.363444 39.3035041 105.073246 39.9452629 105.031426 40.700756 105.005044 41.1801209 105.027322 41.6825453 105.146137 42.1443224 105.300128 42.7421118 105.710901 43.1689087 106.357936 43.2740446 106.956898 43.3711682 107.457368 43.1683224 107.798376 42.6662889 108.1728 42.1150095 108.617966 41.7781056 109.324605 41.9379591"/><polygon points="100.789 44.12 102.287 44.12 102.287 42.668 100.789 42.668"/></g></svg>