<svg xmlns="http://www.w3.org/2000/svg" xmlns:xlink="http://www.w3.org/1999/xlink" width="1440" height="448">
  <defs>
    <linearGradient id="b" x1="-3.422%" x2="128.018%" y1="-5.925%" y2="113.75%">
      <stop offset="0%" stop-color="#0C55FB"/>
      <stop offset="100%" stop-color="#1290FC"/>
    </linearGradient>
    <rect id="a" width="1440" height="448"/>
  </defs>
  <g fill="none" fill-rule="evenodd">
    <mask id="c" fill="white">
      <use xlink:href="#a"/>
    </mask>
    <use fill="url(#b)" xlink:href="#a"/>
    <g mask="url(#c)" opacity=".7">
      <g transform="translate(-221 -457)">
        <path fill="#94C5FF" d="M569.549331,316 L444.364416,620.856556 C427.027064,663.072582 385.809651,690.649776 340.047774,690.649776 L108,690.649776 L233.189035,385.797328 C250.526387,343.577194 291.743801,316 337.501557,316 L569.549331,316 Z" opacity=".06"/>
        <path fill="#94C5FF" d="M1320.8318,0 L1045.86511,669.612609 C1007.78389,762.339443 917.250495,822.912314 816.735257,822.912314 L0,823.014628 L274.975737,153.411041 C313.056958,60.6751846 403.590355,0.10231363 504.096543,0.10231363 L1320.8318,0 Z" opacity=".1"/>
        <path fill="#1A32AF" fill-opacity=".4" d="M1914.10942,583.974046 L1759.31104,960.946809 C1737.8724,1013.14937 1686.90468,1047.25016 1630.31748,1047.25016 L584.570234,1047.23888 L739.373716,670.271198 C760.812355,618.063561 811.78007,583.962766 868.362182,583.962766 L1914.10942,583.974046 Z" opacity=".3"/>
        <path fill="#0092FF" fill-opacity=".4" d="M1962.49582,373.295213 L1859.34566,624.491621 C1845.05999,659.27688 1811.09757,682 1773.3906,682 L1294.15959,682 L1397.31314,430.806976 C1411.59881,396.018333 1445.56123,373.295213 1483.26481,373.295213 L1962.49582,373.295213 Z" opacity=".4"/>
        <path fill="#0092FF" fill-opacity=".2" d="M1879.8102,814.789894 L1786.82177,1041.23996 C1773.94344,1072.59839 1743.32679,1093.08297 1709.33447,1093.08297 L369.789298,1093.08297 L462.780788,866.635948 C475.659123,835.27447 506.275772,814.789894 540.265026,814.789894 L1879.8102,814.789894 Z" opacity=".4"/>
      </g>
    </g>
  </g>
</svg>
