<svg xmlns="http://www.w3.org/2000/svg" width="392" height="64" viewBox="0 0 392 64"><g fill="none" fill-rule="evenodd"><rect width="392" height="64" fill="#00C759" rx="4"/><g transform="translate(24 27)"><rect width="16" height="16"/><polyline stroke="#FFF" stroke-linecap="round" stroke-linejoin="round" stroke-width="2" points="2 8 6 12 15 3"/></g><path fill="#FFF" d="M303.664062 40L301.828125 40 301.828125 32.625C301.828125 31.7447873 301.848958 31.0468776 301.890625 30.53125 301.770833 30.6562506 301.623699 30.7942701 301.449219 30.9453125 301.274739 31.0963549 300.690109 31.5755168 299.695312 32.3828125L298.773438 31.21875 302.132812 28.578125 303.664062 28.578125 303.664062 40zM315.148438 34.2890625C315.148438 36.2734474 314.82943 37.747391 314.191406 38.7109375 313.553382 39.674484 312.578132 40.15625 311.265625 40.15625 309.994785 40.15625 309.031253 39.6588591 308.375 38.6640625 307.718747 37.6692659 307.390625 36.2109471 307.390625 34.2890625 307.390625 32.2734274 307.709632 30.7877652 308.347656 29.8320312 308.98568 28.8762973 309.958327 28.3984375 311.265625 28.3984375 312.541673 28.3984375 313.507809 28.8984325 314.164062 29.8984375 314.820316 30.8984425 315.148438 32.3619695 315.148438 34.2890625zM309.25 34.2890625C309.25 35.846362 309.410155 36.95833 309.730469 37.625 310.050783 38.29167 310.562496 38.625 311.265625 38.625 311.968754 38.625 312.483071 38.2864617 312.808594 37.609375 313.134116 36.9322883 313.296875 35.8255285 313.296875 34.2890625 313.296875 32.7578048 313.134116 31.649743 312.808594 30.9648438 312.483071 30.2799445 311.968754 29.9375 311.265625 29.9375 310.562496 29.9375 310.050783 30.2734341 309.730469 30.9453125 309.410155 31.6171909 309.25 32.731763 309.25 34.2890625zM316.875 39.0234375C316.875 38.6432273 316.973957 38.3515635 317.171875 38.1484375 317.369793 37.9453115 317.656248 37.84375 318.03125 37.84375 318.41146 37.84375 318.70052 37.9492177 318.898438 38.1601562 319.096355 38.3710948 319.195312 38.6588523 319.195312 39.0234375 319.195312 39.393231 319.095053 39.6861968 318.894531 39.9023438 318.694009 40.1184907 318.406252 40.2265625 318.03125 40.2265625 317.656248 40.2265625 317.369793 40.1197927 317.171875 39.90625 316.973957 39.6927073 316.875 39.3984394 316.875 39.0234375zM316.875 32.3515625C316.875 31.5651002 317.260413 31.171875 318.03125 31.171875 318.421877 31.171875 318.713541 31.2760406 318.90625 31.484375 319.098959 31.6927094 319.195312 31.981769 319.195312 32.3515625 319.195312 32.721356 319.095053 33.0143218 318.894531 33.2304688 318.694009 33.4466157 318.406252 33.5546875 318.03125 33.5546875 317.656248 33.5546875 317.369793 33.4479177 317.171875 33.234375 316.973957 33.0208323 316.875 32.7265644 316.875 32.3515625zM328.679688 40L320.9375 40 320.9375 38.609375 323.882812 35.6484375C324.752609 34.757808 325.329426 34.1263039 325.613281 33.7539062 325.897137 33.3815086 326.104166 33.0312516 326.234375 32.703125 326.364584 32.3749984 326.429688 32.0234394 326.429688 31.6484375 326.429688 31.1328099 326.274741 30.726564 325.964844 30.4296875 325.654946 30.132811 325.226565 29.984375 324.679688 29.984375 324.242185 29.984375 323.819012 30.0651034 323.410156 30.2265625 323.0013 30.3880216 322.528649 30.6796854 321.992188 31.1015625L321 29.890625C321.63542 29.354164 322.252601 28.9739595 322.851562 28.75 323.450524 28.5260405 324.088538 28.4140625 324.765625 28.4140625 325.82813 28.4140625 326.679684 28.6914035 327.320312 29.2460938 327.960941 29.800784 328.28125 30.5468703 328.28125 31.484375 328.28125 32.0000026 328.188803 32.489581 328.003906 32.953125 327.819009 33.416669 327.535158 33.8945288 327.152344 34.3867188 326.769529 34.8789087 326.132817 35.5442666 325.242188 36.3828125L323.257812 38.3046875 323.257812 38.3828125 328.679688 38.3828125 328.679688 40zM337.796875 33.453125C337.796875 35.7031363 337.343755 37.382807 336.4375 38.4921875 335.531245 39.601568 334.166676 40.15625 332.34375 40.15625 331.651038 40.15625 331.153647 40.1145838 330.851562 40.03125L330.851562 38.4921875C331.315106 38.6223965 331.781248 38.6875 332.25 38.6875 333.48959 38.6875 334.414059 38.35417 335.023438 37.6875 335.632816 37.02083 335.966146 35.9739655 336.023438 34.546875L335.929688 34.546875C335.622394 35.0156273 335.251304 35.3541656 334.816406 35.5625 334.381508 35.7708344 333.872399 35.875 333.289062 35.875 332.278641 35.875 331.484378 35.559899 330.90625 34.9296875 330.328122 34.299476 330.039062 33.4349013 330.039062 32.3359375 330.039062 31.1432232 330.373695 30.1940139 331.042969 29.4882812 331.712243 28.7825486 332.624994 28.4296875 333.78125 28.4296875 334.593754 28.4296875 335.30208 28.6276022 335.90625 29.0234375 336.51042 29.4192728 336.976561 29.9934858 337.304688 30.7460938 337.632814 31.4987017 337.796875 32.4010364 337.796875 33.453125zM333.8125 29.953125C333.17708 29.953125 332.690106 30.1601542 332.351562 30.5742188 332.013019 30.9882833 331.84375 31.5703088 331.84375 32.3203125 331.84375 32.9713574 332.001301 33.4830711 332.316406 33.8554688 332.631512 34.2278664 333.109372 34.4140625 333.75 34.4140625 334.369795 34.4140625 334.890623 34.2291685 335.3125 33.859375 335.734377 33.4895815 335.945312 33.0572941 335.945312 32.5625 335.945312 32.098956 335.85547 31.6653666 335.675781 31.2617188 335.496093 30.8580709 335.244793 30.5390637 334.921875 30.3046875 334.598957 30.0703113 334.229169 29.953125 333.8125 29.953125zM351.25 40L350.109375 36.828125 345.742188 36.828125 344.625 40 342.65625 40 346.929688 28.53125 348.960938 28.53125 353.234375 40 351.25 40zM349.617188 35.21875L348.546875 32.109375C348.46875 31.9010406 348.360678 31.5729189 348.222656 31.125 348.084635 30.6770811 347.989584 30.3489594 347.9375 30.140625 347.796874 30.7812532 347.591147 31.481767 347.320312 32.2421875L346.289062 35.21875 349.617188 35.21875zM359.679688 40L356.367188 30.4609375 356.304688 30.4609375C356.39323 31.8776113 356.4375 33.205723 356.4375 34.4453125L356.4375 40 354.742188 40 354.742188 28.578125 357.375 28.578125 360.546875 37.6640625 360.59375 37.6640625 363.859375 28.578125 366.5 28.578125 366.5 40 364.703125 40 364.703125 34.3515625C364.703125 33.7838513 364.717448 33.0442754 364.746094 32.1328125 364.77474 31.2213496 364.799479 30.6692718 364.820312 30.4765625L364.757812 30.4765625 361.328125 40 359.679688 40zM61.453125 40L59.5859375 40 59.5859375 30.1796875 56.2265625 30.1796875 56.2265625 28.578125 64.8125 28.578125 64.8125 30.1796875 61.453125 30.1796875 61.453125 40zM69.953125 31.203125C70.3229185 31.203125 70.627603 31.2291664 70.8671875 31.28125L70.6875 32.9921875C70.427082 32.9296872 70.1562514 32.8984375 69.875 32.8984375 69.1406213 32.8984375 68.5455752 33.1380184 68.0898438 33.6171875 67.6341123 34.0963566 67.40625 34.7187462 67.40625 35.484375L67.40625 40 65.5703125 40 65.5703125 31.359375 67.0078125 31.359375 67.25 32.8828125 67.34375 32.8828125C67.6302098 32.3671849 68.0039039 31.9583348 68.4648438 31.65625 68.9257836 31.3541652 69.4218723 31.203125 69.953125 31.203125zM77.5546875 40L77.1875 38.796875 77.125 38.796875C76.7083313 39.3229193 76.2890646 39.6809886 75.8671875 39.8710938 75.4453104 40.0611989 74.9036491 40.15625 74.2421875 40.15625 73.3932249 40.15625 72.7304711 39.9270856 72.2539062 39.46875 71.7773414 39.0104144 71.5390625 38.3619834 71.5390625 37.5234375 71.5390625 36.632808 71.8697884 35.9609398 72.53125 35.5078125 73.1927116 35.0546852 74.2005141 34.8072919 75.5546875 34.765625L77.046875 34.71875 77.046875 34.2578125C77.046875 33.7057264 76.91797 33.2929701 76.6601562 33.0195312 76.4023425 32.7460924 76.0026069 32.609375 75.4609375 32.609375 75.018227 32.609375 74.593752 32.6744785 74.1875 32.8046875 73.781248 32.9348965 73.3906269 33.0885408 73.015625 33.265625L72.421875 31.953125C72.8906273 31.7083321 73.403643 31.5221361 73.9609375 31.3945312 74.518232 31.2669264 75.0442684 31.203125 75.5390625 31.203125 76.6380263 31.203125 77.4674451 31.4427059 78.0273438 31.921875 78.5872424 32.4010441 78.8671875 33.1536407 78.8671875 34.1796875L78.8671875 40 77.5546875 40zM74.8203125 38.75C75.4869825 38.75 76.0221334 38.5638039 76.4257812 38.1914062 76.8294291 37.8190086 77.03125 37.2968784 77.03125 36.625L77.03125 35.875 75.921875 35.921875C75.0572873 35.9531252 74.4283874 36.097655 74.0351562 36.3554688 73.6419251 36.6132825 73.4453125 37.0078098 73.4453125 37.5390625 73.4453125 37.9244811 73.5598947 38.2226552 73.7890625 38.4335938 74.0182303 38.6445323 74.3619769 38.75 74.8203125 38.75zM89.03125 40L87.1875 40 87.1875 34.6875C87.1875 34.02083 87.0533868 33.5234391 86.7851562 33.1953125 86.5169257 32.8671859 86.0911488 32.703125 85.5078125 32.703125 84.731767 32.703125 84.1640643 32.9322894 83.8046875 33.390625 83.4453107 33.8489606 83.265625 34.6171821 83.265625 35.6953125L83.265625 40 81.4296875 40 81.4296875 31.359375 82.8671875 31.359375 83.125 32.4921875 83.21875 32.4921875C83.479168 32.0807271 83.8489559 31.763022 84.328125 31.5390625 84.8072941 31.315103 85.3385387 31.203125 85.921875 31.203125 87.994802 31.203125 89.03125 32.257802 89.03125 34.3671875L89.03125 40zM97.390625 37.5390625C97.390625 38.3828167 97.0833364 39.0299457 96.46875 39.4804688 95.8541636 39.9309918 94.9739641 40.15625 93.828125 40.15625 92.6770776 40.15625 91.7526077 39.9817726 91.0546875 39.6328125L91.0546875 38.046875C92.0703176 38.5156273 93.0156206 38.75 93.890625 38.75 95.020839 38.75 95.5859375 38.4088576 95.5859375 37.7265625 95.5859375 37.5078114 95.5234381 37.3255216 95.3984375 37.1796875 95.2734369 37.0338534 95.0677098 36.8828133 94.78125 36.7265625 94.4947902 36.5703117 94.0963567 36.3932302 93.5859375 36.1953125 92.5911409 35.8098939 91.9179705 35.4244811 91.5664062 35.0390625 91.214842 34.6536439 91.0390625 34.1536489 91.0390625 33.5390625 91.0390625 32.7994755 91.3372366 32.2252625 91.9335938 31.8164062 92.5299509 31.40755 93.3411407 31.203125 94.3671875 31.203125 95.3828176 31.203125 96.3437455 31.4088521 97.25 31.8203125L96.65625 33.203125C95.7239537 32.8177064 94.9401073 32.625 94.3046875 32.625 93.3359327 32.625 92.8515625 32.9010389 92.8515625 33.453125 92.8515625 33.7239597 92.9778633 33.9531241 93.2304688 34.140625 93.4830742 34.3281259 94.0338499 34.5859359 94.8828125 34.9140625 95.5963577 35.1901055 96.1145817 35.4427072 96.4375 35.671875 96.7604183 35.9010428 96.9999992 36.1653631 97.15625 36.4648438 97.3125008 36.7643244 97.390625 37.1223938 97.390625 37.5390625zM104.78125 40L104.414062 38.796875 104.351562 38.796875C103.934894 39.3229193 103.515627 39.6809886 103.09375 39.8710938 102.671873 40.0611989 102.130212 40.15625 101.46875 40.15625 100.619787 40.15625 99.9570336 39.9270856 99.4804688 39.46875 99.0039039 39.0104144 98.765625 38.3619834 98.765625 37.5234375 98.765625 36.632808 99.0963509 35.9609398 99.7578125 35.5078125 100.419274 35.0546852 101.427077 34.8072919 102.78125 34.765625L104.273438 34.71875 104.273438 34.2578125C104.273438 33.7057264 104.144533 33.2929701 103.886719 33.0195312 103.628905 32.7460924 103.229169 32.609375 102.6875 32.609375 102.244789 32.609375 101.820315 32.6744785 101.414062 32.8046875 101.00781 32.9348965 100.617189 33.0885408 100.242188 33.265625L99.6484375 31.953125C100.11719 31.7083321 100.630206 31.5221361 101.1875 31.3945312 101.744794 31.2669264 102.270831 31.203125 102.765625 31.203125 103.864589 31.203125 104.694008 31.4427059 105.253906 31.921875 105.813805 32.4010441 106.09375 33.1536407 106.09375 34.1796875L106.09375 40 104.78125 40zM102.046875 38.75C102.713545 38.75 103.248696 38.5638039 103.652344 38.1914062 104.055992 37.8190086 104.257812 37.2968784 104.257812 36.625L104.257812 35.875 103.148438 35.921875C102.28385 35.9531252 101.65495 36.097655 101.261719 36.3554688 100.868488 36.6132825 100.671875 37.0078098 100.671875 37.5390625 100.671875 37.9244811 100.786457 38.2226552 101.015625 38.4335938 101.244793 38.6445323 101.588539 38.75 102.046875 38.75zM112.140625 40.15625C110.833327 40.15625 109.839847 39.7747434 109.160156 39.0117188 108.480465 38.2486941 108.140625 37.153653 108.140625 35.7265625 108.140625 34.2734302 108.49609 33.1562539 109.207031 32.375 109.917972 31.5937461 110.945306 31.203125 112.289062 31.203125 113.200525 31.203125 114.02083 31.3723941 114.75 31.7109375L114.195312 33.1875C113.419267 32.8854152 112.778648 32.734375 112.273438 32.734375 110.778638 32.734375 110.03125 33.7265526 110.03125 35.7109375 110.03125 36.6796923 110.217446 37.4075496 110.589844 37.8945312 110.962241 38.3815129 111.507809 38.625 112.226562 38.625 113.044275 38.625 113.817705 38.421877 114.546875 38.015625L114.546875 39.6171875C114.218748 39.8098968 113.868491 39.9479162 113.496094 40.03125 113.123696 40.1145838 112.671878 40.15625 112.140625 40.15625zM119.796875 38.671875C120.244794 38.671875 120.692706 38.6015632 121.140625 38.4609375L121.140625 39.84375C120.937499 39.9322921 120.675783 40.0065101 120.355469 40.0664062 120.035155 40.1263024 119.703127 40.15625 119.359375 40.15625 117.619783 40.15625 116.75 39.2395925 116.75 37.40625L116.75 32.75 115.570312 32.75 115.570312 31.9375 116.835938 31.265625 117.460938 29.4375 118.59375 29.4375 118.59375 31.359375 121.054688 31.359375 121.054688 32.75 118.59375 32.75 118.59375 37.375C118.59375 37.8177105 118.704426 38.1445302 118.925781 38.3554688 119.147137 38.5664073 119.437498 38.671875 119.796875 38.671875zM124.703125 40L122.867188 40 122.867188 31.359375 124.703125 31.359375 124.703125 40zM122.757812 29.0703125C122.757812 28.7421859 122.847655 28.4895842 123.027344 28.3125 123.207032 28.1354158 123.46354 28.046875 123.796875 28.046875 124.119793 28.046875 124.371093 28.1354158 124.550781 28.3125 124.73047 28.4895842 124.820312 28.7421859 124.820312 29.0703125 124.820312 29.3828141 124.73047 29.6289054 124.550781 29.8085938 124.371093 29.9882821 124.119793 30.078125 123.796875 30.078125 123.46354 30.078125 123.207032 29.9882821 123.027344 29.8085938 122.847655 29.6289054 122.757812 29.3828141 122.757812 29.0703125zM134.992188 35.6640625C134.992188 37.0755279 134.630212 38.1770794 133.90625 38.96875 133.182288 39.7604206 132.174486 40.15625 130.882812 40.15625 130.075517 40.15625 129.361982 39.9739602 128.742188 39.609375 128.122393 39.2447898 127.645835 38.7213576 127.3125 38.0390625 126.979165 37.3567674 126.8125 36.5651087 126.8125 35.6640625 126.8125 34.2630138 127.171871 33.1692748 127.890625 32.3828125 128.609379 31.5963502 129.622389 31.203125 130.929688 31.203125 132.179694 31.203125 133.169267 31.6054647 133.898438 32.4101562 134.627608 33.2148478 134.992188 34.2994723 134.992188 35.6640625zM128.703125 35.6640625C128.703125 37.6588641 129.440097 38.65625 130.914062 38.65625 132.372403 38.65625 133.101562 37.6588641 133.101562 35.6640625 133.101562 33.6900943 132.367195 32.703125 130.898438 32.703125 130.1276 32.703125 129.569012 32.9583308 129.222656 33.46875 128.8763 33.9791692 128.703125 34.7109327 128.703125 35.6640625zM144.703125 40L142.859375 40 142.859375 34.6875C142.859375 34.02083 142.725262 33.5234391 142.457031 33.1953125 142.188801 32.8671859 141.763024 32.703125 141.179688 32.703125 140.403642 32.703125 139.835939 32.9322894 139.476562 33.390625 139.117186 33.8489606 138.9375 34.6171821 138.9375 35.6953125L138.9375 40 137.101562 40 137.101562 31.359375 138.539062 31.359375 138.796875 32.4921875 138.890625 32.4921875C139.151043 32.0807271 139.520831 31.763022 140 31.5390625 140.479169 31.315103 141.010414 31.203125 141.59375 31.203125 143.666677 31.203125 144.703125 32.257802 144.703125 34.3671875L144.703125 40zM156.46875 30.015625C155.395828 30.015625 154.552086 30.3958295 153.9375 31.15625 153.322914 31.9166705 153.015625 32.9661391 153.015625 34.3046875 153.015625 35.7057362 153.311195 36.7656214 153.902344 37.484375 154.493493 38.2031286 155.348953 38.5625 156.46875 38.5625 156.953127 38.5625 157.421873 38.5143234 157.875 38.4179688 158.328127 38.3216141 158.799477 38.1979174 159.289062 38.046875L159.289062 39.6484375C158.393225 39.9869809 157.37761 40.15625 156.242188 40.15625 154.570304 40.15625 153.286463 39.6497446 152.390625 38.6367188 151.494787 37.6236929 151.046875 36.1744886 151.046875 34.2890625 151.046875 33.1015566 151.264321 32.0625045 151.699219 31.171875 152.134117 30.2812455 152.763017 29.5989607 153.585938 29.125 154.408858 28.6510393 155.374994 28.4140625 156.484375 28.4140625 157.651048 28.4140625 158.729162 28.6588517 159.71875 29.1484375L159.046875 30.703125C158.661456 30.5208324 158.253908 30.3606778 157.824219 30.2226562 157.394529 30.0846347 156.942711 30.015625 156.46875 30.015625zM169.21875 35.6640625C169.21875 37.0755279 168.856774 38.1770794 168.132812 38.96875 167.408851 39.7604206 166.401048 40.15625 165.109375 40.15625 164.302079 40.15625 163.588545 39.9739602 162.96875 39.609375 162.348955 39.2447898 161.872398 38.7213576 161.539062 38.0390625 161.205727 37.3567674 161.039062 36.5651087 161.039062 35.6640625 161.039062 34.2630138 161.398434 33.1692748 162.117188 32.3828125 162.835941 31.5963502 163.848952 31.203125 165.15625 31.203125 166.406256 31.203125 167.39583 31.6054647 168.125 32.4101562 168.85417 33.2148478 169.21875 34.2994723 169.21875 35.6640625zM162.929688 35.6640625C162.929688 37.6588641 163.666659 38.65625 165.140625 38.65625 166.598966 38.65625 167.328125 37.6588641 167.328125 35.6640625 167.328125 33.6900943 166.593757 32.703125 165.125 32.703125 164.354163 32.703125 163.795575 32.9583308 163.449219 33.46875 163.102863 33.9791692 162.929688 34.7109327 162.929688 35.6640625zM178.609375 40L176.765625 40 176.765625 34.671875C176.765625 34.0104134 176.640626 33.5169287 176.390625 33.1914062 176.140624 32.8658838 175.750003 32.703125 175.21875 32.703125 174.510413 32.703125 173.990887 32.9335914 173.660156 33.3945312 173.329425 33.8554711 173.164062 34.6223905 173.164062 35.6953125L173.164062 40 171.328125 40 171.328125 31.359375 172.765625 31.359375 173.023438 32.4921875 173.117188 32.4921875C173.356772 32.0807271 173.704425 31.763022 174.160156 31.5390625 174.615888 31.315103 175.117185 31.203125 175.664062 31.203125 176.992194 31.203125 177.872394 31.6562455 178.304688 32.5625L178.429688 32.5625C178.684897 32.1354145 179.044269 31.8020845 179.507812 31.5625 179.971356 31.3229155 180.502601 31.203125 181.101562 31.203125 182.132818 31.203125 182.884112 31.4635391 183.355469 31.984375 183.826825 32.5052109 184.0625 33.2994738 184.0625 34.3671875L184.0625 40 182.226562 40 182.226562 34.671875C182.226562 34.0104134 182.100262 33.5169287 181.847656 33.1914062 181.595051 32.8658838 181.203128 32.703125 180.671875 32.703125 179.95833 32.703125 179.4362 32.925779 179.105469 33.3710938 178.774738 33.8164085 178.609375 34.4999954 178.609375 35.421875L178.609375 40zM191.007812 40.15625C189.914057 40.15625 189.065107 39.7630248 188.460938 38.9765625L188.351562 38.9765625C188.42448 39.7057328 188.460938 40.1484367 188.460938 40.3046875L188.460938 43.84375 186.625 43.84375 186.625 31.359375 188.109375 31.359375C188.151042 31.5208341 188.236979 31.906247 188.367188 32.515625L188.460938 32.515625C189.033857 31.6406206 189.893223 31.203125 191.039062 31.203125 192.117193 31.203125 192.957028 31.5937461 193.558594 32.375 194.160159 33.1562539 194.460938 34.2525971 194.460938 35.6640625 194.460938 37.0755279 194.154951 38.1770794 193.542969 38.96875 192.930987 39.7604206 192.085943 40.15625 191.007812 40.15625zM190.5625 32.703125C189.83333 32.703125 189.300783 32.9166645 188.964844 33.34375 188.628905 33.7708355 188.460938 34.4531203 188.460938 35.390625L188.460938 35.6640625C188.460938 36.7161511 188.627602 37.4778622 188.960938 37.9492188 189.294273 38.4205753 189.838538 38.65625 190.59375 38.65625 191.22917 38.65625 191.718748 38.3958359 192.0625 37.875 192.406252 37.3541641 192.578125 36.611984 192.578125 35.6484375 192.578125 34.6796827 192.407554 33.9466171 192.066406 33.4492188 191.725259 32.9518204 191.223962 32.703125 190.5625 32.703125zM198.429688 40L196.59375 40 196.59375 27.84375 198.429688 27.84375 198.429688 40zM204.828125 40.15625C203.484368 40.15625 202.433598 39.7643268 201.675781 38.9804688 200.917965 38.1966107 200.539062 37.1171944 200.539062 35.7421875 200.539062 34.3307221 200.890621 33.2213582 201.59375 32.4140625 202.296879 31.6067668 203.263015 31.203125 204.492188 31.203125 205.632818 31.203125 206.533851 31.5494757 207.195312 32.2421875 207.856774 32.9348993 208.1875 33.8880148 208.1875 35.1015625L208.1875 36.09375 202.429688 36.09375C202.455729 36.9322959 202.68229 37.5768207 203.109375 38.0273438 203.53646 38.4778668 204.138017 38.703125 204.914062 38.703125 205.424482 38.703125 205.899737 38.6549484 206.339844 38.5585938 206.77995 38.4622391 207.252602 38.3020845 207.757812 38.078125L207.757812 39.5703125C207.309894 39.7838552 206.856773 39.9348954 206.398438 40.0234375 205.940102 40.1119796 205.41667 40.15625 204.828125 40.15625zM204.492188 32.59375C203.908851 32.59375 203.441408 32.778644 203.089844 33.1484375 202.738279 33.518231 202.528646 34.0572881 202.460938 34.765625L206.382812 34.765625C206.372396 34.0520798 206.200523 33.5117206 205.867188 33.1445312 205.533852 32.7773419 205.075524 32.59375 204.492188 32.59375zM213.492188 38.671875C213.940106 38.671875 214.388019 38.6015632 214.835938 38.4609375L214.835938 39.84375C214.632811 39.9322921 214.371095 40.0065101 214.050781 40.0664062 213.730467 40.1263024 213.398439 40.15625 213.054688 40.15625 211.315095 40.15625 210.445312 39.2395925 210.445312 37.40625L210.445312 32.75 209.265625 32.75 209.265625 31.9375 210.53125 31.265625 211.15625 29.4375 212.289062 29.4375 212.289062 31.359375 214.75 31.359375 214.75 32.75 212.289062 32.75 212.289062 37.375C212.289062 37.8177105 212.399738 38.1445302 212.621094 38.3554688 212.842449 38.5664073 213.132811 38.671875 213.492188 38.671875zM220.335938 40.15625C218.992181 40.15625 217.94141 39.7643268 217.183594 38.9804688 216.425777 38.1966107 216.046875 37.1171944 216.046875 35.7421875 216.046875 34.3307221 216.398434 33.2213582 217.101562 32.4140625 217.804691 31.6067668 218.770827 31.203125 220 31.203125 221.140631 31.203125 222.041663 31.5494757 222.703125 32.2421875 223.364587 32.9348993 223.695312 33.8880148 223.695312 35.1015625L223.695312 36.09375 217.9375 36.09375C217.963542 36.9322959 218.190102 37.5768207 218.617188 38.0273438 219.044273 38.4778668 219.645829 38.703125 220.421875 38.703125 220.932294 38.703125 221.40755 38.6549484 221.847656 38.5585938 222.287763 38.4622391 222.760414 38.3020845 223.265625 38.078125L223.265625 39.5703125C222.817706 39.7838552 222.364586 39.9348954 221.90625 40.0234375 221.447914 40.1119796 220.924482 40.15625 220.335938 40.15625zM220 32.59375C219.416664 32.59375 218.949221 32.778644 218.597656 33.1484375 218.246092 33.518231 218.036459 34.0572881 217.96875 34.765625L221.890625 34.765625C221.880208 34.0520798 221.708335 33.5117206 221.375 33.1445312 221.041665 32.7773419 220.583336 32.59375 220 32.59375zM228.695312 40.15625C227.617182 40.15625 226.776045 39.7656289 226.171875 38.984375 225.567705 38.2031211 225.265625 37.1067779 225.265625 35.6953125 225.265625 34.2786387 225.571612 33.1757852 226.183594 32.3867188 226.795576 31.5976523 227.643224 31.203125 228.726562 31.203125 229.861985 31.203125 230.72656 31.6223916 231.320312 32.4609375L231.414062 32.4609375C231.32552 31.8411427 231.28125 31.3515643 231.28125 30.9921875L231.28125 27.84375 233.125 27.84375 233.125 40 231.6875 40 231.367188 38.8671875 231.28125 38.8671875C230.692705 39.7265668 229.830735 40.15625 228.695312 40.15625zM229.1875 38.671875C229.942712 38.671875 230.492186 38.4596375 230.835938 38.0351562 231.179689 37.610675 231.356771 36.9218798 231.367188 35.96875L231.367188 35.7109375C231.367188 34.6223904 231.190106 33.8489606 230.835938 33.390625 230.481769 32.9322894 229.927087 32.703125 229.171875 32.703125 228.526038 32.703125 228.028648 32.9648411 227.679688 33.4882812 227.330727 34.0117214 227.15625 34.7578077 227.15625 35.7265625 227.15625 36.6849006 227.325519 37.4153621 227.664062 37.9179688 228.002606 38.4205754 228.510413 38.671875 229.1875 38.671875z"/></g></svg>