<svg xmlns="http://www.w3.org/2000/svg" width="128" height="41" viewBox="0 0 128 41"><g fill="#9BB2CC" fill-rule="evenodd" opacity=".5"><path d="M100.356839 14.9833366L100.356839 17.3929254 106.496825 17.3929254 106.496825 18.9733017 100.373006 18.9733017 100.373006 23.8466676 101.264769 23.8466676C101.503153 22.7242146 101.743766 21.5912808 101.985829 20.4514341L106.115724 20.4514341C105.87879 21.5896084 105.64955 22.6906537 105.40325 23.8736502L107.50778 23.8736502 107.50778 25.4029603 88.292616 25.4029603 88.292616 23.8735387 90.344184 23.8735387C90.1094801 22.6936641 89.8901631 21.5916153 89.6633756 20.4518801L93.7914871 20.4518801C94.0290899 21.5820265 94.2644627 22.7015805 94.505076 23.8457756L95.4002955 23.8457756 95.4002955 19.0049672 89.2504976 19.0049672 89.2504976 18.2129951 89.2504976 17.4235875 95.4153477 17.4235875 95.4153477 15.0078662 90.4276962 15.0078662 90.4276962 13.6586258 88.1962815 13.6586258C88.5796125 13.2440753 88.86817 12.9211763 89.1682118 12.6092042 91.0601143 10.6419289 92.9529087 8.67543415 94.8527275 6.71574077 94.9583164 6.60680697 95.1284627 6.49664669 95.2696195 6.49553171 96.9921561 6.48036794 98.7149157 6.48571986 100.499222 6.58885575 98.3541073 8.83075122 96.2088808 11.0726467 93.9931875 13.3882425L101.864964 13.3882425C100.672156 12.1688976 99.5249505 10.9962704 98.3518774 9.79699512 99.2584697 8.844577 100.137745 7.92103693 101.057271 6.95490453 103.220895 9.16948293 105.355529 11.3542913 107.579696 13.6308627L105.382623 13.6308627 105.382623 14.9833366 100.356839 14.9833366zM3.792 18.8445659C2.64334495 18.8445659 1.53137282 18.8459038.419289199 18.8424474.312808362 18.8421129.206327526 18.8125659.00351219512 18.7820153.61887108 12.2444265 3.48716376 6.99352753 8.99584669 3.45780627 15.8929059-.969120557 23.1230105-1.15108571 30.2134077 2.94558328 36.2136864 6.41239861 39.3425505 11.8606495 40.0422021 18.8006355L36.2609617 18.8006355C35.4961951 9.98324181 27.8021463 3.48969477 19.1941463 3.92587596 11.5840557 4.31143693 4.66726132 10.1386704 3.792 18.8445659"/><path d="M2.22996516e-05,0.0153421603 L3.80233589,0.0153421603 C4.32771568,4.86139094 6.47093519,8.81433868 10.3807331,11.7336976 C13.4313254,14.011607 16.9007052,15.0603596 20.7061408,14.8957882 C24.7831861,14.7195094 28.3187958,13.1980042 31.2601199,10.3782132 C34.1997714,7.55998328 35.8141547,4.07109129 36.2240223,0.00943275261 L39.9192976,0.00943275261 C39.954754,4.37559303 37.3545031,11.2115512 31.1705868,15.3308544 C24.5267401,19.7565547 15.9361338,19.9019484 9.20922091,15.5367916 C3.62639164,11.9141017 0.631771429,6.6879554 2.22996516e-05,0.0153421603" transform="translate(0 21.496)"/><path d="M57.6240836 17.7301185L62.4887526 17.7301185 62.4887526 13.0037073 57.6240836 13.0037073 57.6240836 17.7301185zM62.5258815 19.3653519L57.6417003 19.3653519 57.6417003 24.0945505C59.0877213 24.0945505 60.4960557 24.1045854 61.9040557 24.0874146 62.2453519 24.0831777 62.5222021 23.9096864 62.5237631 23.5104111 62.5292265 22.1389826 62.5258815 20.767331 62.5258815 19.3653519L62.5258815 19.3653519zM66.3992195 11.4447387L66.3992195 17.6996794C66.5492962 17.7429408 66.6658118 17.7766132 66.8103136 17.8183136L66.8103136 19.2703554C66.6930174 19.3026899 66.5759443 19.3349129 66.4411429 19.3719303 66.432 19.4412822 66.4143833 19.5127526 66.4143833 19.5843345 66.4122648 21.0334774 66.4201812 22.4826202 66.4091429 23.9316516 66.4010035 24.9685854 65.7405993 25.6535192 64.7043345 25.6570871 61.1559024 25.6694634 57.6073589 25.661547 54.0589268 25.6600976 53.985784 25.6600976 53.9126411 25.6440418 53.7807387 25.6286551L53.7807387 19.3959024C53.5732404 19.3470662 53.4197073 19.3109408 53.2548014 19.2721394L53.2548014 17.8313589C53.3987456 17.791554 53.5502718 17.7495192 53.7516376 17.69377L53.7516376 11.4447387 66.3992195 11.4447387zM121.144753 17.6434843L121.909408 17.6434843 121.909408 10.881784 121.144753 10.881784 121.144753 17.6434843zM124.870244 17.6369059L125.680836 17.6369059 125.680836 10.8658397 124.870244 10.8658397 124.870244 17.6369059zM124.866676 19.232223L124.866676 24.093547C125.246328 23.9998885 125.259707 23.7051986 125.262495 23.4148571 125.26807 22.8244739 125.264056 22.2340906 125.264056 21.6089199L127.918383 21.6089199C127.918049 22.5865366 128.068683 23.5656028 127.813686 24.5256028 127.600725 25.3279443 127.05416 25.69823 126.213129 25.6987875 123.947707 25.7000139 121.682174 25.699122 119.416753 25.699122L118.876878 25.699122 118.876878 24.1446132 121.907066 24.1446132 121.907066 19.2586481 118.882341 19.2586481 118.882341 9.27464808 121.926801 9.27464808 121.926801 6.47938676 124.844488 6.47938676 124.844488 9.26338676 127.904334 9.26338676 127.904334 9.90628571C127.904334 12.3203345 127.917603 14.7344948 127.891958 17.1482091 127.887387 17.5783693 127.786815 18.0359582 127.613213 18.429101 127.372376 18.974885 126.906537 19.2643345 126.272111 19.2361254 125.813742 19.2158328 125.3537 19.232223 124.866676 19.232223L124.866676 19.232223zM19.9913143 24.7525575C18.3699066 25.6516794 16.7547429 26.5472334 15.080485 27.4755679L15.080485 23.0572265C16.6850564 22.1623415 18.3315512 21.2440418 19.9838439 20.3225087 22.0631749 21.4757352 24.1195373 22.6162509 26.2532794 23.7996934L26.2532794 12.1282787 30.4359136 12.1282787 30.4359136 28.1622857C30.3972237 28.1824669 30.3502829 28.2282927 30.3031192 28.2285157 29.0211122 28.2357631 27.7391052 28.2470244 26.4573213 28.2319721 26.2698927 28.2298537 26.0724293 28.1191359 25.8988265 28.0234704 23.9350077 26.9412683 21.9748683 25.8522648 19.9913143 24.7525575"/><path d="M9.60738118 12.1141073L13.7562314 12.1141073 13.7562314 17.7458843C15.8893045 16.5638913 17.9251512 15.4357519 19.9928864 14.2898843 21.6256669 15.1978146 23.2602314 16.1069714 24.9245659 17.0325185L24.9245659 21.4496334C23.253207 20.5249784 21.6275624 19.625522 19.9868655 18.7178146 17.9131094 19.8695916 15.856078 21.0120028 13.7538899 22.179501L13.7538899 28.2069854 9.60738118 28.2069854 9.60738118 12.1141073zM67.9068098 20.2269101L67.9068098 18.6872307C68.306754 18.5913422 68.7155066 18.4932237 69.1713115 18.3838439L69.1713115 11.7777951 67.9126077 11.7777951 67.9126077 10.2083456 69.2125659 10.2083456 69.2125659 6.41930035 73.780984 6.41930035 73.780984 10.1757882 75.1341268 10.1757882 75.1341268 11.7490286 73.840524 11.7490286 73.840524 17.3929589C74.2435902 17.3121226 74.6488864 17.2309519 75.1118272 17.1381854L75.1118272 18.7137672C74.6874648 18.8116627 74.2590885 18.9105617 73.7894578 19.018938L73.7894578 21.5354537C73.7894578 22.1857115 73.7906843 22.8358578 73.7892348 23.4861157 73.7866704 24.6531679 73.1947261 25.4043317 72.0471861 25.6633422 71.7419038 25.7322481 71.4229073 25.7651401 71.1097087 25.7688195 70.1437993 25.7800808 69.1777784 25.7694885 68.2117575 25.7654746 68.176747 25.7652516 68.1417366 25.7444014 68.0671443 25.7205408L68.0671443 24.2632585C68.1071721 24.236722 68.1356042 24.202269 68.1672697 24.1990355 69.1796739 24.0965686 69.2172488 24.0563178 69.2174718 23.0510495 69.2178063 22.0507986 69.2175833 21.0506592 69.2175833 20.010046 68.756761 20.0863108 68.3489003 20.1537672 67.9068098 20.2269101M82.7481645 16.4030328L75.6481784 16.4030328 75.6481784 14.848747 86.7977812 14.848747C86.7977812 15.5165101 86.7515094 16.1798132 86.810046 16.833639 86.8776139 17.5910467 86.6414606 18.1698341 86.1254467 18.7242035 85.304931 19.6059317 84.5538787 20.5523289 83.7245547 21.5291652 84.8509101 22.9222244 85.9740321 24.3112697 87.1458787 25.7608585L82.0021296 25.7608585C81.7346453 25.442977 81.4269101 25.0770397 81.0896279 24.676092 80.7667289 25.0503916 80.4681366 25.3967052 80.1486941 25.7671024L75.0538927 25.7671024C77.6698648 22.6443707 80.2339902 19.5835206 82.7981157 16.5225589L82.7481645 16.4030328zM81.6321003 14.2805408L81.6321003 8.30847108 80.3845463 8.30847108 80.3845463 14.263147 75.6474314 14.263147 75.6474314 6.70200418 86.3464697 6.70200418 86.3464697 12.6861157C86.6346927 12.7143247 86.8660516 12.7370704 87.1229436 12.762269L87.1229436 14.2805408 81.6321003 14.2805408zM118.436549 14.8845268C118.446472 15.0764153 118.462082 15.2393143 118.462194 15.4021017 118.463755 18.3561366 118.472229 21.3101714 118.451267 24.2639833 118.448814 24.5964711 118.343337 24.9703247 118.164493 25.2462829 118.021664 25.466492 117.703114 25.6792307 117.447114 25.6994118 116.694612 25.7587289 115.934417 25.7205965 115.158946 25.7205965L115.158946 24.2481505C115.869636 24.056485 115.916243 23.9999554 115.916689 23.2960669 115.918026 21.1781575 115.917803 19.0601366 115.91602 16.9422272 115.915908 16.7803317 115.89896 16.6185477 115.888591 16.4353561L111.184145 16.4353561 111.184145 25.7050983 108.695169 25.7050983 108.695169 14.8845268 118.436549 14.8845268zM112.253391 10.5627206L112.253391 12.649299C113.142813 12.5784976 114.003802 12.7331456 114.869252 12.5516265L114.869252 10.5194592C114.027774 10.5194592 113.230673 10.5186787 112.433461 10.5210202 112.381614 10.5211317 112.32999 10.5443233 112.253391 10.5627206L112.253391 10.5627206zM108.870868 14.1962258L108.870868 8.97342439 118.206171 8.97342439C118.217767 9.13866481 118.238394 9.29810732 118.23884 9.45766132 118.241739 10.535515 118.244081 11.6132571 118.239286 12.6911108 118.234826 13.7224697 117.762966 14.1954453 116.746213 14.1958913 114.311872 14.1968948 111.87753 14.1962258 109.443189 14.1962258L108.870868 14.1962258zM63.1130425 32.8482118C63.3882202 31.785522 63.6331819 30.8395707 63.8866174 29.8609505L65.0059484 29.8609505C65.258715 30.7927415 65.5192864 31.7531875 65.8113003 32.8297031 66.1113422 31.7698007 66.3833979 30.8081282 66.6527777 29.8563791L67.816931 29.8563791C67.3510913 31.1987066 66.9039833 32.4867345 66.4509659 33.7919331L65.1901436 33.7919331C64.9617951 32.932393 64.7343387 32.0765324 64.4765547 31.1062746 64.1914537 32.073076 63.9411401 32.9214662 63.6846941 33.7910411L62.4790634 33.7910411C62.0381993 32.5414801 61.5971122 31.2914732 61.1149937 29.9251735 60.6373352 31.2838913 60.202046 32.5221909 59.7575024 33.7866927L58.4995791 33.7866927C58.2751331 32.9430969 58.0478997 32.0886857 57.7875512 31.109508 57.5021157 32.0749714 57.2531401 32.9168948 56.9960251 33.7868042L55.7872725 33.7868042C55.3514258 32.5504 54.9094467 31.2968251 54.4254328 29.9240585 53.9500042 31.2765324 53.5154955 32.5126021 53.0692794 33.7820098L51.8095721 33.7820098C51.5888056 32.9527972 51.3615721 32.099947 51.1342272 31.2468739 51.1092516 31.2445324 51.0841645 31.2421909 51.0590774 31.2398495 50.8122202 32.0754174 50.5652516 32.9108739 50.3079136 33.7820098L49.0906871 33.7820098C48.6496 32.5150551 48.1962481 31.2133129 47.7239415 29.8567136L48.8868683 29.8567136C49.1542411 30.8054523 49.4241784 31.7629993 49.7304641 32.8495498 50.0114397 31.7709157 50.2589659 30.8202815 50.5112864 29.8515847L51.6252655 29.8515847C51.8861714 30.8152641 52.1451819 31.7721422 52.4335164 32.8373965 52.7309937 31.7764906 53.000039 30.8166021 53.2726523 29.8447833L55.5709659 29.8447833C55.8438021 30.8061213 56.1184223 31.7741491 56.42337 32.8487693 56.7002202 31.7796125 56.9460739 30.8302049 57.1983944 29.8557101L58.3157185 29.8557101C58.5730564 30.8064557 58.8332934 31.7679052 59.1222969 32.8356125 59.4174328 31.7858564 59.6863666 30.8293129 59.9609868 29.8519192L62.2618648 29.8519192C62.5304641 30.7977589 62.8061993 31.7681282 63.1130425 32.8482118M51.6395596 25.7460739L47.6626397 25.7460739C47.9794063 22.7455443 48.2939429 19.7677603 48.6128279 16.748053L52.5933157 16.748053C52.2758801 19.7431192 51.9587791 22.7339484 51.6395596 25.7460739"/><path d="M111.525174 17.13823L113.278261 17.13823C113.3407 17.9470383 113.401801 18.737561 113.462902 19.5279721 113.521661 19.5270801 113.580421 19.5261882 113.63918 19.5251847 113.701285 18.7468153 113.763278 17.9685575 113.828282 17.1528362L115.544128 17.1528362C115.519599 17.615777 115.472881 18.0696864 115.478456 18.5229268 115.48325 18.9211986 115.408212 19.2989547 115.628755 19.7222021 115.810052 20.0700767 115.665773 20.5877631 115.665773 21.0753449 115.388142 21.0940767 115.136379 21.1110244 114.826302 21.1319861L114.826302 25.7008502 112.320491 25.7008502 112.320491 21.138007C112.014762 21.1200557 111.77939 21.1063415 111.459278 21.0877213 111.55171 20.5538676 111.264714 20.0065226 111.631097 19.474899 111.7087 19.3626202 111.656072 19.1532265 111.646372 18.989547 111.610693 18.3838885 111.567766 17.778676 111.525174 17.13823M53.2358132 11.0499233C53.6809143 9.4911777 54.117207 7.96342857 54.5581826 6.4189547L58.6595345 6.4189547C58.2219038 7.97825784 57.793416 9.50522648 57.3599108 11.0499233L53.2358132 11.0499233zM52.5921895 15.7487944L48.6125937 15.7487944C48.2981686 14.3678885 47.9838551 12.9883206 47.6605101 11.5680557L51.6414439 11.5680557C51.956315 12.9529756 52.2701826 14.3327666 52.5921895 15.7487944M47.6599749 6.52933798L51.6440307 6.52933798C51.9461909 7.91816028 52.2445603 9.28925436 52.5520725 10.7029408L48.5760446 10.7029408C48.2793477 9.35135889 47.9758495 7.96866899 47.6599749 6.52933798M122.700265 33.8014439L121.580265 33.8014439 121.580265 29.8657784 122.648864 29.8657784C122.677854 29.9966774 122.708404 30.1352697 122.742077 30.2875763 123.572739 29.6465728 124.38623 29.44097 125.129254 30.3031861 125.525073 30.1261268 125.898927 29.8699038 126.306341 29.794531 127.212376 29.6270606 127.799303 30.1005937 127.842676 31.0185589 127.88538 31.9240362 127.85193 32.833193 127.85193 33.7802592L126.713868 33.7802592C126.713868 33.473416 126.717993 33.1491791 126.712864 32.8250537 126.70439 32.2876321 126.710746 31.7488725 126.669826 31.2137923 126.646969 30.916315 126.47515 30.6994509 126.131512 30.6809422 125.805603 30.6634369 125.527415 30.7487331 125.406439 31.0709631 125.330286 31.2736669 125.293045 31.5011233 125.288474 31.7184334 125.273868 32.4003568 125.283122 33.0827261 125.283122 33.7917436L124.149408 33.7917436C124.149408 33.1395902 124.153533 32.513639 124.147178 31.8879108 124.144836 31.6664753 124.13023 31.4432557 124.097449 31.2244962 124.05207 30.9217784 123.900767 30.7075902 123.562481 30.6832836 123.213268 30.6581965 122.922258 30.7613324 122.808195 31.1128864 122.735498 31.3365519 122.709854 31.5827401 122.704948 31.8196739 122.691568 32.4649143 122.700265 33.1106007 122.700265 33.8014439"/><polygon points="108.676 8.259 118.427 8.259 118.427 6.763 108.676 6.763"/><path d="M102.771691 32.1388822C102.786185 31.5459345 102.440987 31.1569171 101.890297 31.1454328 101.329907 31.1337254 100.895732 31.5268683 100.896067 32.0456697 100.89629 32.6261296 101.292778 33.0644293 101.838227 33.0869519 102.377098 33.1092516 102.757307 32.7230216 102.771691 32.1388822M103.787551 29.5957185C103.401098 29.6495721 103.076973 29.6948404 102.769684 29.7376557 102.389698 29.1351192 102.107941 28.986715 101.642994 29.1209589 101.161433 29.2598857 100.894506 29.8328753 100.902534 30.7525129 101.41275 30.3283735 101.963105 30.1568892 102.606339 30.3296 103.368206 30.5340878 103.790673 31.00383 103.892248 31.8140878 103.991036 32.601823 103.656987 33.3153003 103.030032 33.656039 101.602854 34.4317324 100.099635 33.7498091 99.8088474 32.1622969 99.6507429 31.2988544 99.67583 30.424931 99.9639415 29.5812237 100.38507 28.3477185 101.650241 27.8113003 102.842492 28.3454885 103.35806 28.5764014 103.636248 28.9854885 103.787551 29.5957185M105.692633 31.068053C105.768786 31.5495024 105.806584 32.0125547 105.923434 32.4548683 106.010403 32.7833422 106.226263 33.0462551 106.628995 33.0577394 107.038528 33.0695582 107.241455 32.8181296 107.343699 32.4796209 107.629023 31.5341157 107.623337 30.5814746 107.329093 29.6389798 107.229859 29.3212098 107.026486 29.0897394 106.649511 29.0848334 106.246779 29.079593 106.018765 29.3229937 105.933692 29.6641784 105.818403 30.1262272 105.769009 30.6047777 105.692633 31.068053M104.440396 31.1507847C104.559587 30.5501436 104.618013 29.9937672 104.78526 29.4722899 105.055866 28.6289171 105.774807 28.1543805 106.645608 28.152931 107.519532 28.1517045 108.22264 28.6198857 108.507518 29.4701714 108.857511 30.5153561 108.874905 31.5845129 108.543309 32.6398439 108.289762 33.4472028 107.703058 33.8715652 106.850319 33.9269798 105.910946 33.9880808 105.163239 33.6232585 104.853497 32.8328474 104.64165 32.2925268 104.569399 31.6975721 104.440396 31.1507847M80.7857394 17.9077686C79.9108125 18.9461519 79.0976557 19.9116153 78.2830495 20.8757408 78.248262 20.9167721 78.1990913 20.9455387 78.1121226 21.0162286 77.5702411 20.3587233 77.0305895 19.7042286 76.4917185 19.0491763 76.4327359 18.9775944 76.3888056 18.8898453 76.3197882 18.8308627 75.7455721 18.3403819 75.6570425 17.7127582 75.8057812 16.9724098L80.0246523 16.9724098C80.2455303 17.2437965 80.5121226 17.5714899 80.7857394 17.9077686M96.0976948 29.9129979C95.7545031 29.8332767 95.4169979 29.7550049 95.0807192 29.6769561 95.2412767 28.8645798 95.7219456 28.3565937 96.5335415 28.2656111 97.0183359 28.2112 97.5336808 28.2486634 98.0110049 28.3542523 98.5899038 28.4822523 98.9013185 28.9233394 98.9705589 29.5174021 99.0408028 30.1212767 98.8145728 30.5650397 98.2566355 30.8294021 98.1916321 30.8602871 98.1355484 30.9100153 98.0463498 30.9708934 98.5536669 31.1664613 98.9500432 31.4396321 99.0843986 31.9757157 99.284315 32.7729282 98.8964125 33.5264334 98.0619596 33.746977 97.5357993 33.8859038 96.9597993 33.9316181 96.4166913 33.8879108 95.6401059 33.8252488 95.1443847 33.3463638 94.9310885 32.5086774 95.3062801 32.4140153 95.6688725 32.3223638 96.0501965 32.2261408 96.2526774 32.7514091 96.532538 33.1144474 97.1144474 33.0935972 97.584747 33.0766495 97.8668376 32.8565519 97.93697 32.4254997 98.0050955 32.0058202 97.8045101 31.6599526 97.3572906 31.5506843 97.0041756 31.4642732 96.6314369 31.4583638 96.2348376 31.412984L96.2348376 30.6124265C96.5239526 30.577416 96.8128446 30.5468655 97.1002871 30.5065031 97.488301 30.452092 97.7815415 30.2573045 97.813207 29.8484404 97.8387401 29.5190746 97.712301 29.2306286 97.3562871 29.1021826 96.9866704 28.9687192 96.5642035 29.1005101 96.3326216 29.4501686 96.242977 29.585639 96.1836599 29.7411791 96.0976948 29.9129979M58.9502105 7.83934216L66.7919944 7.83934216 66.7919944 9.3597324 58.5377784 9.3597324C58.6734718 8.85955122 58.8068237 8.3680669 58.9502105 7.83934216M71.9868432 33.7898481L70.8835679 33.7898481 70.8835679 27.9610537 71.9528362 27.9610537 71.9528362 30.2730815C72.351331 30.0964683 72.6830383 29.8765937 73.0446272 29.8030049 74.0668432 29.5951721 74.7021603 30.1152 74.749993 31.1656251 74.7763066 31.7405101 74.7556794 32.3175136 74.7560139 32.8935136 74.7562369 33.1857505 74.7560139 33.477876 74.7560139 33.7937505L73.602453 33.7937505C73.602453 33.344747 73.6046829 32.9209422 73.601784 32.4970258 73.599331 32.1257366 73.6066899 31.7533324 73.5811568 31.3833812 73.5561812 31.0219038 73.4085575 30.7389213 72.9960139 30.6869631 72.5598328 30.6322174 72.2163066 30.8184195 72.0816167 31.2339735 72.0146063 31.4408028 71.9949826 31.6693742 71.9909686 31.8888028 71.9794843 32.5153115 71.9868432 33.1420432 71.9868432 33.7898481M78.4496056 31.8689003C78.1438774 31.9618899 77.8787345 32.0401617 77.6153756 32.1235624 77.3529087 32.2065171 77.0746091 32.2631582 76.8385672 32.3946146 76.7269575 32.4568307 76.6432223 32.6693463 76.6491317 32.8094997 76.6534801 32.9144195 76.8026648 33.0604822 76.9194035 33.106085 77.6748042 33.4007749 78.4981073 32.757876 78.4496056 31.8689003M78.4593059 31.1428237C78.1447693 30.3528585 77.3388599 30.3660153 76.6304 31.1020153 76.3250063 31.0517296 76.0035568 30.9988794 75.6476544 30.9403429 75.8271666 30.2217366 76.313299 29.9146704 76.9260934 29.8248028 77.3782188 29.7585728 77.8519749 29.7631443 78.3075568 29.813207 79.1210481 29.9026286 79.5575638 30.4149631 79.5760725 31.2332488 79.5856613 31.6595066 79.5565603 32.0868794 79.573062 32.5126913 79.5893408 32.9344892 79.6409645 33.3547261 79.6787624 33.7959247L78.7005882 33.7959247C78.6351387 33.6877714 78.5529645 33.552078 78.4605324 33.3991024 78.4189436 33.4113672 78.3630829 33.4143777 78.32417 33.4414718 77.6977728 33.878099 77.0206439 34.0500293 76.2724906 33.8294857 75.8140098 33.6944613 75.5601282 33.3752418 75.5125185 32.9040502 75.4637937 32.4204822 75.6085185 32.0040362 76.0711247 31.793862 76.3866648 31.6504753 76.7354314 31.5766634 77.0732711 31.4866843 77.5173686 31.3682732 77.9652571 31.2646913 78.4593059 31.1428237M87.4265199 33.0564571C88.027607 33.0637045 88.3585338 32.6711192 88.3730286 31.9340042 88.3884153 31.1521784 88.0360808 30.6861157 87.4256279 30.6806523 86.8085965 30.6751889 86.4441087 31.0992167 86.4332934 31.8356627 86.4219206 32.588276 86.7967777 33.0488753 87.4265199 33.0564571M87.4217254 33.9299345C86.1465199 33.9180042 85.2637882 33.0674955 85.276276 31.8627568 85.2895443 30.5808613 86.1422829 29.7501993 87.4381157 29.7566662 88.7446523 29.7633561 89.591147 30.6071749 89.5719693 31.8839415 89.5532376 33.1345059 88.7047359 33.9419763 87.4217254 33.9299345M119.636683 31.867161C119.626091 31.7662551 119.621185 31.6168474 119.593533 31.4718997 119.497422 30.9696 119.199387 30.6991052 118.734774 30.680931 118.237714 30.6615303 117.901659 30.8627847 117.801087 31.3659763 117.731512 31.7136279 117.745672 32.1033143 117.827958 32.4490704 117.921059 32.8399833 118.24184 33.0426871 118.662411 33.0568474 119.291261 33.0779206 119.625979 32.6891261 119.636683 31.867161M120.827707 31.8459763C120.834509 33.1176139 120.025031 33.9228544 118.732878 33.9298787 117.438941 33.9369031 116.58007 33.1298787 116.569031 31.897154 116.557547 30.5909519 117.360669 29.7752307 118.676683 29.7569449 119.990132 29.7385477 120.820571 30.5451261 120.827707 31.8459763M94.192524 33.8039526L93.1007331 33.8039526C93.075646 33.6771791 93.0524544 33.5597714 93.0450955 33.522308 92.628092 33.6598969 92.2251373 33.876538 91.8063498 33.9135554 90.9035484 33.9932767 90.3325659 33.462322 90.289193 32.5267401 90.2490537 31.6574997 90.2806077 30.7849143 90.2806077 29.8690676L91.4061826 29.8690676C91.4061826 30.2432557 91.4004962 30.6244683 91.4076321 31.0055693 91.4166634 31.4865728 91.414099 31.9694718 91.4586983 32.4475763 91.4913672 32.7971233 91.7133603 33.012315 92.0801895 33.0505589 92.4713254 33.0912557 92.7924404 32.9732906 92.9356042 32.5900711 93.0174439 32.3708655 93.0492209 32.1231164 93.0546843 31.8870746 93.0699596 31.2231024 93.0600362 30.5585728 93.0600362 29.8595902L94.1538341 29.8595902C94.1685519 29.9672976 94.1907401 30.0550467 94.1909631 30.1430188 94.1933045 31.3455275 94.192524 32.5481477 94.192524 33.8039526M116.069385 31.0889589C115.712368 31.148053 115.355462 31.2072585 115.016284 31.2633422 114.553009 30.6994955 114.17949 30.5566662 113.719894 30.7481087 113.265762 30.9373213 113.044215 31.4401784 113.116354 32.1181993 113.170208 32.6242899 113.437357 32.9559972 113.85804 33.0389519 114.418877 33.1494467 114.690486 32.9843178 115.030556 32.2913561 115.385567 32.3393003 115.757302 32.3895861 116.130375 32.4399833 115.961232 33.4896279 115.21687 33.9878021 113.980911 33.9297115 112.720312 33.8705059 112.003601 33.2166801 111.91864 32.0481784 111.83457 30.8914955 112.449483 30.0080948 113.478277 29.8173213 114.845692 29.5636627 115.921204 30.2327638 116.069385 31.0889589M83.9387206 30.7425895C83.9387206 31.3766801 83.9173129 31.9671749 83.9457449 32.5552167 83.9667066 32.9861575 84.1406439 33.0711192 84.7901213 33.0361087 84.8613686 33.243607 84.9365185 33.4619206 85.0192502 33.7027568 84.5053547 33.9754815 83.9997101 34.0009031 83.4886021 33.8512725 83.0494105 33.7228265 82.8400167 33.4056139 82.82463 32.8714258 82.8094662 32.3522899 82.823069 31.8321505 82.8191666 31.3125686 82.8178286 31.1317185 82.8018843 30.9509798 82.791515 30.7477185 82.5784418 30.7255303 82.3994871 30.7070216 82.1870829 30.6848334L82.1870829 29.8785895C82.373285 29.8488195 82.565954 29.818046 82.8058983 29.7796906L82.8058983 28.5204293C83.175069 28.4376976 83.5105672 28.3623247 83.9243373 28.2695582L83.9243373 29.7945199C84.2673059 29.8140321 84.5395847 29.8296418 84.8564627 29.8477045L84.8564627 30.6879554C84.5755986 30.7046801 84.3033199 30.7209589 83.9387206 30.7425895"/><polygon points="80.504 33.776 81.556 33.776 81.556 29.85 80.504 29.85"/><polygon points="68.484 33.822 69.665 33.822 69.665 32.648 68.484 32.648"/><polygon points="109.723 33.808 110.916 33.808 110.916 32.653 109.723 32.653"/><polygon points="80.492 29.194 81.561 29.194 81.561 28.222 80.492 28.222"/><path d="M58.3072892 20.1304418L61.38977 20.1304418C61.5401812 21.2303721 61.6876934 22.3097868 61.839777 23.4219819L58.7601951 23.4219819C58.6119024 22.3447972 58.4636098 21.2667206 58.3072892 20.1304418M61.8395206 17.0168753L58.7574857 17.0168753C58.6099735 15.9289868 58.4644683 14.856039 58.3123847 13.7350355L61.3898481 13.7350355C61.5365798 14.8064223 61.6842035 15.8837185 61.8395206 17.0168753"/></g></svg>