<svg xmlns="http://www.w3.org/2000/svg" width="720" height="544" viewBox="0 0 720 544">
  <g fill="none" fill-rule="evenodd" opacity=".3" transform="translate(-869 -442)">
    <path fill="#FFFFFF" d="M1325.87963,0 L1053.19293,664.312245 C1015.42748,756.305094 925.64477,816.398496 825.962991,816.398496 L16,816.5 L288.695673,152.196706 C326.461129,60.1949061 416.243835,0.101503759 515.916638,0.101503759 L1325.87963,0 Z" opacity=".1"/>
    <path fill="#1A32AF" fill-opacity=".4" d="M1680.51482,542.011191 L1527,916 C1505.73913,967.789345 1455.19403,1001.62021 1399.07604,1001.62021 L362,1001.60902 L515.519871,627.625252 C536.780743,575.830868 587.325841,542 643.438781,542 L1680.51482,542.011191 Z"/>
    <path fill="#061027" d="M1737.5,421 L1645.28262,645.657589 C1632.51107,676.767796 1602.14829,697.090226 1568.43783,697.090226 L1140,697.090226 L1232.22042,472.435664 C1244.99197,441.32243 1275.35475,421 1309.06217,421 L1737.5,421 Z" opacity=".1"/>
    <path fill="#1A32AF" d="M1655.5,851 L1563.28262,1075.65759 C1550.51107,1106.7678 1520.14829,1127.09023 1486.43783,1127.09023 L158,1127.09023 L250.220417,902.435664 C262.991966,871.32243 293.354745,851 327.062165,851 L1655.5,851 Z" opacity=".1"/>
  </g>
</svg>
