<svg xmlns="http://www.w3.org/2000/svg" viewBox="0 0 1230.2 1165.57"><defs><style>.cls-1,.cls-2{fill:#fff}.cls-1{opacity:.6}</style></defs><title>Asset 1</title><g id="Layer_2" data-name="Layer 2"><g id="Layer_1-2" data-name="Layer 1"><path class="cls-1" d="M1163.7,472.26c.05,10.41-2.7,14.55-9.28,16.25-8,2.06-15.33-.4-18.28-7.29-2.46-5.74-3.77-12-5.17-18.16-15.37-67.52-39.39-131.59-76.27-190.47Q987.53,165.37,876.79,104C823.7,74.65,767.15,55.27,707.68,44.08c-39.07-7.35-78.49-11.19-118.24-9.93C547,35.5,505.4,43,464.57,54.45c-104.9,29.48-194.69,83.49-267,165.49-31.67,35.9-57.94,75.52-79.82,118.08A679.52,679.52,0,0,0,65,475.71c-4.21,16-20.55,18.58-31.68,11.85-6.7-4.06-8.44-10.73-6.92-17.87,1.8-8.44,4.21-16.77,6.82-25,20.29-64.09,47.3-125.08,84.38-181.36,64.57-98,150.51-170.43,258.88-215.94A593.48,593.48,0,0,1,538,4.52C593.81-2,649.63-1.73,705.29,7,779.23,18.68,849,41.88,913.35,80.62c74.26,44.74,132.31,105.29,175.41,180.34,35.14,61.19,57.8,127,71.94,195.92C1161.9,462.73,1163,468.61,1163.7,472.26Z"/><path class="cls-1" d="M590.1,1165.51c-103.69-.91-201.89-24-293.06-74.15-89-49-156.59-119.25-204.09-208.94-29.11-55-48.5-113.36-61.06-174.14-.84-4.07-1.76-8.14-2.4-12.25-1.41-9,4.61-17,14-18.69,9.71-1.77,17.15,2.74,19.19,12.13,9.56,44.17,22.32,87.34,40.22,128.89C146.05,918.54,212.31,999,306,1055.91c51.81,31.43,107.63,53,166.71,66.3,36.47,8.2,73.32,13.36,110.75,14.33,43.46,1.13,86-5.29,127.95-15.74,86.35-21.51,164.15-60,231.92-118.07,52.09-44.62,93.76-97.65,126.77-157.64,26.93-48.94,47-100.62,61.93-154.36,3.09-11.13,9.31-15.87,20.06-15.56,14.09.41,21.64,10.46,17.8,24.06a804.27,804.27,0,0,1-34.25,97.39c-26.93,63.09-61.8,121.26-107.12,172.95A559.38,559.38,0,0,1,849.2,1106a606.91,606.91,0,0,1-178.89,54.22A508.07,508.07,0,0,1,590.1,1165.51Z"/><path class="cls-2" d="M235.87,713.6H206.22V513.21c5.3,0,10.57-.06,15.84,0,16.47.23,33,0,49.41.88,23.68,1.22,42.16,20.49,46.65,44.4,5.2,27.75-8.29,56.57-33,69-13.91,7-28.7,7.93-43.85,6.14-1.16-.14-2.3-.36-3.46-.48a12.76,12.76,0,0,0-2,.18Zm-.15-141.08c0,8.81.09,17.63-.05,26.44,0,2.84.78,4.1,3.75,4.57,8.65,1.38,17.18,1.64,25.58-1.26a32,32,0,0,0,21.7-30.4c-.16-13.77-8.69-25.19-22.12-29.33-8.64-2.67-17.43-2.22-26.1-.21-1.19.27-2.6,2.76-2.64,4.25C235.59,555.23,235.72,563.88,235.72,572.52Z"/><path class="cls-2" d="M472,528.13v-8.62H503.4V643.9H472.53l-.77-8.2c-2.65,1.66-4.89,3-7.05,4.43-27.82,18.69-73.95,11.06-86.55-33.81-6.8-24.21-4.46-47.67,9.91-68.89,13-19.23,31.88-25.58,54.38-22.9A51.39,51.39,0,0,1,472,528.13Zm3,54.32c-1.1-5.67-1.55-11.57-3.41-17-9.89-28.79-44.27-26.54-56.92-11.57-11.15,13.2-12.78,35.55-3.12,51.53,13.15,21.75,41.89,22.16,55.75.81C472,599,474,591.11,475,582.45Z"/><path class="cls-2" d="M899.79,580.47c0,33.93-23,60.26-57.88,65.52-24,3.63-45.85-1.17-63-19.55-12-12.85-16.13-28.88-15.85-46,.32-19.54,5.78-37.07,21.84-49.85,27.85-22.16,74.71-19.81,99.24,5C895,546.64,899.79,560.25,899.79,580.47ZM833,542.82c-25.8.45-40.72,16-40.15,41.8.52,23.56,15.66,37.77,40,37.51,21.76-.23,36.84-17.57,36.5-42C869,558.11,853.82,542.46,833,542.82Z"/><path class="cls-2" d="M709.45,517.3c-6.74,14-12.84,27.11-19.27,40q-37.79,76-75.68,151.9c-1.72,3.47-3.66,4.82-7.6,4.68-9.29-.32-18.61-.1-28.75-.1,1-2.37,1.69-4.16,2.55-5.86q20.7-41.27,41.52-82.49a8.53,8.53,0,0,0,0-8.8q-23-43.72-45.81-87.58c-1.9-3.64-3.49-7.44-5.51-11.78,10.58,0,20.38-.17,30.15.18,1.49.05,3.38,2.25,4.26,3.89,11.25,21.15,22.35,42.39,33.5,63.6,1.06,2,2.23,4,3.89,6.9,3-6.15,5.81-11.39,8.28-16.77,8.33-18.14,16.53-36.34,24.91-54.46.63-1.37,2.32-3.16,3.57-3.19C689.09,517.18,698.73,517.3,709.45,517.3Z"/><path class="cls-2" d="M1057.08,518.54h31.06c0,17.68.56,35.13-.19,52.53a249.86,249.86,0,0,1-4.49,37.1c-4.32,22.1-18,35.34-40.35,39.36-14.67,2.64-28.9,1.36-42.32-5.33-15.69-7.83-21.68-22.39-23.59-38.3-2-17-2.25-34.15-2.78-51.26-.3-9.81.46-19.64.55-29.47,0-3.26.81-4.83,4.5-4.73,9,.23,17.92.07,26.74.07,0,8.48,0,16.1,0,23.72.13,18-.05,36,.59,53.92.46,12.91,7,21.17,17.1,23.62,15.92,3.86,30.57-5.19,31.86-21.56,1.5-19.21,1-38.57,1.3-57.87C1057.17,533.2,1057.08,526.07,1057.08,518.54Z"/><path class="cls-2" d="M1228,511.53l2.18,32.39-22.86,2-2.87,101.19c-10.08-1.68-18.88-3-27.58-4.79-1-.2-2.07-3.05-2-4.6,1-14.78,2.72-29.52,3.3-44.31.59-15.24.13-30.52.13-46.22h-24.82V518.05Z"/><path class="cls-2" d="M2.63,517.07,32,521.72c-5.15,40.92-3.36,81.26,0,122.13L4,649.6C.55,605.46-2.26,561.88,2.63,517.07Z"/><path class="cls-2" d="M138.3,566.34v29.33H79.17V566.34Z"/></g></g></svg>