<svg xmlns="http://www.w3.org/2000/svg" width="128" height="28" viewBox="0 0 128 28"><path fill="#9BB2CC" fill-rule="evenodd" d="M26.9830508,0 L26.9830508,8.00840678 C28.0157288,7.11335593 29.0669831,6.52501695 30.3292203,6.3240678 C33.9705763,5.744 37.3118644,7.25111864 38.2188475,11.1746441 C38.4075932,11.9914576 38.4858305,12.8489492 38.4958644,13.6889492 C38.5292203,16.4897627 38.5084746,19.2912542 38.5084746,22.0926102 L38.5084746,22.871322 L35.6610169,22.871322 L35.6610169,22.1307119 C35.6610169,19.2165424 35.6858305,16.3021017 35.6477288,13.388339 C35.6341695,12.3517288 35.4907119,11.3106441 34.844339,10.4264407 C34.1571525,9.48650847 33.2364746,9.00433898 32.0687458,8.94359322 C30.7581017,8.87538983 29.556339,9.05857627 28.5336949,10.0001356 C27.7886102,10.6863729 27.3069831,11.4957288 27.131661,12.4706441 C27.0218305,13.0816271 26.9924068,13.7133559 26.9892881,14.3361356 C26.9750508,17.1591864 26.9830508,19.9825085 26.9830508,22.8604746 L24.2711864,22.8604746 L24.2711864,0 L26.9830508,0 Z M0,6.50847458 L2.81681356,6.50847458 L2.81681356,7.78210169 C3.71566102,7.3460339 4.56949153,6.76786441 5.51132203,6.50644068 C8.01383051,5.8119322 10.4082712,6.13315254 12.3414237,7.98264407 C13.5160678,9.10671186 14.1970169,10.6044746 14.2214237,12.2614237 C14.2725424,15.7157966 14.2357966,19.1717966 14.2337627,22.6271186 C14.2336271,22.692339 14.215322,22.7575593 14.1987797,22.8684746 L11.3898305,22.8684746 L11.3898305,22.1393898 C11.3898305,18.9776271 11.4334915,15.8150508 11.3709831,12.6545085 C11.3407458,11.1228475 10.7130847,9.76772881 9.17613559,9.23457627 C6.64081356,8.35525424 3.83159322,9.14494915 2.99444068,12.2897627 C2.88176271,12.7130847 2.85532203,13.1692203 2.85355932,13.6104407 C2.84189831,16.6795932 2.84745763,19.7486102 2.84745763,22.9152542 L0,22.9152542 L0,6.50847458 Z M77.4237695,27.1186712 L77.4237695,7.22782373 L78.9047186,7.22782373 L78.9047186,10.1569085 C79.7204475,9.41385763 80.4599729,8.58904407 81.3417356,7.96558644 C83.9184136,6.14375593 87.0066847,6.48450169 89.4523797,8.31080678 C91.1760407,9.59785763 92.0447864,11.3681627 92.3580068,13.4887051 C92.7482441,16.130061 92.0914305,18.4691797 90.2973966,20.3742644 C87.8500746,22.9730441 84.1151593,23.4986034 81.0957695,21.4053153 C80.3074305,20.8590102 79.6720407,20.0922305 78.9152949,19.3783322 L78.9152949,27.1186712 L77.4237695,27.1186712 Z M128,7.45762712 C127.687186,8.07742373 127.337492,8.68162712 127.068339,9.31986441 C125.918102,12.0452881 124.799729,14.7838644 123.654508,17.511322 C122.765559,19.6286102 121.882305,21.7491525 120.940203,23.8429831 C120.472814,24.8813559 119.830915,25.8322712 118.826305,26.4456949 C118.386034,26.7147119 117.892881,26.8969492 117.423729,27.1186441 L115.118644,27.1186441 C114.536136,26.8987119 113.953492,26.6786441 113.321627,26.44 C113.509153,25.9482034 113.67078,25.5246102 113.826847,25.1153898 C114.528,25.2894915 115.198915,25.5277288 115.888814,25.6127458 C117.476475,25.8084068 118.573695,25.0391864 119.328,23.6958644 C119.338712,23.6766102 119.345492,23.6545085 119.358508,23.6371525 C120.060881,22.6993898 120.017763,21.8404068 119.448542,20.7658305 C117.964881,17.9656949 116.639458,15.0816271 115.261559,12.2257627 C114.473898,10.5936271 113.706847,8.95159322 112.871729,7.18955932 C113.479729,7.18955932 113.987661,7.15471186 114.485831,7.20962712 C114.648271,7.22752542 114.842441,7.45247458 114.925017,7.62833898 C116.035932,9.99159322 117.131661,12.3621695 118.226983,14.7327458 C119.096814,16.6154576 119.960814,18.5007458 120.874983,20.4884068 C122.150644,17.2852881 123.384814,14.1834576 124.621695,11.0823051 C125.079593,9.93437288 125.52122,8.77844068 126.025356,7.65098305 C126.121085,7.43661017 126.460881,7.25098305 126.715254,7.20623729 C127.131932,7.13315254 127.570576,7.18644068 128,7.18644068 L128,7.45762712 Z M54.7787119,22.8869831 L52.0907119,22.8869831 L52.0907119,21.74 C51.0743051,22.18 50.1075254,22.7212881 49.0709153,23.0224407 C46.544,23.7564068 43.3578305,23.0713898 41.4995254,20.8197288 C40.3642034,19.4442712 40.2394576,16.7972203 41.1827797,15.2841356 C42.4291525,13.2849492 44.3467119,12.604 46.5498305,12.3222373 C48.3971525,12.0861695 50.1818305,12.4079322 51.9966102,12.639661 C52.3269153,11.7463729 51.3765424,9.88562712 50.2128814,9.48074576 C48.2199322,8.78759322 46.2874576,8.95871186 44.3755932,9.75586441 C43.8663051,9.9680678 43.3608136,10.1894915 42.7849492,10.4361356 C42.439322,9.63816949 42.0862373,8.82298305 41.7149831,7.96589831 C43.3741017,7.11152542 45.0501695,6.52237288 46.8911186,6.35288136 C48.3572881,6.21783051 49.7711186,6.33186441 51.1258305,6.8639322 C53.1936271,7.676 54.607322,9.2480678 54.7225763,11.4176949 C54.9239322,15.2101017 54.7787119,19.0210847 54.7787119,22.8869831 Z M65.7989695,6.23728814 C70.6751729,6.16135593 74.1576136,10.1456271 74.1159864,14.7166102 C74.0721898,19.5469831 70.6159186,23.2093559 65.6925288,23.2970847 C61.1843254,23.3773559 56.9749695,19.5456271 57.337139,14.0812203 C57.5991051,10.1288136 60.9648,6.02766102 65.7989695,6.23728814 Z M111.311783,23.8870508 L108.758563,23.8870508 C106.771715,23.8869153 104.784868,23.895322 102.797885,23.8851525 C98.4191729,23.8626441 94.5193763,20.452339 94.1052746,16.2938305 C93.6430373,11.6496271 96.5196475,7.66766102 101.024054,6.71620339 C105.804529,5.70657627 110.886834,9.2839322 111.26541,14.1722034 C111.511919,17.3541695 111.311783,20.5707119 111.311783,23.8870508 Z M17.8097627,22.8602034 L17.8097627,6.53952542 L20.4394576,6.53952542 L20.4394576,22.8602034 L17.8097627,22.8602034 Z M17.5399322,4.01342373 L17.5399322,0.707661017 L20.7092881,0.707661017 L20.7092881,4.01342373 L17.5399322,4.01342373 Z M90.7155661,14.6939932 C90.7900068,12.917722 90.1070237,10.8152136 88.3391593,9.47745085 C87.3039051,8.69412881 86.1056678,8.26945085 84.8858712,8.32490847 C83.1117695,8.40545085 81.5237017,9.07162034 80.3437695,10.5518915 C78.7513627,12.5498576 78.5204475,14.7832136 79.2860068,17.0809763 C80.2378712,19.9369763 83.2599729,21.6119593 86.0967186,21.0206373 C87.4213288,20.7445695 88.5209898,20.1429424 89.3734644,19.0689085 C90.3765831,17.8045017 90.7380746,16.3589424 90.7155661,14.6939932 Z M52.0677966,15.4659661 C51.9694915,15.4324746 51.8120678,15.3538305 51.6462373,15.3267119 C50.7739661,15.1842034 49.9034576,14.9856949 49.0250847,14.9362034 C47.488678,14.8498305 45.9609492,14.8586441 44.5540339,15.6892881 C43.2390508,16.4656949 43.1018305,18.8235254 44.3712542,19.6667797 C46.2299661,20.9017627 48.1605424,20.7546441 50.0539661,19.8263729 C51.3784407,19.1771525 52.1812881,18.1058305 52.0710508,16.524 C52.0481356,16.1947797 52.0677966,15.8625763 52.0677966,15.4659661 Z M110.404258,17.8980339 L110.378766,17.8980339 C110.378766,16.8589831 110.437478,15.8161356 110.368461,14.7816949 C110.076122,10.3968814 105.954495,7.00935593 101.675851,7.60216949 C97.6475119,8.16040678 94.7904271,11.7155254 95.0532068,15.8431186 C95.2896814,19.5589153 98.8168678,22.8602034 102.633003,22.9109153 C104.553003,22.9362712 106.473681,22.9228475 108.393953,22.9153898 C109.663105,22.9103729 110.390427,22.1697627 110.402359,20.8801356 C110.41158,19.8862373 110.404258,18.8920678 110.404258,17.8980339 Z M65.7546305,20.4745763 C68.7559864,20.6584407 71.1549017,18.0505763 71.1778169,14.8070508 C71.2020881,11.3922712 68.6434441,9.03823729 65.8976814,8.93138983 C62.5671051,8.80176271 60.2019525,11.4482712 60.2130712,14.7010169 C60.2239186,17.8470508 62.5048678,20.6657627 65.7546305,20.4745763 Z" opacity=".5"/></svg>