<svg xmlns="http://www.w3.org/2000/svg" xmlns:xlink="http://www.w3.org/1999/xlink" width="312" height="352" viewBox="0 0 312 352"><defs><path id="a" d="M0,30.0055809 C0,13.4339562 13.4312544,-1.42108547e-14 30.0043438,-1.42108547e-14 L301.99447,-1.42108547e-14 C307.520372,-1.42108547e-14 312,4.48292932 312,9.9986976 L312,176 L0,176 L0,30.0055809 Z"/></defs><g fill="none" fill-rule="evenodd"><path fill="#FFF" d="M0,29.9923238 C0,13.4280207 13.4312544,-2.84217094e-14 30.0043438,-2.84217094e-14 L301.99447,-2.84217094e-14 C307.520372,-2.84217094e-14 312,4.48260209 312,9.99100135 L312,322.007676 C312,338.571979 298.568746,352 281.995656,352 L10.0055298,352 C4.47962827,352 0,347.517398 0,342.008999 L0,29.9923238 Z"/><use fill="#0092FF" xlink:href="#a"/><path stroke="#FFF" stroke-width="8" d="M4,172 L308,172 L308,9.9986976 C308,6.69009012 305.309254,4 301.99447,4 L30.0043438,4 C15.6412164,4 4,15.6422721 4,30.0055809 L4,172 Z"/><path fill="#FFF" d="M244.25293,72 L242.475586,72 L240.780273,66.0390625 C240.707356,65.7792956 240.616211,65.4044621 240.506836,64.9145508 C240.39746,64.4246395 240.33138,64.0839853 240.308594,63.8925781 C240.263021,64.1842463 240.188965,64.5624977 240.086426,65.0273438 C239.983886,65.4921898 239.898438,65.8385405 239.830078,66.0664062 L238.175781,72 L236.398438,72 L235.106445,66.9960938 L233.793945,62.0058594 L235.461914,62.0058594 L236.890625,67.8300781 C237.113933,68.7643276 237.273437,69.5891891 237.369141,70.3046875 C237.419271,69.9173158 237.494466,69.4843774 237.594727,69.0058594 C237.694987,68.5273414 237.786132,68.1399754 237.868164,67.84375 L239.495117,62.0058594 L241.115234,62.0058594 L242.783203,67.8710938 C242.942709,68.4134142 243.111327,69.224604 243.289062,70.3046875 C243.357422,69.6529915 243.521483,68.8235727 243.78125,67.8164062 L245.203125,62.0058594 L246.857422,62.0058594 L244.25293,72 Z M251.095703,66.5654297 L253.460938,62.0058594 L255.238281,62.0058594 L251.90918,68.1240234 L251.90918,72 L250.268555,72 L250.268555,68.1787109 L246.953125,62.0058594 L248.730469,62.0058594 L251.095703,66.5654297 Z M258.191406,66.6542969 L259.326172,66.6542969 C260.087243,66.6542969 260.63867,66.5130222 260.980469,66.2304688 C261.322267,65.9479153 261.493164,65.5286486 261.493164,64.9726562 C261.493164,64.4075493 261.308596,64.0019544 260.939453,63.7558594 C260.570311,63.5097644 260.014327,63.3867188 259.271484,63.3867188 L258.191406,63.3867188 L258.191406,66.6542969 Z M258.191406,68.0078125 L258.191406,72 L256.557617,72 L256.557617,62.0058594 L259.380859,62.0058594 C260.670579,62.0058594 261.625322,62.2473934 262.245117,62.7304688 C262.864912,63.2135441 263.174805,63.9427035 263.174805,64.9179688 C263.174805,66.1621156 262.527676,67.0485 261.233398,67.5771484 L264.056641,72 L262.197266,72 L259.804688,68.0078125 L258.191406,68.0078125 Z M271.15918,72 L265.505859,72 L265.505859,62.0058594 L271.15918,62.0058594 L271.15918,63.3867188 L267.139648,63.3867188 L267.139648,66.1074219 L270.90625,66.1074219 L270.90625,67.4746094 L267.139648,67.4746094 L267.139648,70.6123047 L271.15918,70.6123047 L271.15918,72 Z"/><rect width="32" height="3" x="40" y="125" fill="#FFF" opacity=".2"/><rect width="32" height="3" x="40" y="285" fill="#061027" opacity=".2"/><path fill="#FFF" d="M47.308,74.392 C47.308,77.1080002 47.728,79.285 48.568,80.923 C49.408,82.561 50.6120002,83.38 52.18,83.38 C53.7479998,83.38 54.952,82.561 55.792,80.923 C56.632,79.285 57.052,77.1080002 57.052,74.392 C57.052,71.6759998 56.632,69.499 55.792,67.861 C54.952,66.223 53.7479998,65.404 52.18,65.404 C50.6120002,65.404 49.408,66.223 48.568,67.861 C47.728,69.499 47.308,71.6759998 47.308,74.392 Z M41.302,74.392 C41.302,70.276 42.31,66.9089998 44.326,64.291 C46.342,61.6730002 48.9599998,60.364 52.18,60.364 C55.4000002,60.364 58.018,61.6730002 60.034,64.291 C62.05,66.9089998 63.058,70.276 63.058,74.392 C63.058,78.508 62.05,81.8750002 60.034,84.493 C58.018,87.1109998 55.4000002,88.42 52.18,88.42 C48.9599998,88.42 46.342,87.1109998 44.326,84.493 C42.31,81.8750002 41.302,78.508 41.302,74.392 Z M66.88,85.102 C66.88,86.026 67.2020002,86.8100002 67.846,87.454 C68.4899998,88.0979998 69.274,88.42 70.198,88.42 C71.122,88.42 71.9129998,88.0979998 72.571,87.454 C73.2290002,86.8100002 73.558,86.026 73.558,85.102 C73.558,84.178 73.2290002,83.3870002 72.571,82.729 C71.9129998,82.0709998 71.122,81.742 70.198,81.742 C69.3020002,81.742 68.5250002,82.0709998 67.867,82.729 C67.2089998,83.3870002 66.88,84.178 66.88,85.102 Z M77.086,88 L83.26,88 L94.474,64.312 L94.474,60.784 L73.6,60.784 L73.6,65.824 L87.88,65.824 L77.086,88 Z M97.918,85.564 C100.186,87.4679998 103.028,88.42 106.444,88.42 C109.888,88.42 112.639,87.5450002 114.697,85.795 C116.755,84.0449998 117.784,81.7280002 117.784,78.844 C117.784,76.0160002 116.825,73.8320002 114.907,72.292 C112.989,70.7519998 110.504,69.982 107.452,69.982 C106.164,69.982 105.17,70.066 104.47,70.234 L104.47,65.824 L116.314,65.824 L116.314,60.784 L98.842,60.784 L98.842,74.14 L100.9,76.03 C102.496,75.1340002 104.092,74.686 105.688,74.686 C107.508,74.686 108.978,75.0500002 110.098,75.778 C111.218,76.5059998 111.778,77.6120002 111.778,79.096 C111.778,80.3000002 111.302,81.3149998 110.35,82.141 C109.398,82.9670002 108.054,83.38 106.318,83.38 C103.77,83.38 101.628,82.708 99.892,81.364 L97.918,85.564 Z M125.89,68.722 C125.89,70.066 126.142,71.1650002 126.646,72.019 C127.15,72.8729998 127.836,73.3 128.704,73.3 C129.516,73.3 130.188,72.8660002 130.72,71.998 C131.252,71.1299998 131.518,70.0379998 131.518,68.722 C131.518,67.378 131.252,66.2720002 130.72,65.404 C130.188,64.5359998 129.516,64.102 128.704,64.102 C127.836,64.102 127.15,64.5290002 126.646,65.383 C126.142,66.2369998 125.89,67.3499998 125.89,68.722 Z M121.9,68.722 C121.9,66.2579998 122.537,64.249 123.811,62.695 C125.085,61.141 126.716,60.364 128.704,60.364 C130.692,60.364 132.316,61.141 133.576,62.695 C134.836,64.249 135.466,66.2579998 135.466,68.722 C135.466,71.1860002 134.836,73.1879998 133.576,74.728 C132.316,76.2680002 130.692,77.038 128.704,77.038 C126.716,77.038 125.085,76.2680002 123.811,74.728 C122.537,73.1879998 121.9,71.1860002 121.9,68.722 Z M146.512,80.062 C146.512,81.406 146.764,82.5050002 147.268,83.359 C147.772,84.2129998 148.458,84.64 149.326,84.64 C150.138,84.64 150.81,84.2060002 151.342,83.338 C151.874,82.4699998 152.14,81.3779998 152.14,80.062 C152.14,78.718 151.874,77.6120002 151.342,76.744 C150.81,75.8759998 150.138,75.442 149.326,75.442 C148.458,75.442 147.772,75.8690002 147.268,76.723 C146.764,77.5769998 146.512,78.6899998 146.512,80.062 Z M142.522,80.062 C142.522,77.5979998 143.159,75.589 144.433,74.035 C145.707,72.481 147.338,71.704 149.326,71.704 C151.314,71.704 152.938,72.481 154.198,74.035 C155.458,75.589 156.088,77.5979998 156.088,80.062 C156.088,82.5260002 155.458,84.5279998 154.198,86.068 C152.938,87.6080002 151.314,88.378 149.326,88.378 C147.338,88.378 145.707,87.6080002 144.433,86.068 C143.159,84.5279998 142.522,82.5260002 142.522,80.062 Z M129.628,86.908 L146.26,59.272 L148.906,60.784 L132.274,88.42 L129.628,86.908 Z"/><path fill="#061027" d="M227.491211 222.005859L230.458008 222.005859C231.834317 222.005859 232.828936 222.206378 233.441895 222.607422 234.054853 223.008466 234.361328 223.641923 234.361328 224.507812 234.361328 225.091149 234.210939 225.576495 233.910156 225.963867 233.609373 226.351239 233.176435 226.595052 232.611328 226.695312L232.611328 226.763672C233.313155 226.895834 233.829263 227.156736 234.159668 227.546387 234.490073 227.936037 234.655273 228.463538 234.655273 229.128906 234.655273 230.026697 234.341963 230.729652 233.715332 231.237793 233.088701 231.745934 232.217128 232 231.100586 232L227.491211 232 227.491211 222.005859zM229.125 226.134766L230.697266 226.134766C231.380863 226.134766 231.879881 226.026531 232.194336 225.810059 232.508791 225.593586 232.666016 225.225589 232.666016 224.706055 232.666016 224.236651 232.496258 223.897136 232.156738 223.6875 231.817218 223.477864 231.278324 223.373047 230.540039 223.373047L229.125 223.373047 229.125 226.134766zM229.125 227.460938L229.125 230.625977 230.861328 230.625977C231.544925 230.625977 232.061033 230.494956 232.409668 230.23291 232.758303 229.970865 232.932617 229.557294 232.932617 228.992188 232.932617 228.472654 232.754885 228.087566 232.399414 227.836914 232.043944 227.586262 231.50391 227.460938 230.779297 227.460938L229.125 227.460938zM242.65332 232L241.655273 229.224609 237.833984 229.224609 236.856445 232 235.133789 232 238.873047 221.964844 240.650391 221.964844 244.389648 232 242.65332 232zM241.224609 227.816406L240.288086 225.095703C240.219726 224.913411 240.125163 224.626304 240.004395 224.234375 239.883626 223.842446 239.800456 223.555339 239.754883 223.373047 239.631835 223.933597 239.451824 224.546546 239.214844 225.211914L238.3125 227.816406 241.224609 227.816406zM254.035156 232L252.032227 232 247.117188 224.036133 247.0625 224.036133 247.09668 224.480469C247.160482 225.328129 247.192383 226.102861 247.192383 226.804688L247.192383 232 245.708984 232 245.708984 222.005859 247.691406 222.005859 252.592773 229.928711 252.633789 229.928711C252.624674 229.823893 252.606445 229.442223 252.579102 228.783691 252.551758 228.125159 252.538086 227.61133 252.538086 227.242188L252.538086 222.005859 254.035156 222.005859 254.035156 232zM264.302734 232L262.40918 232 259.271484 227.474609 258.307617 228.260742 258.307617 232 256.673828 232 256.673828 222.005859 258.307617 222.005859 258.307617 226.777344C258.754234 226.230466 259.198565 225.704104 259.640625 225.198242L262.34082 222.005859 264.200195 222.005859C262.454744 224.056651 261.20378 225.517248 260.447266 226.387695L264.302734 232zM271.384766 229.286133C271.384766 230.174809 271.06348 230.872068 270.420898 231.37793 269.778317 231.883792 268.891933 232.136719 267.761719 232.136719 266.631505 232.136719 265.706384 231.961265 264.986328 231.610352L264.986328 230.06543C265.44206 230.279623 265.926267 230.448242 266.438965 230.571289 266.951663 230.694337 267.429034 230.755859 267.871094 230.755859 268.518232 230.755859 268.995604 230.632814 269.303223 230.386719 269.610841 230.140624 269.764648 229.810223 269.764648 229.395508 269.764648 229.021808 269.623374 228.705079 269.34082 228.445312 269.058267 228.185546 268.474939 227.877931 267.59082 227.522461 266.679357 227.153318 266.036786 226.731773 265.663086 226.257812 265.289386 225.783852 265.102539 225.214196 265.102539 224.548828 265.102539 223.71484 265.39876 223.058596 265.991211 222.580078 266.583662 222.10156 267.378901 221.862305 268.376953 221.862305 269.333989 221.862305 270.286454 222.071938 271.234375 222.491211L270.714844 223.824219C269.826167 223.450519 269.033207 223.263672 268.335938 223.263672 267.807289 223.263672 267.406251 223.378742 267.132812 223.608887 266.859374 223.839031 266.722656 224.143227 266.722656 224.521484 266.722656 224.781251 266.777343 225.003417 266.886719 225.187988 266.996094 225.37256 267.176106 225.546874 267.426758 225.710938 267.67741 225.875001 268.128577 226.09147 268.780273 226.360352 269.514001 226.665692 270.051756 226.95052 270.393555 227.214844 270.735353 227.479168 270.986002 227.777668 271.145508 228.110352 271.305014 228.443036 271.384766 228.834959 271.384766 229.286133zM54.448 248L60.076 248 60.076 242.75 63.31 242.75 63.31 237.71 60.076 237.71 60.076 231.83 54.448 231.83 54.448 237.71 48.19 237.71 57.01 223.052 52.18 220.364 41.176 238.928 41.176 242.75 54.448 242.75 54.448 248zM65.62 239.936L83.302 239.936 83.302 235.4 65.62 235.4 65.62 239.936zM86.326 238.634C86.326 236.03 87.1100002 233.622 88.678 231.41L97.246 219.398 101.95 222.8 97.204 229.184 97.876 229.142C100.62 229.142 102.86 230.038 104.596 231.83 106.332 233.622 107.2 235.792 107.2 238.34 107.2 241.252 106.283 243.66 104.449 245.564 102.615 247.468 100.046 248.42 96.742 248.42 93.4100002 248.42 90.841 247.503 89.035 245.669 87.229 243.835 86.326 241.49 86.326 238.634zM92.458 238.55C92.458 239.978 92.815 241.126 93.529 241.994 94.243 242.862 95.314 243.296 96.742 243.296 98.1140002 243.296 99.178 242.862 99.934 241.994 100.69 241.126 101.068 239.978 101.068 238.55 101.068 237.262 100.669 236.198 99.871 235.358 99.073 234.518 98.0300002 234.098 96.742 234.098 95.4260002 234.098 94.3829998 234.518 93.613 235.358 92.8430002 236.198 92.458 237.262 92.458 238.55zM115.012 228.722C115.012 230.066 115.264 231.165 115.768 232.019 116.272 232.873 116.958 233.3 117.826 233.3 118.638 233.3 119.31 232.866 119.842 231.998 120.374 231.13 120.64 230.038 120.64 228.722 120.64 227.378 120.374 226.272 119.842 225.404 119.31 224.536 118.638 224.102 117.826 224.102 116.958 224.102 116.272 224.529 115.768 225.383 115.264 226.237 115.012 227.35 115.012 228.722zM111.022 228.722C111.022 226.258 111.659 224.249 112.933 222.695 114.207 221.141 115.838 220.364 117.826 220.364 119.814 220.364 121.438 221.141 122.698 222.695 123.958 224.249 124.588 226.258 124.588 228.722 124.588 231.186 123.958 233.188 122.698 234.728 121.438 236.268 119.814 237.038 117.826 237.038 115.838 237.038 114.207 236.268 112.933 234.728 111.659 233.188 111.022 231.186 111.022 228.722zM135.634 240.062C135.634 241.406 135.886 242.505 136.39 243.359 136.894 244.213 137.58 244.64 138.448 244.64 139.26 244.64 139.932 244.206 140.464 243.338 140.996 242.47 141.262 241.378 141.262 240.062 141.262 238.718 140.996 237.612 140.464 236.744 139.932 235.876 139.26 235.442 138.448 235.442 137.58 235.442 136.894 235.869 136.39 236.723 135.886 237.577 135.634 238.69 135.634 240.062zM131.644 240.062C131.644 237.598 132.281 235.589 133.555 234.035 134.829 232.481 136.46 231.704 138.448 231.704 140.436 231.704 142.06 232.481 143.32 234.035 144.58 235.589 145.21 237.598 145.21 240.062 145.21 242.526 144.58 244.528 143.32 246.068 142.06 247.608 140.436 248.378 138.448 248.378 136.46 248.378 134.829 247.608 133.555 246.068 132.281 244.528 131.644 242.526 131.644 240.062zM118.75 246.908L135.382 219.272 138.028 220.784 121.396 248.42 118.75 246.908z"/></g></svg>