<svg xmlns="http://www.w3.org/2000/svg" width="128" height="19" viewBox="0 0 128 19"><path fill="#9BB2CC" fill-rule="evenodd" d="M39.7169231,2.91340659 L43.4537143,2.91340659 L43.4537143,0.0784175824 L39.7169231,0.0784175824 L39.7169231,2.91340659 Z M39.7095385,18.0803516 L43.4461538,18.0803516 L43.4461538,4.6567033 L39.7095385,4.6567033 L39.7095385,18.0803516 Z M91.5966593,18.0501099 L95.2949451,18.0501099 L95.2949451,0.0741978022 L91.5966593,0.0741978022 L91.5966593,18.0501099 Z M32.2855385,18.0523956 L36.2305055,18.0523956 L36.2305055,7.62989011 C36.9643956,7.58382418 37.5370549,7.54813187 38.1633407,7.50874725 L38.1633407,4.62593407 C37.5134945,4.59375824 36.9392527,4.56527473 36.1673846,4.52712088 L36.1673846,0.106549451 L32.2394725,0.106549451 L32.2394725,4.50707692 C31.5676484,4.56087912 30.9997363,4.60624176 30.407033,4.65353846 L30.407033,7.50540659 C31.0586374,7.55481319 31.6251429,7.59771429 32.2855385,7.64782418 L32.2855385,18.0523956 Z M64.8045714,18.0843956 C64.8045714,17.4626813 64.7966593,16.9432967 64.805978,16.4242637 C64.845011,14.2319121 64.7878681,12.0311209 64.967033,9.84984615 C65.088,8.37556044 66.1512088,7.66153846 67.5122637,7.79428571 C68.8516923,7.92492308 69.5294945,8.74496703 69.5354725,10.2792088 C69.5442637,12.5341538 69.5347692,14.7890989 69.5421538,17.0442198 C69.5433846,17.381978 69.5938462,17.7193846 69.6212747,18.0546813 L73.3355604,18.0546813 C73.3803956,17.8491429 73.4264615,17.7362637 73.4264615,17.6237363 C73.4243516,14.5781099 73.4723516,11.5309011 73.3747692,8.48843956 C73.3490989,7.68369231 73.0095824,6.80879121 72.5779341,6.1127033 C71.1629011,3.83068132 67.3316923,3.45705495 65.3863736,5.33345055 C65.2061538,5.50734066 65.0095824,5.66435165 64.7335385,5.90487912 C64.6510769,5.42769231 64.5895385,5.0712967 64.517978,4.65547253 L60.9992088,4.65547253 L60.9992088,18.0843956 L64.8045714,18.0843956 Z M98.6083516,0.00808791209 L98.6083516,18.2361319 L103.207736,18.2361319 L103.207736,11.2302418 L108.259341,11.2302418 L108.259341,7.19050549 L103.253451,7.19050549 L103.253451,3.95112088 L108.396308,3.95112088 L108.396308,0.00808791209 L98.6083516,0.00808791209 Z M52.1816264,4.21661538 C47.9150769,4.21731868 44.8977582,7.20545055 44.9044396,11.4229451 C44.9109451,15.5418022 48.0035165,18.6331429 52.1313407,18.6472088 C56.2670769,18.6612747 59.5113846,15.490989 59.5180659,11.4292747 C59.5247473,7.33661538 56.3504176,4.21591209 52.1816264,4.21661538 L52.1816264,4.21661538 Z M85.9595604,5.90874725 C85.7230769,5.76668132 85.576967,5.72026374 85.4915165,5.62145055 C83.6392088,3.47868132 79.5421538,3.93512088 77.5437363,5.68052747 C74.9408352,7.95358242 74.2232967,11.8363077 75.8505495,15.0609231 C77.253978,17.8421099 80.3991209,19.2995165 83.3832088,18.4216264 C84.2904615,18.1545495 85.0922198,17.5287912 85.9699341,17.0524835 C86.0242637,17.3308132 86.0935385,17.6858022 86.1672088,18.0625934 L89.8549451,18.0625934 L89.8549451,4.6618022 L86.1373187,4.6618022 C86.0777143,5.08008791 86.0293626,5.42013187 85.9595604,5.90874725 L85.9595604,5.90874725 Z M24.9218462,5.88026374 C21.4261099,3.536 18.3410989,3.70408791 15.9143736,6.28237363 C13.5497143,8.79454945 13.335033,13.2186374 15.4438681,16.0314725 C16.3738022,17.2717363 17.5817143,18.1139341 19.0964396,18.4596044 C21.2747253,18.9568352 23.259956,18.6123956 24.9329231,16.8355165 C25.0162637,17.3329231 25.0727033,17.6692747 25.1363516,18.0487033 L28.8298901,18.0487033 L28.8298901,4.64861538 L25.1472527,4.64861538 C25.0702418,5.06901099 25.0046593,5.42769231 24.9218462,5.88026374 L24.9218462,5.88026374 Z M4.78945055,9.49591209 C5.52351648,9.49591209 6.06927473,9.51279121 6.6138022,9.49257143 C8.26742857,9.43191209 9.26962637,8.49107692 9.38707692,6.90848352 C9.49432967,5.46725275 8.64808791,4.35481319 7.10892308,4.06206593 C6.29046154,3.90628571 5.44123077,3.91208791 4.34479121,3.824 C4.34338462,6.3098022 4.3418022,8.62997802 4.34127473,10.9501538 C4.34057143,13.2880879 4.3410989,15.6258462 4.3410989,18.0567912 L0,18.0567912 L0,0.19410989 C0.0632967033,0.145054945 0.109714286,0.0778901099 0.154373626,0.0791208791 C3.10083516,0.159296703 6.06734066,0.0622417582 8.9876044,0.384351648 C11.6555604,0.678857143 13.1266813,2.45784615 13.5941978,5.19437363 C14.013011,7.64536264 13.0044835,9.88993407 10.8952967,11.2087912 C10.7505934,11.2993407 10.6197802,11.412044 10.3676484,11.6003516 C11.5505934,13.7204396 12.727033,15.8292747 13.9701099,18.056967 L9.42118681,18.056967 C7.93389011,15.307956 6.41054945,12.4921319 4.78945055,9.49591209 Z M25.0389099,11.3717626 C25.0357451,13.409389 23.4575473,15.0464879 21.4737231,15.0702242 C19.5345582,15.093433 17.8346901,13.3594549 17.8710857,11.3954989 C17.9087121,9.37105934 19.4719648,7.7642022 21.4065582,7.76138901 C23.4459429,7.75822418 25.0420747,9.34486154 25.0389099,11.3717626 Z M86.0476659,11.3236923 C86.0761495,13.3762637 84.4571604,15.0589011 82.4369407,15.077011 C80.5614242,15.0935385 78.9081495,13.4068571 78.8772044,11.4451868 C78.8462593,9.47648352 80.4378198,7.79191209 82.357644,7.76114286 C84.3810286,7.72879121 86.0198857,9.31068132 86.0476659,11.3236923 Z M48.7944967,11.3006769 C48.8108484,9.35694066 50.3473758,7.76590769 52.1887824,7.78577582 C54.0533978,7.80581978 55.6417934,9.47632527 55.6277275,11.4023033 C55.6127824,13.4184791 54.0614857,14.9724132 52.0838154,14.9518418 C50.145178,14.9314462 48.7767385,13.4128527 48.7944967,11.3006769 Z M127.825143,18.3827516 L122.589099,18.3827516 C121.220308,16.1492571 119.927473,14.0398945 118.534593,11.7671912 C117.216791,14.0253011 115.985846,16.1344879 114.74822,18.2549275 L109.585143,18.2549275 C111.738462,14.9707077 113.824615,11.7893451 115.968615,8.51954286 C114.124923,5.7264 112.277538,2.92763077 110.365626,0.0311032967 L115.600615,0.0311032967 C116.584,1.64921319 117.610989,3.33870769 118.732396,5.18363077 C119.799297,3.36912527 120.78356,1.69457582 121.77978,-1.75824176e-05 L126.990681,-1.75824176e-05 C125.109011,2.92393846 123.286066,5.75611429 121.443253,8.61923516 C123.24422,11.3661363 125.021275,14.0838505 126.807648,16.7950593 C127.126418,17.2791033 127.484923,17.7369495 127.825143,18.2069275 L127.825143,18.3827516 Z" opacity=".5"/></svg>