<svg xmlns="http://www.w3.org/2000/svg" width="312" height="271" viewBox="0 0 312 271">
  <g fill="none" fill-rule="evenodd" transform="translate(-40 -29)">
    <g transform="translate(40 215)">
      <g transform="translate(0 4)">
        <rect width="16" height="16"/>
        <polyline stroke="#9BB2CC" stroke-linecap="round" stroke-linejoin="round" stroke-width="2" points="2 8 6 12 15 3"/>
      </g>
      <path fill="#9BB2CC" d="M259.132812 10.453125C259.132812 12.7031363 258.679692 14.382807 257.773438 15.4921875 256.867183 16.601568 255.502613 17.15625 253.679688 17.15625 252.986976 17.15625 252.489585 17.1145838 252.1875 17.03125L252.1875 15.4921875C252.651044 15.6223965 253.117185 15.6875 253.585938 15.6875 254.825527 15.6875 255.749997 15.35417 256.359375 14.6875 256.968753 14.02083 257.302083 12.9739655 257.359375 11.546875L257.265625 11.546875C256.958332 12.0156273 256.587242 12.3541656 256.152344 12.5625 255.717446 12.7708344 255.208336 12.875 254.625 12.875 253.614578 12.875 252.820315 12.559899 252.242188 11.9296875 251.66406 11.299476 251.375 10.4349013 251.375 9.3359375 251.375 8.1432232 251.709632 7.19401395 252.378906 6.48828125 253.04818 5.78254855 253.960932 5.4296875 255.117188 5.4296875 255.929692 5.4296875 256.638018 5.62760219 257.242188 6.0234375 257.846357 6.41927281 258.312498 6.99348582 258.640625 7.74609375 258.968752 8.49870168 259.132812 9.40103641 259.132812 10.453125zM255.148438 6.953125C254.513018 6.953125 254.026043 7.16015418 253.6875 7.57421875 253.348957 7.98828332 253.179688 8.57030875 253.179688 9.3203125 253.179688 9.97135742 253.337238 10.4830711 253.652344 10.8554688 253.967449 11.2278664 254.445309 11.4140625 255.085938 11.4140625 255.705732 11.4140625 256.22656 11.2291685 256.648438 10.859375 257.070315 10.4895815 257.28125 10.0572941 257.28125 9.5625 257.28125 9.09895602 257.191407 8.6653666 257.011719 8.26171875 256.83203 7.8580709 256.580731 7.53906367 256.257812 7.3046875 255.934894 7.07031133 255.565106 6.953125 255.148438 6.953125zM260.875 16.0234375C260.875 15.6432273 260.973957 15.3515635 261.171875 15.1484375 261.369793 14.9453115 261.656248 14.84375 262.03125 14.84375 262.41146 14.84375 262.70052 14.9492177 262.898438 15.1601562 263.096355 15.3710948 263.195312 15.6588523 263.195312 16.0234375 263.195312 16.393231 263.095053 16.6861968 262.894531 16.9023438 262.694009 17.1184907 262.406252 17.2265625 262.03125 17.2265625 261.656248 17.2265625 261.369793 17.1197927 261.171875 16.90625 260.973957 16.6927073 260.875 16.3984394 260.875 16.0234375zM260.875 9.3515625C260.875 8.56510023 261.260413 8.171875 262.03125 8.171875 262.421877 8.171875 262.713541 8.27604063 262.90625 8.484375 263.098959 8.69270937 263.195312 8.98176898 263.195312 9.3515625 263.195312 9.72135602 263.095053 10.0143218 262.894531 10.2304688 262.694009 10.4466157 262.406252 10.5546875 262.03125 10.5546875 261.656248 10.5546875 261.369793 10.4479177 261.171875 10.234375 260.973957 10.0208323 260.875 9.72656438 260.875 9.3515625zM272.25 8.203125C272.25 8.92708695 272.039065 9.52994551 271.617188 10.0117188 271.19531 10.493492 270.601566 10.8177075 269.835938 10.984375L269.835938 11.046875C270.752609 11.1614589 271.440102 11.4466123 271.898438 11.9023437 272.356773 12.3580752 272.585938 12.9635379 272.585938 13.71875 272.585938 14.8177138 272.197921 15.6653616 271.421875 16.2617188 270.645829 16.8580759 269.541674 17.15625 268.109375 17.15625 266.843744 17.15625 265.776046 16.9505229 264.90625 16.5390625L264.90625 14.90625C265.390627 15.1458345 265.903643 15.3307285 266.445312 15.4609375 266.986982 15.5911465 267.50781 15.65625 268.007812 15.65625 268.893234 15.65625 269.554685 15.4921891 269.992188 15.1640625 270.42969 14.8359359 270.648438 14.3281284 270.648438 13.640625 270.648438 13.031247 270.406252 12.5833348 269.921875 12.296875 269.437498 12.0104152 268.677089 11.8671875 267.640625 11.8671875L266.648438 11.8671875 266.648438 10.375 267.65625 10.375C269.479176 10.375 270.390625 9.74479797 270.390625 8.484375 270.390625 7.99478922 270.231772 7.61718883 269.914062 7.3515625 269.596353 7.08593617 269.127607 6.953125 268.507812 6.953125 268.075519 6.953125 267.658856 7.0143223 267.257812 7.13671875 266.856769 7.2591152 266.382815 7.49739406 265.835938 7.8515625L264.9375 6.5703125C265.98438 5.79947531 267.200514 5.4140625 268.585938 5.4140625 269.736985 5.4140625 270.635413 5.66145586 271.28125 6.15625 271.927087 6.65104414 272.25 7.33332898 272.25 8.203125zM274.101562 12.1328125C274.101562 7.66404016 275.921857 5.4296875 279.5625 5.4296875 280.13542 5.4296875 280.61979 5.47395789 281.015625 5.5625L281.015625 7.09375C280.61979 6.97916609 280.161461 6.921875 279.640625 6.921875 278.416661 6.921875 277.497399 7.24999672 276.882812 7.90625 276.268226 8.56250328 275.934896 9.61457609 275.882812 11.0625L275.976562 11.0625C276.221355 10.6406229 276.565102 10.3138032 277.007812 10.0820312 277.450523 9.85025926 277.971351 9.734375 278.570312 9.734375 279.606776 9.734375 280.41406 10.0520802 280.992188 10.6875 281.570315 11.3229198 281.859375 12.1848904 281.859375 13.2734375 281.859375 14.4713602 281.524743 15.4179653 280.855469 16.1132812 280.186195 16.8085972 279.273443 17.15625 278.117188 17.15625 277.299475 17.15625 276.588545 16.9596374 275.984375 16.5664062 275.380205 16.1731751 274.915366 15.6002642 274.589844 14.8476562 274.264321 14.0950483 274.101562 13.1901095 274.101562 12.1328125zM278.085938 15.640625C278.716149 15.640625 279.201821 15.437502 279.542969 15.03125 279.884116 14.624998 280.054688 14.0442746 280.054688 13.2890625 280.054688 12.6328092 279.894533 12.1171894 279.574219 11.7421875 279.253905 11.3671856 278.773441 11.1796875 278.132812 11.1796875 277.736977 11.1796875 277.372397 11.2643221 277.039062 11.4335938 276.705728 11.6028654 276.442709 11.8346339 276.25 12.1289062 276.057291 12.4231786 275.960938 12.7239568 275.960938 13.03125 275.960938 13.7656287 276.160154 14.3841121 276.558594 14.8867188 276.957033 15.3893254 277.466143 15.640625 278.085938 15.640625zM295.25 17L294.109375 13.828125 289.742188 13.828125 288.625 17 286.65625 17 290.929688 5.53125 292.960938 5.53125 297.234375 17 295.25 17zM293.617188 12.21875L292.546875 9.109375C292.46875 8.90104063 292.360678 8.57291891 292.222656 8.125 292.084635 7.67708109 291.989584 7.34895937 291.9375 7.140625 291.796874 7.7812532 291.591147 8.48176703 291.320312 9.2421875L290.289062 12.21875 293.617188 12.21875zM303.679688 17L300.367188 7.4609375 300.304688 7.4609375C300.39323 8.87761125 300.4375 10.205723 300.4375 11.4453125L300.4375 17 298.742188 17 298.742188 5.578125 301.375 5.578125 304.546875 14.6640625 304.59375 14.6640625 307.859375 5.578125 310.5 5.578125 310.5 17 308.703125 17 308.703125 11.3515625C308.703125 10.7838513 308.717448 10.0442754 308.746094 9.1328125 308.77474 8.22134961 308.799479 7.6692718 308.820312 7.4765625L308.757812 7.4765625 305.328125 17 303.679688 17zM41.0703125 9.03125C41.0703125 10.2239643 40.6796914 11.1380177 39.8984375 11.7734375 39.1171836 12.4088573 38.0052155 12.7265625 36.5625 12.7265625L35.375 12.7265625 35.375 17 33.5078125 17 33.5078125 5.578125 36.796875 5.578125C38.2239655 5.578125 39.2929652 5.86978875 40.0039062 6.453125 40.7148473 7.03646125 41.0703125 7.89582766 41.0703125 9.03125zM35.375 11.15625L36.3671875 11.15625C37.3255256 11.15625 38.0286436 10.989585 38.4765625 10.65625 38.9244814 10.322915 39.1484375 9.80208688 39.1484375 9.09375 39.1484375 8.43749672 38.9479187 7.94791828 38.546875 7.625 38.1458313 7.30208172 37.5208376 7.140625 36.671875 7.140625L35.375 7.140625 35.375 11.15625zM47.5390625 8.203125C47.908856 8.203125 48.2135405 8.22916641 48.453125 8.28125L48.2734375 9.9921875C48.0130195 9.92968719 47.7421889 9.8984375 47.4609375 9.8984375 46.7265588 9.8984375 46.1315127 10.1380184 45.6757812 10.6171875 45.2200498 11.0963566 44.9921875 11.7187462 44.9921875 12.484375L44.9921875 17 43.15625 17 43.15625 8.359375 44.59375 8.359375 44.8359375 9.8828125 44.9296875 9.8828125C45.2161473 9.36718492 45.5898414 8.95833484 46.0507812 8.65625 46.5117211 8.35416516 47.0078098 8.203125 47.5390625 8.203125zM57.3984375 12.6640625C57.3984375 14.0755279 57.036462 15.1770794 56.3125 15.96875 55.588538 16.7604206 54.5807356 17.15625 53.2890625 17.15625 52.4817668 17.15625 51.7682323 16.9739602 51.1484375 16.609375 50.5286427 16.2447898 50.052085 15.7213576 49.71875 15.0390625 49.385415 14.3567674 49.21875 13.5651087 49.21875 12.6640625 49.21875 11.2630138 49.5781214 10.1692748 50.296875 9.3828125 51.0156286 8.59635023 52.0286393 8.203125 53.3359375 8.203125 54.5859437 8.203125 55.5755172 8.60546473 56.3046875 9.41015625 57.0338578 10.2148478 57.3984375 11.2994723 57.3984375 12.6640625zM51.109375 12.6640625C51.109375 14.6588641 51.8463468 15.65625 53.3203125 15.65625 54.7786531 15.65625 55.5078125 14.6588641 55.5078125 12.6640625 55.5078125 10.6900943 54.7734448 9.703125 53.3046875 9.703125 52.5338503 9.703125 51.9752621 9.95833078 51.6289062 10.46875 51.2825504 10.9791692 51.109375 11.7109327 51.109375 12.6640625zM62.9921875 17.15625C61.6848893 17.15625 60.6914096 16.7747434 60.0117188 16.0117188 59.3320279 15.2486941 58.9921875 14.153653 58.9921875 12.7265625 58.9921875 11.2734302 59.3476527 10.1562539 60.0585938 9.375 60.7695348 8.59374609 61.7968683 8.203125 63.140625 8.203125 64.0520879 8.203125 64.8723922 8.37239414 65.6015625 8.7109375L65.046875 10.1875C64.2708295 9.88541516 63.6302109 9.734375 63.125 9.734375 61.6302009 9.734375 60.8828125 10.7265526 60.8828125 12.7109375 60.8828125 13.6796923 61.0690086 14.4075496 61.4414062 14.8945312 61.8138039 15.3815129 62.3593714 15.625 63.078125 15.625 63.8958374 15.625 64.6692672 15.421877 65.3984375 15.015625L65.3984375 16.6171875C65.0703109 16.8098968 64.7200539 16.9479162 64.3476562 17.03125 63.9752586 17.1145838 63.5234402 17.15625 62.9921875 17.15625zM71.203125 17.15625C69.8593683 17.15625 68.8085975 16.7643268 68.0507812 15.9804688 67.292965 15.1966107 66.9140625 14.1171944 66.9140625 12.7421875 66.9140625 11.3307221 67.2656215 10.2213582 67.96875 9.4140625 68.6718785 8.6067668 69.6380147 8.203125 70.8671875 8.203125 72.0078182 8.203125 72.9088509 8.5494757 73.5703125 9.2421875 74.2317741 9.9348993 74.5625 10.8880148 74.5625 12.1015625L74.5625 13.09375 68.8046875 13.09375C68.8307293 13.9322959 69.0572895 14.5768207 69.484375 15.0273438 69.9114605 15.4778668 70.513017 15.703125 71.2890625 15.703125 71.7994817 15.703125 72.2747374 15.6549484 72.7148438 15.5585938 73.1549501 15.4622391 73.6276016 15.3020845 74.1328125 15.078125L74.1328125 16.5703125C73.6848936 16.7838552 73.2317731 16.9348954 72.7734375 17.0234375 72.3151019 17.1119796 71.7916696 17.15625 71.203125 17.15625zM70.8671875 9.59375C70.2838512 9.59375 69.816408 9.77864398 69.4648438 10.1484375 69.1132795 10.518231 68.9036462 11.0572881 68.8359375 11.765625L72.7578125 11.765625C72.7473958 11.0520798 72.5755225 10.5117206 72.2421875 10.1445312 71.9088525 9.77734191 71.4505238 9.59375 70.8671875 9.59375zM82.453125 14.5390625C82.453125 15.3828167 82.1458364 16.0299457 81.53125 16.4804688 80.9166636 16.9309918 80.0364641 17.15625 78.890625 17.15625 77.7395776 17.15625 76.8151077 16.9817726 76.1171875 16.6328125L76.1171875 15.046875C77.1328176 15.5156273 78.0781206 15.75 78.953125 15.75 80.083339 15.75 80.6484375 15.4088576 80.6484375 14.7265625 80.6484375 14.5078114 80.5859381 14.3255216 80.4609375 14.1796875 80.3359369 14.0338534 80.1302098 13.8828133 79.84375 13.7265625 79.5572902 13.5703117 79.1588567 13.3932302 78.6484375 13.1953125 77.6536409 12.8098939 76.9804705 12.4244811 76.6289062 12.0390625 76.277342 11.6536439 76.1015625 11.1536489 76.1015625 10.5390625 76.1015625 9.79947547 76.3997366 9.22526246 76.9960938 8.81640625 77.5924509 8.40755004 78.4036407 8.203125 79.4296875 8.203125 80.4453176 8.203125 81.4062455 8.40885211 82.3125 8.8203125L81.71875 10.203125C80.7864537 9.81770641 80.0026073 9.625 79.3671875 9.625 78.3984327 9.625 77.9140625 9.90103891 77.9140625 10.453125 77.9140625 10.7239597 78.0403633 10.9531241 78.2929688 11.140625 78.5455742 11.3281259 79.0963499 11.5859359 79.9453125 11.9140625 80.6588577 12.1901055 81.1770817 12.4427072 81.5 12.671875 81.8229183 12.9010428 82.0624992 13.1653631 82.21875 13.4648438 82.3750008 13.7643244 82.453125 14.1223938 82.453125 14.5390625zM90.2421875 14.5390625C90.2421875 15.3828167 89.9348989 16.0299457 89.3203125 16.4804688 88.7057261 16.9309918 87.8255266 17.15625 86.6796875 17.15625 85.5286401 17.15625 84.6041702 16.9817726 83.90625 16.6328125L83.90625 15.046875C84.9218801 15.5156273 85.8671831 15.75 86.7421875 15.75 87.8724015 15.75 88.4375 15.4088576 88.4375 14.7265625 88.4375 14.5078114 88.3750006 14.3255216 88.25 14.1796875 88.1249994 14.0338534 87.9192723 13.8828133 87.6328125 13.7265625 87.3463527 13.5703117 86.9479192 13.3932302 86.4375 13.1953125 85.4427034 12.8098939 84.769533 12.4244811 84.4179688 12.0390625 84.0664045 11.6536439 83.890625 11.1536489 83.890625 10.5390625 83.890625 9.79947547 84.1887991 9.22526246 84.7851562 8.81640625 85.3815134 8.40755004 86.1927032 8.203125 87.21875 8.203125 88.2343801 8.203125 89.195308 8.40885211 90.1015625 8.8203125L89.5078125 10.203125C88.5755162 9.81770641 87.7916698 9.625 87.15625 9.625 86.1874952 9.625 85.703125 9.90103891 85.703125 10.453125 85.703125 10.7239597 85.8294258 10.9531241 86.0820312 11.140625 86.3346367 11.3281259 86.8854124 11.5859359 87.734375 11.9140625 88.4479202 12.1901055 88.9661442 12.4427072 89.2890625 12.671875 89.6119808 12.9010428 89.8515617 13.1653631 90.0078125 13.4648438 90.1640633 13.7643244 90.2421875 14.1223938 90.2421875 14.5390625zM94.0625 17L92.2265625 17 92.2265625 8.359375 94.0625 8.359375 94.0625 17zM92.1171875 6.0703125C92.1171875 5.74218586 92.2070304 5.48958422 92.3867188 5.3125 92.5664071 5.13541578 92.822915 5.046875 93.15625 5.046875 93.4791683 5.046875 93.7304679 5.13541578 93.9101562 5.3125 94.0898446 5.48958422 94.1796875 5.74218586 94.1796875 6.0703125 94.1796875 6.38281406 94.0898446 6.62890535 93.9101562 6.80859375 93.7304679 6.98828215 93.4791683 7.078125 93.15625 7.078125 92.822915 7.078125 92.5664071 6.98828215 92.3867188 6.80859375 92.2070304 6.62890535 92.1171875 6.38281406 92.1171875 6.0703125zM104.289062 17L102.445312 17 102.445312 11.6875C102.445312 11.02083 102.311199 10.5234391 102.042969 10.1953125 101.774738 9.86718586 101.348961 9.703125 100.765625 9.703125 99.9895795 9.703125 99.4218768 9.93228937 99.0625 10.390625 98.7031232 10.8489606 98.5234375 11.6171821 98.5234375 12.6953125L98.5234375 17 96.6875 17 96.6875 8.359375 98.125 8.359375 98.3828125 9.4921875 98.4765625 9.4921875C98.7369805 9.08072711 99.1067684 8.76302195 99.5859375 8.5390625 100.065107 8.31510305 100.596351 8.203125 101.179688 8.203125 103.252615 8.203125 104.289062 9.25780195 104.289062 11.3671875L104.289062 17zM114.140625 8.359375L114.140625 9.3671875 112.664062 9.640625C112.79948 9.82291758 112.911458 10.0468737 113 10.3125 113.088542 10.5781263 113.132812 10.8593735 113.132812 11.15625 113.132812 12.0468795 112.825524 12.7473933 112.210938 13.2578125 111.596351 13.7682317 110.750005 14.0234375 109.671875 14.0234375 109.395832 14.0234375 109.145834 14.0026044 108.921875 13.9609375 108.52604 14.2057304 108.328125 14.4921859 108.328125 14.8203125 108.328125 15.0182302 108.420572 15.1666662 108.605469 15.265625 108.790366 15.3645838 109.130206 15.4140625 109.625 15.4140625L111.132812 15.4140625C112.085942 15.4140625 112.809893 15.6171855 113.304688 16.0234375 113.799482 16.4296895 114.046875 17.0156212 114.046875 17.78125 114.046875 18.7604216 113.643233 19.5156223 112.835938 20.046875 112.028642 20.5781277 110.861987 20.84375 109.335938 20.84375 108.158848 20.84375 107.26042 20.6354187 106.640625 20.21875 106.02083 19.8020813 105.710938 19.2083372 105.710938 18.4375 105.710938 17.9062473 105.878905 17.4596372 106.214844 17.0976562 106.550783 16.7356753 107.02083 16.4843757 107.625 16.34375 107.380207 16.2395828 107.178386 16.0716157 107.019531 15.8398438 106.860676 15.6080718 106.78125 15.3645846 106.78125 15.109375 106.78125 14.7864567 106.872395 14.513022 107.054688 14.2890625 107.23698 14.065103 107.507811 13.8437511 107.867188 13.625 107.419269 13.4322907 107.055991 13.1184918 106.777344 12.6835938 106.498697 12.2486957 106.359375 11.7395862 106.359375 11.15625 106.359375 10.2187453 106.654945 9.49219008 107.246094 8.9765625 107.837243 8.46093492 108.679682 8.203125 109.773438 8.203125 110.01823 8.203125 110.274738 8.22005191 110.542969 8.25390625 110.811199 8.28776059 111.01302 8.32291648 111.148438 8.359375L114.140625 8.359375zM107.351562 18.34375C107.351562 18.7395853 107.529946 19.0442698 107.886719 19.2578125 108.243491 19.4713552 108.744788 19.578125 109.390625 19.578125 110.39063 19.578125 111.135414 19.4348973 111.625 19.1484375 112.114586 18.8619777 112.359375 18.4817732 112.359375 18.0078125 112.359375 17.6328106 112.225262 17.3658862 111.957031 17.2070312 111.688801 17.0481763 111.190108 16.96875 110.460938 16.96875L109.070312 16.96875C108.544268 16.96875 108.126304 17.0924467 107.816406 17.3398438 107.506509 17.5872408 107.351562 17.9218729 107.351562 18.34375zM108.140625 11.15625C108.140625 11.6979194 108.279947 12.1145819 108.558594 12.40625 108.837241 12.6979181 109.236977 12.84375 109.757812 12.84375 110.820318 12.84375 111.351562 12.2760473 111.351562 11.140625 111.351562 10.5781222 111.220053 10.1445328 110.957031 9.83984375 110.694009 9.53515473 110.294274 9.3828125 109.757812 9.3828125 109.22656 9.3828125 108.82422 9.53385266 108.550781 9.8359375 108.277342 10.1380223 108.140625 10.5781221 108.140625 11.15625zM124.953125 7.015625C123.880203 7.015625 123.036461 7.39582953 122.421875 8.15625 121.807289 8.91667047 121.5 9.96613914 121.5 11.3046875 121.5 12.7057362 121.79557 13.7656214 122.386719 14.484375 122.977868 15.2031286 123.833328 15.5625 124.953125 15.5625 125.437502 15.5625 125.906248 15.5143234 126.359375 15.4179688 126.812502 15.3216141 127.283852 15.1979174 127.773438 15.046875L127.773438 16.6484375C126.8776 16.9869809 125.861985 17.15625 124.726562 17.15625 123.054679 17.15625 121.770838 16.6497446 120.875 15.6367188 119.979162 14.6236929 119.53125 13.1744886 119.53125 11.2890625 119.53125 10.1015566 119.748696 9.06250445 120.183594 8.171875 120.618492 7.28124555 121.247392 6.5989607 122.070312 6.125 122.893233 5.6510393 123.859369 5.4140625 124.96875 5.4140625 126.135423 5.4140625 127.213537 5.65885172 128.203125 6.1484375L127.53125 7.703125C127.145831 7.52083242 126.738283 7.36067777 126.308594 7.22265625 125.878904 7.08463473 125.427086 7.015625 124.953125 7.015625zM137.640625 17L135.796875 17 135.796875 11.6875C135.796875 11.02083 135.662762 10.5234391 135.394531 10.1953125 135.126301 9.86718586 134.700524 9.703125 134.117188 9.703125 133.34635 9.703125 132.77995 9.93359145 132.417969 10.3945312 132.055988 10.8554711 131.875 11.6275988 131.875 12.7109375L131.875 17 130.039062 17 130.039062 4.84375 131.875 4.84375 131.875 7.9296875C131.875 8.42448164 131.84375 8.95312219 131.78125 9.515625L131.898438 9.515625C132.148439 9.09895625 132.496092 8.77604281 132.941406 8.546875 133.386721 8.31770719 133.906247 8.203125 134.5 8.203125 136.59376 8.203125 137.640625 9.25780195 137.640625 11.3671875L137.640625 17zM145.601562 17L145.234375 15.796875 145.171875 15.796875C144.755206 16.3229193 144.33594 16.6809886 143.914062 16.8710938 143.492185 17.0611989 142.950524 17.15625 142.289062 17.15625 141.4401 17.15625 140.777346 16.9270856 140.300781 16.46875 139.824216 16.0104144 139.585938 15.3619834 139.585938 14.5234375 139.585938 13.632808 139.916663 12.9609398 140.578125 12.5078125 141.239587 12.0546852 142.247389 11.8072919 143.601562 11.765625L145.09375 11.71875 145.09375 11.2578125C145.09375 10.7057264 144.964845 10.2929701 144.707031 10.0195312 144.449217 9.74609238 144.049482 9.609375 143.507812 9.609375 143.065102 9.609375 142.640627 9.67447852 142.234375 9.8046875 141.828123 9.93489648 141.437502 10.0885408 141.0625 10.265625L140.46875 8.953125C140.937502 8.70833211 141.450518 8.52213605 142.007812 8.39453125 142.565107 8.26692645 143.091143 8.203125 143.585938 8.203125 144.684901 8.203125 145.51432 8.44270594 146.074219 8.921875 146.634117 9.40104406 146.914062 10.1536407 146.914062 11.1796875L146.914062 17 145.601562 17zM142.867188 15.75C143.533858 15.75 144.069008 15.5638039 144.472656 15.1914062 144.876304 14.8190086 145.078125 14.2968784 145.078125 13.625L145.078125 12.875 143.96875 12.921875C143.104162 12.9531252 142.475262 13.097655 142.082031 13.3554688 141.6888 13.6132825 141.492188 14.0078098 141.492188 14.5390625 141.492188 14.9244811 141.60677 15.2226552 141.835938 15.4335938 142.065105 15.6445323 142.408852 15.75 142.867188 15.75zM153.859375 8.203125C154.229169 8.203125 154.533853 8.22916641 154.773438 8.28125L154.59375 9.9921875C154.333332 9.92968719 154.062501 9.8984375 153.78125 9.8984375 153.046871 9.8984375 152.451825 10.1380184 151.996094 10.6171875 151.540362 11.0963566 151.3125 11.7187462 151.3125 12.484375L151.3125 17 149.476562 17 149.476562 8.359375 150.914062 8.359375 151.15625 9.8828125 151.25 9.8828125C151.53646 9.36718492 151.910154 8.95833484 152.371094 8.65625 152.832034 8.35416516 153.328122 8.203125 153.859375 8.203125zM163.515625 8.359375L163.515625 9.3671875 162.039062 9.640625C162.17448 9.82291758 162.286458 10.0468737 162.375 10.3125 162.463542 10.5781263 162.507812 10.8593735 162.507812 11.15625 162.507812 12.0468795 162.200524 12.7473933 161.585938 13.2578125 160.971351 13.7682317 160.125005 14.0234375 159.046875 14.0234375 158.770832 14.0234375 158.520834 14.0026044 158.296875 13.9609375 157.90104 14.2057304 157.703125 14.4921859 157.703125 14.8203125 157.703125 15.0182302 157.795572 15.1666662 157.980469 15.265625 158.165366 15.3645838 158.505206 15.4140625 159 15.4140625L160.507812 15.4140625C161.460942 15.4140625 162.184893 15.6171855 162.679688 16.0234375 163.174482 16.4296895 163.421875 17.0156212 163.421875 17.78125 163.421875 18.7604216 163.018233 19.5156223 162.210938 20.046875 161.403642 20.5781277 160.236987 20.84375 158.710938 20.84375 157.533848 20.84375 156.63542 20.6354187 156.015625 20.21875 155.39583 19.8020813 155.085938 19.2083372 155.085938 18.4375 155.085938 17.9062473 155.253905 17.4596372 155.589844 17.0976562 155.925783 16.7356753 156.39583 16.4843757 157 16.34375 156.755207 16.2395828 156.553386 16.0716157 156.394531 15.8398438 156.235676 15.6080718 156.15625 15.3645846 156.15625 15.109375 156.15625 14.7864567 156.247395 14.513022 156.429688 14.2890625 156.61198 14.065103 156.882811 13.8437511 157.242188 13.625 156.794269 13.4322907 156.430991 13.1184918 156.152344 12.6835938 155.873697 12.2486957 155.734375 11.7395862 155.734375 11.15625 155.734375 10.2187453 156.029945 9.49219008 156.621094 8.9765625 157.212243 8.46093492 158.054682 8.203125 159.148438 8.203125 159.39323 8.203125 159.649738 8.22005191 159.917969 8.25390625 160.186199 8.28776059 160.38802 8.32291648 160.523438 8.359375L163.515625 8.359375zM156.726562 18.34375C156.726562 18.7395853 156.904946 19.0442698 157.261719 19.2578125 157.618491 19.4713552 158.119788 19.578125 158.765625 19.578125 159.76563 19.578125 160.510414 19.4348973 161 19.1484375 161.489586 18.8619777 161.734375 18.4817732 161.734375 18.0078125 161.734375 17.6328106 161.600262 17.3658862 161.332031 17.2070312 161.063801 17.0481763 160.565108 16.96875 159.835938 16.96875L158.445312 16.96875C157.919268 16.96875 157.501304 17.0924467 157.191406 17.3398438 156.881509 17.5872408 156.726562 17.9218729 156.726562 18.34375zM157.515625 11.15625C157.515625 11.6979194 157.654947 12.1145819 157.933594 12.40625 158.212241 12.6979181 158.611977 12.84375 159.132812 12.84375 160.195318 12.84375 160.726562 12.2760473 160.726562 11.140625 160.726562 10.5781222 160.595053 10.1445328 160.332031 9.83984375 160.069009 9.53515473 159.669274 9.3828125 159.132812 9.3828125 158.60156 9.3828125 158.19922 9.53385266 157.925781 9.8359375 157.652342 10.1380223 157.515625 10.5781221 157.515625 11.15625zM168.890625 17.15625C167.546868 17.15625 166.496098 16.7643268 165.738281 15.9804688 164.980465 15.1966107 164.601562 14.1171944 164.601562 12.7421875 164.601562 11.3307221 164.953121 10.2213582 165.65625 9.4140625 166.359379 8.6067668 167.325515 8.203125 168.554688 8.203125 169.695318 8.203125 170.596351 8.5494757 171.257812 9.2421875 171.919274 9.9348993 172.25 10.8880148 172.25 12.1015625L172.25 13.09375 166.492188 13.09375C166.518229 13.9322959 166.74479 14.5768207 167.171875 15.0273438 167.59896 15.4778668 168.200517 15.703125 168.976562 15.703125 169.486982 15.703125 169.962237 15.6549484 170.402344 15.5585938 170.84245 15.4622391 171.315102 15.3020845 171.820312 15.078125L171.820312 16.5703125C171.372394 16.7838552 170.919273 16.9348954 170.460938 17.0234375 170.002602 17.1119796 169.47917 17.15625 168.890625 17.15625zM168.554688 9.59375C167.971351 9.59375 167.503908 9.77864398 167.152344 10.1484375 166.800779 10.518231 166.591146 11.0572881 166.523438 11.765625L170.445312 11.765625C170.434896 11.0520798 170.263023 10.5117206 169.929688 10.1445312 169.596353 9.77734191 169.138024 9.59375 168.554688 9.59375z"/>
    </g>
    <g transform="translate(40 279)">
      <g transform="translate(0 4)">
        <rect width="16" height="16"/>
        <polyline stroke="#9BB2CC" stroke-linecap="round" stroke-linejoin="round" stroke-width="2" points="2 8 6 12 15 3"/>
      </g>
      <path fill="#9BB2CC" d="M259.132812 10.453125C259.132812 12.7031363 258.679692 14.382807 257.773438 15.4921875 256.867183 16.601568 255.502613 17.15625 253.679688 17.15625 252.986976 17.15625 252.489585 17.1145838 252.1875 17.03125L252.1875 15.4921875C252.651044 15.6223965 253.117185 15.6875 253.585938 15.6875 254.825527 15.6875 255.749997 15.35417 256.359375 14.6875 256.968753 14.02083 257.302083 12.9739655 257.359375 11.546875L257.265625 11.546875C256.958332 12.0156273 256.587242 12.3541656 256.152344 12.5625 255.717446 12.7708344 255.208336 12.875 254.625 12.875 253.614578 12.875 252.820315 12.559899 252.242188 11.9296875 251.66406 11.299476 251.375 10.4349013 251.375 9.3359375 251.375 8.1432232 251.709632 7.19401395 252.378906 6.48828125 253.04818 5.78254855 253.960932 5.4296875 255.117188 5.4296875 255.929692 5.4296875 256.638018 5.62760219 257.242188 6.0234375 257.846357 6.41927281 258.312498 6.99348582 258.640625 7.74609375 258.968752 8.49870168 259.132812 9.40103641 259.132812 10.453125zM255.148438 6.953125C254.513018 6.953125 254.026043 7.16015418 253.6875 7.57421875 253.348957 7.98828332 253.179688 8.57030875 253.179688 9.3203125 253.179688 9.97135742 253.337238 10.4830711 253.652344 10.8554688 253.967449 11.2278664 254.445309 11.4140625 255.085938 11.4140625 255.705732 11.4140625 256.22656 11.2291685 256.648438 10.859375 257.070315 10.4895815 257.28125 10.0572941 257.28125 9.5625 257.28125 9.09895602 257.191407 8.6653666 257.011719 8.26171875 256.83203 7.8580709 256.580731 7.53906367 256.257812 7.3046875 255.934894 7.07031133 255.565106 6.953125 255.148438 6.953125zM260.875 16.0234375C260.875 15.6432273 260.973957 15.3515635 261.171875 15.1484375 261.369793 14.9453115 261.656248 14.84375 262.03125 14.84375 262.41146 14.84375 262.70052 14.9492177 262.898438 15.1601562 263.096355 15.3710948 263.195312 15.6588523 263.195312 16.0234375 263.195312 16.393231 263.095053 16.6861968 262.894531 16.9023438 262.694009 17.1184907 262.406252 17.2265625 262.03125 17.2265625 261.656248 17.2265625 261.369793 17.1197927 261.171875 16.90625 260.973957 16.6927073 260.875 16.3984394 260.875 16.0234375zM260.875 9.3515625C260.875 8.56510023 261.260413 8.171875 262.03125 8.171875 262.421877 8.171875 262.713541 8.27604063 262.90625 8.484375 263.098959 8.69270937 263.195312 8.98176898 263.195312 9.3515625 263.195312 9.72135602 263.095053 10.0143218 262.894531 10.2304688 262.694009 10.4466157 262.406252 10.5546875 262.03125 10.5546875 261.656248 10.5546875 261.369793 10.4479177 261.171875 10.234375 260.973957 10.0208323 260.875 9.72656438 260.875 9.3515625zM272.25 8.203125C272.25 8.92708695 272.039065 9.52994551 271.617188 10.0117188 271.19531 10.493492 270.601566 10.8177075 269.835938 10.984375L269.835938 11.046875C270.752609 11.1614589 271.440102 11.4466123 271.898438 11.9023437 272.356773 12.3580752 272.585938 12.9635379 272.585938 13.71875 272.585938 14.8177138 272.197921 15.6653616 271.421875 16.2617188 270.645829 16.8580759 269.541674 17.15625 268.109375 17.15625 266.843744 17.15625 265.776046 16.9505229 264.90625 16.5390625L264.90625 14.90625C265.390627 15.1458345 265.903643 15.3307285 266.445312 15.4609375 266.986982 15.5911465 267.50781 15.65625 268.007812 15.65625 268.893234 15.65625 269.554685 15.4921891 269.992188 15.1640625 270.42969 14.8359359 270.648438 14.3281284 270.648438 13.640625 270.648438 13.031247 270.406252 12.5833348 269.921875 12.296875 269.437498 12.0104152 268.677089 11.8671875 267.640625 11.8671875L266.648438 11.8671875 266.648438 10.375 267.65625 10.375C269.479176 10.375 270.390625 9.74479797 270.390625 8.484375 270.390625 7.99478922 270.231772 7.61718883 269.914062 7.3515625 269.596353 7.08593617 269.127607 6.953125 268.507812 6.953125 268.075519 6.953125 267.658856 7.0143223 267.257812 7.13671875 266.856769 7.2591152 266.382815 7.49739406 265.835938 7.8515625L264.9375 6.5703125C265.98438 5.79947531 267.200514 5.4140625 268.585938 5.4140625 269.736985 5.4140625 270.635413 5.66145586 271.28125 6.15625 271.927087 6.65104414 272.25 7.33332898 272.25 8.203125zM279.460938 17L277.625 17 277.625 9.625C277.625 8.74478727 277.645833 8.04687758 277.6875 7.53125 277.567708 7.65625063 277.420574 7.79427008 277.246094 7.9453125 277.071614 8.09635492 276.486984 8.5755168 275.492188 9.3828125L274.570312 8.21875 277.929688 5.578125 279.460938 5.578125 279.460938 17zM295.25 17L294.109375 13.828125 289.742188 13.828125 288.625 17 286.65625 17 290.929688 5.53125 292.960938 5.53125 297.234375 17 295.25 17zM293.617188 12.21875L292.546875 9.109375C292.46875 8.90104063 292.360678 8.57291891 292.222656 8.125 292.084635 7.67708109 291.989584 7.34895937 291.9375 7.140625 291.796874 7.7812532 291.591147 8.48176703 291.320312 9.2421875L290.289062 12.21875 293.617188 12.21875zM303.679688 17L300.367188 7.4609375 300.304688 7.4609375C300.39323 8.87761125 300.4375 10.205723 300.4375 11.4453125L300.4375 17 298.742188 17 298.742188 5.578125 301.375 5.578125 304.546875 14.6640625 304.59375 14.6640625 307.859375 5.578125 310.5 5.578125 310.5 17 308.703125 17 308.703125 11.3515625C308.703125 10.7838513 308.717448 10.0442754 308.746094 9.1328125 308.77474 8.22134961 308.799479 7.6692718 308.820312 7.4765625L308.757812 7.4765625 305.328125 17 303.679688 17zM33.5078125 17L33.5078125 5.578125 35.375 5.578125 35.375 17 33.5078125 17zM45.796875 17L43.953125 17 43.953125 11.6875C43.953125 11.02083 43.8190118 10.5234391 43.5507812 10.1953125 43.2825507 9.86718586 42.8567738 9.703125 42.2734375 9.703125 41.497392 9.703125 40.9296893 9.93228937 40.5703125 10.390625 40.2109357 10.8489606 40.03125 11.6171821 40.03125 12.6953125L40.03125 17 38.1953125 17 38.1953125 8.359375 39.6328125 8.359375 39.890625 9.4921875 39.984375 9.4921875C40.244793 9.08072711 40.6145809 8.76302195 41.09375 8.5390625 41.5729191 8.31510305 42.1041637 8.203125 42.6875 8.203125 44.760427 8.203125 45.796875 9.25780195 45.796875 11.3671875L45.796875 17zM50.1875 17L48.3515625 17 48.3515625 8.359375 50.1875 8.359375 50.1875 17zM48.2421875 6.0703125C48.2421875 5.74218586 48.3320304 5.48958422 48.5117188 5.3125 48.6914071 5.13541578 48.947915 5.046875 49.28125 5.046875 49.6041683 5.046875 49.8554679 5.13541578 50.0351562 5.3125 50.2148446 5.48958422 50.3046875 5.74218586 50.3046875 6.0703125 50.3046875 6.38281406 50.2148446 6.62890535 50.0351562 6.80859375 49.8554679 6.98828215 49.6041683 7.078125 49.28125 7.078125 48.947915 7.078125 48.6914071 6.98828215 48.5117188 6.80859375 48.3320304 6.62890535 48.2421875 6.38281406 48.2421875 6.0703125zM56.03125 15.671875C56.4791689 15.671875 56.9270811 15.6015632 57.375 15.4609375L57.375 16.84375C57.171874 16.9322921 56.9101579 17.0065101 56.5898438 17.0664062 56.2695296 17.1263024 55.9375017 17.15625 55.59375 17.15625 53.854158 17.15625 52.984375 16.2395925 52.984375 14.40625L52.984375 9.75 51.8046875 9.75 51.8046875 8.9375 53.0703125 8.265625 53.6953125 6.4375 54.828125 6.4375 54.828125 8.359375 57.2890625 8.359375 57.2890625 9.75 54.828125 9.75 54.828125 14.375C54.828125 14.8177105 54.938801 15.1445302 55.1601562 15.3554688 55.3815115 15.5664073 55.6718732 15.671875 56.03125 15.671875zM60.9375 17L59.1015625 17 59.1015625 8.359375 60.9375 8.359375 60.9375 17zM58.9921875 6.0703125C58.9921875 5.74218586 59.0820304 5.48958422 59.2617188 5.3125 59.4414071 5.13541578 59.697915 5.046875 60.03125 5.046875 60.3541683 5.046875 60.6054679 5.13541578 60.7851562 5.3125 60.9648446 5.48958422 61.0546875 5.74218586 61.0546875 6.0703125 61.0546875 6.38281406 60.9648446 6.62890535 60.7851562 6.80859375 60.6054679 6.98828215 60.3541683 7.078125 60.03125 7.078125 59.697915 7.078125 59.4414071 6.98828215 59.2617188 6.80859375 59.0820304 6.62890535 58.9921875 6.38281406 58.9921875 6.0703125zM68.96875 17L68.6015625 15.796875 68.5390625 15.796875C68.1223938 16.3229193 67.7031271 16.6809886 67.28125 16.8710938 66.8593729 17.0611989 66.3177116 17.15625 65.65625 17.15625 64.8072874 17.15625 64.1445336 16.9270856 63.6679688 16.46875 63.1914039 16.0104144 62.953125 15.3619834 62.953125 14.5234375 62.953125 13.632808 63.2838509 12.9609398 63.9453125 12.5078125 64.6067741 12.0546852 65.6145766 11.8072919 66.96875 11.765625L68.4609375 11.71875 68.4609375 11.2578125C68.4609375 10.7057264 68.3320325 10.2929701 68.0742188 10.0195312 67.816405 9.74609238 67.4166694 9.609375 66.875 9.609375 66.4322895 9.609375 66.0078145 9.67447852 65.6015625 9.8046875 65.1953105 9.93489648 64.8046894 10.0885408 64.4296875 10.265625L63.8359375 8.953125C64.3046898 8.70833211 64.8177055 8.52213605 65.375 8.39453125 65.9322945 8.26692645 66.4583309 8.203125 66.953125 8.203125 68.0520888 8.203125 68.8815076 8.44270594 69.4414062 8.921875 70.0013049 9.40104406 70.28125 10.1536407 70.28125 11.1796875L70.28125 17 68.96875 17zM66.234375 15.75C66.901045 15.75 67.4361959 15.5638039 67.8398438 15.1914062 68.2434916 14.8190086 68.4453125 14.2968784 68.4453125 13.625L68.4453125 12.875 67.3359375 12.921875C66.4713498 12.9531252 65.8424499 13.097655 65.4492188 13.3554688 65.0559876 13.6132825 64.859375 14.0078098 64.859375 14.5390625 64.859375 14.9244811 64.9739572 15.2226552 65.203125 15.4335938 65.4322928 15.6445323 65.7760394 15.75 66.234375 15.75zM76.0625 15.671875C76.5104189 15.671875 76.9583311 15.6015632 77.40625 15.4609375L77.40625 16.84375C77.203124 16.9322921 76.9414079 17.0065101 76.6210938 17.0664062 76.3007796 17.1263024 75.9687517 17.15625 75.625 17.15625 73.885408 17.15625 73.015625 16.2395925 73.015625 14.40625L73.015625 9.75 71.8359375 9.75 71.8359375 8.9375 73.1015625 8.265625 73.7265625 6.4375 74.859375 6.4375 74.859375 8.359375 77.3203125 8.359375 77.3203125 9.75 74.859375 9.75 74.859375 14.375C74.859375 14.8177105 74.970051 15.1445302 75.1914062 15.3554688 75.4127615 15.5664073 75.7031232 15.671875 76.0625 15.671875zM80.96875 17L79.1328125 17 79.1328125 8.359375 80.96875 8.359375 80.96875 17zM79.0234375 6.0703125C79.0234375 5.74218586 79.1132804 5.48958422 79.2929688 5.3125 79.4726571 5.13541578 79.729165 5.046875 80.0625 5.046875 80.3854183 5.046875 80.6367179 5.13541578 80.8164062 5.3125 80.9960946 5.48958422 81.0859375 5.74218586 81.0859375 6.0703125 81.0859375 6.38281406 80.9960946 6.62890535 80.8164062 6.80859375 80.6367179 6.98828215 80.3854183 7.078125 80.0625 7.078125 79.729165 7.078125 79.4726571 6.98828215 79.2929688 6.80859375 79.1132804 6.62890535 79.0234375 6.38281406 79.0234375 6.0703125zM91.1953125 17L89.3515625 17 89.3515625 11.6875C89.3515625 11.02083 89.2174493 10.5234391 88.9492188 10.1953125 88.6809882 9.86718586 88.2552113 9.703125 87.671875 9.703125 86.8958295 9.703125 86.3281268 9.93228937 85.96875 10.390625 85.6093732 10.8489606 85.4296875 11.6171821 85.4296875 12.6953125L85.4296875 17 83.59375 17 83.59375 8.359375 85.03125 8.359375 85.2890625 9.4921875 85.3828125 9.4921875C85.6432305 9.08072711 86.0130184 8.76302195 86.4921875 8.5390625 86.9713566 8.31510305 87.5026012 8.203125 88.0859375 8.203125 90.1588645 8.203125 91.1953125 9.25780195 91.1953125 11.3671875L91.1953125 17zM101.046875 8.359375L101.046875 9.3671875 99.5703125 9.640625C99.7057298 9.82291758 99.8177079 10.0468737 99.90625 10.3125 99.9947921 10.5781263 100.039062 10.8593735 100.039062 11.15625 100.039062 12.0468795 99.7317739 12.7473933 99.1171875 13.2578125 98.5026011 13.7682317 97.6562554 14.0234375 96.578125 14.0234375 96.302082 14.0234375 96.0520845 14.0026044 95.828125 13.9609375 95.4322897 14.2057304 95.234375 14.4921859 95.234375 14.8203125 95.234375 15.0182302 95.326822 15.1666662 95.5117188 15.265625 95.6966155 15.3645838 96.0364559 15.4140625 96.53125 15.4140625L98.0390625 15.4140625C98.9921923 15.4140625 99.7161434 15.6171855 100.210938 16.0234375 100.705732 16.4296895 100.953125 17.0156212 100.953125 17.78125 100.953125 18.7604216 100.549483 19.5156223 99.7421875 20.046875 98.9348918 20.5781277 97.7682368 20.84375 96.2421875 20.84375 95.0650983 20.84375 94.1666698 20.6354187 93.546875 20.21875 92.9270802 19.8020813 92.6171875 19.2083372 92.6171875 18.4375 92.6171875 17.9062473 92.7851546 17.4596372 93.1210938 17.0976562 93.4570329 16.7356753 93.9270803 16.4843757 94.53125 16.34375 94.2864571 16.2395828 94.0846362 16.0716157 93.9257812 15.8398438 93.7669263 15.6080718 93.6875 15.3645846 93.6875 15.109375 93.6875 14.7864567 93.7786449 14.513022 93.9609375 14.2890625 94.1432301 14.065103 94.4140607 13.8437511 94.7734375 13.625 94.3255186 13.4322907 93.962241 13.1184918 93.6835938 12.6835938 93.4049465 12.2486957 93.265625 11.7395862 93.265625 11.15625 93.265625 10.2187453 93.561195 9.49219008 94.1523438 8.9765625 94.7434925 8.46093492 95.585932 8.203125 96.6796875 8.203125 96.9244804 8.203125 97.1809882 8.22005191 97.4492188 8.25390625 97.7174493 8.28776059 97.9192702 8.32291648 98.0546875 8.359375L101.046875 8.359375zM94.2578125 18.34375C94.2578125 18.7395853 94.4361961 19.0442698 94.7929688 19.2578125 95.1497414 19.4713552 95.6510384 19.578125 96.296875 19.578125 97.29688 19.578125 98.0416642 19.4348973 98.53125 19.1484375 99.0208358 18.8619777 99.265625 18.4817732 99.265625 18.0078125 99.265625 17.6328106 99.1315118 17.3658862 98.8632812 17.2070312 98.5950507 17.0481763 98.0963578 16.96875 97.3671875 16.96875L95.9765625 16.96875C95.4505182 16.96875 95.0325536 17.0924467 94.7226562 17.3398438 94.4127589 17.5872408 94.2578125 17.9218729 94.2578125 18.34375zM95.046875 11.15625C95.046875 11.6979194 95.1861965 12.1145819 95.4648438 12.40625 95.743491 12.6979181 96.1432266 12.84375 96.6640625 12.84375 97.7265678 12.84375 98.2578125 12.2760473 98.2578125 11.140625 98.2578125 10.5781222 98.1263034 10.1445328 97.8632812 9.83984375 97.6002591 9.53515473 97.2005235 9.3828125 96.6640625 9.3828125 96.1328098 9.3828125 95.7304701 9.53385266 95.4570312 9.8359375 95.1835924 10.1380223 95.046875 10.5781221 95.046875 11.15625zM110.945312 17L109.078125 17 109.078125 7.1796875 105.71875 7.1796875 105.71875 5.578125 114.304688 5.578125 114.304688 7.1796875 110.945312 7.1796875 110.945312 17zM119.445312 8.203125C119.815106 8.203125 120.11979 8.22916641 120.359375 8.28125L120.179688 9.9921875C119.91927 9.92968719 119.648439 9.8984375 119.367188 9.8984375 118.632809 9.8984375 118.037763 10.1380184 117.582031 10.6171875 117.1263 11.0963566 116.898438 11.7187462 116.898438 12.484375L116.898438 17 115.0625 17 115.0625 8.359375 116.5 8.359375 116.742188 9.8828125 116.835938 9.8828125C117.122397 9.36718492 117.496091 8.95833484 117.957031 8.65625 118.417971 8.35416516 118.91406 8.203125 119.445312 8.203125zM127.046875 17L126.679688 15.796875 126.617188 15.796875C126.200519 16.3229193 125.781252 16.6809886 125.359375 16.8710938 124.937498 17.0611989 124.395837 17.15625 123.734375 17.15625 122.885412 17.15625 122.222659 16.9270856 121.746094 16.46875 121.269529 16.0104144 121.03125 15.3619834 121.03125 14.5234375 121.03125 13.632808 121.361976 12.9609398 122.023438 12.5078125 122.684899 12.0546852 123.692702 11.8072919 125.046875 11.765625L126.539062 11.71875 126.539062 11.2578125C126.539062 10.7057264 126.410158 10.2929701 126.152344 10.0195312 125.89453 9.74609238 125.494794 9.609375 124.953125 9.609375 124.510414 9.609375 124.08594 9.67447852 123.679688 9.8046875 123.273435 9.93489648 122.882814 10.0885408 122.507812 10.265625L121.914062 8.953125C122.382815 8.70833211 122.895831 8.52213605 123.453125 8.39453125 124.010419 8.26692645 124.536456 8.203125 125.03125 8.203125 126.130214 8.203125 126.959633 8.44270594 127.519531 8.921875 128.07943 9.40104406 128.359375 10.1536407 128.359375 11.1796875L128.359375 17 127.046875 17zM124.3125 15.75C124.97917 15.75 125.514321 15.5638039 125.917969 15.1914062 126.321617 14.8190086 126.523438 14.2968784 126.523438 13.625L126.523438 12.875 125.414062 12.921875C124.549475 12.9531252 123.920575 13.097655 123.527344 13.3554688 123.134113 13.6132825 122.9375 14.0078098 122.9375 14.5390625 122.9375 14.9244811 123.052082 15.2226552 123.28125 15.4335938 123.510418 15.6445323 123.854164 15.75 124.3125 15.75zM138.523438 17L136.679688 17 136.679688 11.6875C136.679688 11.02083 136.545574 10.5234391 136.277344 10.1953125 136.009113 9.86718586 135.583336 9.703125 135 9.703125 134.223954 9.703125 133.656252 9.93228937 133.296875 10.390625 132.937498 10.8489606 132.757812 11.6171821 132.757812 12.6953125L132.757812 17 130.921875 17 130.921875 8.359375 132.359375 8.359375 132.617188 9.4921875 132.710938 9.4921875C132.971355 9.08072711 133.341143 8.76302195 133.820312 8.5390625 134.299482 8.31510305 134.830726 8.203125 135.414062 8.203125 137.48699 8.203125 138.523438 9.25780195 138.523438 11.3671875L138.523438 17zM146.882812 14.5390625C146.882812 15.3828167 146.575524 16.0299457 145.960938 16.4804688 145.346351 16.9309918 144.466152 17.15625 143.320312 17.15625 142.169265 17.15625 141.244795 16.9817726 140.546875 16.6328125L140.546875 15.046875C141.562505 15.5156273 142.507808 15.75 143.382812 15.75 144.513026 15.75 145.078125 15.4088576 145.078125 14.7265625 145.078125 14.5078114 145.015626 14.3255216 144.890625 14.1796875 144.765624 14.0338534 144.559897 13.8828133 144.273438 13.7265625 143.986978 13.5703117 143.588544 13.3932302 143.078125 13.1953125 142.083328 12.8098939 141.410158 12.4244811 141.058594 12.0390625 140.707029 11.6536439 140.53125 11.1536489 140.53125 10.5390625 140.53125 9.79947547 140.829424 9.22526246 141.425781 8.81640625 142.022138 8.40755004 142.833328 8.203125 143.859375 8.203125 144.875005 8.203125 145.835933 8.40885211 146.742188 8.8203125L146.148438 10.203125C145.216141 9.81770641 144.432295 9.625 143.796875 9.625 142.82812 9.625 142.34375 9.90103891 142.34375 10.453125 142.34375 10.7239597 142.470051 10.9531241 142.722656 11.140625 142.975262 11.3281259 143.526037 11.5859359 144.375 11.9140625 145.088545 12.1901055 145.606769 12.4427072 145.929688 12.671875 146.252606 12.9010428 146.492187 13.1653631 146.648438 13.4648438 146.804688 13.7643244 146.882812 14.1223938 146.882812 14.5390625zM153.203125 9.75L151.09375 9.75 151.09375 17 149.25 17 149.25 9.75 147.828125 9.75 147.828125 8.890625 149.25 8.328125 149.25 7.765625C149.25 6.74478656 149.489581 5.98828371 149.96875 5.49609375 150.447919 5.00390379 151.179683 4.7578125 152.164062 4.7578125 152.809899 4.7578125 153.445309 4.86458227 154.070312 5.078125L153.585938 6.46875C153.13281 6.32291594 152.700523 6.25 152.289062 6.25 151.872394 6.25 151.569011 6.37890496 151.378906 6.63671875 151.188801 6.89453254 151.09375 7.28124742 151.09375 7.796875L151.09375 8.359375 153.203125 8.359375 153.203125 9.75zM158.445312 17.15625C157.101556 17.15625 156.050785 16.7643268 155.292969 15.9804688 154.535152 15.1966107 154.15625 14.1171944 154.15625 12.7421875 154.15625 11.3307221 154.507809 10.2213582 155.210938 9.4140625 155.914066 8.6067668 156.880202 8.203125 158.109375 8.203125 159.250006 8.203125 160.151038 8.5494757 160.8125 9.2421875 161.473962 9.9348993 161.804688 10.8880148 161.804688 12.1015625L161.804688 13.09375 156.046875 13.09375C156.072917 13.9322959 156.299477 14.5768207 156.726562 15.0273438 157.153648 15.4778668 157.755204 15.703125 158.53125 15.703125 159.041669 15.703125 159.516925 15.6549484 159.957031 15.5585938 160.397138 15.4622391 160.869789 15.3020845 161.375 15.078125L161.375 16.5703125C160.927081 16.7838552 160.473961 16.9348954 160.015625 17.0234375 159.557289 17.1119796 159.033857 17.15625 158.445312 17.15625zM158.109375 9.59375C157.526039 9.59375 157.058596 9.77864398 156.707031 10.1484375 156.355467 10.518231 156.145834 11.0572881 156.078125 11.765625L160 11.765625C159.989583 11.0520798 159.81771 10.5117206 159.484375 10.1445312 159.15104 9.77734191 158.692711 9.59375 158.109375 9.59375zM168.273438 8.203125C168.643231 8.203125 168.947915 8.22916641 169.1875 8.28125L169.007812 9.9921875C168.747395 9.92968719 168.476564 9.8984375 168.195312 9.8984375 167.460934 9.8984375 166.865888 10.1380184 166.410156 10.6171875 165.954425 11.0963566 165.726562 11.7187462 165.726562 12.484375L165.726562 17 163.890625 17 163.890625 8.359375 165.328125 8.359375 165.570312 9.8828125 165.664062 9.8828125C165.950522 9.36718492 166.324216 8.95833484 166.785156 8.65625 167.246096 8.35416516 167.742185 8.203125 168.273438 8.203125z"/>
    </g>
    <g transform="translate(40 20)">
      <path fill="#00C759" d="M7.4140625,17.8818359 L11.4892578,9.43945312 L14.5869141,9.43945312 L9.52148438,19.0878906 L12.4033203,19.0878906 L12.4033203,21.0048828 L8.8359375,21.0048828 L8.8359375,22.9599609 L12.4033203,22.9599609 L12.4033203,24.9023438 L8.8359375,24.9023438 L8.8359375,28 L5.97949219,28 L5.97949219,24.9023438 L2.38671875,24.9023438 L2.38671875,22.9599609 L5.97949219,22.9599609 L5.97949219,21.0048828 L2.38671875,21.0048828 L2.38671875,19.0878906 L5.23046875,19.0878906 L0.228515625,9.43945312 L3.3515625,9.43945312 L7.4140625,17.8818359 Z M29.2246094,23.9501953 L26.7236328,23.9501953 L26.7236328,28 L23.8164062,28 L23.8164062,23.9501953 L15.3359375,23.9501953 L15.3359375,21.6523438 L23.8164062,9.38867188 L26.7236328,9.38867188 L26.7236328,21.4746094 L29.2246094,21.4746094 L29.2246094,23.9501953 Z M23.8164062,21.4746094 L23.8164062,16.8154297 C23.8164062,15.1565672 23.8587235,13.7981824 23.9433594,12.7402344 L23.8417969,12.7402344 C23.6048165,13.2988309 23.2324244,13.9759075 22.7246094,14.7714844 L18.1162109,21.4746094 L23.8164062,21.4746094 Z M43.4052734,18.7197266 C43.4052734,21.9443521 42.8868867,24.3395104 41.8500977,25.9052734 C40.8133086,27.4710365 39.2285263,28.2539062 37.0957031,28.2539062 C35.0305886,28.2539062 33.4648491,27.4456461 32.3984375,25.8291016 C31.3320259,24.212557 30.7988281,21.8427891 30.7988281,18.7197266 C30.7988281,15.4443196 31.3172149,13.0301184 32.3540039,11.4770508 C33.3907929,9.92398312 34.9713435,9.14746094 37.0957031,9.14746094 C39.1692812,9.14746094 40.7392525,9.95995281 41.8056641,11.5849609 C42.8720756,13.2099691 43.4052734,15.5882005 43.4052734,18.7197266 Z M33.8203125,18.7197266 C33.8203125,21.2503382 34.0805638,23.0572863 34.6010742,24.140625 C35.1215846,25.2239637 35.9531193,25.765625 37.0957031,25.765625 C38.238287,25.765625 39.0740533,25.2155003 39.6030273,24.1152344 C40.1320013,23.0149685 40.3964844,21.2164838 40.3964844,18.7197266 C40.3964844,16.2314329 40.1320013,14.4308324 39.6030273,13.3178711 C39.0740533,12.2049098 38.238287,11.6484375 37.0957031,11.6484375 C35.9531193,11.6484375 35.1215846,12.1943305 34.6010742,13.2861328 C34.0805638,14.3779351 33.8203125,16.189115 33.8203125,18.7197266 Z M58.2460938,18.7197266 C58.2460938,21.9443521 57.727707,24.3395104 56.690918,25.9052734 C55.6541289,27.4710365 54.0693466,28.2539062 51.9365234,28.2539062 C49.8714089,28.2539062 48.3056694,27.4456461 47.2392578,25.8291016 C46.1728462,24.212557 45.6396484,21.8427891 45.6396484,18.7197266 C45.6396484,15.4443196 46.1580352,13.0301184 47.1948242,11.4770508 C48.2316133,9.92398312 49.8121639,9.14746094 51.9365234,9.14746094 C54.0101015,9.14746094 55.5800728,9.95995281 56.6464844,11.5849609 C57.712896,13.2099691 58.2460938,15.5882005 58.2460938,18.7197266 Z M48.6611328,18.7197266 C48.6611328,21.2503382 48.9213841,23.0572863 49.4418945,24.140625 C49.9624049,25.2239637 50.7939396,25.765625 51.9365234,25.765625 C53.0791073,25.765625 53.9148737,25.2155003 54.4438477,24.1152344 C54.9728217,23.0149685 55.2373047,21.2164838 55.2373047,18.7197266 C55.2373047,16.2314329 54.9728217,14.4308324 54.4438477,13.3178711 C53.9148737,12.2049098 53.0791073,11.6484375 51.9365234,11.6484375 C50.7939396,11.6484375 49.9624049,12.1943305 49.4418945,13.2861328 C48.9213841,14.3779351 48.6611328,16.189115 48.6611328,18.7197266 Z M76.4638672,11.7753906 C74.7203689,11.7753906 73.3492888,12.393223 72.3505859,13.6289062 C71.351883,14.8645895 70.8525391,16.5699761 70.8525391,18.7451172 C70.8525391,21.0218213 71.3328402,22.7441348 72.293457,23.9121094 C73.2540738,25.080084 74.6441966,25.6640625 76.4638672,25.6640625 C77.2509805,25.6640625 78.0126916,25.5857755 78.7490234,25.4291992 C79.4853552,25.2726229 80.2512981,25.0716158 81.046875,24.8261719 L81.046875,27.4287109 C79.5911386,27.9788439 77.9407644,28.2539062 76.0957031,28.2539062 C73.3788927,28.2539062 71.2926505,27.4308351 69.8369141,25.784668 C68.3811776,24.1385009 67.6533203,21.783544 67.6533203,18.7197266 C67.6533203,16.7900294 68.0066696,15.1015697 68.7133789,13.6542969 C69.4200882,12.207024 70.4420506,11.0983111 71.7792969,10.328125 C73.1165431,9.55793886 74.6865144,9.17285156 76.4892578,9.17285156 C78.3851006,9.17285156 80.1370362,9.57063404 81.7451172,10.3662109 L80.6533203,12.8925781 C80.0270151,12.5963527 79.3647496,12.3361014 78.6665039,12.1118164 C77.9682582,11.8875314 77.2340533,11.7753906 76.4638672,11.7753906 Z M100.508789,28 L96.7890625,28 L87.6611328,13.2099609 L87.5595703,13.2099609 L87.6230469,14.0351562 C87.7415371,15.6093829 87.8007812,17.0481706 87.8007812,18.3515625 L87.8007812,28 L85.0458984,28 L85.0458984,9.43945312 L88.7275391,9.43945312 L97.8300781,24.1533203 L97.90625,24.1533203 C97.8893228,23.9586579 97.855469,23.2498434 97.8046875,22.0268555 C97.753906,20.8038676 97.7285156,19.8496128 97.7285156,19.1640625 L97.7285156,9.43945312 L100.508789,9.43945312 L100.508789,28 Z M110.652344,17.9072266 L115.044922,9.43945312 L118.345703,9.43945312 L112.163086,20.8017578 L112.163086,28 L109.116211,28 L109.116211,20.9033203 L102.958984,9.43945312 L106.259766,9.43945312 L110.652344,17.9072266 Z"/>
      <path fill="#051026" d="M3.359375,60 L1.5078125,60 L1.5078125,48.578125 L7.953125,48.578125 L7.953125,50.15625 L3.359375,50.15625 L3.359375,53.7265625 L7.6640625,53.7265625 L7.6640625,55.3125 L3.359375,55.3125 L3.359375,60 Z M14.2109375,51.203125 C14.580731,51.203125 14.8854155,51.2291664 15.125,51.28125 L14.9453125,52.9921875 C14.6848945,52.9296872 14.4140639,52.8984375 14.1328125,52.8984375 C13.3984338,52.8984375 12.8033877,53.1380184 12.3476562,53.6171875 C11.8919248,54.0963566 11.6640625,54.7187462 11.6640625,55.484375 L11.6640625,60 L9.828125,60 L9.828125,51.359375 L11.265625,51.359375 L11.5078125,52.8828125 L11.6015625,52.8828125 C11.8880223,52.3671849 12.2617164,51.9583348 12.7226562,51.65625 C13.1835961,51.3541652 13.6796848,51.203125 14.2109375,51.203125 Z M24.0703125,55.6640625 C24.0703125,57.0755279 23.708337,58.1770794 22.984375,58.96875 C22.260413,59.7604206 21.2526106,60.15625 19.9609375,60.15625 C19.1536418,60.15625 18.4401073,59.9739602 17.8203125,59.609375 C17.2005177,59.2447898 16.72396,58.7213576 16.390625,58.0390625 C16.05729,57.3567674 15.890625,56.5651087 15.890625,55.6640625 C15.890625,54.2630138 16.2499964,53.1692748 16.96875,52.3828125 C17.6875036,51.5963502 18.7005143,51.203125 20.0078125,51.203125 C21.2578187,51.203125 22.2473922,51.6054647 22.9765625,52.4101562 C23.7057328,53.2148478 24.0703125,54.2994723 24.0703125,55.6640625 Z M17.78125,55.6640625 C17.78125,57.6588641 18.5182218,58.65625 19.9921875,58.65625 C21.4505281,58.65625 22.1796875,57.6588641 22.1796875,55.6640625 C22.1796875,53.6900943 21.4453198,52.703125 19.9765625,52.703125 C19.2057253,52.703125 18.6471371,52.9583308 18.3007812,53.46875 C17.9544254,53.9791692 17.78125,54.7109327 17.78125,55.6640625 Z M33.4609375,60 L31.6171875,60 L31.6171875,54.671875 C31.6171875,54.0104134 31.4921887,53.5169287 31.2421875,53.1914062 C30.9921862,52.8658838 30.6015652,52.703125 30.0703125,52.703125 C29.3619756,52.703125 28.8424496,52.9335914 28.5117188,53.3945312 C28.1809879,53.8554711 28.015625,54.6223905 28.015625,55.6953125 L28.015625,60 L26.1796875,60 L26.1796875,51.359375 L27.6171875,51.359375 L27.875,52.4921875 L27.96875,52.4921875 C28.2083345,52.0807271 28.5559873,51.763022 29.0117188,51.5390625 C29.4674502,51.315103 29.9687473,51.203125 30.515625,51.203125 C31.8437566,51.203125 32.7239562,51.6562455 33.15625,52.5625 L33.28125,52.5625 C33.5364596,52.1354145 33.895831,51.8020845 34.359375,51.5625 C34.822919,51.3229155 35.3541637,51.203125 35.953125,51.203125 C36.9843802,51.203125 37.7356747,51.4635391 38.2070312,51.984375 C38.6783878,52.5052109 38.9140625,53.2994738 38.9140625,54.3671875 L38.9140625,60 L37.078125,60 L37.078125,54.671875 C37.078125,54.0104134 36.9518242,53.5169287 36.6992188,53.1914062 C36.4466133,52.8658838 36.0546902,52.703125 35.5234375,52.703125 C34.8098923,52.703125 34.2877621,52.925779 33.9570312,53.3710938 C33.6263004,53.8164085 33.4609375,54.4999954 33.4609375,55.421875 L33.4609375,60 Z M41.203125,59.0234375 C41.203125,58.6432273 41.3020823,58.3515635 41.5,58.1484375 C41.6979177,57.9453115 41.9843731,57.84375 42.359375,57.84375 C42.7395852,57.84375 43.0286448,57.9492177 43.2265625,58.1601562 C43.4244802,58.3710948 43.5234375,58.6588523 43.5234375,59.0234375 C43.5234375,59.393231 43.4231781,59.6861968 43.2226562,59.9023438 C43.0221344,60.1184907 42.7343769,60.2265625 42.359375,60.2265625 C41.9843731,60.2265625 41.6979177,60.1197927 41.5,59.90625 C41.3020823,59.6927073 41.203125,59.3984394 41.203125,59.0234375 Z M41.203125,52.3515625 C41.203125,51.5651002 41.5885378,51.171875 42.359375,51.171875 C42.750002,51.171875 43.0416657,51.2760406 43.234375,51.484375 C43.4270843,51.6927094 43.5234375,51.981769 43.5234375,52.3515625 C43.5234375,52.721356 43.4231781,53.0143218 43.2226562,53.2304688 C43.0221344,53.4466157 42.7343769,53.5546875 42.359375,53.5546875 C41.9843731,53.5546875 41.6979177,53.4479177 41.5,53.234375 C41.3020823,53.0208323 41.203125,52.7265644 41.203125,52.3515625 Z M59.515625,54.1796875 C59.515625,56.0651136 58.9921927,57.5065054 57.9453125,58.5039062 C56.8984323,59.5013071 55.3906348,60 53.421875,60 L50.2265625,60 L50.2265625,48.578125 L53.7578125,48.578125 C55.5755299,48.578125 56.9895783,49.0677034 58,50.046875 C59.0104217,51.0260466 59.515625,52.403637 59.515625,54.1796875 Z M57.546875,54.2421875 C57.546875,51.5077988 56.268242,50.140625 53.7109375,50.140625 L52.09375,50.140625 L52.09375,58.4296875 L53.421875,58.4296875 C56.1718887,58.4296875 57.546875,57.0338681 57.546875,54.2421875 Z M69.4375,55.6640625 C69.4375,57.0755279 69.0755245,58.1770794 68.3515625,58.96875 C67.6276005,59.7604206 66.6197981,60.15625 65.328125,60.15625 C64.5208293,60.15625 63.8072948,59.9739602 63.1875,59.609375 C62.5677052,59.2447898 62.0911475,58.7213576 61.7578125,58.0390625 C61.4244775,57.3567674 61.2578125,56.5651087 61.2578125,55.6640625 C61.2578125,54.2630138 61.6171839,53.1692748 62.3359375,52.3828125 C63.0546911,51.5963502 64.0677018,51.203125 65.375,51.203125 C66.6250062,51.203125 67.6145797,51.6054647 68.34375,52.4101562 C69.0729203,53.2148478 69.4375,54.2994723 69.4375,55.6640625 Z M63.1484375,55.6640625 C63.1484375,57.6588641 63.8854093,58.65625 65.359375,58.65625 C66.8177156,58.65625 67.546875,57.6588641 67.546875,55.6640625 C67.546875,53.6900943 66.8125073,52.703125 65.34375,52.703125 C64.5729128,52.703125 64.0143246,52.9583308 63.6679687,53.46875 C63.3216129,53.9791692 63.1484375,54.7109327 63.1484375,55.6640625 Z M75.9296875,51.203125 C76.299481,51.203125 76.6041655,51.2291664 76.84375,51.28125 L76.6640625,52.9921875 C76.4036445,52.9296872 76.1328139,52.8984375 75.8515625,52.8984375 C75.1171838,52.8984375 74.5221377,53.1380184 74.0664062,53.6171875 C73.6106748,54.0963566 73.3828125,54.7187462 73.3828125,55.484375 L73.3828125,60 L71.546875,60 L71.546875,51.359375 L72.984375,51.359375 L73.2265625,52.8828125 L73.3203125,52.8828125 C73.6067723,52.3671849 73.9804664,51.9583348 74.4414062,51.65625 C74.9023461,51.3541652 75.3984348,51.203125 75.9296875,51.203125 Z M85.7890625,55.6640625 C85.7890625,57.0755279 85.427087,58.1770794 84.703125,58.96875 C83.979163,59.7604206 82.9713606,60.15625 81.6796875,60.15625 C80.8723918,60.15625 80.1588573,59.9739602 79.5390625,59.609375 C78.9192677,59.2447898 78.44271,58.7213576 78.109375,58.0390625 C77.77604,57.3567674 77.609375,56.5651087 77.609375,55.6640625 C77.609375,54.2630138 77.9687464,53.1692748 78.6875,52.3828125 C79.4062536,51.5963502 80.4192643,51.203125 81.7265625,51.203125 C82.9765687,51.203125 83.9661422,51.6054647 84.6953125,52.4101562 C85.4244828,53.2148478 85.7890625,54.2994723 85.7890625,55.6640625 Z M79.5,55.6640625 C79.5,57.6588641 80.2369718,58.65625 81.7109375,58.65625 C83.1692781,58.65625 83.8984375,57.6588641 83.8984375,55.6640625 C83.8984375,53.6900943 83.1640698,52.703125 81.6953125,52.703125 C80.9244753,52.703125 80.3658871,52.9583308 80.0195312,53.46875 C79.6731754,53.9791692 79.5,54.7109327 79.5,55.6640625 Z M91.1171875,58.671875 C91.5651064,58.671875 92.0130186,58.6015632 92.4609375,58.4609375 L92.4609375,59.84375 C92.2578115,59.9322921 91.9960954,60.0065101 91.6757812,60.0664062 C91.3554671,60.1263024 91.0234392,60.15625 90.6796875,60.15625 C88.9400955,60.15625 88.0703125,59.2395925 88.0703125,57.40625 L88.0703125,52.75 L86.890625,52.75 L86.890625,51.9375 L88.15625,51.265625 L88.78125,49.4375 L89.9140625,49.4375 L89.9140625,51.359375 L92.375,51.359375 L92.375,52.75 L89.9140625,52.75 L89.9140625,57.375 C89.9140625,57.8177105 90.0247385,58.1445302 90.2460938,58.3554688 C90.467449,58.5664073 90.7578107,58.671875 91.1171875,58.671875 Z M101.789062,60 L99.9453125,60 L99.9453125,54.6875 C99.9453125,54.02083 99.8111993,53.5234391 99.5429688,53.1953125 C99.2747382,52.8671859 98.8489613,52.703125 98.265625,52.703125 C97.4947878,52.703125 96.9283872,52.9335914 96.5664062,53.3945312 C96.2044253,53.8554711 96.0234375,54.6275988 96.0234375,55.7109375 L96.0234375,60 L94.1875,60 L94.1875,47.84375 L96.0234375,47.84375 L96.0234375,50.9296875 C96.0234375,51.4244816 95.9921878,51.9531222 95.9296875,52.515625 L96.046875,52.515625 C96.2968762,52.0989563 96.644529,51.7760428 97.0898438,51.546875 C97.5351585,51.3177072 98.0546845,51.203125 98.6484375,51.203125 C100.742198,51.203125 101.789062,52.257802 101.789062,54.3671875 L101.789062,60 Z M103.03125,51.359375 L105.03125,51.359375 L106.789062,56.2578125 C107.054689,56.9557327 107.23177,57.6119761 107.320312,58.2265625 L107.382812,58.2265625 C107.429688,57.9401027 107.515624,57.59245 107.640625,57.1835938 C107.765626,56.7747375 108.427077,54.8333507 109.625,51.359375 L111.609375,51.359375 L107.914062,61.1484375 C107.242184,62.9453215 106.122404,63.84375 104.554687,63.84375 C104.148435,63.84375 103.752606,63.7994796 103.367187,63.7109375 L103.367187,62.2578125 C103.643231,62.3203128 103.958332,62.3515625 104.3125,62.3515625 C105.197921,62.3515625 105.820311,61.8385468 106.179687,60.8125 L106.5,60 L103.03125,51.359375 Z M126.28125,60 L124.40625,60 L124.40625,54.8515625 L119.140625,54.8515625 L119.140625,60 L117.273437,60 L117.273437,48.578125 L119.140625,48.578125 L119.140625,53.25 L124.40625,53.25 L124.40625,48.578125 L126.28125,48.578125 L126.28125,60 Z M134.5,60 L134.132812,58.796875 L134.070312,58.796875 C133.653644,59.3229193 133.234377,59.6809886 132.8125,59.8710938 C132.390623,60.0611989 131.848962,60.15625 131.1875,60.15625 C130.338537,60.15625 129.675784,59.9270856 129.199219,59.46875 C128.722654,59.0104144 128.484375,58.3619834 128.484375,57.5234375 C128.484375,56.632808 128.815101,55.9609398 129.476562,55.5078125 C130.138024,55.0546852 131.145827,54.8072919 132.5,54.765625 L133.992187,54.71875 L133.992187,54.2578125 C133.992187,53.7057264 133.863283,53.2929701 133.605469,53.0195312 C133.347655,52.7460924 132.947919,52.609375 132.40625,52.609375 C131.963539,52.609375 131.539065,52.6744785 131.132812,52.8046875 C130.72656,52.9348965 130.335939,53.0885408 129.960937,53.265625 L129.367187,51.953125 C129.83594,51.7083321 130.348956,51.5221361 130.90625,51.3945312 C131.463544,51.2669264 131.989581,51.203125 132.484375,51.203125 C133.583339,51.203125 134.412758,51.4427059 134.972656,51.921875 C135.532555,52.4010441 135.8125,53.1536407 135.8125,54.1796875 L135.8125,60 L134.5,60 Z M131.765625,58.75 C132.432295,58.75 132.967446,58.5638039 133.371094,58.1914062 C133.774742,57.8190086 133.976562,57.2968784 133.976562,56.625 L133.976562,55.875 L132.867188,55.921875 C132.0026,55.9531252 131.3737,56.097655 130.980469,56.3554688 C130.587238,56.6132825 130.390625,57.0078098 130.390625,57.5390625 C130.390625,57.9244811 130.505207,58.2226552 130.734375,58.4335938 C130.963543,58.6445323 131.307289,58.75 131.765625,58.75 Z M145.976562,60 L144.132812,60 L144.132812,54.6875 C144.132812,54.02083 143.998699,53.5234391 143.730469,53.1953125 C143.462238,52.8671859 143.036461,52.703125 142.453125,52.703125 C141.677079,52.703125 141.109377,52.9322894 140.75,53.390625 C140.390623,53.8489606 140.210938,54.6171821 140.210938,55.6953125 L140.210938,60 L138.375,60 L138.375,51.359375 L139.8125,51.359375 L140.070312,52.4921875 L140.164062,52.4921875 C140.42448,52.0807271 140.794268,51.763022 141.273438,51.5390625 C141.752607,51.315103 142.283851,51.203125 142.867188,51.203125 C144.940115,51.203125 145.976562,52.257802 145.976562,54.3671875 L145.976562,60 Z M154.335938,57.5390625 C154.335938,58.3828167 154.028649,59.0299457 153.414062,59.4804688 C152.799476,59.9309918 151.919277,60.15625 150.773438,60.15625 C149.62239,60.15625 148.69792,59.9817726 148,59.6328125 L148,58.046875 C149.01563,58.5156273 149.960933,58.75 150.835938,58.75 C151.966151,58.75 152.53125,58.4088576 152.53125,57.7265625 C152.53125,57.5078114 152.468751,57.3255216 152.34375,57.1796875 C152.218749,57.0338534 152.013022,56.8828133 151.726562,56.7265625 C151.440103,56.5703117 151.041669,56.3932302 150.53125,56.1953125 C149.536453,55.8098939 148.863283,55.4244811 148.511719,55.0390625 C148.160154,54.6536439 147.984375,54.1536489 147.984375,53.5390625 C147.984375,52.7994755 148.282549,52.2252625 148.878906,51.8164062 C149.475263,51.40755 150.286453,51.203125 151.3125,51.203125 C152.32813,51.203125 153.289058,51.4088521 154.195312,51.8203125 L153.601562,53.203125 C152.669266,52.8177064 151.88542,52.625 151.25,52.625 C150.281245,52.625 149.796875,52.9010389 149.796875,53.453125 C149.796875,53.7239597 149.923176,53.9531241 150.175781,54.140625 C150.428387,54.3281259 150.979162,54.5859359 151.828125,54.9140625 C152.54167,55.1901055 153.059894,55.4427072 153.382812,55.671875 C153.705731,55.9010428 153.945312,56.1653631 154.101562,56.4648438 C154.257813,56.7643244 154.335938,57.1223938 154.335938,57.5390625 Z M163.984375,55.6640625 C163.984375,57.0755279 163.622399,58.1770794 162.898438,58.96875 C162.174476,59.7604206 161.166673,60.15625 159.875,60.15625 C159.067704,60.15625 158.35417,59.9739602 157.734375,59.609375 C157.11458,59.2447898 156.638023,58.7213576 156.304688,58.0390625 C155.971352,57.3567674 155.804688,56.5651087 155.804688,55.6640625 C155.804688,54.2630138 156.164059,53.1692748 156.882812,52.3828125 C157.601566,51.5963502 158.614577,51.203125 159.921875,51.203125 C161.171881,51.203125 162.161455,51.6054647 162.890625,52.4101562 C163.619795,53.2148478 163.984375,54.2994723 163.984375,55.6640625 Z M157.695312,55.6640625 C157.695312,57.6588641 158.432284,58.65625 159.90625,58.65625 C161.364591,58.65625 162.09375,57.6588641 162.09375,55.6640625 C162.09375,53.6900943 161.359382,52.703125 159.890625,52.703125 C159.119788,52.703125 158.5612,52.9583308 158.214844,53.46875 C157.868488,53.9791692 157.695312,54.7109327 157.695312,55.6640625 Z M173.695312,60 L171.851562,60 L171.851562,54.6875 C171.851562,54.02083 171.717449,53.5234391 171.449219,53.1953125 C171.180988,52.8671859 170.755211,52.703125 170.171875,52.703125 C169.395829,52.703125 168.828127,52.9322894 168.46875,53.390625 C168.109373,53.8489606 167.929688,54.6171821 167.929688,55.6953125 L167.929688,60 L166.09375,60 L166.09375,51.359375 L167.53125,51.359375 L167.789062,52.4921875 L167.882812,52.4921875 C168.14323,52.0807271 168.513018,51.763022 168.992188,51.5390625 C169.471357,51.315103 170.002601,51.203125 170.585938,51.203125 C172.658865,51.203125 173.695312,52.257802 173.695312,54.3671875 L173.695312,60 Z"/>
      <path fill="#0055FF" d="M235.273438,25.2861328 C235.273438,26.1748091 234.952152,26.8720678 234.30957,27.3779297 C233.666989,27.8837916 232.780605,28.1367188 231.650391,28.1367188 C230.520177,28.1367188 229.595056,27.9612648 228.875,27.6103516 L228.875,26.0654297 C229.330731,26.2796235 229.814939,26.4482416 230.327637,26.5712891 C230.840335,26.6943366 231.317706,26.7558594 231.759766,26.7558594 C232.406904,26.7558594 232.884276,26.6328137 233.191895,26.3867188 C233.499513,26.1406238 233.65332,25.8102234 233.65332,25.3955078 C233.65332,25.021808 233.512046,24.7050794 233.229492,24.4453125 C232.946939,24.1855456 232.363611,23.8779315 231.479492,23.5224609 C230.568029,23.1533185 229.925458,22.7317732 229.551758,22.2578125 C229.178058,21.7838518 228.991211,21.214196 228.991211,20.5488281 C228.991211,19.7148396 229.287432,19.0585961 229.879883,18.5800781 C230.472334,18.1015601 231.267573,17.8623047 232.265625,17.8623047 C233.222661,17.8623047 234.175125,18.071938 235.123047,18.4912109 L234.603516,19.8242188 C233.714839,19.450519 232.921878,19.2636719 232.224609,19.2636719 C231.695961,19.2636719 231.294923,19.3787423 231.021484,19.6088867 C230.748046,19.8390311 230.611328,20.1432273 230.611328,20.5214844 C230.611328,20.7812513 230.666015,21.003417 230.775391,21.1879883 C230.884766,21.3725595 231.064777,21.5468742 231.31543,21.7109375 C231.566082,21.8750008 232.017249,22.09147 232.668945,22.3603516 C233.402673,22.6656916 233.940428,22.9505195 234.282227,23.2148438 C234.624025,23.479168 234.874674,23.7776676 235.03418,24.1103516 C235.193686,24.4430355 235.273438,24.8349587 235.273438,25.2861328 Z M243.688477,28 L242.075195,28 L242.075195,23.3515625 C242.075195,22.7682263 241.957846,22.3330092 241.723145,22.0458984 C241.488443,21.7587876 241.115888,21.6152344 240.605469,21.6152344 C239.930986,21.6152344 239.435386,21.8168925 239.118652,22.2202148 C238.801919,22.6235372 238.643555,23.2991489 238.643555,24.2470703 L238.643555,28 L237.037109,28 L237.037109,17.3632812 L238.643555,17.3632812 L238.643555,20.0634766 C238.643555,20.4964214 238.616211,20.9589819 238.561523,21.4511719 L238.664062,21.4511719 C238.882814,21.0865867 239.18701,20.8040375 239.57666,20.6035156 C239.966311,20.4029938 240.420896,20.3027344 240.94043,20.3027344 C242.77247,20.3027344 243.688477,21.2255767 243.688477,23.0712891 L243.688477,28 Z M250.654297,28 L250.333008,26.9472656 L250.27832,26.9472656 C249.913735,27.4075544 249.546877,27.7208651 249.177734,27.887207 C248.808592,28.053549 248.334638,28.1367188 247.755859,28.1367188 C247.013017,28.1367188 246.433108,27.9361999 246.016113,27.5351562 C245.599119,27.1341126 245.390625,26.5667354 245.390625,25.8330078 C245.390625,25.053707 245.68001,24.4658223 246.258789,24.0693359 C246.837568,23.6728496 247.719395,23.4563804 248.904297,23.4199219 L250.209961,23.3789062 L250.209961,22.9755859 C250.209961,22.4925106 250.097169,22.1313489 249.871582,21.8920898 C249.645995,21.6528308 249.296226,21.5332031 248.822266,21.5332031 C248.434894,21.5332031 248.063478,21.5901687 247.708008,21.7041016 C247.352537,21.8180344 247.010744,21.9524732 246.682617,22.1074219 L246.163086,20.9589844 C246.573244,20.7447906 247.022133,20.581869 247.509766,20.4702148 C247.997398,20.3585606 248.45768,20.3027344 248.890625,20.3027344 C249.852218,20.3027344 250.57796,20.5123677 251.067871,20.9316406 C251.557782,21.3509136 251.802734,22.0094356 251.802734,22.9072266 L251.802734,28 L250.654297,28 Z M248.261719,26.90625 C248.845055,26.90625 249.313312,26.7433285 249.666504,26.4174805 C250.019696,26.0916325 250.196289,25.6347686 250.196289,25.046875 L250.196289,24.390625 L249.225586,24.4316406 C248.469072,24.4589845 247.918784,24.5854481 247.574707,24.8110352 C247.23063,25.0366222 247.058594,25.3818336 247.058594,25.8466797 C247.058594,26.183921 247.158853,26.4448233 247.359375,26.6293945 C247.559897,26.8139658 247.860675,26.90625 248.261719,26.90625 Z M257.879883,20.3027344 C258.203452,20.3027344 258.470051,20.3255206 258.679688,20.3710938 L258.522461,21.8681641 C258.294595,21.8134763 258.057618,21.7861328 257.811523,21.7861328 C257.168942,21.7861328 256.648277,21.9957661 256.249512,22.4150391 C255.850747,22.834312 255.651367,23.3789029 255.651367,24.0488281 L255.651367,28 L254.044922,28 L254.044922,20.4394531 L255.302734,20.4394531 L255.514648,21.7724609 L255.59668,21.7724609 C255.847332,21.3212868 256.174314,20.963543 256.577637,20.6992188 C256.980959,20.4348945 257.415037,20.3027344 257.879883,20.3027344 Z M263.102539,28.1367188 C261.926752,28.1367188 261.007328,27.793786 260.344238,27.1079102 C259.681149,26.4220343 259.349609,25.4775451 259.349609,24.2744141 C259.349609,23.0393818 259.657223,22.0686884 260.272461,21.3623047 C260.887698,20.6559209 261.733068,20.3027344 262.808594,20.3027344 C263.806646,20.3027344 264.595049,20.6057912 265.173828,21.2119141 C265.752607,21.8180369 266.041992,22.6520129 266.041992,23.7138672 L266.041992,24.5820312 L261.003906,24.5820312 C261.026693,25.3157589 261.224933,25.8797181 261.598633,26.2739258 C261.972333,26.6681335 262.498695,26.8652344 263.177734,26.8652344 C263.624351,26.8652344 264.0402,26.8230798 264.425293,26.7387695 C264.810386,26.6544592 265.223956,26.5143239 265.666016,26.3183594 L265.666016,27.6240234 C265.274087,27.8108733 264.877606,27.9430335 264.476562,28.0205078 C264.075519,28.0979822 263.617516,28.1367188 263.102539,28.1367188 Z M262.808594,21.5195312 C262.298175,21.5195312 261.889162,21.6813135 261.581543,22.0048828 C261.273924,22.3284521 261.090495,22.8001271 261.03125,23.4199219 L264.462891,23.4199219 C264.453776,22.7955698 264.303387,22.3227555 264.011719,22.0014648 C263.720051,21.6801742 263.319013,21.5195312 262.808594,21.5195312 Z M276.583008,25.8466797 C276.583008,26.5849646 276.31413,27.1512025 275.776367,27.5454102 C275.238604,27.9396179 274.468429,28.1367188 273.46582,28.1367188 C272.458654,28.1367188 271.649743,27.984051 271.039062,27.6787109 L271.039062,26.2910156 C271.927739,26.7011739 272.754879,26.90625 273.520508,26.90625 C274.509445,26.90625 275.003906,26.6077504 275.003906,26.0107422 C275.003906,25.819335 274.949219,25.6598314 274.839844,25.5322266 C274.730468,25.4046218 274.550457,25.2724616 274.299805,25.1357422 C274.049152,24.9990228 273.700523,24.8440764 273.253906,24.6708984 C272.383459,24.3336572 271.794435,23.996421 271.486816,23.6591797 C271.179198,23.3219384 271.025391,22.8844428 271.025391,22.3466797 C271.025391,21.699541 271.286293,21.1971047 271.808105,20.8393555 C272.329918,20.4816063 273.039709,20.3027344 273.9375,20.3027344 C274.826176,20.3027344 275.666988,20.4827456 276.459961,20.8427734 L275.94043,22.0527344 C275.12467,21.7154931 274.438805,21.546875 273.882812,21.546875 C273.035152,21.546875 272.611328,21.788409 272.611328,22.2714844 C272.611328,22.5084647 272.721841,22.7089836 272.942871,22.8730469 C273.163901,23.0371102 273.64583,23.2626939 274.388672,23.5498047 C275.013024,23.7913424 275.46647,24.0123688 275.749023,24.2128906 C276.031577,24.4134125 276.24121,24.6446927 276.37793,24.9067383 C276.514649,25.1687839 276.583008,25.4820945 276.583008,25.8466797 Z M281.135742,26.8378906 C281.527671,26.8378906 281.919594,26.7763678 282.311523,26.6533203 L282.311523,27.8632812 C282.133788,27.9407556 281.904787,28.0056964 281.624512,28.0581055 C281.344237,28.1105146 281.053712,28.1367188 280.75293,28.1367188 C279.230787,28.1367188 278.469727,27.3346434 278.469727,25.7304688 L278.469727,21.65625 L277.4375,21.65625 L277.4375,20.9453125 L278.544922,20.3574219 L279.091797,18.7578125 L280.083008,18.7578125 L280.083008,20.4394531 L282.236328,20.4394531 L282.236328,21.65625 L280.083008,21.65625 L280.083008,25.703125 C280.083008,26.0904967 280.179849,26.3764639 280.373535,26.5610352 C280.567221,26.7456064 280.821287,26.8378906 281.135742,26.8378906 Z M288.552734,28 L288.231445,26.9472656 L288.176758,26.9472656 C287.812173,27.4075544 287.445314,27.7208651 287.076172,27.887207 C286.707029,28.053549 286.233076,28.1367188 285.654297,28.1367188 C284.911455,28.1367188 284.331545,27.9361999 283.914551,27.5351562 C283.497557,27.1341126 283.289062,26.5667354 283.289062,25.8330078 C283.289062,25.053707 283.578448,24.4658223 284.157227,24.0693359 C284.736005,23.6728496 285.617833,23.4563804 286.802734,23.4199219 L288.108398,23.3789062 L288.108398,22.9755859 C288.108398,22.4925106 287.995607,22.1313489 287.77002,21.8920898 C287.544432,21.6528308 287.194664,21.5332031 286.720703,21.5332031 C286.333331,21.5332031 285.961916,21.5901687 285.606445,21.7041016 C285.250975,21.8180344 284.909181,21.9524732 284.581055,22.1074219 L284.061523,20.9589844 C284.471682,20.7447906 284.92057,20.581869 285.408203,20.4702148 C285.895836,20.3585606 286.356118,20.3027344 286.789062,20.3027344 C287.750656,20.3027344 288.476397,20.5123677 288.966309,20.9316406 C289.45622,21.3509136 289.701172,22.0094356 289.701172,22.9072266 L289.701172,28 L288.552734,28 Z M286.160156,26.90625 C286.743493,26.90625 287.21175,26.7433285 287.564941,26.4174805 C287.918133,26.0916325 288.094727,25.6347686 288.094727,25.046875 L288.094727,24.390625 L287.124023,24.4316406 C286.367509,24.4589845 285.817222,24.5854481 285.473145,24.8110352 C285.129067,25.0366222 284.957031,25.3818336 284.957031,25.8466797 C284.957031,26.183921 285.057291,26.4448233 285.257812,26.6293945 C285.458334,26.8139658 285.759113,26.90625 286.160156,26.90625 Z M294.759766,26.8378906 C295.151695,26.8378906 295.543618,26.7763678 295.935547,26.6533203 L295.935547,27.8632812 C295.757812,27.9407556 295.52881,28.0056964 295.248535,28.0581055 C294.96826,28.1105146 294.677736,28.1367188 294.376953,28.1367188 C292.85481,28.1367188 292.09375,27.3346434 292.09375,25.7304688 L292.09375,21.65625 L291.061523,21.65625 L291.061523,20.9453125 L292.168945,20.3574219 L292.71582,18.7578125 L293.707031,18.7578125 L293.707031,20.4394531 L295.860352,20.4394531 L295.860352,21.65625 L293.707031,21.65625 L293.707031,25.703125 C293.707031,26.0904967 293.803873,26.3764639 293.997559,26.5610352 C294.191244,26.7456064 294.445311,26.8378906 294.759766,26.8378906 Z M302.77832,28 L302.552734,27.0087891 L302.470703,27.0087891 C302.247395,27.3597023 301.929527,27.6354157 301.51709,27.8359375 C301.104653,28.0364593 300.634117,28.1367188 300.105469,28.1367188 C299.189449,28.1367188 298.505862,27.9088564 298.054688,27.453125 C297.603513,26.9973936 297.37793,26.3069708 297.37793,25.3818359 L297.37793,20.4394531 L298.998047,20.4394531 L298.998047,25.1015625 C298.998047,25.6803414 299.116535,26.1144191 299.353516,26.4038086 C299.590496,26.6931981 299.961912,26.8378906 300.467773,26.8378906 C301.142256,26.8378906 301.637856,26.6362325 301.95459,26.2329102 C302.271323,25.8295878 302.429688,25.1539761 302.429688,24.2060547 L302.429688,20.4394531 L304.042969,20.4394531 L304.042969,28 L302.77832,28 Z M311.412109,25.8466797 C311.412109,26.5849646 311.143232,27.1512025 310.605469,27.5454102 C310.067706,27.9396179 309.297531,28.1367188 308.294922,28.1367188 C307.287755,28.1367188 306.478844,27.984051 305.868164,27.6787109 L305.868164,26.2910156 C306.75684,26.7011739 307.583981,26.90625 308.349609,26.90625 C309.338547,26.90625 309.833008,26.6077504 309.833008,26.0107422 C309.833008,25.819335 309.778321,25.6598314 309.668945,25.5322266 C309.55957,25.4046218 309.379559,25.2724616 309.128906,25.1357422 C308.878254,24.9990228 308.529625,24.8440764 308.083008,24.6708984 C307.212561,24.3336572 306.623537,23.996421 306.315918,23.6591797 C306.008299,23.3219384 305.854492,22.8844428 305.854492,22.3466797 C305.854492,21.699541 306.115395,21.1971047 306.637207,20.8393555 C307.15902,20.4816063 307.868811,20.3027344 308.766602,20.3027344 C309.655278,20.3027344 310.49609,20.4827456 311.289062,20.8427734 L310.769531,22.0527344 C309.953772,21.7154931 309.267906,21.546875 308.711914,21.546875 C307.864254,21.546875 307.44043,21.788409 307.44043,22.2714844 C307.44043,22.5084647 307.550943,22.7089836 307.771973,22.8730469 C307.993002,23.0371102 308.474931,23.2626939 309.217773,23.5498047 C309.842126,23.7913424 310.295572,24.0123688 310.578125,24.2128906 C310.860678,24.4134125 311.070312,24.6446927 311.207031,24.9067383 C311.343751,25.1687839 311.412109,25.4820945 311.412109,25.8466797 Z"/>
    </g>
  </g>
</svg>
