<?xml version="1.0" encoding="UTF-8"?>
<svg width="90px" height="102px" viewBox="0 0 90 102" version="1.1" xmlns="http://www.w3.org/2000/svg" xmlns:xlink="http://www.w3.org/1999/xlink">
    <!-- Generator: Sketch 47.1 (45422) - http://www.bohemiancoding.com/sketch -->
    <title>Direct to bank Copy 2</title>
    <desc>Created with Sketch.</desc>
    <defs>
        <linearGradient x1="50%" y1="0%" x2="50%" y2="100%" id="linearGradient-1">
            <stop stop-color="#00E592" offset="0%"></stop>
            <stop stop-color="#00C759" offset="100%"></stop>
        </linearGradient>
        <path d="M28,55 C41.4079846,55 44,52.4079846 44,39 C44,25.5920154 41.4079846,23 28,23 C14.5920154,23 12,25.5920154 12,39 C12,52.4079846 14.5920154,55 28,55 Z" id="path-2"></path>
        <filter x="-143.8%" y="-137.5%" width="387.5%" height="387.5%" filterUnits="objectBoundingBox" id="filter-3">
            <feOffset dx="0" dy="2" in="SourceAlpha" result="shadowOffsetOuter1"></feOffset>
            <feGaussianBlur stdDeviation="15" in="shadowOffsetOuter1" result="shadowBlurOuter1"></feGaussianBlur>
            <feColorMatrix values="0 0 0 0 0   0 0 0 0 0.937254902   0 0 0 0 0.925490196  0 0 0 0.7 0" type="matrix" in="shadowBlurOuter1"></feColorMatrix>
        </filter>
        <linearGradient x1="50%" y1="0%" x2="50%" y2="100%" id="linearGradient-4">
            <stop stop-color="#00EFEC" offset="0%"></stop>
            <stop stop-color="#00DBD4" offset="100%"></stop>
        </linearGradient>
        <path d="M28,56 C51.463973,56 56,51.463973 56,28 C56,4.53602701 51.463973,0 28,0 C4.53602701,2.87350794e-15 0,4.53602701 0,28 C1.43675397e-15,51.463973 4.53602701,56 28,56 Z" id="path-5"></path>
        <path d="M18.7071068,33.7071249 L24.6269363,27.7872953 C24.9458069,27.4684248 25.4386469,27.4024246 25.8301821,27.626159 L30.068754,30.0482001 C31.3181355,30.7621324 32.8984671,30.4883972 33.8349406,29.3958448 L38.7592566,23.6508095 C39.1186788,23.2314837 39.0701172,22.6001837 38.6507914,22.2407615 C38.2314655,21.8813394 37.6001655,21.9299009 37.2407434,22.3492268 L32.3164274,28.094262 C32.0042696,28.4584462 31.4774924,28.5496912 31.0610319,28.3117138 L26.8224599,25.8896727 C25.6478545,25.2184696 24.1693344,25.4164701 23.2127228,26.3730818 L17.2928932,32.2929113 C16.9023689,32.6834356 16.9023689,33.3166006 17.2928932,33.7071249 C17.6834175,34.0976492 18.3165825,34.0976492 18.7071068,33.7071249 Z" id="path-6"></path>
    </defs>
    <g id="Individual-Template" stroke="none" stroke-width="1" fill="none" fill-rule="evenodd">
        <g transform="translate(-756.000000, -2317.000000)" id="uses">
            <g transform="translate(80.000000, 1800.000000)">
                <g id="investing" transform="translate(620.000000, 533.000000)">
                    <g id="Direct-to-bank-Copy-2" transform="translate(73.000000, 0.000000)">
                        <g id="Oval-6">
                            <use fill="black" fill-opacity="1" filter="url(#filter-3)" xlink:href="#path-2"></use>
                            <use fill="url(#linearGradient-1)" fill-rule="evenodd" xlink:href="#path-2"></use>
                        </g>
                        <g id="Oval-6-Copy-3">
                            <use fill="url(#linearGradient-4)" fill-rule="evenodd" xlink:href="#path-5"></use>
                            <path stroke-opacity="0.1" stroke="#00EFEC" stroke-width="8" d="M28,60 C2.32688801,60 -4,53.673112 -4,28 C-4,2.32688801 2.32688801,-4 28,-4 C53.673112,-4 60,2.32688801 60,28 C60,53.673112 53.673112,60 28,60 Z"></path>
                            <path stroke-opacity="0.1" stroke="#00EFEC" stroke-width="16" d="M28,64 C13.4196613,64 5.37891641,62.2906047 -0.455844122,56.4558441 C-6.29060465,50.6210836 -8,42.5803387 -8,28 C-8,13.4196613 -6.29060465,5.37891641 -0.455844122,-0.455844122 C5.37891641,-6.29060465 13.4196613,-8 28,-8 C42.5803387,-8 50.6210836,-6.29060465 56.4558441,-0.455844122 C62.2906047,5.37891641 64,13.4196613 64,28 C64,42.5803387 62.2906047,50.6210836 56.4558441,56.4558441 C50.6210836,62.2906047 42.5803387,64 28,64 Z"></path>
                        </g>
                        <rect id="Rectangle-9" fill="#FFFFFF" opacity="0.5" x="19" y="19" width="18" height="18" rx="4"></rect>
                        <g id="Path-8" stroke-linejoin="round" fill-rule="nonzero">
                            <use fill="#FFFFFF" fill-rule="evenodd" xlink:href="#path-6"></use>
                            <path stroke-opacity="0.3" stroke="#FFFFFF" stroke-width="3" d="M31.4464635,26.8043338 L36.1018585,21.3730397 C37.0004139,20.3247251 38.5786638,20.2033212 39.6269784,21.1018766 C40.675293,22.000432 40.7966969,23.578682 39.8981415,24.6269966 L34.9738255,30.3720319 C33.5691153,32.0108605 31.1986178,32.4214632 29.3245456,31.3505648 L25.4175539,29.1179981 L19.767767,34.7677851 C18.7914562,35.7440958 17.2085438,35.7440958 16.232233,34.7677851 C15.2559223,33.7914744 15.2559223,32.2085619 16.232233,31.2322512 L22.1520626,25.3124216 C23.5869801,23.8775041 25.8047601,23.5805033 27.5666683,24.587308 L31.4464635,26.8043338 Z"></path>
                            <path stroke-opacity="0.15" stroke="#FFFFFF" stroke-width="6" d="M31.1143417,24.8869232 L34.9629736,20.3968526 C36.4006622,18.7195493 38.9258621,18.5253031 40.6031655,19.9629917 C42.2804689,21.4006803 42.474715,23.9258803 41.0370264,25.6031836 L36.1127104,31.3482189 C34.2397635,33.5333237 31.0791001,34.0807941 28.5803372,32.6529295 L25.6680863,30.9887861 L20.8284271,35.8284453 C19.26633,37.3905424 16.73367,37.3905424 15.1715729,35.8284453 C13.6094757,34.2663481 13.6094757,31.7336882 15.1715729,30.171591 L21.0914024,24.2517614 C23.0046257,22.3385381 25.9616658,21.942537 28.3108768,23.2849433 L31.1143417,24.8869232 Z"></path>
                        </g>
                        <path d="M18.7071068,34.7071249 L24.6269363,28.7872953 C24.9458069,28.4684248 25.4386469,28.4024246 25.8301821,28.626159 L30.068754,31.0482001 C31.3181355,31.7621324 32.8984671,31.4883972 33.8349406,30.3958448 L38.7592566,24.6508095 C39.1186788,24.2314837 39.0701172,23.6001837 38.6507914,23.2407615 C38.2314655,22.8813394 37.6001655,22.9299009 37.2407434,23.3492268 L32.3164274,29.094262 C32.0042696,29.4584462 31.4774924,29.5496912 31.0610319,29.3117138 L26.8224599,26.8896727 C25.6478545,26.2184696 24.1693344,26.4164701 23.2127228,27.3730818 L17.2928932,33.2929113 C16.9023689,33.6834356 16.9023689,34.3166006 17.2928932,34.7071249 C17.6834175,35.0976492 18.3165825,35.0976492 18.7071068,34.7071249 Z" id="Path-8-Copy-3" fill="#FFFFFF" fill-rule="nonzero"></path>
                    </g>
                </g>
            </g>
        </g>
    </g>
</svg>