<?xml version="1.0" encoding="UTF-8"?>
<svg width="90px" height="102px" viewBox="0 0 90 102" version="1.1" xmlns="http://www.w3.org/2000/svg" xmlns:xlink="http://www.w3.org/1999/xlink">
    <!-- Generator: Sketch 47.1 (45422) - http://www.bohemiancoding.com/sketch -->
    <title>Direct to bank</title>
    <desc>Created with Sketch.</desc>
    <defs>
        <linearGradient x1="50%" y1="0%" x2="50%" y2="100%" id="linearGradient-1">
            <stop stop-color="#00E592" offset="0%"></stop>
            <stop stop-color="#00C759" offset="100%"></stop>
        </linearGradient>
        <path d="M28,55 C41.4079846,55 44,52.4079846 44,39 C44,25.5920154 41.4079846,23 28,23 C14.5920154,23 12,25.5920154 12,39 C12,52.4079846 14.5920154,55 28,55 Z" id="path-2"></path>
        <filter x="-143.8%" y="-137.5%" width="387.5%" height="387.5%" filterUnits="objectBoundingBox" id="filter-3">
            <feOffset dx="0" dy="2" in="SourceAlpha" result="shadowOffsetOuter1"></feOffset>
            <feGaussianBlur stdDeviation="15" in="shadowOffsetOuter1" result="shadowBlurOuter1"></feGaussianBlur>
            <feColorMatrix values="0 0 0 0 0.980392157   0 0 0 0 0.454901961   0 0 0 0 0.454901961  0 0 0 0.7 0" type="matrix" in="shadowBlurOuter1"></feColorMatrix>
        </filter>
        <linearGradient x1="50%" y1="0%" x2="50%" y2="100%" id="linearGradient-4">
            <stop stop-color="#FA7474" offset="0%"></stop>
            <stop stop-color="#F44040" offset="100%"></stop>
        </linearGradient>
        <path d="M28,56 C51.463973,56 56,51.463973 56,28 C56,4.53602701 51.463973,0 28,0 C4.53602701,2.87350794e-15 0,4.53602701 0,28 C1.43675397e-15,51.463973 4.53602701,56 28,56 Z" id="path-5"></path>
        <path d="M33,22.9999844 L38.0000022,22.9999844 L38.0000022,22.9999844 C38.5522869,22.9999844 39.0000022,23.4476997 39.0000022,23.9999844 L39.0000022,38.0000248 L39.0000022,38.0000248 C39.0000022,38.5523096 38.5522869,39.0000248 38.0000022,39.0000248 L18,39.0000248 C17.4477153,39.0000248 17,38.5523096 17,38.0000248 L17,23.9999844 L17,23.9999844 C17,23.4476997 17.4477153,22.9999844 18,22.9999844 L18,22.9999844 L23,22.9999844 L23,21 C23,18.2385763 24.2385763,17 27,17 L29,17 C31.7614237,17 33,18.2385763 33,21 L33,22.9999844 Z M31,22.9999844 L31,21 C31,19.3431458 30.6568542,19 29,19 L27,19 C25.3431458,19 25,19.3431458 25,21 L25,22.9999844 L31,22.9999844 Z" id="path-6"></path>
    </defs>
    <g id="Individual-Template" stroke="none" stroke-width="1" fill="none" fill-rule="evenodd">
        <g transform="translate(-1092.000000, -2317.000000)" id="uses">
            <g transform="translate(80.000000, 1800.000000)">
                <g id="purchases" transform="translate(956.000000, 533.000000)">
                    <g id="Direct-to-bank" transform="translate(73.000000, 0.000000)">
                        <g id="Oval-6">
                            <use fill="black" fill-opacity="1" filter="url(#filter-3)" xlink:href="#path-2"></use>
                            <use fill="url(#linearGradient-1)" fill-rule="evenodd" xlink:href="#path-2"></use>
                        </g>
                        <g id="Oval-6-Copy-3">
                            <use fill="url(#linearGradient-4)" fill-rule="evenodd" xlink:href="#path-5"></use>
                            <path stroke-opacity="0.1" stroke="#FA7474" stroke-width="8" d="M28,60 C2.32688801,60 -4,53.673112 -4,28 C-4,2.32688801 2.32688801,-4 28,-4 C53.673112,-4 60,2.32688801 60,28 C60,53.673112 53.673112,60 28,60 Z"></path>
                            <path stroke-opacity="0.1" stroke="#FA7474" stroke-width="16" d="M28,64 C13.4196613,64 5.37891641,62.2906047 -0.455844122,56.4558441 C-6.29060465,50.6210836 -8,42.5803387 -8,28 C-8,13.4196613 -6.29060465,5.37891641 -0.455844122,-0.455844122 C5.37891641,-6.29060465 13.4196613,-8 28,-8 C42.5803387,-8 50.6210836,-6.29060465 56.4558441,-0.455844122 C62.2906047,5.37891641 64,13.4196613 64,28 C64,42.5803387 62.2906047,50.6210836 56.4558441,56.4558441 C50.6210836,62.2906047 42.5803387,64 28,64 Z"></path>
                        </g>
                        <g id="Combined-Shape">
                            <use fill="#FFFFFF" fill-rule="evenodd" xlink:href="#path-6"></use>
                            <path stroke-opacity="0.1" stroke="#FFFFFF" stroke-width="3" d="M34.5,21.4999844 L38.0000022,21.4999844 C39.3807141,21.4999844 40.5000022,22.6192725 40.5000022,23.9999844 L40.5000022,38.0000248 C40.5000022,39.3807367 39.3807141,40.5000248 38.0000022,40.5000248 L18,40.5000248 C16.6192881,40.5000248 15.5,39.3807367 15.5,38.0000248 L15.5,23.9999844 C15.5,22.6192725 16.6192881,21.4999844 18,21.4999844 L21.5,21.4999844 L21.5,21 C21.5,17.4101491 23.4101491,15.5 27,15.5 L29,15.5 C32.5898509,15.5 34.5,17.4101491 34.5,21 L34.5,21.4999844 Z M29.5,21.4999844 L29.5,21 C29.5,20.8000623 29.4941471,20.6401502 29.4836071,20.5163929 C29.3598498,20.5058529 29.1999377,20.5 29,20.5 L27,20.5 C26.8000623,20.5 26.6401502,20.5058529 26.5163929,20.5163929 C26.5058529,20.6401502 26.5,20.8000623 26.5,21 L26.5,21.4999844 L29.5,21.4999844 Z"></path>
                            <path stroke-opacity="0.1" stroke="#FFFFFF" stroke-width="6" d="M35.9532308,19.9999844 L38.0000022,19.9999844 C40.2091412,19.9999844 42.0000022,21.7908454 42.0000022,23.9999844 L42.0000022,38.0000248 C42.0000022,40.2091638 40.2091412,42.0000248 38.0000022,42.0000248 L18,42.0000248 C15.790861,42.0000248 14,40.2091638 14,38.0000248 L14,23.9999844 C14,21.7908454 15.790861,19.9999844 18,19.9999844 L20.0467692,19.9999844 C20.413928,16.1946756 22.9263523,14 27,14 L29,14 C33.0736477,14 35.586072,16.1946756 35.9532308,19.9999844 Z M25,22.9999844 L31,22.9999844 L31,19.9999844 L25,19.9999844 L25,22.9999844 Z"></path>
                        </g>
                    </g>
                </g>
            </g>
        </g>
    </g>
</svg>