<?xml version="1.0" encoding="UTF-8"?>
<svg width="90px" height="102px" viewBox="0 0 90 102" version="1.1" xmlns="http://www.w3.org/2000/svg" xmlns:xlink="http://www.w3.org/1999/xlink">
    <!-- Generator: Sketch 47.1 (45422) - http://www.bohemiancoding.com/sketch -->
    <title>Realtime</title>
    <desc>Created with Sketch.</desc>
    <defs>
        <linearGradient x1="50%" y1="0%" x2="50%" y2="100%" id="linearGradient-1">
            <stop stop-color="#00E592" offset="0%"></stop>
            <stop stop-color="#00C759" offset="100%"></stop>
        </linearGradient>
        <path d="M28,55 C41.4079846,55 44,52.4079846 44,39 C44,25.5920154 41.4079846,23 28,23 C14.5920154,23 12,25.5920154 12,39 C12,52.4079846 14.5920154,55 28,55 Z" id="path-2"></path>
        <filter x="-143.8%" y="-137.5%" width="387.5%" height="387.5%" filterUnits="objectBoundingBox" id="filter-3">
            <feOffset dx="0" dy="2" in="SourceAlpha" result="shadowOffsetOuter1"></feOffset>
            <feGaussianBlur stdDeviation="15" in="shadowOffsetOuter1" result="shadowBlurOuter1"></feGaussianBlur>
            <feColorMatrix values="0 0 0 0 0   0 0 0 0 0.780392157   0 0 0 0 0.349019608  0 0 0 0.7 0" type="matrix" in="shadowBlurOuter1"></feColorMatrix>
        </filter>
        <path d="M28,56 C51.463973,56 56,51.463973 56,28 C56,4.53602701 51.463973,0 28,0 C4.53602701,2.87350794e-15 0,4.53602701 0,28 C1.43675397e-15,51.463973 4.53602701,56 28,56 Z" id="path-4"></path>
        <path d="M26.9890696,23.5440051 C26.1925303,23.1927594 25.1510817,23 23.7894455,23 C19.7013391,23 18,25.6928331 18,29.2222222 C18,34.5293891 22.3733909,39 25.5708133,39 C26.618172,39 27.4094357,38.6156891 28,37.9435513 C28.5905643,38.6156891 29.381828,39 30.4291867,39 C33.6266091,39 38,34.5293891 38,29.2222222 C38,25.6928331 36.2986609,23 32.2105545,23 C30.8374952,23 29.7900182,23.1960072 28.9909349,23.5528787 C28.8746246,20.7311862 27.6395904,18.8257709 25.3162278,18.0513167 C24.7922844,17.8766689 24.2259645,18.1598289 24.0513167,18.6837722 C23.8766689,19.2077156 24.1598289,19.7740355 24.6837722,19.9486833 C26.1320638,20.4314471 26.8909846,21.5627072 26.9890696,23.5440051 Z" id="path-5"></path>
    </defs>
    <g id="Individual-Template" stroke="none" stroke-width="1" fill="none" fill-rule="evenodd">
        <g transform="translate(-419.000000, -2096.000000)" id="uses">
            <g transform="translate(80.000000, 1800.000000)">
                <g id="tuition" transform="translate(240.000000, 312.000000)">
                    <g id="Realtime" transform="translate(116.000000, 0.000000)">
                        <g id="Oval-6">
                            <use fill="black" fill-opacity="1" filter="url(#filter-3)" xlink:href="#path-2"></use>
                            <use fill="url(#linearGradient-1)" fill-rule="evenodd" xlink:href="#path-2"></use>
                        </g>
                        <g id="Oval-6-Copy-3">
                            <use fill="url(#linearGradient-1)" fill-rule="evenodd" xlink:href="#path-4"></use>
                            <path stroke-opacity="0.1" stroke="#00C759" stroke-width="8" d="M28,60 C2.32688801,60 -4,53.673112 -4,28 C-4,2.32688801 2.32688801,-4 28,-4 C53.673112,-4 60,2.32688801 60,28 C60,53.673112 53.673112,60 28,60 Z"></path>
                            <path stroke-opacity="0.1" stroke="#00C759" stroke-width="16" d="M28,64 C13.4196613,64 5.37891641,62.2906047 -0.455844122,56.4558441 C-6.29060465,50.6210836 -8,42.5803387 -8,28 C-8,13.4196613 -6.29060465,5.37891641 -0.455844122,-0.455844122 C5.37891641,-6.29060465 13.4196613,-8 28,-8 C42.5803387,-8 50.6210836,-6.29060465 56.4558441,-0.455844122 C62.2906047,5.37891641 64,13.4196613 64,28 C64,42.5803387 62.2906047,50.6210836 56.4558441,56.4558441 C50.6210836,62.2906047 42.5803387,64 28,64 Z"></path>
                        </g>
                        <g id="Combined-Shape">
                            <use fill="#FFFFFF" fill-rule="evenodd" xlink:href="#path-5"></use>
                            <path stroke-opacity="0.4" stroke="#FFFFFF" stroke-width="3" d="M24.554765,21.5196331 C24.4495378,21.4621869 24.3345822,21.4134254 24.2094306,21.3717082 C22.8995723,20.9350888 22.1916723,19.5192889 22.6282918,18.2094306 C23.0649112,16.8995723 24.4807111,16.1916723 25.7905694,16.6282918 C28.1666898,17.4203319 29.6839673,19.1790354 30.2497926,21.6443358 C30.8480225,21.5475156 31.5002579,21.5 32.2105545,21.5 C36.9098789,21.5 39.5,24.5825974 39.5,29.2222222 C39.5,34.9317853 34.8322516,40.5 30.4291867,40.5 C29.5220003,40.5 28.7050116,40.2851327 28,39.8712373 C27.2949884,40.2851327 26.4779997,40.5 25.5708133,40.5 C21.1677484,40.5 16.5,34.9317853 16.5,29.2222222 C16.5,24.5825974 19.0901211,21.5 23.7894455,21.5 C24.0524477,21.5 24.3074851,21.5065142 24.554765,21.5196331 Z"></path>
                            <path stroke-opacity="0.2" stroke="#FFFFFF" stroke-width="6" d="M21.2175614,20.3018446 C20.9406959,19.4993257 20.9160688,18.6026828 21.2052668,17.7350889 C21.9038579,15.6393157 24.1691378,14.5066757 26.2649111,15.2052668 C28.7295936,16.0268276 30.4449604,17.7229898 31.3225004,20.0240753 C31.61054,20.0079507 31.9064834,20 32.2105545,20 C37.8017402,20 41,23.8063654 41,29.2222222 C41,35.707412 35.7250206,42 30.4291867,42 C29.5599194,42 28.7436885,41.8431231 28,41.5399696 C27.2563115,41.8431231 26.4400806,42 25.5708133,42 C20.2749794,42 15,35.707412 15,29.2222222 C15,24.701231 17.2286749,21.3017976 21.2175614,20.3018446 Z"></path>
                        </g>
                        <path d="M32.8890873,22.3890873 C32.9936568,22.3890873 34.8890873,20.8220839 34.8890873,18.8890873 C34.8890873,16.9560907 32.9936568,15.3890873 32.8890873,15.3890873 C32.7845178,15.3890873 30.8890873,16.9560907 30.8890873,18.8890873 C30.8890873,20.8220839 32.7845178,22.3890873 32.8890873,22.3890873 Z" id="Oval-2" fill="#FFFFFF" transform="translate(32.889087, 18.889087) rotate(-315.000000) translate(-32.889087, -18.889087) "></path>
                    </g>
                </g>
            </g>
        </g>
    </g>
</svg>