<?xml version="1.0" encoding="utf-8"?>
<!-- Generator: Adobe Illustrator 21.0.1, SVG Export Plug-In . SVG Version: 6.00 Build 0)  -->
<svg version="1.1" id="Layer_1" xmlns="http://www.w3.org/2000/svg" xmlns:xlink="http://www.w3.org/1999/xlink" x="0px" y="0px"
	 viewBox="0 0 960 648" style="enable-background:new 0 0 960 648;" xml:space="preserve">
<style type="text/css">
	.st0{opacity:0.4;}
	.st1{fill:none;stroke:#C7E3FF;stroke-width:2;stroke-miterlimit:10;stroke-dasharray:12.0089,12.0089;}
	.st2{opacity:0.5;fill:none;stroke:#C7E3FF;stroke-width:2;stroke-miterlimit:10;}
	.st3{opacity:0.8;}
	.st4{fill:none;stroke:#C7E3FF;stroke-width:2;stroke-miterlimit:10;stroke-dasharray:11.8443,11.8443;}
	.st5{fill:none;stroke:#1A32AF;stroke-width:4;stroke-miterlimit:10;}
	.st6{fill:#061027;}
	.st7{fill:#3450C6;}
	.st8{fill:#1A32AF;}
	.st9{fill:#F44040;}
	.st10{fill:#00C759;}
	.st11{fill:#94C5FF;}
	.st12{fill:none;stroke:#F2D3C8;stroke-width:0.2537;stroke-miterlimit:10;}
	.st13{fill:none;stroke:#F2D3C8;stroke-width:0.5074;stroke-miterlimit:10;}
	.st14{fill:none;stroke:#3450C6;stroke-width:4;stroke-linecap:round;stroke-linejoin:round;stroke-miterlimit:10;}
	.st15{fill:#29325C;}
	.st16{fill:#0092FF;}
	.st17{fill:#FFFFFF;}
	.st18{fill:#0055FF;}
	.st19{fill-rule:evenodd;clip-rule:evenodd;fill:#0255FA;}
	.st20{fill-rule:evenodd;clip-rule:evenodd;fill:#0A1429;}
	.st21{fill-rule:evenodd;clip-rule:evenodd;fill:#95C4FC;}
	.st22{fill-rule:evenodd;clip-rule:evenodd;fill:#0B162B;}
	.st23{fill-rule:evenodd;clip-rule:evenodd;fill:#1935B1;}
	.st24{fill-rule:evenodd;clip-rule:evenodd;fill:#1C8AEA;}
	.st25{fill-rule:evenodd;clip-rule:evenodd;fill:#1D3386;}
	.st26{fill-rule:evenodd;clip-rule:evenodd;fill:#FAFCFD;}
	.st27{fill-rule:evenodd;clip-rule:evenodd;fill:#1A35AF;}
	.st28{fill-rule:evenodd;clip-rule:evenodd;fill:#0192FD;}
	.st29{fill:#C7E3FF;}
	.st30{fill:#E9F5FF;}
	.st31{fill:#FF8D00;}
	.st32{fill:none;stroke:#94C5FF;stroke-width:4.3669;stroke-miterlimit:10;}
	.st33{fill:none;stroke:#0055FF;stroke-width:3;stroke-linecap:round;stroke-linejoin:round;stroke-miterlimit:10;}
	.st34{opacity:0.5;}
	.st35{fill:none;stroke:#00C759;stroke-width:9;stroke-linecap:round;stroke-linejoin:round;stroke-miterlimit:10;}
</style>
<g>
	<g class="st0">
		<circle class="st1" cx="484" cy="366" r="237"/>
	</g>
	<circle class="st2" cx="484" cy="366" r="187.5"/>
	<g class="st3">
		<circle class="st4" cx="484" cy="366" r="139.5"/>
	</g>
</g>
<g>
	<path class="st5" d="M174.3,287V246c0-19.4,15.7-35.1,35.1-35.1h55.7"/>
	<path class="st5" d="M190,287V246c0-19.4,15.7-35.1,35.1-35.1h40"/>
	<path class="st5" d="M202,287V246c0-19.4,15.7-35.1,35.1-35.1h24"/>
	<path class="st5" d="M210,287V246c0-19.4,15.7-35.1,35.1-35.1h24"/>
	<path class="st5" d="M230,287V246c0-19.4,15.1-35.1,35.1-35.1s60,28,64,60"/>
	<path class="st6" d="M375,471c0,8.8-7.2,16-16,16h-72c-8.8,0-12-7.2-12-16l2-212c0-8.8-10.8-16-2-16h84c8.8,0,16,7.2,16,16V471z"/>
	<path class="st7" d="M289.1,471c0,8.8-7.2,16-16,16h-160c-8.8,0-16-7.2-16-16V259c0-8.8,7.2-16,16-16h160c8.8,0,16,7.2,16,16V471z"
		/>
	<g>
		<path class="st6" d="M269.1,313c0,3.3-2.7,6-6,6h-132c-3.3,0-6-2.7-6-6v-32c0-3.3,2.7-6,6-6h132c3.3,0,6,2.7,6,6V313z"/>
		<path class="st8" d="M261.1,313c0,3.3-2.7,6-6,6h-132c-3.3,0-6-2.7-6-6v-32c0-3.3,2.7-6,6-6h132c3.3,0,6,2.7,6,6V313z"/>
		<g>
			<circle class="st9" cx="246.6" cy="288.5" r="5.5"/>
			<circle class="st10" cx="246.6" cy="306.8" r="5.5"/>
		</g>
		<g>
			<path class="st11" d="M137.1,307c0,2.2-1.8,4-4,4l0,0c-2.2,0-4-1.8-4-4v-20c0-2.2,1.8-4,4-4l0,0c2.2,0,4,1.8,4,4V307z"/>
			<path class="st11" d="M153.1,307c0,2.2-1.8,4-4,4l0,0c-2.2,0-4-1.8-4-4v-20c0-2.2,1.8-4,4-4l0,0c2.2,0,4,1.8,4,4V307z"/>
			<path class="st11" d="M169.1,307c0,2.2-1.8,4-4,4l0,0c-2.2,0-4-1.8-4-4v-20c0-2.2,1.8-4,4-4l0,0c2.2,0,4,1.8,4,4V307z"/>
			<path class="st11" d="M185.1,307c0,2.2-1.8,4-4,4l0,0c-2.2,0-4-1.8-4-4v-20c0-2.2,1.8-4,4-4l0,0c2.2,0,4,1.8,4,4V307z"/>
			<path class="st11" d="M201.1,307c0,2.2-1.8,4-4,4l0,0c-2.2,0-4-1.8-4-4v-20c0-2.2,1.8-4,4-4l0,0c2.2,0,4,1.8,4,4V307z"/>
			<path class="st11" d="M217.1,307c0,2.2-1.8,4-4,4l0,0c-2.2,0-4-1.8-4-4v-20c0-2.2,1.8-4,4-4l0,0c2.2,0,4,1.8,4,4V307z"/>
		</g>
	</g>
	<g>
		<g>
			<g>
				<g>
					<path class="st7" d="M322.1,307c0,2.2-1.8,4-4,4l0,0c-2.2,0-4-1.8-4-4v-20c0-2.2,1.8-4,4-4l0,0c2.2,0,4,1.8,4,4V307z"/>
				</g>
				<g>
					<path class="st7" d="M338.1,307c0,2.2-1.8,4-4,4l0,0c-2.2,0-4-1.8-4-4v-20c0-2.2,1.8-4,4-4l0,0c2.2,0,4,1.8,4,4V307z"/>
				</g>
				<g>
					<path class="st7" d="M354.1,307c0,2.2-1.8,4-4,4l0,0c-2.2,0-4-1.8-4-4v-20c0-2.2,1.8-4,4-4l0,0c2.2,0,4,1.8,4,4V307z"/>
				</g>
			</g>
		</g>
	</g>
	<g>
		<path class="st6" d="M269.1,381c0,3.3-2.7,6-6,6h-132c-3.3,0-6-2.7-6-6v-32c0-3.3,2.7-6,6-6h132c3.3,0,6,2.7,6,6V381z"/>
		<path class="st8" d="M261.1,381c0,3.3-2.7,6-6,6h-132c-3.3,0-6-2.7-6-6v-32c0-3.3,2.7-6,6-6h132c3.3,0,6,2.7,6,6V381z"/>
		<g>
			<circle class="st9" cx="246.6" cy="356.5" r="5.5"/>
			<circle class="st10" cx="246.6" cy="374.8" r="5.5"/>
		</g>
		<g>
			<path class="st11" d="M137.1,375c0,2.2-1.8,4-4,4l0,0c-2.2,0-4-1.8-4-4v-20c0-2.2,1.8-4,4-4l0,0c2.2,0,4,1.8,4,4V375z"/>
			<path class="st11" d="M153.1,375c0,2.2-1.8,4-4,4l0,0c-2.2,0-4-1.8-4-4v-20c0-2.2,1.8-4,4-4l0,0c2.2,0,4,1.8,4,4V375z"/>
			<path class="st11" d="M169.1,375c0,2.2-1.8,4-4,4l0,0c-2.2,0-4-1.8-4-4v-20c0-2.2,1.8-4,4-4l0,0c2.2,0,4,1.8,4,4V375z"/>
			<path class="st11" d="M185.1,375c0,2.2-1.8,4-4,4l0,0c-2.2,0-4-1.8-4-4v-20c0-2.2,1.8-4,4-4l0,0c2.2,0,4,1.8,4,4V375z"/>
			<path class="st11" d="M201.1,375c0,2.2-1.8,4-4,4l0,0c-2.2,0-4-1.8-4-4v-20c0-2.2,1.8-4,4-4l0,0c2.2,0,4,1.8,4,4V375z"/>
			<path class="st11" d="M217.1,375c0,2.2-1.8,4-4,4l0,0c-2.2,0-4-1.8-4-4v-20c0-2.2,1.8-4,4-4l0,0c2.2,0,4,1.8,4,4V375z"/>
		</g>
	</g>
	<g>
		<path class="st6" d="M269.1,445c0,3.3-2.7,6-6,6h-132c-3.3,0-6-2.7-6-6v-32c0-3.3,2.7-6,6-6h132c3.3,0,6,2.7,6,6V445z"/>
		<path class="st8" d="M261.1,445c0,3.3-2.7,6-6,6h-132c-3.3,0-6-2.7-6-6v-32c0-3.3,2.7-6,6-6h132c3.3,0,6,2.7,6,6V445z"/>
		<g>
			<circle class="st9" cx="246.6" cy="420.5" r="5.5"/>
			<circle class="st10" cx="246.6" cy="438.8" r="5.5"/>
		</g>
		<g>
			<path class="st11" d="M137.1,439c0,2.2-1.8,4-4,4l0,0c-2.2,0-4-1.8-4-4v-20c0-2.2,1.8-4,4-4l0,0c2.2,0,4,1.8,4,4V439z"/>
			<path class="st11" d="M153.1,439c0,2.2-1.8,4-4,4l0,0c-2.2,0-4-1.8-4-4v-20c0-2.2,1.8-4,4-4l0,0c2.2,0,4,1.8,4,4V439z"/>
			<path class="st11" d="M169.1,439c0,2.2-1.8,4-4,4l0,0c-2.2,0-4-1.8-4-4v-20c0-2.2,1.8-4,4-4l0,0c2.2,0,4,1.8,4,4V439z"/>
			<path class="st11" d="M185.1,439c0,2.2-1.8,4-4,4l0,0c-2.2,0-4-1.8-4-4v-20c0-2.2,1.8-4,4-4l0,0c2.2,0,4,1.8,4,4V439z"/>
			<path class="st11" d="M201.1,439c0,2.2-1.8,4-4,4l0,0c-2.2,0-4-1.8-4-4v-20c0-2.2,1.8-4,4-4l0,0c2.2,0,4,1.8,4,4V439z"/>
			<path class="st11" d="M217.1,439c0,2.2-1.8,4-4,4l0,0c-2.2,0-4-1.8-4-4v-20c0-2.2,1.8-4,4-4l0,0c2.2,0,4,1.8,4,4V439z"/>
		</g>
	</g>
</g>
<g>
	<g>
		<g>
			<g>
				<path class="st12" d="M525.8,372.8"/>
			</g>
		</g>
		<g>
			<g>
				<path class="st12" d="M519.4,371.5"/>
			</g>
		</g>
		<g>
			<g>
				<path class="st13" d="M564.5,386.9"/>
			</g>
		</g>
	</g>
</g>
<line class="st14" x1="47" y1="488.2" x2="869" y2="488.2"/>
<g>
	<g>
		<g>
			<g>
				<path class="st15" d="M795.1,474.7l41.8-206.5c2.2-10.9-5.8-19.8-18-19.8H496.6c-12.1,0-23.8,8.8-26,19.8l-41.8,206.5H795.1z"/>
			</g>
			<g>
				<path class="st11" d="M790.8,469.9l41.8-206.5c2.2-10.9-5.8-19.7-18-19.7H492.3c-12.1,0-23.8,8.8-26,19.7l-41.8,206.5H790.8z"/>
			</g>
			<g>
				<polygon class="st16" points="774.4,467 439.9,467 481.6,261.2 816,261.2 				"/>
			</g>
			<g>
				<polygon class="st17" points="773.5,469.7 442,469.7 483.6,264 815.1,264 				"/>
			</g>
		</g>
		<g>
			<g>
				<path class="st11" d="M244.7,465.1v0.9c0,12,9.8,21.7,22,21.7h321.4c12.1,0,22-9.7,22-21.7v-0.9H244.7z"/>
			</g>
			<g>
				<path class="st18" d="M385.2,465.2v0.4c0,5.3,4.4,9.6,9.8,9.6h41.2c5.4,0,9.8-4.3,9.8-9.6v-0.4H385.2z"/>
			</g>
			<g>
				<path class="st6" d="M610.1,465.1v0.9c0,12-9.8,21.7-22,21.7h186.5c12.1,0,22-9.7,22-21.7v-0.9H610.1z"/>
			</g>
		</g>
	</g>
	<path class="st18" d="M710.8,381.9h-12.4H529.8c-4.7,0-9.3,3.7-10.2,8.2l-4.5,21.7l-2.3,11L511,431h8.5H532h168.6
		c4.7,0,9.3-3.7,10.2-8.2l4.5-21.7l2.3-11l1.7-8.2H710.8z"/>
	<g>
		<g>
			<path class="st17" d="M587,403.3c0.2-0.7-0.4-1.3-1.2-1.3c-0.8,0-1.6,0.6-1.8,1.3c-0.2,0.7,0.4,1.3,1.2,1.3c2,0,3.6,0.8,4.4,2.1
				c0.7,0.9,0.9,2.1,0.6,3.4c-0.7,3-4,5.4-7.4,5.4s-5.7-2.4-5-5.4h4.7c-0.2,0.7,0.4,1.3,1.2,1.3c0.8,0,1.7-0.6,1.8-1.3
				c0.2-0.7-0.4-1.3-1.2-1.3c-3.4,0-5.7-2.4-5-5.4c0.7-3,4-5.4,7.4-5.4c3.4,0,5.7,2.4,5,5.4H587z"/>
			<path class="st17" d="M597.4,397.9h12.5l-0.8,3.8h-7.2l-0.6,2.8h6.4l-0.9,3.9h-6.4l-0.7,3.2h7.2l-0.8,3.8h-12.5L597.4,397.9z"/>
			<path class="st17" d="M625.3,415.4l-7.7-8.3l-1.8,8.3h-5.3l3.9-17.5h2.2l7.7,8.3l1.8-8.3h5.3l-3.9,17.5H625.3z"/>
			<path class="st17" d="M636.1,397.9h7.5c5.6,0,9.2,3.9,8.1,8.8c-1.1,4.8-6.5,8.8-12,8.8h-7.5L636.1,397.9z M638.5,410.9h2.2
				c2.6,0,5.2-1.9,5.7-4.2c0.5-2.3-1.2-4.1-3.9-4.1h-2.2L638.5,410.9z"/>
		</g>
	</g>
	<g>
		<path class="st19" d="M597.1,294.5c0.1,0.8-0.5,1.5-0.8,2.2c-0.9,2.1-1.9,4.2-2.9,6.2c-0.9,1.9-1.7,3.8-2.7,5.7
			c-1.1,2.1-3,3.2-5.6,3.2c-1.4,0-2.8,0-4.1,0c-0.3,0-0.6,0-0.9,0c-2,0-4,0-6,0c0-0.2,0-0.4,0.1-0.6c2.1-4.6,4.3-9.2,6.5-13.8
			c0.6-1.2,1.6-2,2.9-2.5c0.3-0.1,0.7-0.1,0.8-0.5C588.6,294.5,592.8,294.5,597.1,294.5z"/>
		<path class="st20" d="M686,307.9c-1.1,2.2-2.9,3.5-5.5,3.9c-1.4,0.2-2.9,0.3-4.4,0.2c-0.9-0.1-1,0.3-0.9,0.9
			c0.2,1.4,1.6,2.3,3.4,2.4c1.5,0.1,3-0.2,4.6-0.7c-0.1,1.2-0.5,2.3-0.7,3.3c-0.1,0.3-0.4,0.4-0.7,0.4c-2.5,0.6-5,0.6-7.5-0.3
			c-2.6-1-4-2.8-4.1-5.4c-0.1-1.8,0.1-3.6,1-5.2c1.8-3.3,5.3-5,9.4-4.6c0.6,0.1,1.2,0.1,1.9,0.3c1.8,0.4,3,1.3,3.6,2.9
			C686.1,306.6,686,307.2,686,307.9z M677.3,309.1c1,0,1.9-0.2,2.8-0.7c0.7-0.4,1.2-1,0.9-1.8c-0.3-0.8-1.1-1.1-2-1
			c-1.3,0.1-2.1,0.8-2.7,1.8C675.5,308.9,675.6,309.1,677.3,309.1z"/>
		<path class="st21" d="M604,312c0.7,0.3,0.1,0.7,0,0.9c-1.9,4.2-3.9,8.3-5.8,12.5c-0.8,1.7-2,3-4,3.6c-0.1,0-0.1,0.1-0.2,0.1
			c-4.3,0-8.5,0-12.8,0c0-0.5,0.3-1,0.5-1.5c0.7-1.8,1.8-3.5,2.4-5.3c2.6,0,5.3,0,7.9,0c1.9,0,3.4-0.6,4.6-2
			c2.4-2.7,4.7-5.4,7.1-8.1C603.9,312.1,603.9,312.1,604,312z"/>
		<path class="st20" d="M617,312.4c1.6-2.9,3.1-5.7,4.7-8.6c0.3-0.5,0.6-0.7,1.3-0.7c1.1,0,2.2,0,3.4,0c0.7,0,0.9,0.2,0.9,0.8
			c0.1,2.5,0.2,5,0.3,7.5c0,0.3,0.1,0.6,0.1,0.9c0.4-0.1,0.4-0.4,0.5-0.6c1.3-2.7,2.7-5.4,4-8.1c0.3-0.5,0.6-0.8,1.3-0.7
			c1.2,0.1,2.3,0,3.7,0c-0.7,1.5-1.4,2.9-2.1,4.2c-1.8,3.5-3.6,7-5.4,10.5c-0.3,0.6-0.6,0.8-1.3,0.8c-1.1-0.1-2.2-0.1-3.4,0
			c-0.8,0.1-1.1-0.2-1.1-0.9c-0.1-3-0.3-6-0.7-9c-0.6,1.1-1.1,2.1-1.7,3.1c-1.1,2-2.1,4-3.2,6.1c-0.3,0.6-0.6,0.8-1.3,0.7
			c-1.2,0-2.5,0-3.7,0c-0.6,0-0.8-0.2-0.8-0.7c-0.2-4.7-0.3-9.3-0.6-14c0-0.7,0.2-0.9,0.9-0.8c1,0,2,0,3,0c0.8,0,0.9,0.2,0.9,0.9
			c0,2.6,0,5.1,0,7.7c0,0.3,0,0.6,0,0.9C616.9,312.4,617,312.4,617,312.4z"/>
		<path class="st20" d="M646.1,311.8c1.1-1.9,2.2-3.8,3.2-5.7c0.5-0.9,1-1.8,1.5-2.7c0.2-0.4,0.4-0.6,0.9-0.6c1.3,0,2.7,0,4.2,0
			c-0.8,1.4-1.6,2.6-2.4,3.8c-2.5,4.1-5,8.1-7.5,12.2c-0.5,0.8-1.1,1.6-1.8,2.4c-1.9,2.2-4.5,2.8-7.3,2.5c-0.4-0.1-0.7-0.1-0.5-0.6
			c0.1-0.2,0.1-0.5,0.1-0.7c0.3-1.2,0.2-2.5,2.5-2.4c1.8,0,3.1-2.1,2.7-3.9c-0.8-4.1-1.5-8.2-2.3-12.3c-0.2-0.8,0.1-1,0.9-1
			c0.8,0.1,1.7,0.1,2.5,0c1.2-0.2,1.8,0.2,1.9,1.4c0.3,2.5,0.7,5,1,7.5C645.9,311.8,646,311.8,646.1,311.8z"/>
		<path class="st22" d="M663,305.5c2.3-2.8,4.4-3.4,7.4-2.3c-0.6,1.1-1.2,2.2-1.8,3.3c-0.3,0.5-0.6,0.5-1.1,0.4
			c-0.3-0.1-0.6-0.1-0.9-0.2c-2.1-0.3-3.2,0.3-3.7,2.2c-0.6,2.2-1.1,4.3-1.7,6.5c-0.1,0.4-0.2,0.7-0.3,1.1c-0.5,1.9-0.5,1.9-2.7,1.9
			c-0.9,0-2.1,0.3-2.6-0.1c-0.6-0.5,0.1-1.5,0.3-2.3c0.9-4.1,1.9-8.3,2.9-12.4c0,0,0-0.1,0-0.1c1-1.3,2.3-0.4,3.5-0.6
			c0.8-0.2,0.5,0.6,0.5,0.9C663.1,304.5,663,305,663,305.5z"/>
		<path class="st23" d="M581,311.9c1.4,0,2.8,0,4.1,0c2.5,0,4.5-1.1,5.6-3.2c1-1.9,1.8-3.8,2.7-5.7c2.3,0,4.6,0.1,7,0.1
			c-0.3,0.4-0.5,0.8-0.8,1.2l0,0c-0.3,0.1-0.4,0.3-0.5,0.6c-0.1,0.1-0.3,0.3-0.4,0.4c-0.1,0.1-0.1,0.1-0.2,0.2c0,0,0,0.1,0,0.2
			c-0.1,0.1-0.1,0.2-0.2,0.2l0,0c-0.1,0.1-0.1,0.1-0.2,0.2l0,0c-0.1,0.1-0.1,0.1-0.2,0.2c-0.1,0.1-0.2,0.2-0.3,0.4
			c-0.1,0.1-0.1,0.2-0.2,0.2l0,0c-0.1,0.1-0.2,0.1-0.2,0.2c-0.1,0.1-0.1,0.1-0.2,0.2c-0.2,0.1-0.2,0.2-0.3,0.4h0
			c-0.1,0.1-0.2,0.1-0.2,0.2l0,0c-0.1,0.1-0.2,0.1-0.2,0.2c-0.1,0.1-0.1,0.2-0.2,0.2c-0.2,0.1-0.2,0.2-0.3,0.4l0,0
			c-0.1,0.1-0.2,0.1-0.2,0.2c-0.3,0.1-0.4,0.3-0.5,0.6c-0.1,0.1-0.1,0.2-0.2,0.2l0,0c-0.1,0.1-0.1,0.1-0.2,0.2l0,0
			c-0.1,0.1-0.1,0.1-0.2,0.2c-0.1,0.1-0.2,0.2-0.3,0.4c-0.1,0.1-0.1,0.2-0.2,0.2l0,0c-0.1,0.1-0.1,0.1-0.2,0.2h0
			c-0.1,0.1-0.1,0.1-0.2,0.2l0,0c-0.2,0.1-0.2,0.2-0.3,0.4l0,0c-0.1,0.1-0.2,0.1-0.2,0.2v0c-0.1,0.1-0.2,0.1-0.2,0.2l0,0
			c-0.1,0.1-0.2,0.1-0.3,0.2c-0.1,0.1-0.3,0.2-0.4,0.2c-0.3,0-0.5,0.1-0.7,0.4l0,0c-0.2,0-0.4,0-0.5,0.2c-0.1,0-0.1,0-0.2,0
			c-1,0.2-2,0.2-3,0.2c-2.3,0-4.7,0-7.1,0C580.3,312.8,581,312.4,581,311.9z"/>
		<path class="st24" d="M599.6,304.2c0.3-0.4,0.5-0.8,0.8-1.2c0.9,0.2,0.3,0.6,0.1,0.9c-1.2,2.6-2.4,5.1-3.6,7.7c-0.1,0-0.1,0-0.2,0
			c-0.2-0.2-0.1-0.3,0-0.5c0.9-2,1.9-4,2.8-6C599.6,304.8,600,304.5,599.6,304.2z"/>
		<path class="st25" d="M604,312c-0.1,0.1-0.1,0.2-0.2,0.2c-2.4,0-4.8,0-7.1,0c0-0.1,0-0.2,0.1-0.2c0.1,0,0.2,0,0.3-0.1
			c0.1,0,0.2,0,0.4,0c2.2,0.1,4.3,0.1,6.5,0C603.9,312,604,312,604,312z"/>
		<path class="st21" d="M603.9,311.9c-2.2,0.1-4.4,0.1-6.5,0C599.6,311.7,601.7,311.7,603.9,311.9z"/>
		<path class="st21" d="M597,311.9c-0.1,0-0.2,0-0.3,0.1c0-0.1,0-0.3,0-0.4c0.1,0,0.1,0,0.2,0C596.9,311.7,597,311.8,597,311.9z"/>
		<path class="st26" d="M581,311.9c0,0.5-0.6,0.9-0.4,1.5c-0.6,1.8-1.5,3.5-2.4,5.2c-0.1-1,0.3-1.9,0.9-2.8c0.3-0.5,0.6-1.1,0.3-1.7
			c-0.4-0.9,0.7-1.3,0.7-2.1C580.4,311.9,580.7,311.9,581,311.9z"/>
		<path class="st27" d="M596.7,312.2c2.4,0,4.8,0,7.1,0c-2.4,2.7-4.7,5.4-7.1,8.1c-1.2,1.3-2.8,2-4.6,2c-2.6,0-5.3,0-7.9,0
			c-0.1,0-0.2-0.1-0.2-0.1c0.3-0.6,0.6-1.3,0.9-1.9c0.9,0,1.8,0,2.8,0c1.1,0,2.3,0.2,3.3-0.4l0,0c0.2,0,0.4,0,0.5-0.2
			c0.1-0.1,0.3-0.1,0.4-0.2c0.2,0,0.3-0.1,0.4-0.2c0.1-0.1,0.2-0.1,0.2-0.2c0.1-0.1,0.2-0.1,0.2-0.2l0,0c0.1-0.1,0.2-0.1,0.2-0.2
			l0,0c0.1-0.1,0.2-0.1,0.2-0.2c0.1-0.1,0.1-0.1,0.2-0.2c0.1-0.1,0.1-0.2,0.2-0.2v0c0.2-0.1,0.2-0.2,0.3-0.4c0.3-0.3,0.5-0.6,0.5-1
			c0.1-0.1,0.1-0.2,0.2-0.3c0-0.1,0-0.1,0-0.2c0.1-0.1,0.1-0.2,0.2-0.2c0-0.1,0-0.2,0.1-0.4c0.3-0.2,0.4-0.5,0.4-0.9l0,0
			c0.2-0.1,0.2-0.2,0.2-0.4c0-0.1,0-0.1,0-0.2c0.1-0.1,0.1-0.2,0.2-0.2c0-0.1,0-0.1,0-0.2c0.2-0.1,0.2-0.3,0.2-0.4
			c0-0.1,0-0.1,0-0.2c0.3-0.2,0.4-0.5,0.4-0.9C596.6,312.2,596.6,312.2,596.7,312.2z"/>
		<path class="st24" d="M590.9,319.9c-1.1,0.6-2.2,0.4-3.3,0.4c-0.9,0-1.8,0-2.8,0c-2.4,0-4.8,0-7.2,0l-0.1,0l-0.1,0
			c0.2-0.5,0.4-1.1,0.6-1.6c0.1,0,0.1-0.1,0.1-0.2c0.9-1.7,1.8-3.4,2.4-5.2c2.3,0,4.7,0,7.1,0c1,0,2,0,3-0.2
			c-0.8,0.7-1.7,0.5-2.6,0.6c-2.1,0.1-4.1,0-6.2,0c-0.4,0-0.8-0.1-1.1,0.4c-0.8,1.7-1.6,3.4-2.4,5.1c-0.2,0.5,0,0.7,0.6,0.7
			c2.9-0.1,5.9,0,8.8,0.2C588.9,320.1,589.9,319.7,590.9,319.9z"/>
		<path class="st26" d="M577.7,320.3c2.4,0,4.8,0,7.2,0c-0.3,0.6-0.6,1.3-0.9,1.9c0-1.5,0-1.5-1.7-1.5c-1.2,0-2.4,0-3.5,0
			C578.3,320.7,577.9,320.7,577.7,320.3z"/>
		<path class="st26" d="M578.1,318.7c-0.2,0.5-0.4,1.1-0.6,1.6c-0.3,0-0.6-0.1-0.5-0.3C577.4,319.5,577.3,318.8,578.1,318.7z"/>
		<path class="st28" d="M590.9,319.9c-1-0.1-2.1,0.3-3.1,0.2c-2.9-0.2-5.9-0.2-8.8-0.2c-0.6,0-0.8-0.2-0.6-0.7
			c0.8-1.7,1.6-3.4,2.4-5.1c0.2-0.5,0.7-0.4,1.1-0.4c2.1,0,4.1,0,6.2,0c0.9,0,1.9,0.1,2.6-0.6c0.1,0,0.1,0,0.2,0
			c0.2,0,0.4,0,0.5-0.2l0,0c0.3,0,0.7,0,0.7-0.4c0.1-0.1,0.3-0.2,0.4-0.2c0.1-0.1,0.2-0.1,0.3-0.2l0,0c0.1-0.1,0.1-0.1,0.2-0.2v0
			c0.1-0.1,0.2-0.1,0.2-0.2l0,0c0.2-0.1,0.2-0.2,0.3-0.4l0,0c0.1-0.1,0.1-0.1,0.2-0.2h0c0.1-0.1,0.1-0.1,0.2-0.2l0,0
			c0.1-0.1,0.1-0.2,0.2-0.2c0.1-0.1,0.2-0.2,0.3-0.4c0.1-0.1,0.1-0.1,0.2-0.2l0,0c0.1-0.1,0.1-0.1,0.2-0.2l0,0
			c0.1-0.1,0.1-0.2,0.2-0.2c0-0.3,0.2-0.5,0.5-0.6c0.1-0.1,0.2-0.1,0.2-0.2l0,0c0.2-0.1,0.2-0.2,0.3-0.4c0.1-0.1,0.1-0.2,0.2-0.2
			c0.1-0.1,0.1-0.1,0.2-0.2l0,0c0.1-0.1,0.1-0.1,0.2-0.2h0c0.2-0.1,0.2-0.2,0.3-0.4c0.1-0.1,0.1-0.1,0.2-0.2
			c0.1-0.1,0.2-0.1,0.2-0.2l0,0c0.1-0.1,0.1-0.2,0.2-0.2c0.1-0.1,0.2-0.2,0.3-0.4c0.1-0.1,0.1-0.1,0.2-0.2l0,0
			c0.1-0.1,0.1-0.1,0.2-0.2l0,0c0.1-0.1,0.1-0.2,0.2-0.2c0-0.1,0-0.1,0-0.2c0.1-0.1,0.1-0.1,0.2-0.2c0.1-0.1,0.3-0.3,0.4-0.4
			c0.3-0.1,0.5-0.3,0.5-0.6l0,0c0.4,0.3,0.1,0.6-0.1,0.9c-0.9,2-1.9,4-2.8,6c-0.1,0.2-0.2,0.4,0,0.5c0,0.1,0,0.2,0,0.4
			c0,0.1,0,0.2-0.1,0.2c-0.1,0-0.1,0-0.2,0c-0.4,0.2-0.5,0.5-0.4,0.9c0,0.1,0,0.1,0,0.2c-0.2,0.1-0.2,0.3-0.2,0.4c0,0.1,0,0.1,0,0.2
			c-0.1,0.1-0.1,0.2-0.2,0.2c0,0.1,0,0.1,0,0.2c-0.2,0.1-0.2,0.2-0.2,0.4l0,0c-0.3,0.2-0.5,0.5-0.4,0.9c0,0.1,0,0.2-0.1,0.4
			c-0.1,0.1-0.1,0.2-0.2,0.2c0,0.1,0,0.1,0,0.2c-0.1,0.1-0.1,0.2-0.2,0.3c0,0.4-0.2,0.7-0.5,1c-0.2,0.1-0.3,0.2-0.3,0.4v0
			c-0.1,0.1-0.1,0.2-0.2,0.2c-0.1,0.1-0.1,0.1-0.2,0.2c-0.1,0.1-0.2,0.1-0.2,0.2l0,0c-0.1,0.1-0.2,0.1-0.2,0.2l0,0
			c-0.1,0.1-0.2,0.1-0.2,0.2c-0.1,0.1-0.2,0.1-0.2,0.2c-0.2,0-0.4,0-0.4,0.2c-0.1,0.1-0.3,0.1-0.4,0.2
			C591.2,319.7,591,319.7,590.9,319.9L590.9,319.9z"/>
		<path class="st24" d="M592,312.4c0,0.4-0.4,0.4-0.7,0.4C591.5,312.6,591.7,312.5,592,312.4z"/>
		<path class="st24" d="M599.6,304.2c0,0.3-0.2,0.5-0.5,0.6C599.1,304.5,599.3,304.3,599.6,304.2z"/>
		<path class="st24" d="M596.8,307.3c0,0.2-0.1,0.3-0.3,0.4C596.6,307.5,596.6,307.4,596.8,307.3z"/>
		<path class="st24" d="M595.9,308.3c0,0.2-0.1,0.3-0.3,0.4C595.7,308.5,595.7,308.4,595.9,308.3z"/>
		<path class="st24" d="M593.4,311.2c0,0.2-0.1,0.3-0.3,0.4C593.1,311.4,593.2,311.3,593.4,311.2z"/>
		<path class="st24" d="M591.3,312.8c-0.1,0.2-0.3,0.2-0.5,0.2C590.9,312.9,591.1,312.8,591.3,312.8z"/>
		<path class="st24" d="M598.6,305.2c-0.1,0.1-0.1,0.1-0.2,0.2C598.5,305.3,598.6,305.3,598.6,305.2z"/>
		<path class="st24" d="M598.4,305.6c-0.1,0.1-0.1,0.2-0.2,0.2C598.2,305.7,598.3,305.6,598.4,305.6z"/>
		<path class="st24" d="M593.1,311.6c-0.1,0.1-0.2,0.1-0.2,0.2C593,311.7,593,311.7,593.1,311.6z"/>
		<path class="st24" d="M594.5,309.9c-0.1,0.1-0.1,0.1-0.2,0.2C594.4,310.1,594.4,310,594.5,309.9z"/>
		<path class="st24" d="M594.7,309.7c-0.1,0.1-0.1,0.1-0.2,0.2C594.6,309.9,594.7,309.8,594.7,309.7z"/>
		<path class="st24" d="M595.6,308.7c-0.1,0.1-0.2,0.1-0.2,0.2C595.5,308.8,595.6,308.8,595.6,308.7z"/>
		<path class="st24" d="M596.3,307.9c-0.1,0.1-0.2,0.1-0.2,0.2C596.2,308,596.3,307.9,596.3,307.9z"/>
		<path class="st24" d="M593.6,311c-0.1,0.1-0.1,0.1-0.2,0.2C593.4,311.1,593.5,311.1,593.6,311z"/>
		<path class="st24" d="M593.8,310.8c-0.1,0.1-0.1,0.1-0.2,0.2C593.7,310.9,593.7,310.8,593.8,310.8z"/>
		<path class="st24" d="M596.6,307.7c-0.1,0.1-0.2,0.1-0.2,0.2C596.4,307.8,596.5,307.7,596.6,307.7z"/>
		<path class="st24" d="M597.3,306.8c-0.1,0.1-0.2,0.1-0.2,0.2C597.1,307,597.2,306.9,597.3,306.8z"/>
		<path class="st24" d="M597.5,306.6c-0.1,0.1-0.1,0.2-0.2,0.2C597.3,306.8,597.4,306.7,597.5,306.6z"/>
		<path class="st24" d="M592.9,311.8c-0.1,0.1-0.2,0.1-0.2,0.2C592.7,311.9,592.8,311.9,592.9,311.8z"/>
		<path class="st24" d="M594.9,309.5c-0.1,0.1-0.1,0.2-0.2,0.2C594.8,309.7,594.9,309.6,594.9,309.5z"/>
		<path class="st24" d="M598,306c-0.1,0.1-0.1,0.1-0.2,0.2C597.8,306.2,597.9,306.1,598,306z"/>
		<path class="st24" d="M594,310.5c-0.1,0.1-0.1,0.2-0.2,0.2C593.9,310.7,594,310.6,594,310.5z"/>
		<path class="st24" d="M592.7,312c-0.1,0.1-0.2,0.1-0.3,0.2C592.5,312.1,592.6,312.1,592.7,312z"/>
		<path class="st24" d="M598.2,305.8c-0.1,0.1-0.1,0.1-0.2,0.2C598,305.9,598.1,305.9,598.2,305.8z"/>
		<path class="st24" d="M596,313.1c-0.1-0.4,0-0.7,0.4-0.9C596.5,312.6,596.4,312.9,596,313.1z"/>
		<path class="st24" d="M594.9,315.6c0-0.4,0.1-0.7,0.4-0.9C595.3,315.1,595.2,315.4,594.9,315.6z"/>
		<path class="st24" d="M591.8,319.5c0.1-0.2,0.2-0.2,0.4-0.2C592.2,319.4,592,319.5,591.8,319.5z"/>
		<path class="st24" d="M590.9,319.9c0.1-0.2,0.3-0.2,0.5-0.2C591.3,319.8,591.1,319.9,590.9,319.9z"/>
		<path class="st24" d="M595.3,314.7c0-0.2,0-0.3,0.2-0.4C595.5,314.5,595.5,314.6,595.3,314.7z"/>
		<path class="st24" d="M595.8,313.7c0-0.2,0-0.3,0.2-0.4C596,313.4,596,313.6,595.8,313.7z"/>
		<path class="st24" d="M593.7,318c0-0.2,0.1-0.3,0.3-0.4C593.9,317.8,593.8,317.9,593.7,318z"/>
		<path class="st24" d="M595.6,314.1c0.1-0.1,0.1-0.2,0.2-0.2C595.7,314,595.6,314,595.6,314.1z"/>
		<path class="st24" d="M594.6,316.2c0.1-0.1,0.1-0.2,0.2-0.2C594.7,316,594.7,316.1,594.6,316.2z"/>
		<path class="st24" d="M594.4,316.6c0.1-0.1,0.1-0.2,0.2-0.3C594.5,316.4,594.5,316.5,594.4,316.6z"/>
		<path class="st24" d="M593.4,318.2c0.1-0.1,0.1-0.2,0.2-0.2C593.6,318.1,593.5,318.2,593.4,318.2z"/>
		<path class="st24" d="M592.8,318.8c0.1-0.1,0.2-0.1,0.2-0.2C592.9,318.7,592.8,318.8,592.8,318.8z"/>
		<path class="st24" d="M592.5,319.1c0.1-0.1,0.2-0.1,0.2-0.2C592.7,318.9,592.6,319,592.5,319.1z"/>
		<path class="st24" d="M593,318.6c0.1-0.1,0.2-0.1,0.2-0.2C593.2,318.5,593.1,318.6,593,318.6z"/>
	</g>
	<g>
		<g>
			<g>
				<path class="st29" d="M668.1,364.4c-0.3,1.3-2,2.3-3.8,2.3l-131.9,0c-1.8,0-3-1.1-2.7-2.4l0,0c0.3-1.3,2-2.3,3.8-2.3l131.9,0
					C667.1,362,668.4,363.1,668.1,364.4L668.1,364.4z"/>
			</g>
			<g>
				<path class="st29" d="M732.5,350.7c-0.3,1.3-2,2.4-3.8,2.4H535.8c-1.8,0-3-1.1-2.7-2.4l0,0c0.3-1.3,2-2.3,3.8-2.3h192.9
					C731.6,348.3,732.8,349.4,732.5,350.7L732.5,350.7z"/>
			</g>
		</g>
	</g>
</g>
<path class="st6" d="M652.4,253.3c-0.3,1.6-2.1,2.9-4,2.9c-1.8,0-3.1-1.3-2.7-2.9c0.3-1.6,2.1-2.9,4-2.9
	C651.5,250.4,652.7,251.7,652.4,253.3z"/>
<g>
	<g>
		<path class="st29" d="M635.5,216.3l-23.8-8.8l-28.1-23.6c0,0-5-4.3-1-14.8c3.1-8.3,17.7-47.7,17.7-47.7l61.9,23L635.5,216.3z"/>
		<path class="st30" d="M583.6,183.9l28.1,23.6l-14.6-22C597.1,185.4,590.7,189.6,583.6,183.9z"/>
	</g>
	<g>
		<g>
			<polygon class="st18" points="601.6,183.4 602.5,176.5 595.3,176.2 618.4,156.1 624.7,163.3 			"/>
			<polygon class="st18" points="621.2,190.7 625,185 630.7,189.4 626.3,159.1 616.9,160.4 			"/>
		</g>
		<g>
			
				<ellipse transform="matrix(0.3489 -0.9372 0.9372 0.3489 256.714 686.0549)" class="st31" cx="622.1" cy="158.3" rx="12.7" ry="12.7"/>
			
				<ellipse transform="matrix(0.3489 -0.9372 0.9372 0.3489 256.7193 686.0589)" class="st17" cx="622.1" cy="158.3" rx="8.7" ry="8.7"/>
		</g>
	</g>
</g>
<g>
	<path class="st32" d="M336.4,160.7v-19.9c0-5.3,4.3-9.6,9.6-9.6l0,0c5.3,0,9.6,4.3,9.6,9.6v19.9"/>
	<path class="st11" d="M368.8,170c0-11.3-9-20.4-20.2-20.7v0H348c0,0,0,0,0,0c0,0,0,0,0,0h-6.9l-2,2c-7,3.3-11.8,10.4-11.8,18.7
		c0,8.3,4.9,15.4,11.9,18.8l2,2h7.5v0C359.8,190.3,368.8,181.2,368.8,170z"/>
	<circle class="st29" cx="341.3" cy="170" r="20.7"/>
	<path class="st11" d="M344.4,166.5c0-2.9-2.3-5.2-5.2-5.2c-2.9,0-5.2,2.3-5.2,5.2c0,1.9,1,3.5,2.5,4.4v7.2c0,1.5,1.2,2.7,2.7,2.7
		s2.7-1.2,2.7-2.7v-7.2C343.4,170,344.4,168.4,344.4,166.5z"/>
	<path class="st7" d="M346.3,166.5c0-2.9-2.3-5.2-5.2-5.2c-2.9,0-5.2,2.3-5.2,5.2c0,1.9,1,3.5,2.5,4.4v7.2c0,1.5,1.2,2.7,2.7,2.7
		s2.7-1.2,2.7-2.7v-7.2C345.3,170,346.3,168.4,346.3,166.5z"/>
</g>
<g>
	<g>
		<g>
			<path class="st33" d="M523.8,108.1c0.6,1.1,1.2,2.2,1.7,3.4c3.2,7.1,5,14.9,5,23.2c0,31.1-25.2,56.2-56.2,56.2
				c-18,0-33.9-8.4-44.2-21.5"/>
			<polyline class="st33" points="430.4,177 429.4,168.8 437.4,171 			"/>
		</g>
		<g>
			<path class="st33" d="M424,160.2c-3.9-7.7-6.1-16.3-6.1-25.5c0-31.1,25.2-56.2,56.2-56.2c15.3,0,29.2,6.1,39.3,16
				c0.8,0.7,1.5,1.5,2.2,2.3"/>
			<polyline class="st33" points="515.6,89.6 516.6,97.8 508.6,95.6 			"/>
		</g>
	</g>
</g>
<g class="st34">
	<path class="st11" d="M225.1,121.6h-96c-3.2,0-5.8-2.6-5.8-5.8c0-2.5,0.9-3.7,3.8-5.4c2-1.6,5.1-3.9,7.7-5.3c2.6-1.4,4.9-1.5,7-1.5
		l0.7,0c1.7,0,3-0.1,4.3-1c1.2-0.8,2-2.1,2.8-3.3c1.3-2,2.7-4,5.6-4.3c4.5-0.5,5.4-0.7,8.5-3.1c0.6-0.5,1.3-1.2,2-2
		c2-2.2,4.6-4.8,8.6-4.8c1.7,0,3.5,0.5,5.5,1.5c3.7,1.9,6.6,4.7,9.1,7.2c2.5,2.5,4.7,4.7,6.8,4.7c0.5,0,1.1-0.1,1.6-0.4
		c2.1-1.1,3.9-1.6,5.6-1.6c3.1,0,5.9,1.8,9.3,5.8c2.8,3.4,6.8,5.1,10.5,6.7l0.3,0.1l2.6,1c2.5,0.8,5.2,2.2,5.2,5.7
		C230.8,119,228.3,121.6,225.1,121.6z M141.8,104.6c-2,0-4.1,0.1-6.5,1.4c-2.5,1.3-5.5,3.6-7.6,5.3c-2.7,1.5-3.4,2.5-3.4,4.6
		c0,2.6,2.1,4.8,4.8,4.8h96c2.6,0,4.8-2.1,4.8-4.8c0-2.4-1.3-3.7-4.5-4.8l-3-1.1c-3.9-1.7-7.9-3.5-10.9-7c-3.1-3.7-5.8-5.4-8.5-5.4
		c-1.5,0-3.1,0.5-5.1,1.5c-0.7,0.4-1.4,0.5-2.1,0.5c-2.5,0-4.8-2.3-7.5-5c-2.5-2.4-5.2-5.2-8.8-7.1c-1.8-0.9-3.5-1.4-5-1.4
		c-3.5,0-5.8,2.4-7.8,4.5c-0.7,0.8-1.4,1.5-2.1,2.1c-3.3,2.5-4.4,2.8-9,3.4c-2.5,0.3-3.7,2-4.9,3.9c-0.9,1.3-1.7,2.6-3.1,3.5
		c-1.5,1-3,1.1-4.9,1.1L141.8,104.6z"/>
</g>
<g class="st0">
	<path class="st11" d="M887.3,168.3H743c-2.4,0-4.4-2-4.4-4.4c0-1.5,1.3-3.4,1.4-3.5l0.1-0.1l0.1-0.1c0.1,0,6.4-2.6,12.1-8.9
		c1.7-1.9,3.2-4.1,4.5-6.2c2.6-4,4.9-7.5,8.2-7.5c0.9,0,1.7,0.2,2.7,0.7c1.5,0.8,3.1,1.7,4.6,2.7c3.4,2.1,7,4.3,9.9,4.3
		c1.4,0,2.6-0.5,3.6-1.7c1-1.1,2.2-3,3.6-5.2c4.1-6.3,9.7-15,16-15c1.4,0,2.8,0.5,4.2,1.4c4.9,3.2,6.8,6.7,8.4,9.5
		c1.5,2.7,2.5,4.5,5.5,4.5c2.7,0,5-1.5,7.3-3c2.2-1.5,4.4-2.8,6.7-2.8c1,0,2,0.3,3,0.8c2.7,1.5,3.6,3.3,4.3,4.9
		c0.9,1.9,1.5,3.4,5.2,4c1.3,0.2,2.5,0.3,3.8,0.3c1.4,0,2.6-0.1,3.7-0.2c1-0.1,1.9-0.2,2.7-0.2c1.2,0,2.9,0.2,4.5,1.5
		c2.7,2.2,3.2,3.7,3.7,5.1c0.5,1.5,0.9,2.7,4,4.7c4.4,2.8,17,6.2,17.1,6.2l0.1,0.1c1.2,0.8,2,2.2,2,3.7
		C891.6,166.4,889.7,168.3,887.3,168.3z M740.7,161.1c-0.4,0.6-1.1,1.9-1.1,2.8c0,1.9,1.5,3.4,3.4,3.4h144.3c1.9,0,3.4-1.5,3.4-3.4
		c0-1.1-0.5-2.2-1.5-2.8c-1.2-0.3-12.9-3.6-17.3-6.3c-3.4-2.1-3.9-3.6-4.4-5.2c-0.5-1.3-0.9-2.7-3.4-4.7c-1.1-0.9-2.2-1.2-3.8-1.2
		c-0.8,0-1.7,0.1-2.6,0.2c-1.1,0.1-2.4,0.2-3.8,0.2c-1.4,0-2.7-0.1-4-0.4c-4.2-0.8-5-2.6-5.9-4.6c-0.7-1.5-1.4-3.1-3.9-4.5
		c-0.8-0.5-1.6-0.7-2.5-0.7c-2,0-4,1.3-6.2,2.7c-2.4,1.6-4.9,3.2-7.9,3.2c-3.6,0-4.8-2.2-6.4-5.1c-1.5-2.7-3.4-6.1-8.1-9.2
		c-1.2-0.8-2.4-1.2-3.6-1.2c-5.8,0-11.2,8.4-15.2,14.5c-1.4,2.2-2.7,4.1-3.7,5.3c-1.2,1.3-2.6,2-4.3,2c-3.2,0-6.8-2.2-10.4-4.4
		c-1.5-0.9-3.1-1.9-4.6-2.6c-0.8-0.4-1.5-0.6-2.2-0.6c-2.8,0-4.9,3.2-7.4,7c-1.4,2.1-2.8,4.4-4.6,6.3
		C747.6,158,741.8,160.7,740.7,161.1z"/>
</g>
<polyline class="st35" points="455.9,136.3 467,147.4 492.5,121.9 "/>
</svg>
