<?xml version="1.0" encoding="UTF-8"?>
<svg width="90px" height="102px" viewBox="0 0 90 102" version="1.1" xmlns="http://www.w3.org/2000/svg" xmlns:xlink="http://www.w3.org/1999/xlink">
    <!-- Generator: Sketch 47.1 (45422) - http://www.bohemiancoding.com/sketch -->
    <title>Direct to bank</title>
    <desc>Created with Sketch.</desc>
    <defs>
        <linearGradient x1="50%" y1="0%" x2="50%" y2="100%" id="linearGradient-1">
            <stop stop-color="#00E592" offset="0%"></stop>
            <stop stop-color="#00C759" offset="100%"></stop>
        </linearGradient>
        <path d="M28,55 C41.4079846,55 44,52.4079846 44,39 C44,25.5920154 41.4079846,23 28,23 C14.5920154,23 12,25.5920154 12,39 C12,52.4079846 14.5920154,55 28,55 Z" id="path-2"></path>
        <filter x="-143.8%" y="-137.5%" width="387.5%" height="387.5%" filterUnits="objectBoundingBox" id="filter-3">
            <feOffset dx="0" dy="2" in="SourceAlpha" result="shadowOffsetOuter1"></feOffset>
            <feGaussianBlur stdDeviation="15" in="shadowOffsetOuter1" result="shadowBlurOuter1"></feGaussianBlur>
            <feColorMatrix values="0 0 0 0 0.807843137   0 0 0 0 0   0 0 0 0 0.898039216  0 0 0 0.7 0" type="matrix" in="shadowBlurOuter1"></feColorMatrix>
        </filter>
        <linearGradient x1="50%" y1="0%" x2="50%" y2="100%" id="linearGradient-4">
            <stop stop-color="#CE00E5" offset="0%"></stop>
            <stop stop-color="#A000C7" offset="100%"></stop>
        </linearGradient>
        <path d="M28,56 C51.463973,56 56,51.463973 56,28 C56,4.53602701 51.463973,0 28,0 C4.53602701,2.87350794e-15 0,4.53602701 0,28 C1.43675397e-15,51.463973 4.53602701,56 28,56 Z" id="path-5"></path>
        <path d="M37.0001891,26.0481786 L37.0001891,36 L37.0001891,36 C37.0001891,37.1045695 36.1047586,38 35.0001891,38 L21.0001891,38 C19.8956196,38 19.0001891,37.1045695 19.0001891,36 L19.0001891,26.0481786 L17.4790413,26.8778956 C16.9941929,27.1423583 16.3867563,26.9637005 16.1222936,26.4788521 C15.8578308,25.9940038 16.0364887,25.3865672 16.521337,25.1221044 L27.521337,19.1221044 C27.8198145,18.9592985 28.1805638,18.9592985 28.4790413,19.1221044 L39.4790413,25.1221044 C39.9638896,25.3865672 40.1425474,25.9940038 39.8780847,26.4788521 C39.613622,26.9637005 39.0061853,27.1423583 38.521337,26.8778956 L37.0001891,26.0481786 Z M26.0001891,30 C25.4479044,30 25.0001891,30.4477153 25.0001891,31 L25.0001891,38 L31.0001891,38 L31.0001891,31 C31.0001891,30.4477153 30.5524739,30 30.0001891,30 L26.0001891,30 Z" id="path-6"></path>
    </defs>
    <g id="Individual-Template" stroke="none" stroke-width="1" fill="none" fill-rule="evenodd">
        <g transform="translate(-420.000000, -2317.000000)" id="uses">
            <g transform="translate(80.000000, 1800.000000)">
                <g id="home" transform="translate(284.000000, 533.000000)">
                    <g id="Direct-to-bank" transform="translate(73.000000, 0.000000)">
                        <g id="Oval-6">
                            <use fill="black" fill-opacity="1" filter="url(#filter-3)" xlink:href="#path-2"></use>
                            <use fill="url(#linearGradient-1)" fill-rule="evenodd" xlink:href="#path-2"></use>
                        </g>
                        <g id="Oval-6-Copy-3">
                            <use fill="url(#linearGradient-4)" fill-rule="evenodd" xlink:href="#path-5"></use>
                            <path stroke-opacity="0.15" stroke="#CE00E5" stroke-width="8" d="M28,60 C2.32688801,60 -4,53.673112 -4,28 C-4,2.32688801 2.32688801,-4 28,-4 C53.673112,-4 60,2.32688801 60,28 C60,53.673112 53.673112,60 28,60 Z"></path>
                            <path stroke-opacity="0.15" stroke="#CE00E5" stroke-width="16" d="M28,64 C13.4196613,64 5.37891641,62.2906047 -0.455844122,56.4558441 C-6.29060465,50.6210836 -8,42.5803387 -8,28 C-8,13.4196613 -6.29060465,5.37891641 -0.455844122,-0.455844122 C5.37891641,-6.29060465 13.4196613,-8 28,-8 C42.5803387,-8 50.6210836,-6.29060465 56.4558441,-0.455844122 C62.2906047,5.37891641 64,13.4196613 64,28 C64,42.5803387 62.2906047,50.6210836 56.4558441,56.4558441 C50.6210836,62.2906047 42.5803387,64 28,64 Z"></path>
                        </g>
                        <g id="Combined-Shape" stroke-linejoin="round">
                            <use fill="#FFFFFF" fill-rule="evenodd" xlink:href="#path-6"></use>
                            <path stroke-opacity="0.3" stroke="#FFFFFF" stroke-width="3" d="M38.5001891,28.4501675 L38.5001891,36 C38.5001891,37.9329966 36.9331858,39.5 35.0001891,39.5 L21.0001891,39.5 C19.0671925,39.5 17.5001891,37.9329966 17.5001891,36 L17.5001891,28.4501675 C16.4524498,28.6643456 15.3442406,28.1849127 14.8054502,27.1971303 C14.1442934,25.9850095 14.590938,24.4664179 15.8030588,23.8052611 L26.8030588,17.8052611 C27.5492525,17.3982463 28.4511257,17.3982463 29.1973195,17.8052611 L40.1973195,23.8052611 C41.4094403,24.4664179 41.8560849,25.9850095 41.1949281,27.1971303 C40.6561377,28.1849127 39.5479285,28.6643456 38.5001891,28.4501675 Z M26.5001891,31.5 L26.5001891,36.5 L29.5001891,36.5 L29.5001891,31.5 L26.5001891,31.5 Z"></path>
                            <path stroke-opacity="0.15" stroke="#FFFFFF" stroke-width="6" d="M40.0001891,29.8729977 L40.0001891,36 C40.0001891,38.7614237 37.7616129,41 35.0001891,41 L21.0001891,41 C18.2387654,41 16.0001891,38.7614237 16.0001891,36 L16.0001891,29.8729977 C14.9658738,29.6057115 14.0405221,28.9272531 13.4886069,27.9154085 C12.4307559,25.9760152 13.1453873,23.5462686 15.0847806,22.4884177 L26.0847806,16.4884177 C27.2786906,15.8371941 28.7216877,15.8371941 29.9155977,16.4884177 L40.9155977,22.4884177 C42.854991,23.5462686 43.5696224,25.9760152 42.5117714,27.9154085 C41.9598562,28.9272531 41.0345045,29.6057115 40.0001891,29.8729977 Z M28.0001891,33 L30.0001891,33 C28.8956196,33 28.0001891,32.1045695 28.0001891,31 L28.0001891,33 Z M28.0001891,33 L28.0001891,31 C28.0001891,32.1045695 27.1047586,33 26.0001891,33 L28.0001891,33 Z M28.0001891,35 L25.0001891,35 L28.0001891,38 L28.0001891,35 Z M28.0001891,35 L28.0001891,33 L28.0001891,38 L31.0001891,35 L28.0001891,35 Z"></path>
                        </g>
                    </g>
                </g>
            </g>
        </g>
    </g>
</svg>