<?xml version="1.0" encoding="UTF-8"?>
<svg width="144px" height="144px" viewBox="0 0 144 144" version="1.1" xmlns="http://www.w3.org/2000/svg" xmlns:xlink="http://www.w3.org/1999/xlink">
    <!-- Generator: Sketch 47.1 (45422) - http://www.bohemiancoding.com/sketch -->
    <title>Group 6</title>
    <desc>Created with Sketch.</desc>
    <defs></defs>
    <g id="Developer-Template" stroke="none" stroke-width="1" fill="none" fill-rule="evenodd" opacity="0.100000001">
        <g transform="translate(-177.000000, -1498.000000)" id="Focus-on-your-users">
            <g transform="translate(177.000000, 1176.000000)">
                <g id="Group-6" transform="translate(0.000000, 322.000000)">
                    <path d="M40,24 L140,24 L140,24 C142.209139,24 144,25.790861 144,28 L144,128 L144,128 C144,136.836556 136.836556,144 128,144 L28,144 L28,144 C25.790861,144 24,142.209139 24,140 L24,40 L24,40 C24,31.163444 31.163444,24 40,24 Z" id="Rectangle-6-Copy" fill="#0092FF"></path>
                    <path d="M16,0 L44,0 L44,0 C46.209139,-4.05812251e-16 48,1.790861 48,4 L48,32 L48,32 C48,40.836556 40.836556,48 32,48 L4,48 L4,48 C1.790861,48 2.705415e-16,46.209139 0,44 L0,16 L0,16 C-1.082166e-15,7.163444 7.163444,1.623249e-15 16,0 Z" id="Rectangle-6-Copy-4" fill="#00C759"></path>
                </g>
            </g>
        </g>
    </g>
</svg>