<svg version="1.1" xmlns="http://www.w3.org/2000/svg" xmlns:xlink="http://www.w3.org/1999/xlink" x="0" y="0" viewBox="0 0 660.7 543" xml:space="preserve" enable-background="new 0 0 660.7 543"><style type="text/css">.st0{opacity:.5}.st1{fill:url(#SVGID_1_)}.st2{fill:url(#SVGID_2_)}.st3{fill:none;stroke:#3a76cc;stroke-width:.6878;stroke-miterlimit:10}.st4{fill:url(#SVGID_3_)}.st5{fill:url(#SVGID_4_)}.st6{fill:none;stroke:#38b9ce;stroke-width:.6878;stroke-miterlimit:10}.st7{opacity:.3;fill:#94c5ff}.st8{fill:url(#SVGID_5_)}.st9{fill:#fffffe}.st10{fill:#1a32af}.st11{fill:#05f}.st12{fill:url(#SVGID_6_)}.st13{fill:#fff}.st14{fill:#d7e6f4}.st15{fill:#00c759}.st16{fill:#ff8d00}.st17{opacity:.2}.st18{fill:#94c5ff}.st19{clip-path:url(#SVGID_8_)}.st20{fill:#8c5f53}.st21{fill:#a07364}.st22{fill:#aa7d71}.st23,.st24{clip-path:url(#SVGID_8_);fill:#2b2126}.st24{fill:#8c5f53}.st25{fill:#2b2126}.st26{opacity:.5;fill:#94c5ff}.st27{clip-path:url(#SVGID_10_)}.st28{fill:#111030}.st29{fill:#ffcb9c}.st30{fill:#f9af7d}.st31{fill:#f7706d}.st32{opacity:.7;fill:#94c5ff}.st33{clip-path:url(#SVGID_12_)}.st34{fill:none;stroke:#5ba8dd;stroke-width:.6098;stroke-miterlimit:10}.st35{fill:#ffc5ab}.st36{fill:#f9ac91}.st37{fill:#f2a894}.st38{fill:#eaa292}.st39{clip-path:url(#SVGID_12_);fill:#2b2126}</style><g id="Layer_3"><g><g class="st0"><linearGradient id="SVGID_1_" gradientUnits="userSpaceOnUse" x1="-369.227" y1="3901.622" x2="-369.434" y2="3825.544" gradientTransform="matrix(0.8935 0.449 -2.400000e-03 1.0167 731.4913 -3519.8066)"><stop offset=".197" stop-color="#0092FF" stop-opacity="0"/><stop offset=".968" stop-color="#0092FF" stop-opacity="0.8"/></linearGradient><path class="st1" d="M124,143.8c26.8,4,33.6,10.5,57.2,7.7c20.3-2.4,23.2-44.6,43.5-31.3c12.9,8.6,11.9,44.4,22,55.8 c30.4,36.3,31.5-33.5,63.7,6.8c11,14,11.9,24.9,23.9,37.2c12,13.4,32.2,25.7,45.2,26.9c24.9,2,40.6-7.9,67.3,22.3 c34.1,40.2,34.4-13,65.8-0.4c15.7,6.8,19.8,24.8,27.9,43.3c10.3,23.7,25.5,38.9,37.5,29.2c8.3-7.4,20.4-43.1,33.7-24 c10.1,14.5,14.4,57.8,33,68.1c12.6,7,4.8,28.8,15.9,29.1"/><g><linearGradient id="SVGID_2_" gradientUnits="userSpaceOnUse" x1="390.524" y1="282.609" x2="422.64" y2="217.225"><stop offset=".404" stop-color="#0055FF" stop-opacity="0"/><stop offset=".787" stop-color="#0050FF"/></linearGradient><path class="st2" d="M123.9,144.1c11.6,1.8,22.8,5.2,34.3,7.3c4.5,0.8,9.1,1.1,13.7,1.1c4.3,0,9.4,0,13.4-1.8 c6.4-2.9,10.5-8.9,14.1-14.6c3.8-6,7.3-13.8,13.9-17.3c9.2-4.8,16.4,6.7,19,13.7c3.4,9.2,4.8,19.1,7.3,28.6 c2.1,8,5.2,14.2,11.2,20c3.6,3.5,8.2,6.5,13.5,6c8.9-0.8,14.2-11.2,21.4-15.3c5.9-3.4,11.8-0.8,16.6,3.1 c9.5,7.8,15,19.2,20.6,29.8c5.6,10.7,13.9,19.7,23.5,26.9c9,6.8,19.4,13.1,30.6,15.3c8.6,1.7,17.8,0.2,26.5,0.3 c10.4,0,19.7,2.8,28.2,8.7c10.2,7.1,16.7,18.1,26.9,25.2c4.5,3.2,9.8,4.7,15.1,2.7c11.4-4.2,16.8-17.3,30.4-16.7 c12.3,0.5,20.6,10.8,25.6,21c6,11.9,9.6,24.8,16.3,36.4c6.8,11.7,23.2,29.7,35,13.2c4.8-6.7,14.8-31.2,26-24.4 c5.6,3.4,8.1,11.9,10.1,17.6c2.7,7.5,4.8,15.2,7.3,22.7c4.1,12.3,9,25.6,20.6,32.6c6.6,4,6.8,13.4,8.1,20.2c0.8,4.1,2.3,8,7,8.4 c0.4,0,0.4-0.6,0-0.6c-8.5-0.7-6.9-16.1-9.6-22c-1.6-3.4-3.7-5.7-7-7.6c-4.2-2.5-7.2-6.7-9.7-10.7c-10-16.4-11.8-36.3-20.3-53.3 c-2.4-4.7-6.5-10.4-12.4-8.9c-6.1,1.5-10.4,9.4-13.4,14.2c-4.2,6.7-8.2,17-17.1,18c-11.7,1.4-21-14.2-25.7-22.6 c-10-17.8-13.4-47.8-36.4-54.1c-12.9-3.5-20.9,6.4-30.2,13.3c-5.7,4.2-11.7,4.6-17.9,1.1c-10.5-5.9-16.7-17.3-26.2-24.5 c-7.4-5.6-15.4-9.2-24.7-10.2c-8.9-0.9-17.9,0.3-26.8,0c-12.4-0.4-23.7-6.8-33.6-13.8c-11.6-8.2-20.7-18.6-27.2-31.1 c-5.2-10-10.7-19.9-19.3-27.4c-3.5-3-8.2-5.7-12.9-4.8c-9.2,1.7-13.8,11.6-21.8,15.7c-6.2,3.1-12.2-0.5-16.8-4.7 c-7.2-6.7-10-14.9-12.2-24.2c-2.7-11.4-3.9-28-13.6-35.9c-8.2-6.7-15.6-1.2-20.6,6c-3.4,4.8-6.1,10-9.6,14.8 c-4.5,6.2-9.6,9.6-17.4,10.3c-18.5,1.8-35.9-5.3-53.9-8.1C123.7,143.4,123.5,144,123.9,144.1L123.9,144.1z"/></g></g><g><path class="st3" d="M222.1,119.4c0,1.6-1.1,2.2-2.4,1.5c-1.3-0.7-2.4-2.6-2.4-4.2c0-1.6,1.1-2.2,2.4-1.5 C221,116,222.1,117.9,222.1,119.4z"/><path class="st3" d="M514.9,270.1c0,1.6-1.1,2.2-2.4,1.5c-1.3-0.7-2.4-2.6-2.4-4.2c0-1.6,1.1-2.2,2.4-1.5 C513.8,266.7,514.9,268.6,514.9,270.1z"/><path class="st3" d="M607.6,312.7c0,1.6-1.1,2.2-2.4,1.5c-1.3-0.7-2.4-2.6-2.4-4.2c0-1.6,1.1-2.2,2.4-1.5 C606.5,309.2,607.6,311.1,607.6,312.7z"/></g></g><g><g class="st0"><linearGradient id="SVGID_3_" gradientUnits="userSpaceOnUse" x1="403.938" y1="319.47" x2="445.178" y2="234.917"><stop offset=".205" stop-color="#00AFDB" stop-opacity="0"/><stop offset=".657" stop-color="#00C4C2" stop-opacity="0.8"/></linearGradient><path class="st4" d="M634.2,431.8c0,0-3.6-24.3-24.8-40.2c-28.9-21.7-32.1-68-46.3-80.8c-10.3-9.4-19.8-1-24.9,4.1 c-5.8,5.8-10.1,10.4-17.9,12.2c-15.2,3.5-30.4-22.9-37.6-35.3c-9-15.8-15.9-27.9-28.4-20.9c-2.5,1.7-6.8,6.5-12.1,9.8 c-3.5-10.7-7.3-21.5-15.3-28.7c-7-6.3-13.5-4.6-18.6-1.2c-5.6-18-11.2-39.1-22.7-44.8c-17.5-8.8-25.8,17.3-37,30.7 c-0.8-1.3-1.5-2.5-2.1-3.7c-9-15.8-15.9-27.9-28.4-20.9c-6,3.9-22.1,26-37.3,1.8c-10.3-16.1-14.4-58.2-31.4-66.7 c-23.4-11.7-38.3,59-68.1,44.4"/><g><linearGradient id="SVGID_4_" gradientUnits="userSpaceOnUse" x1="403.924" y1="319.493" x2="445.196" y2="234.873"><stop offset=".281" stop-color="#0055FF" stop-opacity="0"/><stop offset=".381" stop-color="#00A994"/><stop offset=".755" stop-color="#00A994"/></linearGradient><path class="st5" d="M634.5,431.7c-2.3-15.2-11.8-29.8-23.5-39.4c-9.1-7.4-16-15.6-21.5-26c-5.1-9.5-8.8-19.8-12.6-29.9 c-4.5-12.2-12.3-36.5-30-28.5c-11,4.9-16,18.8-29.5,19.2c-11.2,0.3-20.4-13.5-25.8-21.5c-6.3-9.3-11-19.7-17.7-28.7 c-4.6-6.3-10.7-10.2-18.4-6.9c-1.8,0.8-3.2,2.2-4.6,3.5c-1,0.9-8,7.7-8.8,5.5c-2-6.1-4.2-12-7.3-17.6 c-4.7-8.5-12.9-16.7-23.2-12.7c-0.8,0.3-1.5,0.7-2.2,1.1c-1.2,0.7-2-3.3-2.1-3.8c-0.9-3.1-1.9-6.2-2.9-9.2 c-1.9-5.9-4-11.7-6.7-17.3c-3.6-7.5-9.2-14.9-18.1-15.7c-7.5-0.7-13.1,6.3-17,11.7c-2.9,4-5.3,8.2-8,12.3c-1.3,2-2.6,4-4,5.9 c-1.5,2.1-1.9,2.3-3.1,0.1c-1.1-1.9-2.2-3.8-3.2-5.6c-4.1-7-9.3-17.3-18.3-18.5c-7.3-1-12.6,6.6-17.8,10.4 c-23.3,17.3-33.1-20.3-38-36.1c-2.8-9-5.7-18.2-10.3-26.5c-3-5.3-7.4-10.7-13.7-11.9c-10.8-2-19.4,12.2-24.6,19.4 c-8.7,12.1-21.8,34.6-39.8,26.2c-0.3-0.1-0.5,0.3-0.2,0.4c12.1,5.7,22.1-2.7,29.6-11.7c8.6-10.4,15.2-25.3,27.3-32.2 c17.4-10,26.9,22.1,30.3,32.9c2.8,8.9,5.2,18.1,8.9,26.7c3.1,7.1,8.5,16.6,17,17.7c9.1,1.2,15.9-5.9,22.1-11.4 c14.8-13,26.3,13.3,32,23c0.1,0.1,0.3,0.2,0.4,0c4.5-5.6,8.1-12,12-18c4.1-6.3,9.5-13.9,17.7-14.4c9.6-0.6,15.7,9.4,19.3,16.8 c4.6,9.4,7.3,19.7,10.3,29.6c0,0.1,0.2,0.2,0.4,0.1c18.9-11.7,29.1,16.2,33.6,29.7c0,0.1,0.2,0.2,0.4,0.1 c4.7-3.1,8.4-7.9,13.3-10.4c6.8-3.5,12.6,0.5,16.9,5.7c7.4,8.9,12.1,20.1,18.5,29.7c5.2,7.8,11.5,16.3,20.2,20.4 c8.3,3.9,16.7-1.3,22.7-6.8c4.3-3.9,7.9-8.3,13.1-11c7.5-4,14.9,0.3,19.3,6.5c5.1,7.1,7.8,15.9,10.8,23.9 c7.1,19.1,14.8,39,31.1,52.1c12.7,10.2,23.2,24.4,25.7,40.9C634,432.2,634.5,432,634.5,431.7L634.5,431.7z"/></g></g><g><path class="st6" d="M265.8,166.9c0,1.6-1.1,2.2-2.4,1.5c-1.3-0.7-2.4-2.6-2.4-4.2c0-1.6,1.1-2.2,2.4-1.5 C264.7,163.5,265.8,165.3,265.8,166.9z"/><path class="st6" d="M251.8,148.4c0,1.6-1.1,2.2-2.4,1.5c-1.3-0.7-2.4-2.6-2.4-4.2c0-1.6,1.1-2.2,2.4-1.5 C250.7,145,251.8,146.8,251.8,148.4z"/><path class="st6" d="M560.1,308.6c0,1.6-1.1,2.2-2.4,1.5c-1.3-0.7-2.4-2.6-2.4-4.2c0-1.6,1.1-2.2,2.4-1.5 C559.1,305.2,560.1,307.1,560.1,308.6z"/><path class="st6" d="M216.2,177.8c0,1.6-1.1,2.2-2.4,1.5c-1.3-0.7-2.4-2.6-2.4-4.2c0-1.6,1.1-2.2,2.4-1.5 C215.2,174.3,216.2,176.2,216.2,177.8z"/><path class="st6" d="M532.6,322.2c0,1.6-1.1,2.2-2.4,1.5c-1.3-0.7-2.4-2.6-2.4-4.2c0-1.6,1.1-2.2,2.4-1.5 C531.5,318.8,532.6,320.6,532.6,322.2z"/></g></g></g><g id="Layer_1"><g><path class="st7" d="M479.1,431.5c4.3,2.1,4.2,5.7-0.2,7.9L319.7,519c-4.4,2.2-11.4,2.2-15.7,0.1L86.8,410.7 c-4.3-2.1-4.2-5.7,0.2-7.9l159.1-79.6c4.4-2.2,11.4-2.2,15.7-0.1L479.1,431.5z"/><g><linearGradient id="SVGID_5_" gradientUnits="userSpaceOnUse" x1="292.865" y1="73.836" x2="477.774" y2="394.106"><stop offset=".558" stop-color="#C9E8FF"/><stop offset=".628" stop-color="#0092FF"/></linearGradient><path class="st8" d="M514.4,188.6L292.1,77.4c-0.8-0.4-1.7-0.5-2.4-0.3l-3.8,0.8c0,0-1.8,1.3,0.5,2.8c0.3,0.2,0.6,0.4,0.9,0.5 l-32.1,195.3c-0.4,2.5,1.1,5.5,3.2,6.6l222.4,107.4c2.2,1.1,4.3-0.1,4.7-2.6l32.1-192.7C518.1,192.6,516.6,189.7,514.4,188.6z"/><path class="st9" d="M481.5,392.5c-0.4,2.5-2.5,3.7-4.7,2.6L254.5,283.9c-2.2-1.1-3.6-4.1-3.2-6.6l32.3-196.5 c0.4-2.5,2.5-3.7,4.7-2.6l222.3,111.2c2.2,1.1,3.6,4.1,3.2,6.6L481.5,392.5z"/><polygon class="st10" points="475.6,379.3 260.2,270.8 288.9,96.7 504.3,205.2"/><polygon class="st11" points="475.9,376.9 262.6,269.5 291.2,97.9 504.5,205.4"/><path class="st10" d="M401.1,144.3c-0.2,1.4-1.4,2.1-2.6,1.6c-1.3-0.5-2.1-2-1.9-3.4c0.2-1.4,1.4-2.1,2.6-1.6 C400.4,141.4,401.3,143,401.1,144.3z"/></g><linearGradient id="SVGID_6_" gradientUnits="userSpaceOnUse" x1="83.647" y1="379.408" x2="482.202" y2="379.408"><stop offset=".16" stop-color="#AEDCFF"/><stop offset=".558" stop-color="#84CAFF"/><stop offset=".575" stop-color="#0092FF"/></linearGradient><path class="st12" d="M482.2,393.5v-6l-12.6-2.4L261.9,281.4c-4.3-2.1-11.3-2.1-15.7,0.1l-150,75.1l-12.5,2.3v6.2h0 c0,1.4,1,2.8,3.2,3.8L304,477.4c4.3,2.1,11.3,2.1,15.7-0.1l159.1-79.6C481.2,396.5,482.3,395,482.2,393.5z"/><path class="st13" d="M479.1,383.3c4.3,2.1,4.2,5.7-0.2,7.9l-159.1,79.6c-4.4,2.2-11.4,2.2-15.7,0.1L86.8,362.5 c-4.3-2.1-4.2-5.7,0.2-7.9L246.1,275c4.4-2.2,11.4-2.2,15.7-0.1L479.1,383.3z"/><path class="st7" d="M278.7,403.8c1.1,0.5,1.1,1.4-0.1,2l-40.7,20.4c-1.1,0.6-2.9,0.6-4,0l-55.6-27.7c-1.1-0.5-1.1-1.4,0.1-2 l40.7-20.4c1.1-0.6,2.9-0.6,4,0L278.7,403.8z"/><polygon class="st7" points="235.1,280.5 142.7,326.7 375.4,442.9 467.8,396.7"/><g><path class="st14" d="M349.1,172.4c-0.2,1.1-1.2,1.6-2.2,1l-42.2-20.9c-1.1-0.5-1.8-1.8-1.6-2.9l0,0c0.2-1.1,1.2-1.6,2.2-1 l42.2,20.9C348.6,170,349.3,171.3,349.1,172.4L349.1,172.4z"/><path class="st14" d="M331.7,278.8c-0.2,1.1-1.2,1.6-2.2,1L287.2,259c-1.1-0.5-1.8-1.8-1.6-2.9l0,0c0.2-1.1,1.2-1.6,2.2-1 l42.2,20.9C331.1,276.4,331.8,277.7,331.7,278.8L331.7,278.8z"/><path class="st14" d="M335.8,152.9c-0.2,1.1-1.2,1.6-2.2,1l-26.9-13.3c-1.1-0.5-1.8-1.8-1.6-2.9l0,0c0.2-1.1,1.2-1.6,2.2-1 l26.9,13.3C335.2,150.5,335.9,151.8,335.8,152.9L335.8,152.9z"/><path class="st14" d="M366.4,168.1c-0.2,1.1-1.2,1.6-2.2,1l-19.2-9.5c-1.1-0.5-1.8-1.8-1.6-2.9l0,0c0.2-1.1,1.2-1.6,2.2-1 l19.2,9.5C365.9,165.7,366.6,167,366.4,168.1L366.4,168.1z"/><path class="st14" d="M323.8,237.4c-0.2,1.1-1.2,1.6-2.2,1l-13.4-6.6c-1.1-0.5-1.8-1.8-1.6-2.9l0,0c0.2-1.1,1.2-1.6,2.2-1 l13.4,6.6C323.3,235,324,236.3,323.8,237.4L323.8,237.4z"/><path class="st14" d="M360.3,255.4c-0.2,1.1-1.2,1.6-2.2,1l-24.9-12.3c-1.1-0.5-1.8-1.8-1.6-2.9l0,0c0.2-1.1,1.2-1.6,2.2-1 l24.9,12.3C359.7,253,360.5,254.3,360.3,255.4L360.3,255.4z"/><path class="st14" d="M354.5,265.4c-0.2,1.1-1.2,1.6-2.2,1l-46-22.8c-1.1-0.5-1.8-1.8-1.6-2.9l0,0c0.2-1.1,1.2-1.6,2.2-1l46,22.8 C353.9,263,354.6,264.3,354.5,265.4L354.5,265.4z"/><path class="st14" d="M420.1,194.6c-0.2,1.1-1.2,1.6-2.2,1l-42.2-20.9c-1.1-0.5-1.8-1.8-1.6-2.9l0,0c0.2-1.1,1.2-1.6,2.2-1 l42.2,20.9C419.6,192.2,420.3,193.5,420.1,194.6L420.1,194.6z"/><path class="st14" d="M366.2,219.6c-0.2,1.1-1.2,1.6-2.2,1l-15.3-7.6c-1.1-0.5-1.8-1.8-1.6-2.9l0,0c0.2-1.1,1.2-1.6,2.2-1 l15.3,7.6C365.7,217.2,366.4,218.5,366.2,219.6L366.2,219.6z"/><path class="st14" d="M406.5,226.6c-0.2,1.1-1.2,1.6-2.2,1l-19.2-9.5c-1.1-0.5-1.8-1.8-1.6-2.9l0,0c0.2-1.1,1.2-1.6,2.2-1 l19.2,9.5C406,224.2,406.7,225.6,406.5,226.6L406.5,226.6z"/><path class="st14" d="M385.6,190.5c-0.2,1.1-1.2,1.6-2.2,1l-24.9-12.3c-1.1-0.5-1.8-1.8-1.6-2.9l0,0c0.2-1.1,1.2-1.6,2.2-1 l24.9,12.3C385,188,385.7,189.4,385.6,190.5L385.6,190.5z"/><path class="st15" d="M331.8,176.8c-0.2,1.1-1.2,1.6-2.2,1l-19.2-9.5c-1.1-0.5-1.8-1.8-1.6-2.9l0,0c0.2-1.1,1.2-1.6,2.2-1 l19.2,9.5C331.3,174.4,332,175.7,331.8,176.8L331.8,176.8z"/><path class="st14" d="M375.9,211.5c-0.2,1.1-1.2,1.6-2.2,1l-57.5-28.5c-1.1-0.5-1.8-1.8-1.6-2.9l0,0c0.2-1.1,1.2-1.6,2.2-1 l57.5,28.5C375.3,209.1,376,210.4,375.9,211.5L375.9,211.5z"/><path class="st14" d="M339.4,206.3c-0.2,1.1-1.2,1.6-2.2,1l-23-11.4c-1.1-0.5-1.8-1.8-1.6-2.9l0,0c0.2-1.1,1.2-1.6,2.2-1l23,11.4 C338.8,203.9,339.5,205.2,339.4,206.3L339.4,206.3z"/><path class="st14" d="M416.1,244.3c-0.2,1.1-1.2,1.6-2.2,1l-38.4-19c-1.1-0.5-1.8-1.8-1.6-2.9l0,0c0.2-1.1,1.2-1.6,2.2-1l38.4,19 C415.5,241.9,416.3,243.2,416.1,244.3L416.1,244.3z"/><path class="st14" d="M425.5,287.7c-0.2,1.1-1.2,1.6-2.2,1l-53.7-26.6c-1.1-0.5-1.8-1.8-1.6-2.9l0,0c0.2-1.1,1.2-1.6,2.2-1 l53.7,26.6C425,285.2,425.7,286.6,425.5,287.7L425.5,287.7z"/><path class="st14" d="M448.7,247.5c-0.2,1.1-1.2,1.6-2.2,1l-30.7-15.2c-1.1-0.5-1.8-1.8-1.6-2.9l0,0c0.2-1.1,1.2-1.6,2.2-1 l30.7,15.2C448.2,245.1,448.9,246.4,448.7,247.5L448.7,247.5z"/><path class="st15" d="M325.9,212.6c-0.2,1.1-1.2,1.6-2.2,1l-19.2-9.5c-1.1-0.5-1.8-1.8-1.6-2.9l0,0c0.2-1.1,1.2-1.6,2.2-1 l19.2,9.5C325.3,210.2,326,211.5,325.9,212.6L325.9,212.6z"/><path class="st16" d="M316.2,220.7c-0.2,1.1-1.2,1.6-2.2,1l-11.5-5.7c-1.1-0.5-1.8-1.8-1.6-2.9l0,0c0.2-1.1,1.2-1.6,2.2-1 l11.5,5.7C315.7,218.3,316.4,219.6,316.2,220.7L316.2,220.7z"/><path class="st16" d="M310.3,256.5c-0.2,1.1-1.2,1.6-2.2,1l-11.5-5.7c-1.1-0.5-1.8-1.8-1.6-2.9l0,0c0.2-1.1,1.2-1.6,2.2-1 l11.5,5.7C309.8,254.1,310.5,255.4,310.3,256.5L310.3,256.5z"/></g><g class="st17"><path class="st14" d="M368.5,182c-0.2,1.1-1.2,1.6-2.2,1l-42.2-20.9c-1.1-0.5-1.8-1.8-1.6-2.9l0,0c0.2-1.1,1.2-1.6,2.2-1 l42.2,20.9C368,179.6,368.7,180.9,368.5,182L368.5,182z"/><path class="st14" d="M351,288.4c-0.2,1.1-1.2,1.6-2.2,1l-42.2-20.9c-1.1-0.5-1.8-1.8-1.6-2.9l0,0c0.2-1.1,1.2-1.6,2.2-1 l42.2,20.9C350.5,286,351.2,287.3,351,288.4L351,288.4z"/><path class="st14" d="M355.1,162.5c-0.2,1.1-1.2,1.6-2.2,1L326,150.3c-1.1-0.5-1.8-1.8-1.6-2.9l0,0c0.2-1.1,1.2-1.6,2.2-1 l26.9,13.3C354.6,160.1,355.3,161.4,355.1,162.5L355.1,162.5z"/><path class="st14" d="M385.8,177.7c-0.2,1.1-1.2,1.6-2.2,1l-19.2-9.5c-1.1-0.5-1.8-1.8-1.6-2.9l0,0c0.2-1.1,1.2-1.6,2.2-1 l19.2,9.5C385.3,175.3,386,176.6,385.8,177.7L385.8,177.7z"/><path class="st14" d="M343.2,247c-0.2,1.1-1.2,1.6-2.2,1l-13.4-6.6c-1.1-0.5-1.8-1.8-1.6-2.9l0,0c0.2-1.1,1.2-1.6,2.2-1l13.4,6.6 C342.7,244.6,343.4,245.9,343.2,247L343.2,247z"/><path class="st14" d="M379.6,265c-0.2,1.1-1.2,1.6-2.2,1l-24.9-12.3c-1.1-0.5-1.8-1.8-1.6-2.9l0,0c0.2-1.1,1.2-1.6,2.2-1 l24.9,12.3C379.1,262.6,379.8,263.9,379.6,265L379.6,265z"/><path class="st14" d="M373.8,275.1c-0.2,1.1-1.2,1.6-2.2,1l-46-22.8c-1.1-0.5-1.8-1.8-1.6-2.9l0,0c0.2-1.1,1.2-1.6,2.2-1l46,22.8 C373.3,272.6,374,274,373.8,275.1L373.8,275.1z"/><path class="st14" d="M439.5,204.3c-0.2,1.1-1.2,1.6-2.2,1l-42.2-20.9c-1.1-0.5-1.8-1.8-1.6-2.9l0,0c0.2-1.1,1.2-1.6,2.2-1 l42.2,20.9C439,201.8,439.7,203.2,439.5,204.3L439.5,204.3z"/><path class="st14" d="M385.6,229.2c-0.2,1.1-1.2,1.6-2.2,1l-15.3-7.6c-1.1-0.5-1.8-1.8-1.6-2.9l0,0c0.2-1.1,1.2-1.6,2.2-1 l15.3,7.6C385.1,226.8,385.8,228.1,385.6,229.2L385.6,229.2z"/><path class="st14" d="M425.9,236.3c-0.2,1.1-1.2,1.6-2.2,1l-19.2-9.5c-1.1-0.5-1.8-1.8-1.6-2.9l0,0c0.2-1.1,1.2-1.6,2.2-1 l19.2,9.5C425.4,233.8,426.1,235.2,425.9,236.3L425.9,236.3z"/><path class="st14" d="M404.9,200.1c-0.2,1.1-1.2,1.6-2.2,1l-24.9-12.3c-1.1-0.5-1.8-1.8-1.6-2.9l0,0c0.2-1.1,1.2-1.6,2.2-1 l24.9,12.3C404.4,197.6,405.1,199,404.9,200.1L404.9,200.1z"/><path class="st15" d="M351.2,186.4c-0.2,1.1-1.2,1.6-2.2,1l-19.2-9.5c-1.1-0.5-1.8-1.8-1.6-2.9l0,0c0.2-1.1,1.2-1.6,2.2-1 l19.2,9.5C350.6,184,351.4,185.3,351.2,186.4L351.2,186.4z"/><path class="st14" d="M395.2,221.1c-0.2,1.1-1.2,1.6-2.2,1l-57.5-28.5c-1.1-0.5-1.8-1.8-1.6-2.9l0,0c0.2-1.1,1.2-1.6,2.2-1 l57.5,28.5C394.7,218.7,395.4,220,395.2,221.1L395.2,221.1z"/><path class="st14" d="M358.7,215.9c-0.2,1.1-1.2,1.6-2.2,1l-23-11.4c-1.1-0.5-1.8-1.8-1.6-2.9l0,0c0.2-1.1,1.2-1.6,2.2-1l23,11.4 C358.2,213.5,358.9,214.8,358.7,215.9L358.7,215.9z"/><path class="st14" d="M435.4,253.9c-0.2,1.1-1.2,1.6-2.2,1l-38.4-19c-1.1-0.5-1.8-1.8-1.6-2.9l0,0c0.2-1.1,1.2-1.6,2.2-1l38.4,19 C434.9,251.5,435.6,252.8,435.4,253.9L435.4,253.9z"/><path class="st14" d="M444.9,297.3c-0.2,1.1-1.2,1.6-2.2,1l-53.7-26.6c-1.1-0.5-1.8-1.8-1.6-2.9l0,0c0.2-1.1,1.2-1.6,2.2-1 l53.7,26.6C444.3,294.9,445,296.2,444.9,297.3L444.9,297.3z"/><path class="st14" d="M468.1,257.1c-0.2,1.1-1.2,1.6-2.2,1L435.2,243c-1.1-0.5-1.8-1.8-1.6-2.9l0,0c0.2-1.1,1.2-1.6,2.2-1 l30.7,15.2C467.6,254.7,468.3,256,468.1,257.1L468.1,257.1z"/><path class="st15" d="M345.2,222.2c-0.2,1.1-1.2,1.6-2.2,1l-19.2-9.5c-1.1-0.5-1.8-1.8-1.6-2.9l0,0c0.2-1.1,1.2-1.6,2.2-1 l19.2,9.5C344.7,219.8,345.4,221.1,345.2,222.2L345.2,222.2z"/><path class="st16" d="M335.6,230.3c-0.2,1.1-1.2,1.6-2.2,1l-11.5-5.7c-1.1-0.5-1.8-1.8-1.6-2.9l0,0c0.2-1.1,1.2-1.6,2.2-1 l11.5,5.7C335.1,227.9,335.8,229.2,335.6,230.3L335.6,230.3z"/><path class="st16" d="M329.7,266.1c-0.2,1.1-1.2,1.6-2.2,1l-11.5-5.7c-1.1-0.5-1.8-1.8-1.6-2.9l0,0c0.2-1.1,1.2-1.6,2.2-1 l11.5,5.7C329.1,263.7,329.8,265,329.7,266.1L329.7,266.1z"/></g></g></g><g id="Layer_2"><g><g class="st0"><g><g id="screen_13_"><path class="st18" d="M163.8,283.6c0,1.7,1.3,3.6,3,4.4l71.6,34.5c1.6,0.8,3,0.1,3-1.5v-76.3c0-1.7-1.3-3.6-3-4.4l-71.6-34.5 c-1.6-0.8-3-0.1-3,1.5V283.6z"/></g></g></g><g id="african"><defs><path id="SVGID_7_" d="M186.4,284.1c0,1.7,1.3,3.6,3,4.4l71.6,34.5c1.6,0.8,3,0.1,3-1.5v-76.3c0-1.7-1.3-3.6-3-4.4l-71.6-34.5 c-1.6-0.8-3-0.1-3,1.5V284.1z"/></defs><clipPath id="SVGID_8_"><use xlink:href="#SVGID_7_" overflow="visible"/></clipPath><g class="st19"><path class="st10" d="M176.2,302.1l-2.4-9.5c0.2-2.3,1.7-16.2,17.7-18.2c3-0.4,10.8,1.4,20.1,6.2c6.2,3.2,11.8,11.7,13.9,17.5 c2.1,5.8,1.6,18.4,1.6,18.4c-2.4,4.8-4.9,0.9-8.7,3.6L176.2,302.1z"/><g><path class="st20" d="M190.5,255.8c0,0-2-3.2-3.3-0.8c-1.3,2.3-2.5,8.2,2.6,7.7c2.9-0.2,1.6-2.3,1.6-2.3L190.5,255.8z"/><path class="st21" d="M213.2,259c0,0,3.9-2.8,4.8-0.9c0.9,1.8,0.1,9.9-3.4,9.3c-3.5-0.6-2.7-3-2.7-3L213.2,259z"/></g><path class="st22" d="M189.5,263.6c-0.5-2.3-0.2-7.9-0.2-10.1c0-8.3,6.2-15.1,13.9-15.1c7.7,0,13.5,6.7,13.5,15.1 c0,4.2-1.1,5.4-3.4,11.4c-1.3,8-2.3,11.4-1.7,16.7c0.8,6.5-16.7,6.8-17.6,0.3c-0.2-1.4,0.8-7.3,0.8-7.3s0.3,0.2-1.9-1.7 C191,271.3,189.8,271.5,189.5,263.6z"/><path class="st20" d="M194.6,274.5c0,0,7.8,2.1,11-0.2c0,0-1,3.2-3.8,5.4c-2.7,2.1-7.8,2-7.8,2L194.6,274.5z"/></g><g class="st19"><path class="st20" d="M209.1,258.6c0,0-2-1.8-4.2-2.5l0.5-1.7c2.7,0.8,4.8,2.8,4.9,2.9L209.1,258.6z"/></g><g class="st19"><path class="st20" d="M193.3,257.5l-1.2-1.4c0.1-0.1,2.4-2.1,5.2-2.9l0.5,1.8C195.4,255.7,193.3,257.5,193.3,257.5z"/></g><circle class="st23" cx="207" cy="258" r="1.1"/><circle class="st23" cx="195.5" cy="256" r="1.1"/><path class="st24" d="M201.9,257.1c0,0,0.4,2.5,0.7,3.8c0.2,1.3,0.1,3-2.5,2.5c-2.7-0.4-3.7-1-2.2-3.4 C199.5,257.4,200.4,255.3,201.9,257.1z"/><g class="st19"><path class="st20" d="M200.7,267.9c-0.9,0-2-0.2-3.2-0.6l0.6-1.7c4,1.5,5.9-0.9,5.9-0.9l1.4,1.1 C205.4,265.9,203.8,267.9,200.7,267.9z"/></g><path class="st23" d="M215,258.1c0,0-2.3,10.4-3.1,12.4c-1.3,3.5-5.9,7.4-12.6,6.2c-6.7-1.2-7.8-3.5-9-6.1 c-1.2-2.5-1.2-10.7-1.2-10.7s0.5,8.3,3,10.8c2.1,2.1,4.4,2.4,5.1,2.1c1.5-0.6,1.5-4.1,1.5-4.1l1.5,0.3c0,0-0.2,3.3,0.6,4.1 c1,1,6.5,0.7,9.8-2.8C212.2,268.8,215,258.1,215,258.1z"/><g class="st19"><path class="st25" d="M209.1,253.2c-1-0.3-2-0.6-3-0.9c-1.4-0.4-2,1.8-0.6,2.1c1,0.3,2,0.6,3,0.9 C209.9,255.8,210.5,253.7,209.1,253.2L209.1,253.2z"/></g><g class="st19"><path class="st25" d="M197.6,251.2c-1,0-2.1,0-3.1,0.1c-1.4,0.1-1.4,2.3,0,2.2c1-0.1,2.1-0.1,3.1-0.1 C199.1,253.5,199.1,251.2,197.6,251.2L197.6,251.2z"/></g></g><path class="st10" d="M173.9,291.5c0.5-3.5,2.6-12.4,12.4-15.9c1.5-0.5,2,11.3,4,11.1c3-0.4,10.9,4.2,20.2,9 c2.7,1.4,6.4-11.3,8.6-8.6c2.9,3.6,5.3,7.8,6.4,11.1c2.1,5.8,1.6,18.4,1.6,18.4c-0.1,0.1-0.1,0.3-0.2,0.4"/></g><g><path id="screen" class="st26" d="M336.9,350.9c0,1.7,1.3,3.6,3,4.4l71.6,34.5c1.6,0.8,3,0.1,3-1.5V312c0-1.7-1.3-3.6-3-4.4 l-71.6-34.5c-1.6-0.8-3-0.1-3,1.5V350.9z"/><g id="asian"><defs><path id="SVGID_9_" d="M341,355.9l74.3,35.7c1.5,0.8-9-79.2-10.5-80l-60.1-28.3C343,282.5,339.4,355.1,341,355.9z"/></defs><clipPath id="SVGID_10_"><use xlink:href="#SVGID_9_" overflow="visible"/></clipPath><g class="st27"><path class="st28" d="M381,310.7l0.4,45.7c0,0-34.1,7.2-28.4-0.9c2.8-4,2.3-22.9,2.7-31.1c0.3-6.9,2.2-12.1,2.2-12.1"/><g><g><path class="st11" d="M369.6,345.8c-1.2-0.1-10.6-0.9-14.7,1.5c-4.1,2.4-8.8,15.2-10.3,23.2c-0.3,1.6-5,2.9-5,3.4 c1.2,8.7,64.7,33.2,65,25.7c0.3-7.8-0.1-23.7-8.2-37.4C390.9,352.9,374.2,345.9,369.6,345.8z"/><path class="st29" d="M366,354.3c1.5-3.6,1.1-9.7,1.1-9.7s-8.3-1.3-10-9.9c-0.9-4.4-0.2-9.6,0.6-13.7 c2.5-12.4,10.3-12.8,10.3-12.8l12,5c0,0,5.6,33.4,2.7,39.2C375.1,367.5,364.1,359.1,366,354.3z"/></g><path class="st28" d="M359.6,313.7l-0.6,4.5c0.8,0.4,3.1,1.5,4.6,2c0.1,0,1.5-5.3,1.5-5c0,0.7-0.6,5.2-0.4,5.4 c0.6,0.6,2.7,1.5,2.7,1.2c0.1-0.3,1.2-4.5,1-4.3c-0.1,0.1,0,4.4,0.4,4.7c1.2,0.9,5,1.4,5.2,1.5c5.2,0.7,4.3,7.5,4.3,8.2 c0,0.9-0.8,13.3-1.1,19c-0.3,5.7-1.3,11.6,1.5,15c3.4,4.1,6.3,0.2,9.9-4.5c3.6-4.7,7.5,0.7,7.5,0.7s-3.8-5-4.4-11.9 c-0.6-7.1,0.1-8,0.1-14.2c0-4.5,1.5-15.5-4.3-24.3c-5.9-9-17.4-11.5-24.8-7.2c-4.9,2.8-5.6,9-9,10.6c-0.1,0,3.8,2.7,3.8,2.4 C358.1,315.2,359.6,313.7,359.6,313.7z"/></g><path class="st30" d="M364.1,326.7c0,0-2.3,2.6-3,4.5c-0.7,1.7,2.7,2.2,3.3,1.7C365,332.4,364.1,326.7,364.1,326.7z"/><path class="st30" d="M374.8,343.6c0,0-5.3,1.8-7.6,1c0,0,0.2,5.5-0.3,7.5C366.2,354.1,373.9,348.7,374.8,343.6z"/><g><path class="st31" d="M367.4,335.8c-1.5,2.9-4.4,2.5-6.1,0.4c-0.4-0.4,0.2-1,0.6-0.6c1.4,1.1,3.7,1,4.9-0.4 C367.2,334.7,367.8,335.3,367.4,335.8L367.4,335.8z"/></g><g><path class="st25" d="M368.5,327.3c-0.1-0.2-0.4-0.4-0.5-0.4c-0.5,0-0.9,0.5-0.9,1.2c0,0.7,0.4,1.2,0.9,1.2 c0.3,0,0.7-0.2,0.8-0.6C368.8,328.3,368.9,327.7,368.5,327.3z"/><path class="st25" d="M360.5,325.2c-0.1,0.6,0.4,1,0.9,1c0.5,0,0.9-0.5,0.9-1.2c0-0.3-0.1-0.5-0.2-0.7l0,0c0,0,0,0-0.1-0.1 c-0.1-0.1-0.4-0.3-0.5-0.3C361,324.1,360.6,324.5,360.5,325.2z"/></g></g></g></g><g><path id="screen_2_" class="st32" d="M271.6,195.1c0,1.7,1.3,3.6,3,4.4l71.6,34.5c1.6,0.8,3,0.1,3-1.5v-76.3c0-1.7-1.3-3.6-3-4.4 l-71.6-34.5c-1.6-0.8-3-0.1-3,1.5V195.1z"/><g id="european"><defs><path id="SVGID_11_" d="M280.4,202.4l60.3,29c1.5,0.8,3-76.6,1.5-77.4l-65.4-28.3C275.2,125,278.8,201.7,280.4,202.4z"/></defs><clipPath id="SVGID_12_"><use xlink:href="#SVGID_11_" overflow="visible"/></clipPath><g class="st33"><g><path class="st18" d="M282,223.3c0.4-7.3,0.3-18.2,0.4-18.6c2.3-7.7,4.1-12.4,7.8-13.8c6-2.3,16-8.1,26,0.5 c2.9,2.5,11.3,11.3,13.2,16.5c3.5,9.4,3.7,13.8,4.6,26.4C335,246.4,281.6,230.6,282,223.3z"/><path class="st34" d="M316.8,244.3"/><path class="st35" d="M297,194c-0.3,3.3,3.7,7.6,10.1,4.4c4.4-2.3,6-8.2,6-8.2l-0.1-15.7H297C297,174.6,297.2,191.3,297,194z"/><path class="st36" d="M297,194c0.1,1.7,2.8,4.4,7.5,0.6c6.1-4.8,5.3-14.2,5.3-14.2l-12.8-5.8C297,174.6,296.9,192.3,297,194z"/><path class="st35" d="M288.8,167.7c0,13.1,1.8,21.9,10.9,21.9c4.9,0,7.7-2.2,11.9-6.5c0.7-0.7,3.6-4.6,5.4-5.6 c3.7-1.9,3.1-8.4,3.1-12.1c0-9.8-5.9-15.5-14.9-15.5C296.2,150,288.8,157.9,288.8,167.7z"/><path class="st25" d="M312.6,177c0,0-1.8,3.1-2-1c0-0.4-0.7-0.6-1.1-0.9c-2.5-2.2-5.1-5.7-1.9-9c-2.1,0-6.2,0.4-10.4-1.5 c-4.2-1.9-5.2-4.7-7.5-2c-0.7,0.8-0.7,2.3-0.7,2.3s-9.4-8-3.5-9.9c2.9-1.3,5.5-1,5.5-1s12.2-14.6,25.9-4.4 c2.6,1,6.7,3.3,5.6,13.1c-0.8,7.9-1.6,10.6-3.4,13.4c-1.8,2.8-5.6,4.7-4.4,3.6c3.9-3.7,4.5-10.6,2.2-10 C313.3,170.5,312.6,177,312.6,177z"/><g><path class="st37" d="M299.4,189.6c5.3,0,7.5-2.8,7.6-2.9l-0.3-0.2c0,0-2.7,3.3-8.8,2.7l0,0.4 C298.4,189.6,298.9,189.6,299.4,189.6z"/></g><path class="st25" d="M288.1,177.5c0,0,2.4-0.9,3.2-0.9c0.8,0,3,1.4,5.1,1.1c2.2-0.3,7.1,5.8,7.1,5.8s-5.2,0.3-6.5-0.5 c-1.3-0.8-3.3-0.9-6.6-1.6C286.9,180.6,288.1,177.5,288.1,177.5z"/><path class="st25" d="M309.5,175c0,0,0.3,3.8-3.1,5.4c-3.4,1.5-7.3,1.5-7.3,1.5l-9.9-1c0,0-0.4,1.7-0.1,5 c0.3,3.3,3.5,5.4,5.1,5.5c3.4,0.2,13.8-1.1,16.4-7.9c2.3-6,2.3-8.3,2.3-8.3"/><path class="st36" d="M293.6,169.4l-3.6,7.1c0,0,2.9,1.6,4.5,1.1C296.1,177.1,294.5,167.1,293.6,169.4z"/><g><g><path class="st38" d="M291.3,181.9c0.5,0.3,1.1,0.5,1.6,0.6c0.6,0.1,1.2,0.1,1.8,0.1c0.9,0,0.9-1.3,0-1.3 c-1.1,0-1.8-0.1-2.8-0.6C291.2,180.4,290.5,181.5,291.3,181.9L291.3,181.9z"/></g></g></g><g><path class="st25" d="M296,169.5c2.2,0.2,4.2,0.9,5.9,2.4c0.4,0.4,1.1-0.3,0.6-0.6c-1.9-1.7-4-2.5-6.5-2.7 C295.5,168.6,295.5,169.5,296,169.5L296,169.5z"/></g><g><path class="st25" d="M288.9,167.4c1.2-0.1,2.3,0.2,3.3,0.9c0.5,0.3,0.9-0.4,0.5-0.8c-1.1-0.8-2.4-1.1-3.8-1 C288.3,166.6,288.3,167.5,288.9,167.4L288.9,167.4z"/></g></g><ellipse class="st39" cx="298" cy="172.5" rx=".8" ry="1.1"/><ellipse class="st39" cx="291.2" cy="170" rx=".8" ry="1.1"/></g></g></g></svg>