<?xml version="1.0" encoding="UTF-8"?>
<svg width="32px" height="32px" viewBox="0 0 32 32" version="1.1" xmlns="http://www.w3.org/2000/svg" xmlns:xlink="http://www.w3.org/1999/xlink">
    <!-- Generator: Sketch 47.1 (45422) - http://www.bohemiancoding.com/sketch -->
    <title>Bank</title>
    <desc>Created with Sketch.</desc>
    <defs>
        <circle id="path-1" cx="16" cy="16" r="16"></circle>
        <path d="M3,11 L3,7 L2,7 C1.02716112,7 0.627130251,5.75171764 1.41876181,5.18626653 L8.41876181,0.186266529 C8.76645933,-0.0620888429 9.23354067,-0.0620888429 9.58123819,0.186266529 L16.5812382,5.18626653 C17.3728697,5.75171764 16.9728389,7 16,7 L15,7 L15,11 C15.4304304,11 15.8125693,11.2754301 15.9486833,11.6837722 L16.9486833,14.6837722 C17.164527,15.3313033 16.6825577,16 16,16 L2,16 C1.31744227,16 0.835472997,15.3313033 1.0513167,14.6837722 L2.0513167,11.6837722 C2.18743075,11.2754301 2.56956959,11 3,11 Z M5,11 L8,11 L8,7 L5,7 L5,11 Z M10,11 L13,11 L13,7 L10,7 L10,11 Z M5.12046505,5 L12.8795349,5 L9,2.22890361 L5.12046505,5 Z M3.38742589,14 L14.6125741,14 L14.2792408,13 L3.72075922,13 L3.38742589,14 Z" id="path-2"></path>
    </defs>
    <g id="Developer-Template" stroke="none" stroke-width="1" fill="none" fill-rule="evenodd">
        <g transform="translate(-824.000000, -1432.000000)" id="Focus-on-your-users">
            <g transform="translate(177.000000, 1176.000000)">
                <g id="Card-Label-Copy" transform="translate(647.000000, 66.000000)">
                    <g id="Points" transform="translate(0.000000, 113.000000)">
                        <g id="No-hidden-fees" transform="translate(0.000000, 68.000000)">
                            <g id="Bank" transform="translate(0.000000, 9.000000)">
                                <g id="Oval-5-Copy">
                                    <use fill="#FFFFFF" xlink:href="#path-1"></use>
                                    <use fill-opacity="0.1" fill="#00C759" xlink:href="#path-1"></use>
                                </g>
                                <g id="Icon/Bank/16x16" transform="translate(8.000000, 8.000000)">
                                    <g id="Bank/16/2px-stroke" transform="translate(-1.000000, 0.000000)">
                                        <rect id="Rectangle-26" x="1" y="0" width="16" height="16"></rect>
                                        <g id="🎨-Mixin/Dark-Blue/16">
                                            <mask id="mask-3" fill="white">
                                                <use xlink:href="#path-2"></use>
                                            </mask>
                                            <g id="Mask" fill-rule="nonzero"></g>
                                            <g id="🎨-Mixin/Green" mask="url(#mask-3)" fill="#00C759">
                                                <g transform="translate(1.000000, 0.000000)" id="Green-Mixin/16">
                                                    <rect x="0" y="0" width="16" height="16"></rect>
                                                </g>
                                            </g>
                                        </g>
                                    </g>
                                </g>
                            </g>
                        </g>
                    </g>
                </g>
            </g>
        </g>
    </g>
</svg>