<?xml version="1.0" encoding="UTF-8"?>
<svg width="56px" height="56px" viewBox="0 0 56 56" version="1.1" xmlns="http://www.w3.org/2000/svg" xmlns:xlink="http://www.w3.org/1999/xlink">
    <!-- Generator: Sketch 47.1 (45422) - http://www.bohemiancoding.com/sketch -->
    <title>Direct to bank Copy</title>
    <desc>Created with Sketch.</desc>
    <defs>
        <linearGradient x1="50%" y1="0%" x2="50%" y2="100%" id="linearGradient-1">
            <stop stop-color="#FFAB00" offset="0%"></stop>
            <stop stop-color="#FF8D00" offset="100%"></stop>
        </linearGradient>
        <circle id="path-2" cx="28" cy="28" r="12"></circle>
    </defs>
    <g id="Developer-Template" stroke="none" stroke-width="1" fill="none" fill-rule="evenodd">
        <g transform="translate(-654.000000, -699.000000)" id="3-Points">
            <g transform="translate(320.000000, 699.000000)">
                <g id="Card-Label-Copy" transform="translate(334.000000, 0.000000)">
                    <g id="Direct-to-bank-Copy">
                        <path d="M28,56 C51.463973,56 56,51.463973 56,28 C56,4.53602701 51.463973,0 28,0 C4.53602701,2.87350794e-15 0,4.53602701 0,28 C1.43675397e-15,51.463973 4.53602701,56 28,56 Z" id="Oval-6-Copy" fill="url(#linearGradient-1)"></path>
                        <g id="Oval-3">
                            <use fill-opacity="0.600000024" fill="#FFFFFF" fill-rule="evenodd" xlink:href="#path-2"></use>
                            <circle stroke-opacity="0.2" stroke="#FFFFFF" stroke-width="3" cx="28" cy="28" r="13.5"></circle>
                            <circle stroke-opacity="0.1" stroke="#FFFFFF" stroke-width="6" cx="28" cy="28" r="15"></circle>
                        </g>
                        <path d="M30.5236757,30.3173066 C33.3646614,31.0448565 35.7812802,32.9738123 37.2985003,35.5859578 C35.0979735,38.2800266 31.7498474,40 28,40 C24.2501526,40 20.9020265,38.2800266 18.7014997,35.5859578 C20.2187198,32.9738123 22.6353386,31.0448565 25.4763243,30.3173066 C26.2170829,30.7512514 27.0794923,31 28,31 C28.9205077,31 29.7829171,30.7512514 30.5236757,30.3173066 Z" id="Combined-Shape" fill="#FFFFFF"></path>
                        <circle id="Oval-2" fill="#FFFFFF" cx="28" cy="25" r="4"></circle>
                    </g>
                </g>
            </g>
        </g>
    </g>
</svg>