<?xml version="1.0" encoding="UTF-8"?>
<svg width="56px" height="56px" viewBox="0 0 56 56" version="1.1" xmlns="http://www.w3.org/2000/svg" xmlns:xlink="http://www.w3.org/1999/xlink">
    <!-- Generator: Sketch 47.1 (45422) - http://www.bohemiancoding.com/sketch -->
    <title>Cheaper</title>
    <desc>Created with Sketch.</desc>
    <defs>
        <linearGradient x1="50%" y1="0%" x2="50%" y2="100%" id="linearGradient-1">
            <stop stop-color="#00C4FF" offset="0%"></stop>
            <stop stop-color="#0092FF" offset="100%"></stop>
        </linearGradient>
        <path d="M17.133688,33.5000021 C16.912643,33.117572 16.9657113,32.6200784 17.292893,32.292897 L23.2127177,26.3730757 C24.1693285,25.4164654 25.6478473,25.2184651 26.8224518,25.8896673 L31.0610203,28.311705 C31.4774805,28.5496821 32.0042572,28.4584372 32.3164148,28.0942536 L37.2407267,22.3492263 C37.6001486,21.929901 38.231448,21.8813395 38.6507735,22.2407612 C38.8831717,22.4399595 39.0016865,22.7226674 38.9999819,23.0065173 L38.9999819,23.9944394 C39.0013768,24.2267371 38.9222873,24.4605826 38.7592387,24.6508058 L33.8349268,30.3958331 C32.898454,31.488384 31.3181237,31.7621188 30.0687432,31.0481875 L25.8301748,28.6261497 C25.4386399,28.4024157 24.9458003,28.4684158 24.6269301,28.7872859 L18.7071054,34.7071072 C18.3165814,35.0976309 17.6834169,35.0976309 17.292893,34.7071072 C17.0976306,34.511845 16.9999996,34.2559224 17,34 L17,33 L17.5857887,33 L17.292893,33.2928956 C17.2295506,33.3562379 17.1764823,33.4259637 17.133688,33.5000021 Z" id="path-2"></path>
    </defs>
    <g id="Developer-Template" stroke="none" stroke-width="1" fill="none" fill-rule="evenodd">
        <g transform="translate(-987.000000, -699.000000)" id="3-Points">
            <g transform="translate(320.000000, 699.000000)">
                <g id="Card-Label-Copy-2" transform="translate(667.000000, 0.000000)">
                    <g id="Cheaper">
                        <path d="M28,56 C51.463973,56 56,51.463973 56,28 C56,4.53602701 51.463973,0 28,0 C4.53602701,2.87350794e-15 0,4.53602701 0,28 C1.43675397e-15,51.463973 4.53602701,56 28,56 Z" id="Oval-6-Copy-2" fill="url(#linearGradient-1)"></path>
                        <g id="Combined-Shape" stroke-linejoin="round" fill-rule="nonzero">
                            <use fill="#FFFFFF" fill-rule="evenodd" xlink:href="#path-2"></use>
                            <path stroke-opacity="0.3" stroke="#FFFFFF" stroke-width="3" d="M37.499982,23.9891816 C37.499971,23.9909363 37.4999709,23.992689 37.4999819,23.9944394 L37.499982,23.9891811 Z M37.4999867,23.8150469 L37.620354,23.6746184 C37.5431157,23.7647298 37.5006625,23.8809013 37.499982,23.9891816 L37.4999867,23.8150469 Z M17.133688,33.5000021 L15.835016,32.7493683 C15.9437486,32.56125 16.0770149,32.3874532 16.2322331,32.2322351 L16.5251289,31.9393395 L17.5857887,33 L17.5857887,34.5 L17,34.5 L17,33 L18.4998864,33 L18.5,34.0000021 C18.5000002,33.8696251 18.4476595,33.7405533 18.3535528,33.6464467 C18.1582904,33.4511844 17.8417079,33.4511844 17.6464455,33.6464467 L23.5662702,27.7266254 C24.3634463,26.9294498 25.5955455,26.7644495 26.5743829,27.3237849 L30.8129513,29.7458226 C31.4376413,30.1027881 32.2278062,29.9659207 32.6960421,29.4196457 L37.4999867,23.8150469 L37.5000088,23.0033328 C37.5008545,23.1455262 37.5638887,23.2847623 37.6745868,23.3796464 C37.8842499,23.5593575 38.1999,23.5350768 38.3796113,23.3254137 L33.4552994,29.0704409 C32.6749051,29.9809004 31.3579629,30.2090128 30.3168122,29.6140699 L26.0782438,27.1920322 C25.4909418,26.8564312 24.7516826,26.9554313 24.2733775,27.4337362 L18.3535528,33.3535575 C18.4502682,33.2568421 18.5000273,33.1290443 18.4998864,33 C18.4998219,32.9409253 18.4893,32.8815893 18.4680381,32.8248546 C18.4583733,32.7990654 18.4464895,32.7738137 18.43236,32.7493683 L17.133688,33.5000021 Z M15.5,32.9777904 C15.5047986,32.4536037 15.6739436,31.9338417 15.9997662,31.5 C16.0700006,31.406481 16.1475151,31.3169544 16.2322331,31.2322365 L22.1520578,25.3124152 C23.5869744,23.8774994 25.8047529,23.5804989 27.5666599,24.5873024 L31.4464515,26.8043249 L36.1018421,21.3730389 C37.0003972,20.3247252 38.5786461,20.2033215 39.6269603,21.101876 C40.1916569,21.5859014 40.5043311,22.2868024 40.4999819,23.0065173 L40.4999548,23.9854323 C40.5035389,24.5822858 40.2942301,25.1648688 39.8981233,25.6269932 L34.9738114,31.3720205 C33.5691019,33.0108472 31.1986061,33.4214495 29.3245352,32.3505524 L25.4175471,30.117989 L19.7677652,35.7677677 C19.0749861,36.4605464 18.0767731,36.661737 17.2065913,36.3713392 C17.1436327,36.3503286 17.0813442,36.3267447 17.0198902,36.3005874 C16.733719,36.1787819 16.4656409,36.0011753 16.2322331,35.7677677 C15.7579464,35.2934812 15.4999991,34.6573848 15.5,34 L15.5,31.5 L21.2071105,31.5 L18.3535528,34.3535561 C18.3837886,34.3233204 18.4104313,34.2885747 18.43236,34.2506359 L17.133688,36.4974692 L15.835016,34.2506359 C15.6142032,33.8686075 15.5038616,33.4454891 15.5,33.0236946 C15.4998599,33.0083908 15.49986,32.9930887 15.5,32.9777904 Z"></path>
                            <path stroke-opacity="0.15" stroke="#FFFFFF" stroke-width="6" d="M35.9999831,23.9716683 C35.9999359,23.9792612 35.9999354,23.9868518 35.9999819,23.9944394 L35.9999831,23.9716683 Z M19.731032,31.9987346 L17.133688,33.5000021 L14.536344,31.9987346 C14.7104073,31.6975876 14.9236281,31.4195197 15.1715732,31.1715747 L15.464469,30.8786791 L17.5857887,33 L17.5857887,36 L17,36 L17,33 L19.9998823,33 L20,34.0000042 C20.0000001,33.9449048 19.9977083,33.8899446 19.9931672,33.8352638 C19.9837709,33.7221199 19.9647443,33.6101722 19.9364645,33.5006626 C19.8913289,33.3258815 19.8226224,33.1573109 19.7318782,33 C19.6455117,32.8502784 19.5391827,32.7107561 19.4142127,32.5857862 C19.3245254,32.496099 19.2284393,32.4167105 19.1274239,32.3476207 C18.4618429,31.8923943 17.5822643,31.8842739 16.9090487,32.3232595 C16.7946476,32.3978574 16.6862057,32.4853663 16.5857856,32.5857862 L22.5056103,26.6659649 C23.7810922,25.3904838 25.752451,25.1264834 27.318591,26.02142 L31.5571594,28.4434577 L36.4814694,22.698431 C36.2799395,22.9335492 36.1383935,23.2096377 36.063078,23.4978356 C36.0223302,23.6537588 36.0009688,23.8132266 35.9999831,23.9716683 L36.0000347,23.0121536 C36.000491,23.0895304 36.005464,23.1665556 36.0148229,23.2428517 C36.0253848,23.328956 36.0415326,23.4141316 36.063078,23.4978356 C36.1636416,23.8885253 36.3817961,24.2471569 36.6984001,24.5185315 C37.5370518,25.2373755 38.7996514,25.1402525 39.518496,24.301601 L34.5941841,30.0466283 C33.345553,31.5033637 31.2384453,31.8683435 29.5726041,30.9164348 L25.3340357,28.4943971 L19.4142127,34.4142179 C19.6744327,34.1539981 19.8496892,33.8372392 19.9364645,33.5006626 C19.9786462,33.3370519 19.9999201,33.1687584 19.9998823,33 C19.9998052,32.656295 19.9113263,32.3106618 19.731032,31.9987346 Z M14,32.9724038 C14.007247,31.9501677 14.4051897,30.9379591 15.1715732,30.171576 L21.0913979,24.2517547 C23.0046203,22.3385334 25.9616584,21.9425328 28.310868,23.2849375 L31.1143297,24.8869147 L34.9629575,20.3968515 C36.4006457,18.7195495 38.9258442,18.5253036 40.603147,19.9629908 C41.5062963,20.7371184 42.0069251,21.8593449 41.9999819,23.0065173 L41.9999278,23.9764251 C42.0056605,24.931092 41.6704132,25.8642082 41.0370079,26.6031806 L36.112696,32.3482078 C34.2397498,34.5333105 31.0790886,35.0807802 28.5803271,33.6529173 L25.6680793,31.9887767 L20.8284251,36.8284281 C20.0468081,37.6100447 19.0221971,38.0005685 17.9977631,37.9999994 C17.284427,37.9996031 16.5711766,37.8095798 15.9401119,37.4299293 C15.6662127,37.2651508 15.4077956,37.0646504 15.1715732,36.8284281 C14.4130898,36.0699452 13.9999985,35.0512646 14,34 L14,30 L15.3431494,30 L17,30 L24.8284324,30 L19.4142127,35.4142165 C19.5371754,35.2912539 19.6437727,35.1522371 19.731032,35.0012696 L17.133688,39.4949363 L14.536344,35.0012696 C14.1814263,34.3872262 14.004805,33.7070093 14,33.0292767 C13.9998656,33.0103166 13.9998656,32.9913585 14,32.9724038 Z"></path>
                        </g>
                    </g>
                </g>
            </g>
        </g>
    </g>
</svg>