<?xml version="1.0" encoding="UTF-8"?>
<svg width="32px" height="32px" viewBox="0 0 32 32" version="1.1" xmlns="http://www.w3.org/2000/svg" xmlns:xlink="http://www.w3.org/1999/xlink">
    <!-- Generator: Sketch 47.1 (45422) - http://www.bohemiancoding.com/sketch -->
    <title>Clock</title>
    <desc>Created with Sketch.</desc>
    <defs>
        <circle id="path-1" cx="16" cy="16" r="16"></circle>
        <path d="M9,7.58578644 L10.7071068,9.29289322 C11.0976311,9.68341751 11.0976311,10.3165825 10.7071068,10.7071068 C10.3165825,11.0976311 9.68341751,11.0976311 9.29289322,10.7071068 L7.29289322,8.70710678 C7.19526215,8.60947571 7.12203884,8.49667959 7.0732233,8.37630096 C7.0279822,8.26960678 7,8.13807119 7,8 L7,4 C7,3.44771525 7.44771525,3 8,3 C8.55228475,3 9,3.44771525 9,4 L9,7.58578644 Z M8,16 C3.581722,16 0,12.418278 0,8 C0,3.581722 3.581722,0 8,0 C12.418278,0 16,3.581722 16,8 C16,12.418278 12.418278,16 8,16 Z M8,14 C11.3137085,14 14,11.3137085 14,8 C14,4.6862915 11.3137085,2 8,2 C4.6862915,2 2,4.6862915 2,8 C2,11.3137085 4.6862915,14 8,14 Z" id="path-2"></path>
    </defs>
    <g id="Developer-Template" stroke="none" stroke-width="1" fill="none" fill-rule="evenodd">
        <g transform="translate(-824.000000, -1356.000000)" id="Focus-on-your-users">
            <g transform="translate(177.000000, 1176.000000)">
                <g id="Card-Label-Copy" transform="translate(647.000000, 66.000000)">
                    <g id="Points" transform="translate(0.000000, 113.000000)">
                        <g id="Same-Day">
                            <g id="Clock" transform="translate(0.000000, 1.000000)">
                                <g id="Oval-5">
                                    <use fill="#FFFFFF" xlink:href="#path-1"></use>
                                    <use fill-opacity="0.100000001" fill="#0055FF" xlink:href="#path-1"></use>
                                </g>
                                <g id="Icon/Clock/16x16" transform="translate(8.000000, 8.000000)">
                                    <g>
                                        <rect id="Rectangle-5" x="0" y="0" width="16" height="16"></rect>
                                        <g id="🎨-Mixin/Black">
                                            <mask id="mask-3" fill="white">
                                                <use xlink:href="#path-2"></use>
                                            </mask>
                                            <g id="Mask" fill-rule="nonzero"></g>
                                            <g id="🎨-Mixin/Dark-Blue" mask="url(#mask-3)" fill="#0055FF">
                                                <rect id="Dark-Blue-Mixin/16" x="0" y="0" width="16" height="16"></rect>
                                            </g>
                                        </g>
                                    </g>
                                </g>
                            </g>
                        </g>
                    </g>
                </g>
            </g>
        </g>
    </g>
</svg>