<?xml version="1.0" encoding="UTF-8"?>
<svg width="32px" height="23px" viewBox="0 0 32 23" version="1.1" xmlns="http://www.w3.org/2000/svg" xmlns:xlink="http://www.w3.org/1999/xlink">
    <!-- Generator: Sketch 46.2 (44496) - http://www.bohemiancoding.com/sketch -->
    <title>Credit/32/2px stroked</title>
    <desc>Created with Sketch.</desc>
    <defs></defs>
    <g id="Rates-Page" stroke="none" stroke-width="1" fill="none" fill-rule="evenodd">
        <g id="Rates-Desktop" transform="translate(-422.000000, -1865.000000)">
            <g id="Credit/32/2px-stroked" transform="translate(422.000000, 1860.000000)">
                <g id="Credit-32/2px-stroked">
                    <rect id="Rectangle-6" x="0" y="0" width="32" height="32"></rect>
                    <path d="M4.09895406,13 C4.0340607,13.3206166 4,13.6523598 4,13.9920263 L4,28 L26.9941611,28 C29.7559738,28 32,25.7649937 32,23.0079737 L32,9 L9.00583887,9 C6.58428322,9 4.56078993,10.7182219 4.09895406,13 L30,13 L30,17 L5,17 L4,18 L4,13 L4.09895406,13 Z" id="Combined-Shape" fill-opacity="0.3" fill="#94C5FF"></path>
                    <path d="M1,10.0061948 C1,7.7936345 2.79412025,6 4.99683887,6 L29,6 L29,20.9938052 C29,23.2063655 27.2058797,25 25.0031611,25 L1,25 L1,10.0061948 Z" id="Rectangle-7" stroke="#1A32AF" stroke-width="2" stroke-linecap="round" stroke-linejoin="round"></path>
                    <polyline id="Rectangle-8" stroke="#1A32AF" stroke-width="2" stroke-linecap="round" stroke-linejoin="round" points="1.5 10 29 10 29 14 1 14"></polyline>
                    <path d="M5,18 L14,18" id="Path-4" stroke="#1A32AF" stroke-width="2" stroke-linecap="round" stroke-linejoin="round"></path>
                    <path d="M5,21 L20,21" id="Path-4-Copy" stroke="#1A32AF" stroke-width="2" stroke-linecap="round" stroke-linejoin="round"></path>
                </g>
            </g>
        </g>
    </g>
</svg>