<?xml version="1.0" encoding="UTF-8"?>
<svg width="1440px" height="448px" viewBox="0 0 1440 448" version="1.1" xmlns="http://www.w3.org/2000/svg" xmlns:xlink="http://www.w3.org/1999/xlink">
    <!-- Generator: Sketch 46.1 (44463) - http://www.bohemiancoding.com/sketch -->
    <title>BottomCTABG</title>
    <desc>Created with Sketch.</desc>
    <defs>
        <linearGradient x1="-3.42245593%" y1="-5.9252361%" x2="128.018398%" y2="113.749734%" id="linearGradient-1">
            <stop stop-color="#0C55FB" offset="0%"></stop>
            <stop stop-color="#1290FC" offset="100%"></stop>
        </linearGradient>
        <rect id="path-2" x="0" y="0" width="1440" height="448"></rect>
    </defs>
    <g id="Areas-of-Operation" stroke="none" stroke-width="1" fill="none" fill-rule="evenodd">
        <g id="Areas-of-Operation-Country-Text-Hover" transform="translate(-80.000000, -2671.000000)">
            <g id="Bottom-CTA" transform="translate(80.000000, 2671.000000)">
                <g id="BottomCTABG">
                    <mask id="mask-3" fill="white">
                        <use xlink:href="#path-2"></use>
                    </mask>
                    <use id="Mask" fill="url(#linearGradient-1)" xlink:href="#path-2"></use>
                    <g id="Group-4" opacity="0.699999988" mask="url(#mask-3)">
                        <g transform="translate(-221.000000, -457.000000)">
                            <path d="M569.549331,316 L444.364416,620.856556 C427.027064,663.072582 385.809651,690.649776 340.047774,690.649776 L108,690.649776 L233.189035,385.797328 C250.526387,343.577194 291.743801,316 337.501557,316 L569.549331,316 Z" id="Base-Copy-3" fill="#94C5FF" opacity="0.0599999987"></path>
                            <path d="M1336.8318,0 L1058.53428,677.724014 C1019.99176,771.574102 928.361681,832.880727 826.628844,832.880727 L0,832.98428 L278.306677,155.269398 C316.849198,61.4101782 408.479279,0.103553014 510.202957,0.103553014 L1336.8318,0 Z" id="Base-Copy" fill="#94C5FF" opacity="0.100000001"></path>
                            <path d="M1914.10942,583.974046 L1759.31104,960.946809 C1737.8724,1013.14937 1686.90468,1047.25016 1630.31748,1047.25016 L584.570234,1047.23888 L739.373716,670.271198 C760.812355,618.063561 811.78007,583.962766 868.362182,583.962766 L1914.10942,583.974046 Z" id="Base-Copy-2" fill-opacity="0.400000006" fill="#1A32AF" opacity="0.300000012"></path>
                            <path d="M1962.49582,373.295213 L1859.34566,624.491621 C1845.05999,659.27688 1811.09757,682 1773.3906,682 L1294.15959,682 L1397.31314,430.806976 C1411.59881,396.018333 1445.56123,373.295213 1483.26481,373.295213 L1962.49582,373.295213 Z" id="Base-Copy-5" fill-opacity="0.400000006" fill="#0092FF" opacity="0.400000006"></path>
                            <path d="M1879.8102,814.789894 L1786.82177,1041.23996 C1773.94344,1072.59839 1743.32679,1093.08297 1709.33447,1093.08297 L369.789298,1093.08297 L462.780788,866.635948 C475.659123,835.27447 506.275772,814.789894 540.265026,814.789894 L1879.8102,814.789894 Z" id="Base-Copy-4" fill-opacity="0.200000018" fill="#0092FF" opacity="0.400000006"></path>
                        </g>
                    </g>
                </g>
            </g>
        </g>
    </g>
</svg>