<?xml version="1.0" encoding="UTF-8"?>
<svg width="23px" height="23px" viewBox="0 0 23 23" version="1.1" xmlns="http://www.w3.org/2000/svg" xmlns:xlink="http://www.w3.org/1999/xlink">
    <!-- Generator: Sketch 46.2 (44496) - http://www.bohemiancoding.com/sketch -->
    <title>Car/24/2px stroked</title>
    <desc>Created with Sketch.</desc>
    <defs></defs>
    <g id="About" stroke="none" stroke-width="1" fill="none" fill-rule="evenodd">
        <g id="About-Us-Photos-Copy" transform="translate(-320.000000, -4279.000000)">
            <g id="Perks" transform="translate(320.000000, 3993.000000)">
                <g id="Left" transform="translate(0.000000, 137.000000)">
                    <g id="3" transform="translate(0.000000, 144.000000)">
                        <g id="Car/24/2px-stroked" transform="translate(0.000000, 4.000000)">
                            <g>
                                <rect id="Rectangle-2" x="0" y="0" width="24" height="24"></rect>
                                <path d="M19,21 L8,21 L8,23.0001925 C8,23.5523709 7.55664682,24 6.9906311,24 L5.0093689,24 C4.45190985,24 4,23.5562834 4,23.0001925 L4,20.4999037 L4,12 L21.0025781,12 C22.1057238,12 23,12.8958578 23,13.9973917 L23,20.4999037 L23,23.0001925 C23,23.5523709 22.5566468,24 21.9906311,24 L20.0093689,24 C19.4519098,24 19,23.5562834 19,23.0001925 L19,21 Z M6,16 C7.1045695,16 8,15.1045695 8,14 C8,12.8954305 7.1045695,12 6,12 C4.8954305,12 4,12.8954305 4,14 C4,15.1045695 4.8954305,16 6,16 Z M17,16 C18.1045695,16 19,15.1045695 19,14 C19,12.8954305 18.1045695,12 17,12 C15.8954305,12 15,12.8954305 15,14 C15,15.1045695 15.8954305,16 17,16 Z" id="Combined-Shape" fill-opacity="0.5" fill="#94C5FF"></path>
                                <path d="M15,18 L6,18 L6,21.0001925 C6,21.5523709 5.55664682,22 4.9906311,22 L3.0093689,22 C2.45190985,22 2,21.5562834 2,21.0001925 L2,18 L1,18 L1,9 L20,9 L20,18 L19,18 L19,21.0001925 C19,21.5523709 18.5566468,22 17.9906311,22 L16.0093689,22 C15.4519098,22 15,21.5562834 15,21.0001925 L15,18 Z" id="Combined-Shape-Copy" stroke="#1A32AF" stroke-width="2" stroke-linecap="round" stroke-linejoin="round"></path>
                                <circle id="Oval-3" stroke="#1A32AF" stroke-width="2" cx="5" cy="13" r="1"></circle>
                                <circle id="Oval-3-Copy" stroke="#1A32AF" stroke-width="2" cx="16" cy="13" r="1"></circle>
                                <polygon id="Rectangle-4-Copy" stroke="#1A32AF" stroke-width="2" stroke-linecap="round" stroke-linejoin="round" points="4 2 17 2 20 9 1 9"></polygon>
                            </g>
                        </g>
                    </g>
                </g>
            </g>
        </g>
    </g>
</svg>