<?xml version="1.0" encoding="UTF-8"?>
<svg width="24px" height="24px" viewBox="0 0 24 24" version="1.1" xmlns="http://www.w3.org/2000/svg" xmlns:xlink="http://www.w3.org/1999/xlink">
    <!-- Generator: Sketch 46.2 (44496) - http://www.bohemiancoding.com/sketch -->
    <title>Coin/24/2px stroked</title>
    <desc>Created with Sketch.</desc>
    <defs></defs>
    <g id="About" stroke="none" stroke-width="1" fill="none" fill-rule="evenodd">
        <g id="About-Us-Photos-Copy" transform="translate(-800.000000, -4334.000000)">
            <g id="Perks" transform="translate(320.000000, 3993.000000)">
                <g id="Right" transform="translate(480.000000, 137.000000)">
                    <g id="9" transform="translate(0.000000, 200.000000)">
                        <g id="Coin/24/2px-stroked" transform="translate(0.000000, 4.000000)">
                            <g>
                                <rect id="Rectangle-2-Copy-4" x="0" y="0" width="24" height="24"></rect>
                                <circle id="Oval-3" fill-opacity="0.5" fill="#94C5FF" cx="14.5" cy="14.5" r="9.5"></circle>
                                <circle id="Oval-3-Copy" stroke="#1A32AF" stroke-width="2" cx="10.5" cy="10.5" r="9.5"></circle>
                                <path d="M13,7.34915091 C12.5816348,6.80946187 12.0640466,6.4759322 12.0640466,6.4759322 C11.1983647,5.78975492 9.8682025,5.85794576 9.07373193,6.64743375 L9.09226563,6.62901629 C8.11124443,7.60388495 8.25459286,9.01599656 9.39887836,9.77406924 L11.5943035,11.2285068 C12.7446622,11.9906029 12.8828118,13.3978222 11.9009162,14.3735598 L11.9194499,14.3551423 C11.1336266,15.1360373 9.79212631,15.2239154 8.93308421,14.5299671 C8.93308421,14.5299671 8.41650134,14.1955161 8,13.6621881" id="Path-4" stroke="#1A32AF" stroke-width="2" stroke-linecap="round" stroke-linejoin="round"></path>
                                <path d="M10.5,6 L10.5,4.5" id="Path-5" stroke="#1A32AF" stroke-width="2" stroke-linecap="round" stroke-linejoin="round"></path>
                                <path d="M10.5,16.5 L10.5,15.5" id="Path-5-Copy" stroke="#1A32AF" stroke-width="2" stroke-linecap="round" stroke-linejoin="round"></path>
                            </g>
                        </g>
                    </g>
                </g>
            </g>
        </g>
    </g>
</svg>