<?xml version="1.0" encoding="UTF-8"?>
<svg width="24px" height="18px" viewBox="0 0 24 18" version="1.1" xmlns="http://www.w3.org/2000/svg" xmlns:xlink="http://www.w3.org/1999/xlink">
    <!-- Generator: Sketch 46.2 (44496) - http://www.bohemiancoding.com/sketch -->
    <title>Computer/24/2px stroke</title>
    <desc>Created with Sketch.</desc>
    <defs></defs>
    <g id="About" stroke="none" stroke-width="1" fill="none" fill-rule="evenodd">
        <g id="About-Us-Photos-Copy" transform="translate(-800.000000, -4137.000000)">
            <g id="Perks" transform="translate(320.000000, 3993.000000)">
                <g id="Right" transform="translate(480.000000, 137.000000)">
                    <g id="6">
                        <g id="Computer/24/2px-stroke" transform="translate(0.000000, 4.000000)">
                            <g>
                                <rect id="Rectangle-2" x="0" y="0" width="24" height="24"></rect>
                                <path d="M21,16.0191714 L6,16.0191714 L6,7.99966957 C6,7.44756731 6.44463086,7 7.00087166,7 L20.9991283,7 C21.5518945,7 22,7.44483697 22,7.9955775 L22,17.0044225 C22,17.5542648 21.5464189,18 21.0019995,18 L20.9991283,18 L21,16.0191714 Z" id="Rectangle-4-Copy" fill-opacity="0.5" fill="#94C5FF"></path>
                                <polyline id="Rectangle-4" stroke="#1A32AF" stroke-width="2" stroke-linejoin="round" points="3 15 3 4 3 4 19 4 19 15"></polyline>
                                <path d="M21,19 L21,17 L23.0010434,17 C23.5527519,17 24,17.4433532 24,18.0093689 L24,19.9906311 C24,20.5480902 23.5446944,21 23.0081969,21 L4.99180311,21 C4.44404538,21 4,20.5584641 4,20.005247 L4,19.0104939 L21,19 Z" id="Combined-Shape-Copy" fill-opacity="0.5" fill="#94C5FF"></path>
                                <rect id="Combined-Shape" stroke="#1A32AF" stroke-width="2" stroke-linejoin="round" x="1" y="15" width="20" height="3"></rect>
                            </g>
                        </g>
                    </g>
                </g>
            </g>
        </g>
    </g>
</svg>