<?xml version="1.0" encoding="UTF-8"?>
<svg width="24px" height="20px" viewBox="0 0 24 20" version="1.1" xmlns="http://www.w3.org/2000/svg" xmlns:xlink="http://www.w3.org/1999/xlink">
    <!-- Generator: Sketch 46.2 (44496) - http://www.bohemiancoding.com/sketch -->
    <title>Food/24/2px stroke</title>
    <desc>Created with Sketch.</desc>
    <defs></defs>
    <g id="About" stroke="none" stroke-width="1" fill="none" fill-rule="evenodd">
        <g id="About-Us-Photos-Copy" transform="translate(-320.000000, -4336.000000)">
            <g id="Perks" transform="translate(320.000000, 3993.000000)">
                <g id="Left" transform="translate(0.000000, 137.000000)">
                    <g id="4" transform="translate(0.000000, 200.000000)">
                        <g id="Food/24/2px-stroke" transform="translate(0.000000, 4.000000)">
                            <g>
                                <rect id="Rectangle-2-Copy-4" x="0" y="0" width="24" height="24"></rect>
                                <path d="M6.04848745,14.9497378 C7.50551377,19.0889515 10.9662682,22 15.0036104,22 C19.0328517,22 22.4878169,19.1006216 23.9499387,14.9746384 C24.0625767,14.6567836 23.9552736,14.9594945 23.9552736,14.9594945 C24.1189981,14.4295803 23.7945104,14 23.2572856,14 L6.74993515,14 C6.20072253,14 5.88401127,14.4347347 6.04848745,14.9497378 C6.04848745,14.9497378 5.93939069,14.6398087 6.04848745,14.9497378 Z" id="Combined-Shape" fill="#94C5FF" opacity="0.5"></path>
                                <path d="M5.26756439,10 C5.09739429,9.70582663 5,9.36428714 5,9 C5,7.8954305 5.8954305,7 7,7 C7.60107843,7 8.14022542,7.26516004 8.50684916,7.68488833 C9.12073388,6.67474768 10.2315691,6 11.5,6 C13.4329966,6 15,7.56700338 15,9.5 C15,9.66976067 14.987914,9.83669851 14.9645556,10 L5.26756439,10 Z" id="Combined-Shape" fill="#94C5FF" opacity="0.5"></path>
                                <path d="M11,19 C16.5228475,19 21,14.5228475 21,9 L1,9 C1,14.5228475 5.4771525,19 11,19 Z" id="Oval" stroke="#1A32AF" stroke-width="2" stroke-linecap="round" stroke-linejoin="round"></path>
                                <path d="M15,9 L19,3" id="Path-3" stroke="#1A32AF" stroke-width="2" stroke-linecap="round"></path>
                                <path d="M18.6593056,9.01104163 L22,4" id="Path-3-Copy" stroke="#1A32AF" stroke-width="2" stroke-linecap="round"></path>
                                <path d="M3.26756439,9 C3.09739429,8.70582663 3,8.36428714 3,8 C3,6.8954305 3.8954305,6 5,6 C5.60107843,6 6.14022542,6.26516004 6.50684916,6.68488833 C7.12073388,5.67474768 8.23156906,5 9.5,5 C11.4329966,5 13,6.56700338 13,8.5 C13,8.66976067 12.987914,8.83669851 12.9645556,9 L3.26756439,9 Z" id="Combined-Shape-Copy" stroke="#1A32AF" stroke-width="2" stroke-linecap="round" stroke-linejoin="round"></path>
                                <path d="M20,13 L2,13" id="Path-4" stroke="#1A32AF" stroke-width="2"></path>
                            </g>
                        </g>
                    </g>
                </g>
            </g>
        </g>
    </g>
</svg>