<?xml version="1.0" encoding="UTF-8"?>
<svg width="24px" height="21px" viewBox="0 0 24 21" version="1.1" xmlns="http://www.w3.org/2000/svg" xmlns:xlink="http://www.w3.org/1999/xlink">
    <!-- Generator: Sketch 46.2 (44496) - http://www.bohemiancoding.com/sketch -->
    <title>Heart/24/2px stroke</title>
    <desc>Created with Sketch.</desc>
    <defs></defs>
    <g id="Symbols" stroke="none" stroke-width="1" fill="none" fill-rule="evenodd">
        <g id="Heart/24/2px-stroke" transform="translate(0.000000, -2.000000)">
            <g>
                <rect id="Rectangle-4" x="0" y="0" width="24" height="24"></rect>
                <path d="M14.997657,22.9999752 L7.12947593,14.5982304 C5.622263,12.988809 5.6263772,10.3750283 7.13383403,8.76534651 L7.33763981,8.54772007 C9.22707475,6.53015717 12.2891019,6.52871333 14.1803559,8.54821861 L14.997657,9.42094326 L15.8149581,8.54821861 C17.7046509,6.53038038 20.7676216,6.5294976 22.6576742,8.54772007 L22.86148,8.76534651 C24.3710999,10.377338 24.3688989,12.9932428 22.8658381,14.5982304 L14.997657,22.9999752 Z" id="Path-2" fill-opacity="0.5" fill="#94C5FF"></path>
                <path d="M9.99765702,18.9999752 L2.12947593,10.5982304 C0.622262997,8.98880903 0.626377196,6.37502828 2.13383403,4.76534651 L2.33763981,4.54772007 C4.22707475,2.53015717 7.28910192,2.52871333 9.18035588,4.54821861 L9.99765702,5.42094326 L10.8149581,4.54821861 C12.7046509,2.53038038 15.7676216,2.5294976 17.6576742,4.54772007 L17.86148,4.76534651 C19.3710999,6.37733798 19.3688989,8.99324277 17.8658381,10.5982304 L9.99765702,18.9999752 Z" id="Path-2-Copy" stroke="#1A32AF" stroke-width="2" stroke-linecap="round" stroke-linejoin="round"></path>
            </g>
        </g>
    </g>
</svg>