<?xml version="1.0" encoding="UTF-8"?>
<svg width="24px" height="24px" viewBox="0 0 24 24" version="1.1" xmlns="http://www.w3.org/2000/svg" xmlns:xlink="http://www.w3.org/1999/xlink">
    <!-- Generator: Sketch 46.2 (44496) - http://www.bohemiancoding.com/sketch -->
    <title>Pie Chart/24/2px stroked</title>
    <desc>Created with Sketch.</desc>
    <defs></defs>
    <g id="About" stroke="none" stroke-width="1" fill="none" fill-rule="evenodd">
        <g id="About-Us-Photos-Copy" transform="translate(-320.000000, -4134.000000)">
            <g id="Perks" transform="translate(320.000000, 3993.000000)">
                <g id="Left" transform="translate(0.000000, 137.000000)">
                    <g id="1">
                        <g id="Pie-Chart/24/2px-stroked" transform="translate(0.000000, 4.000000)">
                            <g id="Pie-Chart/24/2px-stroked-Copy">
                                <rect id="Rectangle-2" x="0" y="0" width="24" height="24"></rect>
                                <path d="M14,24 C19.5228475,24 24,19.5228475 24,14 C24,8.4771525 19.5228475,4 14,4 C12.6691412,4 11.399004,4.25997988 10.2376042,4.7319237 C8.82167006,5.30729957 10.2376042,10.2489251 10.2376042,10.2489251 C10.2376042,10.2489251 5.16680454,9.16360703 4.72733148,10.2489251 C4.25829368,11.407256 4,12.6734641 4,14 C4,19.5228475 8.4771525,24 14,24 Z" id="Oval" fill="#94C5FF" opacity="0.5"></path>
                                <circle id="Oval-Copy" stroke="#1A32AF" stroke-width="2" cx="10" cy="10" r="9"></circle>
                                <polyline id="Path-2" stroke="#1A32AF" stroke-width="2" stroke-linecap="round" stroke-linejoin="round" points="10 1 10 10 1 10"></polyline>
                            </g>
                        </g>
                    </g>
                </g>
            </g>
        </g>
    </g>
</svg>