<?xml version="1.0" encoding="UTF-8"?>
<svg width="24px" height="18px" viewBox="0 0 24 18" version="1.1" xmlns="http://www.w3.org/2000/svg" xmlns:xlink="http://www.w3.org/1999/xlink">
    <!-- Generator: Sketch 46.2 (44496) - http://www.bohemiancoding.com/sketch -->
    <title>Plane/24/2px stroke</title>
    <desc>Created with Sketch.</desc>
    <defs></defs>
    <g id="About" stroke="none" stroke-width="1" fill="none" fill-rule="evenodd">
        <g id="About-Us-Photos-Copy" transform="translate(-320.000000, -4392.000000)">
            <g id="Perks" transform="translate(320.000000, 3993.000000)">
                <g id="Left" transform="translate(0.000000, 137.000000)">
                    <g id="5" transform="translate(0.000000, 256.000000)">
                        <g id="Plane/24/2px-stroke" transform="translate(0.000000, 4.000000)">
                            <g>
                                <rect id="Rectangle-2-Copy-5" x="0" y="0" width="24" height="24"></rect>
                                <path d="M1,19 L18,19" id="Path-2" stroke="#1A32AF" stroke-width="2" stroke-linecap="round"></path>
                                <path d="M5.37175634,12.108335 L6.31144896,11.7663148 C6.31144896,11.7663148 10.0066216,13.6139153 10.4014851,13.4701968 C14.2374008,12.0740376 21.9092323,9.28171929 21.9092323,9.28171929 C22.6841163,8.99968457 23.54,9.39669501 23.8253142,10.1805892 C24.1086529,10.959056 23.7121143,11.8180572 22.9206897,12.1061122 L10.2430548,16.720394 C9.20504393,17.098199 7.92211744,16.6230075 7.38393819,15.6703177 L5.37175634,12.108335 Z" id="Rectangle-4" fill-opacity="0.5" fill="#94C5FF"></path>
                                <polygon id="Rectangle-5" fill-opacity="0.5" fill="#94C5FF" transform="translate(12.956816, 5.919451) rotate(-20.000000) translate(-12.956816, -5.919451) " points="10.4568161 1.919451 12.7068161 2.919451 15.4568161 9.919451 11.4568161 9.919451"></polygon>
                                <path d="M1.85505036,6.84923155 L2.85505036,6.84923155 L4.85505036,9.84923155 L18.361954,9.84923155 C19.1865684,9.84923155 19.8550504,10.5150288 19.8550504,11.3492316 L19.8550504,11.3492316 C19.8550504,12.1776587 19.1886302,12.8492316 18.3464138,12.8492316 L4.85515654,12.8492316 C3.7505284,12.8492316 2.70749691,11.9639109 2.52761296,10.8846071 L1.85505036,6.84923155 Z" id="Rectangle-4-Copy" stroke="#1A32AF" stroke-width="2" stroke-linecap="round" stroke-linejoin="round" transform="translate(10.855050, 9.849232) rotate(-20.000000) translate(-10.855050, -9.849232) "></path>
                                <polygon id="Rectangle-5-Copy" stroke="#1A32AF" stroke-width="2" stroke-linecap="round" stroke-linejoin="round" transform="translate(9.956816, 5.919451) rotate(-20.000000) translate(-9.956816, -5.919451) " points="7.4568161 1.919451 9.7068161 2.919451 12.4568161 9.919451 8.4568161 9.919451"></polygon>
                            </g>
                        </g>
                    </g>
                </g>
            </g>
        </g>
    </g>
</svg>