<?xml version="1.0" encoding="UTF-8"?>
<svg width="23px" height="23px" viewBox="0 0 23 23" version="1.1" xmlns="http://www.w3.org/2000/svg" xmlns:xlink="http://www.w3.org/1999/xlink">
    <!-- Generator: Sketch 46.2 (44496) - http://www.bohemiancoding.com/sketch -->
    <title>Umbrella/24/2px stroked</title>
    <desc>Created with Sketch.</desc>
    <defs></defs>
    <g id="About" stroke="none" stroke-width="1" fill="none" fill-rule="evenodd">
        <g id="About-Us-Photos-Copy" transform="translate(-800.000000, -4247.000000)">
            <g id="Perks" transform="translate(320.000000, 3993.000000)">
                <g id="Right" transform="translate(480.000000, 137.000000)">
                    <g id="8" transform="translate(0.000000, 112.000000)">
                        <g id="Umbrella/24/2px-stroked" transform="translate(0.000000, 4.000000)">
                            <g>
                                <rect id="Rectangle-2-Copy-3" x="0" y="0" width="24" height="24"></rect>
                                <path d="M21.9814753,15 L22,15 C22,10.0294373 17.9705627,6 13,6 C8.02943725,6 4,10.0294373 4,15 L4.01852466,15 C4.75095206,14.3862506 5.81533358,14 7,14 C8.18466642,14 9.24904794,14.3862506 9.98147534,15 L10.0185247,15 C10.7509521,14.3862506 11.8153336,14 13,14 C14.1846664,14 15.2490479,14.3862506 15.9814753,15 L16.0185247,15 C16.7509521,14.3862506 17.8153336,14 19,14 C20.1846664,14 21.2490479,14.3862506 21.9814753,15 Z" id="Combined-Shape" stroke="#94C5FF" stroke-width="2" fill="#94C5FF" opacity="0.5" stroke-linecap="round" stroke-linejoin="round"></path>
                                <path d="M18.9814753,12 L19,12 C19,7.02943725 14.9705627,3 10,3 C5.02943725,3 1,7.02943725 1,12 L1.01852466,12 C1.75095206,11.3862506 2.81533358,11 4,11 C5.18466642,11 6.24904794,11.3862506 6.98147534,12 L7.01852466,12 C7.75095206,11.3862506 8.81533358,11 10,11 C11.1846664,11 12.2490479,11.3862506 12.9814753,12 L13.0185247,12 C13.7509521,11.3862506 14.8153336,11 16,11 C17.1846664,11 18.2490479,11.3862506 18.9814753,12 Z" id="Combined-Shape-Copy" stroke="#1A32AF" stroke-width="2" stroke-linecap="round" stroke-linejoin="round"></path>
                                <path d="M10,3 L10,2" id="Path-3" stroke="#1A32AF" stroke-width="2" stroke-linecap="round" stroke-linejoin="round"></path>
                                <path d="M10,11 L10,23" id="Path-2" stroke="#1A32AF" stroke-width="2" stroke-linecap="round" stroke-linejoin="round"></path>
                            </g>
                        </g>
                    </g>
                </g>
            </g>
        </g>
    </g>
</svg>