<?xml version="1.0" encoding="UTF-8"?>
<svg width="23px" height="16px" viewBox="0 0 23 16" version="1.1" xmlns="http://www.w3.org/2000/svg" xmlns:xlink="http://www.w3.org/1999/xlink">
    <!-- Generator: Sketch 46.2 (44496) - http://www.bohemiancoding.com/sketch -->
    <title>Weight/24/2px stroke Copy</title>
    <desc>Created with Sketch.</desc>
    <defs></defs>
    <g id="About" stroke="none" stroke-width="1" fill="none" fill-rule="evenodd">
        <g id="About-Us-Photos-Copy" transform="translate(-800.000000, -4194.000000)">
            <g id="Perks" transform="translate(320.000000, 3993.000000)">
                <g id="Right" transform="translate(480.000000, 137.000000)">
                    <g id="7" transform="translate(0.000000, 56.000000)">
                        <g id="Weight/24/2px-stroke" transform="translate(0.000000, 4.000000)">
                            <g>
                                <rect id="Rectangle-2-Copy-3" x="0" y="0" width="24" height="24"></rect>
                                <path d="M4,10.0085302 C4,8.8992496 4.90009892,8 6.00104344,8 L7,8 L7,12 L17,12 L17,10 C17,8.8954305 17.8982606,8 18.9979131,8 L21.0020869,8 C22.1055038,8 23,8.90195036 23,10.0085302 L23,17.9914698 C23,19.1007504 22.1017394,20 21.0020869,20 L18.9979131,20 C17.8944962,20 17,19.1122704 17,18 L17,16 L10,16 L10,18 C10,19.1045695 9.10173938,20 8.00208688,20 L5.99791312,20 C4.89449617,20 4,19.0980496 4,17.9914698 L4,10.0085302 Z" id="Path-3" fill-opacity="0.5" fill="#94C5FF"></path>
                                <rect id="Rectangle-5" stroke="#1A32AF" stroke-width="2" stroke-linejoin="round" x="1" y="5" width="6" height="12" rx="2"></rect>
                                <rect id="Rectangle-5-Copy" stroke="#1A32AF" stroke-width="2" stroke-linejoin="round" x="14" y="5" width="6" height="12" rx="2"></rect>
                                <rect id="Rectangle-6" stroke="#1A32AF" stroke-width="2" x="7" y="9" width="7" height="4"></rect>
                            </g>
                        </g>
                    </g>
                </g>
            </g>
        </g>
    </g>
</svg>